<svg width="257" height="107" viewBox="0 0 257 107" fill="none" xmlns="http://www.w3.org/2000/svg">
<path opacity="0.7" d="M113.611 90.2441C114.291 90.2441 114.811 90.5041 115.171 91.4241L119.671 103.024C119.971 103.784 119.611 104.404 118.951 104.604C118.291 104.804 117.551 104.744 117.251 103.884L116.091 100.684H111.051L109.871 103.964C109.591 104.744 108.911 104.824 108.271 104.604C107.631 104.384 107.291 103.864 107.571 103.124L112.071 91.4241C112.411 90.5041 112.951 90.2441 113.611 90.2441ZM113.571 93.4441C113.351 94.2441 113.191 94.7441 112.871 95.6641L111.811 98.5641H115.331L114.291 95.6641C113.951 94.7241 113.771 94.1441 113.571 93.4441ZM126.202 95.8841C124.622 95.8841 123.862 96.9641 123.862 99.0441V99.4441C123.862 101.584 124.542 102.604 126.102 102.604C127.762 102.604 128.722 101.404 128.722 99.9041V98.0641C128.722 97.0441 127.942 95.8841 126.202 95.8841ZM129.942 89.7441C130.602 89.7441 131.202 90.0841 131.202 90.8041V103.684C131.202 104.384 130.622 104.704 130.002 104.704C129.402 104.704 128.822 104.384 128.822 103.684V103.284H128.762C128.182 104.344 126.922 104.744 125.602 104.744C122.822 104.744 121.362 102.924 121.362 99.5041V98.9841C121.362 95.5041 123.122 93.7241 125.782 93.7241C127.522 93.7241 128.362 94.4241 128.682 94.9041V90.8041C128.682 90.0841 129.302 89.7441 129.942 89.7441ZM139.648 93.7241C141.008 93.7241 142.188 94.4041 142.588 95.4041C143.368 94.3041 144.348 93.7241 146.008 93.7241C148.048 93.7241 149.808 95.1241 149.808 97.8841V103.644C149.808 104.364 149.208 104.704 148.548 104.704C147.908 104.704 147.288 104.364 147.288 103.644V98.4041C147.288 96.4241 146.348 95.9641 145.288 95.9641C144.308 95.9641 143.268 96.4841 143.268 98.3241V103.644C143.268 104.364 142.668 104.704 142.008 104.704C141.368 104.704 140.748 104.364 140.748 103.644V98.3641C140.748 96.5041 139.868 95.9641 138.748 95.9641C137.568 95.9641 136.728 96.7041 136.728 98.2241V103.644C136.728 104.364 136.128 104.704 135.468 104.704C134.828 104.704 134.208 104.364 134.208 103.644V94.8641C134.208 94.1641 134.788 93.8441 135.388 93.8441C136.008 93.8441 136.588 94.1641 136.588 94.8641V95.4241C137.168 94.3441 138.248 93.7241 139.648 93.7241ZM154.024 93.8441C154.684 93.8441 155.284 94.1841 155.284 94.9041V103.644C155.284 104.364 154.684 104.704 154.024 104.704C153.384 104.704 152.764 104.364 152.764 103.644V94.9041C152.764 94.1841 153.384 93.8441 154.024 93.8441ZM154.024 89.7041C154.904 89.7041 155.604 90.3841 155.604 91.2241C155.604 92.0641 154.904 92.7441 154.024 92.7441C153.144 92.7441 152.444 92.0641 152.444 91.2241C152.444 90.3841 153.144 89.7041 154.024 89.7041ZM164.029 93.7241C166.349 93.7241 167.869 95.1241 167.869 97.8041V103.644C167.869 104.364 167.269 104.704 166.609 104.704C165.969 104.704 165.349 104.364 165.349 103.644V98.3441C165.349 96.4241 164.449 95.9241 163.249 95.9241C162.229 95.9241 160.869 96.5241 160.869 98.5041V103.644C160.869 104.364 160.269 104.704 159.609 104.704C158.969 104.704 158.349 104.364 158.349 103.644V94.8641C158.349 94.1641 158.929 93.8441 159.549 93.8441C160.169 93.8441 160.749 94.1641 160.749 94.8641V95.2241H160.789C161.409 94.1841 162.809 93.7241 164.029 93.7241Z" fill="#60626E"/>
<g opacity="0.8" filter="url(#filter0_g_521_2779)" style="mix-blend-mode:soft-light">
<path d="M73.119 89.1957C73.119 89.1957 59.3846 76.6951 52.7347 80.0003C44.6704 84.0224 43.7373 96.7895 43.7373 96.7895C43.7373 96.7895 40.6095 81.4029 35.209 79.0017C29.8107 76.6097 13.189 81.0973 13.189 81.0973C13.189 81.0973 27.0676 69.1692 26.3245 60.879C25.5058 51.7542 9.32693 41.2997 9.32693 41.2997C9.32693 41.2997 27.1534 44.4605 31.6264 38.136C36.1017 31.8207 35.1414 18.3674 35.1414 18.3674C35.1414 18.3674 42.1153 34.1217 52.1614 33.6468C62.2074 33.1719 69.7361 23.8877 69.7361 23.8877C69.7361 23.8877 58.9804 38.0068 64.0022 48.0791C67.7754 55.6414 86.0182 56.5635 86.0182 56.5635C86.0182 56.5635 66.0715 60.1251 63.9313 66.7249C62.2012 72.068 73.1005 89.2002 73.1005 89.2002L73.119 89.1957Z" fill="#FFF5ED"/>
</g>
<g opacity="0.8" filter="url(#filter1_g_521_2779)" style="mix-blend-mode:soft-light">
<path d="M209.035 24.8572C209.035 24.8572 215.292 26.2043 216.701 24.0681C218.408 21.4734 216.476 17.5075 216.476 17.5075C216.476 17.5075 220.072 21.5509 222.097 21.3314C224.119 21.1096 228.295 16.8947 228.295 16.8947C228.295 16.8947 226.225 22.8518 227.881 25.1935C229.705 27.7707 236.336 28.0849 236.336 28.0849C236.336 28.0849 230.477 30.2293 230.239 32.8883C229.999 35.5449 232.614 39.3875 232.614 39.3875C232.614 39.3875 227.809 35.9004 224.897 37.7812C221.986 39.662 221.35 43.732 221.35 43.732C221.35 43.732 222.111 37.6626 218.87 35.5307C216.437 33.9305 210.841 36.8141 210.841 36.8141C210.841 36.8141 216.168 32.2995 215.663 29.9623C215.254 28.0707 209.04 24.8526 209.04 24.8526L209.035 24.8572Z" fill="#FFF5ED"/>
</g>
<g filter="url(#filter2_g_521_2779)">
<path d="M222.229 82.8475C220.332 79.6517 222.229 76.0232 226.557 76.4559C228.388 76.689 230.951 77.7209 231.883 74.7915C232.449 73.0937 231.717 72.3613 230.385 73.5265C228.82 74.9912 225.858 75.0245 224.06 74.3254C217.835 71.9286 217.435 62.6408 222.429 58.2466C225.292 55.7499 229.42 55.5169 230.951 57.2812C231.55 58.0136 232.249 58.0469 232.748 57.1814C233.181 56.5156 233.98 56.0828 235.745 56.0828C239.173 56.0828 241.504 59.7779 240.006 64.3386C239.473 65.9365 239.573 68.3 239.939 70.83C240.738 76.2895 239.24 82.7143 231.25 84.0126C227.788 84.5452 224.027 85.777 222.229 82.8475ZM227.356 66.9019C227.988 68.2002 229.719 68.2334 230.518 67.2681C231.517 66.0696 231.217 64.3719 229.985 63.8725C228.254 63.1402 226.756 65.6702 227.356 66.9019Z" fill="white"/>
</g>
<g filter="url(#filter3_g_521_2779)">
<path d="M213.507 76.6223C211.21 76.6223 209.579 75.3573 209.945 72.794C210.91 66.5023 209.712 65.0376 207.848 65.0376C206.083 65.0376 204.952 67.0682 205.284 72.4278C205.418 74.9578 203.786 76.6889 201.223 76.6889C198.26 76.6889 196.429 74.7248 197.328 71.7288C198.094 69.232 198.394 66.6688 197.828 64.4051C197.162 61.9084 197.328 59.1121 198.427 57.5475C200.258 54.851 204.352 55.65 205.384 58.2133C205.751 59.1121 206.117 59.1121 206.649 58.646C207.515 57.8804 209.812 56.4822 212.275 56.7152C218.201 57.2146 217.901 60.943 217.302 65.5369C217.069 67.3013 218.267 69.232 218.167 71.296C218.001 75.2574 216.503 76.6223 213.507 76.6223Z" fill="white"/>
</g>
<g filter="url(#filter4_g_521_2779)">
<path d="M191.672 76.7222C188.31 76.6889 185.513 75.1576 186.445 70.7634C187.211 67.268 187.644 65.1375 186.778 62.4743C185.913 59.7779 187.278 56.5488 191.006 56.6154C194.701 56.6487 195.866 59.212 195.4 62.0415C194.801 65.6701 195.001 67.3013 195.533 71.296C195.8 73.593 195.067 76.7555 191.672 76.7222ZM193.902 54.5847C192.205 55.65 189.109 55.2172 187.045 53.6193C185.081 52.088 185.58 48.06 188.077 46.7617C190.773 45.3303 193.902 46.6619 194.868 47.7937C196.432 49.6579 196.432 52.9868 193.902 54.5847Z" fill="white"/>
</g>
<g filter="url(#filter5_g_521_2779)">
<path d="M168.138 47.4608C172.067 47.4608 173.099 50.124 172.533 53.6194C172.3 55.184 172.2 57.7472 172.266 58.8458C172.3 59.6114 172.632 59.9776 173.265 60.0442C174.563 60.1774 175.196 59.5449 175.562 58.2799C176.794 53.7525 180.689 54.385 182.553 55.5834C184.45 56.8151 184.95 58.9456 183.718 61.176C182.886 62.6075 181.454 63.6727 180.056 64.1721C179.257 64.4717 179.19 65.1375 179.457 65.9697C179.923 67.3679 180.356 68.4664 182.087 68.7993C184.517 69.2986 185.116 70.9631 184.983 72.9938C184.85 74.8913 183.585 76.5224 180.888 76.5557C176.294 76.589 173.964 72.561 173.565 67.6009C173.498 66.7687 172.3 66.4358 172.433 67.8339C172.632 70.1975 172.699 72.1948 172.266 73.7261C171.634 75.9565 170.236 77.0218 167.772 76.8553C164.277 76.6223 163.378 74.2588 163.711 71.3626C163.911 69.4651 164.343 68.533 164.676 66.1029C165.142 62.7739 165.375 60.2772 164.343 55.8164C163.012 49.9908 165.042 47.4608 168.138 47.4608Z" fill="white"/>
</g>
<g filter="url(#filter6_g_521_2779)">
<path d="M157.219 65.4371C155.122 64.9378 153.89 65.8033 154.323 67.5676C154.656 69.0323 155.056 70.1975 155.455 71.529C156.254 74.2255 154.09 76.6889 151.261 76.7555C148.364 76.8221 146.5 75.0244 146.866 72.0284C147.133 69.4984 146.933 66.9351 146.3 64.7713C145.102 60.6767 145.202 57.1813 148.93 56.1826C151.394 55.5501 153.058 57.0149 153.924 58.0801C154.523 58.7459 155.355 58.6128 155.888 58.1467C156.687 57.4144 158.018 56.8484 159.749 57.0482C163.411 57.5142 164.11 61.7087 162.879 63.6395C161.414 65.9031 159.583 66.0363 157.219 65.4371Z" fill="white"/>
</g>
<g filter="url(#filter7_g_521_2779)">
<path d="M131.811 76.7222C125.619 75.8234 124.154 69.2321 125.386 62.774C126.118 59.0123 129.614 56.2493 133.442 56.2493C135.672 56.2493 137.769 56.5489 139.334 57.481C142.996 59.6115 144.494 61.4091 144.494 65.8033C144.494 75.3574 139.933 77.9872 131.811 76.7222ZM134.241 70.1642C136.072 70.4971 137.17 69.4319 137.17 66.6023C137.17 64.3386 136.405 63.1402 134.873 63.1402C133.375 63.1402 132.177 64.3053 132.177 66.9352C132.177 68.5996 132.676 69.8979 134.241 70.1642Z" fill="white"/>
</g>
<g filter="url(#filter8_g_521_2779)">
<path d="M99.3647 56.2825C102.128 55.883 103.959 56.915 104.192 59.5449C104.391 62.6741 104.724 64.0389 104.824 65.4704C104.891 66.9351 106.222 66.5356 106.589 65.5037C107.021 64.0389 106.855 63.007 106.655 61.0096C106.455 58.9124 107.72 57.0482 110.583 57.0482C113.479 57.0482 114.678 58.9789 114.478 61.0096C114.245 63.007 114.079 64.0389 114.545 65.5037C114.878 66.5356 115.843 66.6022 115.91 65.1375C116.009 63.706 115.843 61.3425 117.141 58.6461C118.207 56.2492 120.737 56.0162 122.601 56.8484C124.565 57.7139 125.131 60.7433 123.999 62.7406C122.567 65.4704 121.835 68.6329 121.169 71.4957C120.504 74.3253 119.405 76.5224 116.342 76.7222C113.746 76.9219 111.915 75.3906 111.349 73.2601C111.049 72.2281 110.051 72.2281 109.784 73.2601C109.185 75.3906 107.387 76.9219 104.758 76.7222C101.728 76.5224 100.929 74.2255 99.9307 71.4957C98.932 68.6329 97.1344 64.3052 96.7682 61.4756C96.402 58.2466 97.2009 56.5821 99.3647 56.2825Z" fill="white"/>
</g>
<g filter="url(#filter9_g_521_2779)">
<path d="M82.5206 55.7831C83.6192 56.116 84.0187 55.9163 83.9521 54.8843C83.9188 54.1187 84.6512 51.5221 87.7804 51.5221C90.7098 51.5221 92.0414 53.7192 91.5421 55.4835C91.2425 56.5488 91.4755 56.6819 92.341 56.5155C94.1386 56.2492 96.6686 57.4809 96.0361 61.1094C95.4036 64.5715 92.1746 63.9723 90.843 64.1721C90.3436 64.2386 89.8776 64.8378 89.8776 65.6368C89.8776 68.5995 90.2438 69.2986 91.5088 69.2986C93.7392 69.2986 95.4036 70.5636 94.8044 73.5264C94.2385 76.356 91.5754 76.9219 89.1785 76.8886C84.1185 76.7887 80.1904 74.2255 81.9547 66.2693C82.4208 64.0722 82.7537 63.3731 81.6218 63.2732C79.7243 63.0735 78.7257 62.208 78.5259 59.7446C78.2929 56.9816 79.458 54.8843 82.5206 55.7831Z" fill="white"/>
</g>
<g filter="url(#filter10_g_521_2779)">
<path d="M64.6524 75.4572C62.189 73.9592 60.7242 71.4625 60.3913 67.6009C59.9919 62.0749 62.422 56.2493 69.3795 55.8831C75.1718 55.5169 78.3343 59.2453 78.301 63.24C78.2677 66.8353 73.9068 68.9991 69.1131 67.7341C68.2143 67.4678 67.9813 68.1003 68.1145 68.7993C68.4141 70.6636 70.4114 70.7301 72.3755 69.6316C74.5393 68.3333 76.6365 68.6329 77.4355 70.9299C78.1013 72.8274 76.7364 75.3241 74.9055 76.0564C72.1092 77.1217 67.1491 77.0218 64.6524 75.4572ZM69.9787 63.7061C71.0439 63.7061 71.743 63.1069 71.3768 62.1748C70.8442 60.9098 69.0799 61.3758 68.7137 62.3079C68.3475 63.3066 68.6471 63.7061 69.9787 63.7061Z" fill="white"/>
</g>
<g filter="url(#filter11_g_521_2779)">
<path d="M39.5974 47.7938C42.8597 47.6273 44.6906 48.393 46.1221 51.0228C47.487 53.5861 48.2859 56.0495 48.7519 58.6461C49.2846 61.6089 50.483 62.9071 51.1821 61.7753C51.6481 61.0429 51.7147 57.8804 51.1821 53.8191C50.716 50.1573 51.7813 47.8936 55.2767 47.8603C59.9372 47.7938 59.5044 52.6873 58.9052 54.7845C57.4405 59.7446 57.3739 63.6395 58.1395 68.4332C58.9385 73.5597 57.2074 75.5571 54.0117 76.2562C51.1155 76.8887 49.0515 75.2575 47.9197 73.3933C46.3884 70.8966 44.7572 65.9032 44.1247 63.1735C43.925 62.3079 43.3591 62.0749 42.6933 62.5077C41.861 63.0403 42.1274 64.6049 42.3271 66.1029C42.6267 68.2334 43.1593 69.7315 43.3591 72.2947C43.5588 74.858 41.9942 76.8554 38.7318 76.7888C35.4695 76.7222 34.5374 73.3267 35.4362 70.7301C36.5347 67.5677 36.7678 61.3425 35.7358 54.5848C35.1366 50.6234 36.3017 47.9602 39.5974 47.7938Z" fill="white"/>
</g>
<g filter="url(#filter12_g_521_2779)">
<path d="M184.56 41.8932C176.82 40.7697 174.989 32.5306 176.529 24.4579C177.444 19.7558 181.814 16.302 186.599 16.302C189.387 16.302 192.008 16.6765 193.964 17.8416C198.541 20.5048 200.414 22.7518 200.414 28.2446C200.414 40.1871 194.713 43.4745 184.56 41.8932ZM187.598 33.6957C189.886 34.1118 191.259 32.7802 191.259 29.2432C191.259 26.4136 190.302 24.9156 188.388 24.9156C186.516 24.9156 185.018 26.372 185.018 29.6594C185.018 31.74 185.642 33.3628 187.598 33.6957Z" fill="#4FC399"/>
<path d="M184.56 41.8932C176.82 40.7697 174.989 32.5306 176.529 24.4579C177.444 19.7558 181.814 16.302 186.599 16.302C189.387 16.302 192.008 16.6765 193.964 17.8416C198.541 20.5048 200.414 22.7518 200.414 28.2446C200.414 40.1871 194.713 43.4745 184.56 41.8932ZM187.598 33.6957C189.886 34.1118 191.259 32.7802 191.259 29.2432C191.259 26.4136 190.302 24.9156 188.388 24.9156C186.516 24.9156 185.018 26.372 185.018 29.6594C185.018 31.74 185.642 33.3628 187.598 33.6957Z" fill="url(#paint0_linear_521_2779)" fill-opacity="0.2"/>
</g>
<g filter="url(#filter13_g_521_2779)">
<path d="M151.941 49.5498C149.569 45.555 151.941 41.0194 157.35 41.5603C159.639 41.8516 162.843 43.1416 164.008 39.4797C164.716 37.3575 163.8 36.4421 162.136 37.8985C160.18 39.7294 156.477 39.771 154.229 38.8972C146.448 35.9011 145.949 24.2914 152.191 18.7987C155.769 15.6778 160.929 15.3865 162.843 17.592C163.592 18.5074 164.466 18.549 165.09 17.4671C165.631 16.6349 166.63 16.0939 168.835 16.0939C173.121 16.0939 176.034 20.7128 174.162 26.4136C173.496 28.411 173.621 31.3654 174.078 34.5279C175.077 41.3522 173.204 49.3833 163.218 51.0062C158.89 51.672 154.188 53.2116 151.941 49.5498ZM158.349 29.6177C159.14 31.2406 161.303 31.2822 162.302 30.0755C163.551 28.5774 163.176 26.4553 161.636 25.8311C159.473 24.9156 157.6 28.0781 158.349 29.6177Z" fill="#4FC399"/>
<path d="M151.941 49.5498C149.569 45.555 151.941 41.0194 157.35 41.5603C159.639 41.8516 162.843 43.1416 164.008 39.4797C164.716 37.3575 163.8 36.4421 162.136 37.8985C160.18 39.7294 156.477 39.771 154.229 38.8972C146.448 35.9011 145.949 24.2914 152.191 18.7987C155.769 15.6778 160.929 15.3865 162.843 17.592C163.592 18.5074 164.466 18.549 165.09 17.4671C165.631 16.6349 166.63 16.0939 168.835 16.0939C173.121 16.0939 176.034 20.7128 174.162 26.4136C173.496 28.411 173.621 31.3654 174.078 34.5279C175.077 41.3522 173.204 49.3833 163.218 51.0062C158.89 51.672 154.188 53.2116 151.941 49.5498ZM158.349 29.6177C159.14 31.2406 161.303 31.2822 162.302 30.0755C163.551 28.5774 163.176 26.4553 161.636 25.8311C159.473 24.9156 157.6 28.0781 158.349 29.6177Z" fill="url(#paint1_linear_521_2779)" fill-opacity="0.2"/>
</g>
<g filter="url(#filter14_g_521_2779)">
<path d="M141.039 41.7684C138.167 41.7684 136.129 40.1871 136.586 36.983C137.793 29.1184 136.295 27.2875 133.965 27.2875C131.759 27.2875 130.344 29.8258 130.761 36.5253C130.927 39.6878 128.888 41.8516 125.684 41.8516C121.981 41.8516 119.692 39.3965 120.815 35.6514C121.772 32.5306 122.147 29.3265 121.44 26.4969C120.607 23.376 120.815 19.8806 122.189 17.9248C124.477 14.5543 129.595 15.553 130.885 18.7571C131.343 19.8806 131.801 19.8806 132.467 19.298C133.549 18.341 136.42 16.5933 139.499 16.8845C146.906 17.5087 146.531 22.1692 145.782 27.9117C145.491 30.1171 146.989 32.5306 146.864 35.1105C146.656 40.0623 144.784 41.7684 141.039 41.7684Z" fill="#4FC399"/>
<path d="M141.039 41.7684C138.167 41.7684 136.129 40.1871 136.586 36.983C137.793 29.1184 136.295 27.2875 133.965 27.2875C131.759 27.2875 130.344 29.8258 130.761 36.5253C130.927 39.6878 128.888 41.8516 125.684 41.8516C121.981 41.8516 119.692 39.3965 120.815 35.6514C121.772 32.5306 122.147 29.3265 121.44 26.4969C120.607 23.376 120.815 19.8806 122.189 17.9248C124.477 14.5543 129.595 15.553 130.885 18.7571C131.343 19.8806 131.801 19.8806 132.467 19.298C133.549 18.341 136.42 16.5933 139.499 16.8845C146.906 17.5087 146.531 22.1692 145.782 27.9117C145.491 30.1171 146.989 32.5306 146.864 35.1105C146.656 40.0623 144.784 41.7684 141.039 41.7684Z" fill="url(#paint2_linear_521_2779)" fill-opacity="0.2"/>
</g>
<g filter="url(#filter15_g_521_2779)">
<path d="M113.744 41.8932C109.542 41.8515 106.046 39.9374 107.211 34.4447C108.168 30.0754 108.709 27.4123 107.627 24.0833C106.546 20.7128 108.252 16.6765 112.912 16.7597C117.531 16.8013 118.987 20.0054 118.405 23.5424C117.656 28.0781 117.906 30.117 118.571 35.1104C118.904 37.9817 117.989 41.9348 113.744 41.8932ZM116.532 14.2214C114.41 15.5529 110.54 15.012 107.96 13.0146C105.505 11.1005 106.129 6.06546 109.25 4.4426C112.621 2.6533 116.532 4.31777 117.739 5.73257C119.695 8.06282 119.695 12.224 116.532 14.2214Z" fill="#4FC399"/>
<path d="M113.744 41.8932C109.542 41.8515 106.046 39.9374 107.211 34.4447C108.168 30.0754 108.709 27.4123 107.627 24.0833C106.546 20.7128 108.252 16.6765 112.912 16.7597C117.531 16.8013 118.987 20.0054 118.405 23.5424C117.656 28.0781 117.906 30.117 118.571 35.1104C118.904 37.9817 117.989 41.9348 113.744 41.8932ZM116.532 14.2214C114.41 15.5529 110.54 15.012 107.96 13.0146C105.505 11.1005 106.129 6.06546 109.25 4.4426C112.621 2.6533 116.532 4.31777 117.739 5.73257C119.695 8.06282 119.695 12.224 116.532 14.2214Z" fill="url(#paint3_linear_521_2779)" fill-opacity="0.2"/>
</g>
<g filter="url(#filter16_g_521_2779)">
<path d="M95.437 41.6852C93.5229 41.9764 90.9014 41.7684 88.2798 41.3523C85.9496 40.9778 83.869 41.0194 81.9548 41.3939C77.4192 42.2677 74.1735 38.8972 75.6715 33.446C77.5024 26.7049 77.8769 18.7571 76.5037 13.5972C75.2554 8.97834 78.1682 4.60911 83.4529 5.89907C86.9899 6.77292 89.3201 6.60647 92.0249 6.0239C97.1847 4.90039 102.345 8.43739 102.345 13.8885C102.345 18.2161 100.472 20.1719 97.0183 21.129C96.1028 21.3786 96.2277 22.4605 97.3512 22.3773C101.72 22.0444 106.506 25.9975 105.091 33.1964C103.759 39.9375 101.179 40.8113 95.437 41.6852ZM91.3591 32.5722C94.3551 32.1561 95.437 31.0742 95.437 29.3265C95.437 26.913 92.5658 25.8311 89.3201 25.8311C87.1979 25.8311 86.4905 26.6633 86.3241 28.0781C85.6999 32.0728 87.1563 33.1131 91.3591 32.5722ZM89.5698 17.8C92.5242 16.6349 91.9 14.1798 88.9872 13.7221C87.2811 13.2643 86.9066 13.8885 86.7402 14.9704C86.6154 15.761 86.6986 16.5101 86.7818 17.051C86.9483 18.1329 88.1966 18.341 89.5698 17.8Z" fill="#4FC399"/>
<path d="M95.437 41.6852C93.5229 41.9764 90.9014 41.7684 88.2798 41.3523C85.9496 40.9778 83.869 41.0194 81.9548 41.3939C77.4192 42.2677 74.1735 38.8972 75.6715 33.446C77.5024 26.7049 77.8769 18.7571 76.5037 13.5972C75.2554 8.97834 78.1682 4.60911 83.4529 5.89907C86.9899 6.77292 89.3201 6.60647 92.0249 6.0239C97.1847 4.90039 102.345 8.43739 102.345 13.8885C102.345 18.2161 100.472 20.1719 97.0183 21.129C96.1028 21.3786 96.2277 22.4605 97.3512 22.3773C101.72 22.0444 106.506 25.9975 105.091 33.1964C103.759 39.9375 101.179 40.8113 95.437 41.6852ZM91.3591 32.5722C94.3551 32.1561 95.437 31.0742 95.437 29.3265C95.437 26.913 92.5658 25.8311 89.3201 25.8311C87.1979 25.8311 86.4905 26.6633 86.3241 28.0781C85.6999 32.0728 87.1563 33.1131 91.3591 32.5722ZM89.5698 17.8C92.5242 16.6349 91.9 14.1798 88.9872 13.7221C87.2811 13.2643 86.9066 13.8885 86.7402 14.9704C86.6154 15.761 86.6986 16.5101 86.7818 17.051C86.9483 18.1329 88.1966 18.341 89.5698 17.8Z" fill="url(#paint4_linear_521_2779)" fill-opacity="0.2"/>
</g>
<g filter="url(#filter17_g_521_2779)">
<path d="M200.413 28.2442C200.413 22.9232 198.656 20.6482 194.385 18.09L193.964 17.8413C192.13 16.749 189.711 16.3523 187.119 16.3069L186.599 16.302C181.813 16.302 177.444 19.7557 176.528 24.4577C174.989 32.5304 176.82 40.7697 184.56 41.8932C194.713 43.4744 200.413 40.1867 200.413 28.2442ZM189.594 29.2431C189.594 27.9665 189.369 27.2667 189.15 26.9325C189.006 26.7131 188.834 26.5798 188.387 26.5798C187.92 26.5798 187.577 26.7421 187.309 27.0828C187.006 27.4687 186.682 28.2447 186.682 29.6592C186.682 30.5714 186.825 31.1651 187.022 31.513C187.151 31.7407 187.327 31.9197 187.702 32.0177L187.876 32.0551L187.885 32.0567L187.895 32.0584C188.658 32.1971 188.902 32.0067 189.03 31.8592C189.265 31.59 189.594 30.8693 189.594 29.2431ZM191.259 29.2431C191.259 32.7801 189.885 34.1121 187.597 33.696C185.641 33.363 185.017 31.7397 185.017 29.6592C185.017 26.3721 186.515 24.9154 188.387 24.9153C190.302 24.9153 191.259 26.4136 191.259 29.2431ZM202.078 28.2442C202.078 34.4157 200.611 38.865 197.322 41.4494C194.071 44.0032 189.517 44.35 184.304 43.5382V43.5373C179.765 42.8727 176.926 40.063 175.511 36.378C174.129 32.7819 174.088 28.3648 174.893 24.1464L174.895 24.1399C175.969 18.6221 181.052 14.6375 186.599 14.6375C189.472 14.6375 192.455 15.0125 194.8 16.4036C197.148 17.77 199.038 19.1551 200.296 21.067C201.577 23.0154 202.078 25.3101 202.078 28.2442Z" fill="white"/>
</g>
<g filter="url(#filter18_g_521_2779)">
<path d="M168.836 14.4294C171.634 14.4296 173.967 15.958 175.265 18.3118C176.554 20.6478 176.799 23.7182 175.743 26.9333L175.741 26.9398C175.211 28.5298 175.269 31.1336 175.726 34.2893H175.725C176.254 37.9024 176.053 42.0037 174.245 45.4846C172.389 49.0555 168.95 51.7607 163.485 52.6488L163.478 52.6505L163.471 52.6513C161.526 52.9504 158.967 53.5543 156.808 53.5656C154.493 53.5777 152.067 52.9369 150.523 50.4203L150.51 50.3992C149.058 47.9536 148.964 45.1486 150.314 42.9757C151.046 41.7978 152.135 40.9103 153.479 40.388C148.948 38.5686 146.643 34.2984 146.292 29.9168C145.939 25.503 147.525 20.6882 151.092 17.5495L151.097 17.5438V17.5446C153.157 15.7487 155.671 14.7599 157.984 14.5408C160.124 14.3381 162.423 14.7811 163.894 16.2792C164.904 14.9648 166.541 14.4294 168.836 14.4294ZM168.836 16.0939C166.63 16.0939 165.632 16.6352 165.091 17.4674L164.971 17.6568C164.357 18.5403 163.546 18.45 162.844 17.5918C160.929 15.3864 155.77 15.678 152.191 18.7987C145.949 24.2914 146.448 35.9013 154.229 38.8975C156.476 39.7713 160.18 39.7293 162.136 37.8986C163.8 36.4423 164.716 37.3573 164.008 39.4794C162.843 43.1412 159.639 41.8512 157.35 41.56C151.941 41.0192 149.569 45.5553 151.941 49.5499C154.047 52.9829 158.312 51.8439 162.403 51.1396L163.218 51.0063C173.205 49.3834 175.077 41.3524 174.079 34.5282C173.65 31.5634 173.513 28.7811 174.046 26.7992L174.162 26.4139C176.005 20.8024 173.212 16.2387 169.036 16.0972L168.836 16.0939ZM158.349 29.6177C157.6 28.0781 159.473 24.9158 161.637 25.8312C163.176 26.4554 163.551 28.5773 162.302 30.0753C161.335 31.2443 159.274 31.2421 158.427 29.7656L158.349 29.6177ZM159.852 28.9009C159.963 29.1189 160.144 29.2292 160.383 29.2487C160.665 29.2716 160.903 29.1552 161.02 29.0139L161.024 29.0098C161.346 28.6235 161.423 28.203 161.373 27.8939C161.323 27.5906 161.171 27.4387 161.012 27.3738L161 27.3689L160.988 27.364C160.884 27.32 160.823 27.3244 160.736 27.36C160.613 27.4106 160.425 27.5434 160.237 27.7964C160.052 28.0458 159.925 28.336 159.872 28.588C159.822 28.8299 159.861 28.9208 159.852 28.9009Z" fill="white"/>
</g>
<g filter="url(#filter19_g_521_2779)">
<path d="M120.811 16.9904C122.365 14.7024 124.883 13.9277 127.13 14.2255C129.104 14.4872 131.067 15.6053 132.108 17.4667C132.764 16.9987 133.613 16.4981 134.588 16.0883C135.99 15.4995 137.752 15.0522 139.638 15.2268C141.648 15.3961 143.294 15.8503 144.585 16.6474C145.912 17.4669 146.765 18.5886 147.256 19.8918C147.731 21.1524 147.849 22.5315 147.822 23.8864C147.795 25.2439 147.619 26.6969 147.433 28.1272L147.432 28.1297C147.337 28.8452 147.527 29.6696 147.868 30.9393C148.177 32.0877 148.604 33.5943 148.527 35.1906L148.526 35.1898C148.415 37.8026 147.861 39.9471 146.502 41.4235C145.094 42.9536 143.139 43.4325 141.038 43.4325C139.328 43.4325 137.619 42.9633 136.398 41.7656C135.128 40.5203 134.652 38.7518 134.938 36.7478L134.939 36.7389L134.94 36.7308C135.538 32.8323 135.399 30.7677 135.034 29.7462C134.871 29.2903 134.699 29.144 134.614 29.0887C134.517 29.0248 134.335 28.9521 133.964 28.9521C133.755 28.9522 133.622 29.0036 133.502 29.0976C133.362 29.2082 133.142 29.4578 132.929 30.0022C132.513 31.0617 132.252 32.8999 132.389 35.823L132.422 36.4219V36.4301L132.422 36.4382C132.526 38.403 131.944 40.2042 130.693 41.521C129.442 42.838 127.668 43.5162 125.683 43.5162C123.485 43.5162 121.452 42.7831 120.157 41.217C118.832 39.6147 118.537 37.4535 119.22 35.1736L119.224 35.1638L119.387 34.6087C120.166 31.8432 120.393 29.1753 119.824 26.9008V26.9C119.367 25.1742 119.193 23.3406 119.328 21.6425C119.461 19.9675 119.905 18.2916 120.811 16.9904ZM130.885 18.7573C129.595 15.5532 124.477 14.5545 122.188 17.925L122.063 18.1128C120.803 20.0988 120.633 23.4736 121.439 26.4969C122.147 29.3265 121.772 32.5306 120.815 35.6515L120.72 35.9985C119.865 39.4329 121.953 41.7015 125.34 41.8445L125.683 41.8518C128.787 41.8518 130.798 39.8208 130.769 36.8185L130.76 36.5251C130.344 29.8259 131.759 27.2878 133.964 27.2877L134.18 27.2934C136.385 27.4082 137.755 29.3642 136.586 36.9827L136.55 37.2785C136.256 40.2843 138.257 41.768 141.038 41.7681C144.783 41.7681 146.656 40.062 146.864 35.1102C146.985 32.611 145.583 30.2681 145.76 28.1191L145.782 27.9118C146.519 22.2591 146.894 17.6543 139.84 16.9164L139.499 16.8847C136.42 16.5935 133.548 18.3406 132.466 19.2977C131.8 19.8803 131.342 19.8808 130.885 18.7573Z" fill="white"/>
</g>
<g filter="url(#filter20_g_521_2779)">
<path d="M108.483 2.96672C110.605 1.84473 112.853 1.82893 114.692 2.26696C116.371 2.66692 117.909 3.49417 118.83 4.45807L119.006 4.65232L119.01 4.65719L119.014 4.66288C121.486 7.60774 121.601 12.9889 117.421 15.629L117.417 15.6315C117.214 15.7587 117.003 15.8714 116.786 15.972C117.675 16.4368 118.412 17.0792 118.976 17.8892C120.174 19.6104 120.382 21.7827 120.048 23.8132H120.047C119.428 27.5642 119.521 29.4432 119.996 33.1693L120.222 34.8907L120.224 34.9045L120.225 34.9192C120.415 36.56 120.273 38.6395 119.343 40.3791C118.343 42.2471 116.493 43.5848 113.728 43.5577C111.444 43.535 109.023 43.0107 107.33 41.4299C105.529 39.7488 104.919 37.2343 105.584 34.0991L105.585 34.0885C106.553 29.6712 106.968 27.4382 106.045 24.5975L106.043 24.5918C105.374 22.5064 105.538 20.1406 106.699 18.2541C107.355 17.1887 108.295 16.3329 109.478 15.7818C108.58 15.4157 107.716 14.9306 106.942 14.3311L106.937 14.327C105.084 12.8821 104.576 10.4511 104.866 8.38762C105.161 6.29506 106.331 4.08479 108.483 2.9659V2.96672ZM112.912 16.7595C108.252 16.6765 106.546 20.7126 107.628 24.083C108.71 27.4119 108.169 30.0754 107.212 34.4445C106.047 39.9371 109.542 41.8515 113.744 41.8932C117.856 41.9335 118.844 38.2246 118.599 35.3824L118.572 35.1101C117.948 30.4291 117.689 28.3445 118.276 24.3651L118.405 23.5426C118.97 20.1161 117.62 17.0017 113.336 16.7725L112.912 16.7595ZM117.74 5.73243C116.533 4.31765 112.621 2.65344 109.251 4.44263C106.13 6.06549 105.506 11.1003 107.961 13.0145C110.46 14.9494 114.17 15.5179 116.329 14.3409L116.533 14.2214C119.695 12.224 119.695 8.06267 117.74 5.73243Z" fill="white"/>
</g>
<g filter="url(#filter21_g_521_2779)">
<path d="M102.345 13.8882C102.345 8.43724 97.1845 4.90073 92.0248 6.02422C89.3202 6.60672 86.9898 6.77287 83.4529 5.89906C78.1683 4.60922 75.2558 8.97837 76.5041 13.5972C77.8773 18.757 77.5027 26.7047 75.6719 33.4457C74.2206 38.7266 77.2213 42.0551 81.5341 41.4633L81.9551 41.3942C83.8691 41.0197 85.9496 40.9775 88.2797 41.3519C90.7374 41.742 93.1953 41.9495 95.0701 41.7339L95.4374 41.6851C101.18 40.8113 103.759 39.9372 105.091 33.1962C106.506 25.9974 101.721 22.0443 97.3514 22.3771C96.228 22.4604 96.103 21.3786 97.0182 21.1288C100.364 20.2016 102.226 18.3374 102.339 14.2872L102.345 13.8882ZM93.773 29.3268C93.773 28.9357 93.5981 28.543 92.8408 28.1573C92.0359 27.7474 90.7955 27.4957 89.32 27.4957C88.4364 27.4958 88.187 27.6755 88.153 27.7038C88.1495 27.7066 88.0351 27.7823 87.9774 28.2727L87.9733 28.3036L87.9685 28.3353C87.6637 30.2861 88.0319 30.6917 88.1115 30.7596C88.1817 30.8194 88.3829 30.9457 88.9047 31.0067C89.4291 31.068 90.1544 31.0486 91.1397 30.9222C92.512 30.7306 93.161 30.4175 93.4519 30.1737C93.6487 30.0086 93.7729 29.8092 93.773 29.3268ZM86.7404 14.9707C86.9069 13.8888 87.2815 13.2647 88.9876 13.7224C91.9002 14.1802 92.5243 16.6347 89.5703 17.7999L89.3143 17.8925C88.0452 18.3114 86.9381 18.0654 86.7819 17.0513C86.6987 16.5104 86.6157 15.7612 86.7404 14.9707ZM88.3773 15.2877C88.3245 15.6656 88.3363 16.048 88.3756 16.4109C88.5318 16.3904 88.7303 16.3425 88.9592 16.2524C89.4302 16.0666 89.6677 15.876 89.7752 15.7632C89.7622 15.7523 89.7491 15.7384 89.7321 15.7258C89.5691 15.605 89.2505 15.4485 88.7292 15.3665L88.6414 15.3527L88.5561 15.33C88.4908 15.3125 88.4311 15.2997 88.3773 15.2877ZM95.4342 29.4885C95.3678 31.1412 94.2615 32.1689 91.3592 32.572C87.2879 33.096 85.7943 32.1363 86.2723 28.4442L86.3243 28.0784C86.4907 26.6637 87.1981 25.8313 89.32 25.8312L89.6232 25.8345C92.7425 25.9002 95.4374 26.9887 95.4374 29.3268L95.4342 29.4885ZM104.009 13.8882C104.009 16.2847 103.489 18.2625 102.287 19.7984C101.855 20.35 101.357 20.8148 100.807 21.2101C102.256 21.7295 103.597 22.6332 104.659 23.8864C106.596 26.1698 107.516 29.4901 106.725 33.5172L106.724 33.5188C106.029 37.0387 104.937 39.4265 102.93 40.9626C101.011 42.4309 98.501 42.9028 95.6878 43.3309C93.5079 43.6626 90.675 43.4177 88.0189 42.9961L88.0156 42.9953C85.8632 42.6494 83.9808 42.6931 82.2745 43.027L82.2696 43.0286C79.5311 43.5561 76.9307 42.8269 75.2777 40.8635C73.6381 38.916 73.2171 36.0972 74.0667 33.0052C75.7905 26.6556 76.1488 19.2934 75.0103 14.4831L74.8957 14.0255C74.1601 11.2972 74.6097 8.47431 76.24 6.47935C77.875 4.47871 80.492 3.56254 83.5505 4.21427L83.8479 4.28173L83.852 4.28336C87.1017 5.08623 89.1719 4.936 91.6713 4.39795V4.39714C97.7161 3.08113 104.009 7.2248 104.009 13.8882Z" fill="white"/>
</g>
<g filter="url(#filter22_g_521_2779)">
<path d="M242.182 52.0881C243.153 50.0075 245.677 45.7631 248.007 45.4302" stroke="white" stroke-width="3" stroke-linecap="round"/>
</g>
<g filter="url(#filter23_g_521_2779)">
<path d="M246.55 56.0963C248.631 55.1252 251.336 54.5846 253.001 54.5846" stroke="white" stroke-width="3" stroke-linecap="round"/>
</g>
<defs>
<filter id="filter0_g_521_2779" x="7.32715" y="16.3674" width="80.6914" height="82.4222" filterUnits="userSpaceOnUse" color-interpolation-filters="sRGB">
<feFlood flood-opacity="0" result="BackgroundImageFix"/>
<feBlend mode="normal" in="SourceGraphic" in2="BackgroundImageFix" result="shape"/>
<feTurbulence type="fractalNoise" baseFrequency="0.83333331346511841 0.83333331346511841" numOctaves="3" seed="5017" />
<feDisplacementMap in="shape" scale="4" xChannelSelector="R" yChannelSelector="G" result="displacedImage" width="100%" height="100%" />
<feMerge result="effect1_texture_521_2779">
<feMergeNode in="displacedImage"/>
</feMerge>
</filter>
<filter id="filter1_g_521_2779" x="207.035" y="14.8947" width="31.3008" height="30.8373" filterUnits="userSpaceOnUse" color-interpolation-filters="sRGB">
<feFlood flood-opacity="0" result="BackgroundImageFix"/>
<feBlend mode="normal" in="SourceGraphic" in2="BackgroundImageFix" result="shape"/>
<feTurbulence type="fractalNoise" baseFrequency="0.83333331346511841 0.83333331346511841" numOctaves="3" seed="5017" />
<feDisplacementMap in="shape" scale="4" xChannelSelector="R" yChannelSelector="G" result="displacedImage" width="100%" height="100%" />
<feMerge result="effect1_texture_521_2779">
<feMergeNode in="displacedImage"/>
</feMerge>
</filter>
<filter id="filter2_g_521_2779" x="217.003" y="54.0828" width="25.4648" height="32.6456" filterUnits="userSpaceOnUse" color-interpolation-filters="sRGB">
<feFlood flood-opacity="0" result="BackgroundImageFix"/>
<feBlend mode="normal" in="SourceGraphic" in2="BackgroundImageFix" result="shape"/>
<feTurbulence type="fractalNoise" baseFrequency="0.83333331346511841 0.83333331346511841" numOctaves="3" seed="5017" />
<feDisplacementMap in="shape" scale="4" xChannelSelector="R" yChannelSelector="G" result="displacedImage" width="100%" height="100%" />
<feMerge result="effect1_texture_521_2779">
<feMergeNode in="displacedImage"/>
</feMerge>
</filter>
<filter id="filter3_g_521_2779" x="195.099" y="53.8703" width="25.0752" height="24.8185" filterUnits="userSpaceOnUse" color-interpolation-filters="sRGB">
<feFlood flood-opacity="0" result="BackgroundImageFix"/>
<feBlend mode="normal" in="SourceGraphic" in2="BackgroundImageFix" result="shape"/>
<feTurbulence type="fractalNoise" baseFrequency="0.83333331346511841 0.83333331346511841" numOctaves="3" seed="5017" />
<feDisplacementMap in="shape" scale="4" xChannelSelector="R" yChannelSelector="G" result="displacedImage" width="100%" height="100%" />
<feMerge result="effect1_texture_521_2779">
<feMergeNode in="displacedImage"/>
</feMerge>
</filter>
<filter id="filter4_g_521_2779" x="183.839" y="44.1388" width="14.1035" height="34.5836" filterUnits="userSpaceOnUse" color-interpolation-filters="sRGB">
<feFlood flood-opacity="0" result="BackgroundImageFix"/>
<feBlend mode="normal" in="SourceGraphic" in2="BackgroundImageFix" result="shape"/>
<feTurbulence type="fractalNoise" baseFrequency="0.83333331346511841 0.83333331346511841" numOctaves="3" seed="5017" />
<feDisplacementMap in="shape" scale="4" xChannelSelector="R" yChannelSelector="G" result="displacedImage" width="100%" height="100%" />
<feMerge result="effect1_texture_521_2779">
<feMergeNode in="displacedImage"/>
</feMerge>
</filter>
<filter id="filter5_g_521_2779" x="161.646" y="45.4608" width="25.3535" height="33.4114" filterUnits="userSpaceOnUse" color-interpolation-filters="sRGB">
<feFlood flood-opacity="0" result="BackgroundImageFix"/>
<feBlend mode="normal" in="SourceGraphic" in2="BackgroundImageFix" result="shape"/>
<feTurbulence type="fractalNoise" baseFrequency="0.83333331346511841 0.83333331346511841" numOctaves="3" seed="5017" />
<feDisplacementMap in="shape" scale="4" xChannelSelector="R" yChannelSelector="G" result="displacedImage" width="100%" height="100%" />
<feMerge result="effect1_texture_521_2779">
<feMergeNode in="displacedImage"/>
</feMerge>
</filter>
<filter id="filter6_g_521_2779" x="143.619" y="54.0296" width="21.8193" height="24.7277" filterUnits="userSpaceOnUse" color-interpolation-filters="sRGB">
<feFlood flood-opacity="0" result="BackgroundImageFix"/>
<feBlend mode="normal" in="SourceGraphic" in2="BackgroundImageFix" result="shape"/>
<feTurbulence type="fractalNoise" baseFrequency="0.83333331346511841 0.83333331346511841" numOctaves="3" seed="5017" />
<feDisplacementMap in="shape" scale="4" xChannelSelector="R" yChannelSelector="G" result="displacedImage" width="100%" height="100%" />
<feMerge result="effect1_texture_521_2779">
<feMergeNode in="displacedImage"/>
</feMerge>
</filter>
<filter id="filter7_g_521_2779" x="122.985" y="54.2493" width="23.5088" height="24.7692" filterUnits="userSpaceOnUse" color-interpolation-filters="sRGB">
<feFlood flood-opacity="0" result="BackgroundImageFix"/>
<feBlend mode="normal" in="SourceGraphic" in2="BackgroundImageFix" result="shape"/>
<feTurbulence type="fractalNoise" baseFrequency="0.83333331346511841 0.83333331346511841" numOctaves="3" seed="5017" />
<feDisplacementMap in="shape" scale="4" xChannelSelector="R" yChannelSelector="G" result="displacedImage" width="100%" height="100%" />
<feMerge result="effect1_texture_521_2779">
<feMergeNode in="displacedImage"/>
</feMerge>
</filter>
<filter id="filter8_g_521_2779" x="94.6826" y="54.1993" width="31.8936" height="24.5403" filterUnits="userSpaceOnUse" color-interpolation-filters="sRGB">
<feFlood flood-opacity="0" result="BackgroundImageFix"/>
<feBlend mode="normal" in="SourceGraphic" in2="BackgroundImageFix" result="shape"/>
<feTurbulence type="fractalNoise" baseFrequency="0.83333331346511841 0.83333331346511841" numOctaves="3" seed="5017" />
<feDisplacementMap in="shape" scale="4" xChannelSelector="R" yChannelSelector="G" result="displacedImage" width="100%" height="100%" />
<feMerge result="effect1_texture_521_2779">
<feMergeNode in="displacedImage"/>
</feMerge>
</filter>
<filter id="filter9_g_521_2779" x="76.4971" y="49.5221" width="21.6387" height="29.3679" filterUnits="userSpaceOnUse" color-interpolation-filters="sRGB">
<feFlood flood-opacity="0" result="BackgroundImageFix"/>
<feBlend mode="normal" in="SourceGraphic" in2="BackgroundImageFix" result="shape"/>
<feTurbulence type="fractalNoise" baseFrequency="0.83333331346511841 0.83333331346511841" numOctaves="3" seed="5017" />
<feDisplacementMap in="shape" scale="4" xChannelSelector="R" yChannelSelector="G" result="displacedImage" width="100%" height="100%" />
<feMerge result="effect1_texture_521_2779">
<feMergeNode in="displacedImage"/>
</feMerge>
</filter>
<filter id="filter10_g_521_2779" x="58.3496" y="53.8582" width="21.9521" height="24.9024" filterUnits="userSpaceOnUse" color-interpolation-filters="sRGB">
<feFlood flood-opacity="0" result="BackgroundImageFix"/>
<feBlend mode="normal" in="SourceGraphic" in2="BackgroundImageFix" result="shape"/>
<feTurbulence type="fractalNoise" baseFrequency="0.83333331346511841 0.83333331346511841" numOctaves="3" seed="5017" />
<feDisplacementMap in="shape" scale="4" xChannelSelector="R" yChannelSelector="G" result="displacedImage" width="100%" height="100%" />
<feMerge result="effect1_texture_521_2779">
<feMergeNode in="displacedImage"/>
</feMerge>
</filter>
<filter id="filter11_g_521_2779" x="33.1123" y="45.7721" width="28.1553" height="33.0183" filterUnits="userSpaceOnUse" color-interpolation-filters="sRGB">
<feFlood flood-opacity="0" result="BackgroundImageFix"/>
<feBlend mode="normal" in="SourceGraphic" in2="BackgroundImageFix" result="shape"/>
<feTurbulence type="fractalNoise" baseFrequency="0.83333331346511841 0.83333331346511841" numOctaves="3" seed="5017" />
<feDisplacementMap in="shape" scale="4" xChannelSelector="R" yChannelSelector="G" result="displacedImage" width="100%" height="100%" />
<feMerge result="effect1_texture_521_2779">
<feMergeNode in="displacedImage"/>
</feMerge>
</filter>
<filter id="filter12_g_521_2779" x="174.028" y="14.302" width="28.3857" height="29.9615" filterUnits="userSpaceOnUse" color-interpolation-filters="sRGB">
<feFlood flood-opacity="0" result="BackgroundImageFix"/>
<feBlend mode="normal" in="SourceGraphic" in2="BackgroundImageFix" result="shape"/>
<feTurbulence type="fractalNoise" baseFrequency="0.83333331346511841 0.83333331346511841" numOctaves="3" seed="5017" />
<feDisplacementMap in="shape" scale="4" xChannelSelector="R" yChannelSelector="G" result="displacedImage" width="100%" height="100%" />
<feMerge result="effect1_texture_521_2779">
<feMergeNode in="displacedImage"/>
</feMerge>
</filter>
<filter id="filter13_g_521_2779" x="145.908" y="14.0939" width="30.8311" height="39.807" filterUnits="userSpaceOnUse" color-interpolation-filters="sRGB">
<feFlood flood-opacity="0" result="BackgroundImageFix"/>
<feBlend mode="normal" in="SourceGraphic" in2="BackgroundImageFix" result="shape"/>
<feTurbulence type="fractalNoise" baseFrequency="0.83333331346511841 0.83333331346511841" numOctaves="3" seed="5017" />
<feDisplacementMap in="shape" scale="4" xChannelSelector="R" yChannelSelector="G" result="displacedImage" width="100%" height="100%" />
<feMerge result="effect1_texture_521_2779">
<feMergeNode in="displacedImage"/>
</feMerge>
</filter>
<filter id="filter14_g_521_2779" x="118.528" y="13.8284" width="30.3438" height="30.0232" filterUnits="userSpaceOnUse" color-interpolation-filters="sRGB">
<feFlood flood-opacity="0" result="BackgroundImageFix"/>
<feBlend mode="normal" in="SourceGraphic" in2="BackgroundImageFix" result="shape"/>
<feTurbulence type="fractalNoise" baseFrequency="0.83333331346511841 0.83333331346511841" numOctaves="3" seed="5017" />
<feDisplacementMap in="shape" scale="4" xChannelSelector="R" yChannelSelector="G" result="displacedImage" width="100%" height="100%" />
<feMerge result="effect1_texture_521_2779">
<feMergeNode in="displacedImage"/>
</feMerge>
</filter>
<filter id="filter15_g_521_2779" x="104.453" y="1.66394" width="16.6289" height="42.2296" filterUnits="userSpaceOnUse" color-interpolation-filters="sRGB">
<feFlood flood-opacity="0" result="BackgroundImageFix"/>
<feBlend mode="normal" in="SourceGraphic" in2="BackgroundImageFix" result="shape"/>
<feTurbulence type="fractalNoise" baseFrequency="0.83333331346511841 0.83333331346511841" numOctaves="3" seed="5017" />
<feDisplacementMap in="shape" scale="4" xChannelSelector="R" yChannelSelector="G" result="displacedImage" width="100%" height="100%" />
<feMerge result="effect1_texture_521_2779">
<feMergeNode in="displacedImage"/>
</feMerge>
</filter>
<filter id="filter16_g_521_2779" x="73.3018" y="3.6698" width="34.042" height="40.1511" filterUnits="userSpaceOnUse" color-interpolation-filters="sRGB">
<feFlood flood-opacity="0" result="BackgroundImageFix"/>
<feBlend mode="normal" in="SourceGraphic" in2="BackgroundImageFix" result="shape"/>
<feTurbulence type="fractalNoise" baseFrequency="0.83333331346511841 0.83333331346511841" numOctaves="3" seed="5017" />
<feDisplacementMap in="shape" scale="4" xChannelSelector="R" yChannelSelector="G" result="displacedImage" width="100%" height="100%" />
<feMerge result="effect1_texture_521_2779">
<feMergeNode in="displacedImage"/>
</feMerge>
</filter>
<filter id="filter17_g_521_2779" x="172.363" y="12.6375" width="31.7148" height="33.2904" filterUnits="userSpaceOnUse" color-interpolation-filters="sRGB">
<feFlood flood-opacity="0" result="BackgroundImageFix"/>
<feBlend mode="normal" in="SourceGraphic" in2="BackgroundImageFix" result="shape"/>
<feTurbulence type="fractalNoise" baseFrequency="0.83333331346511841 0.83333331346511841" numOctaves="3" seed="5017" />
<feDisplacementMap in="shape" scale="4" xChannelSelector="R" yChannelSelector="G" result="displacedImage" width="100%" height="100%" />
<feMerge result="effect1_texture_521_2779">
<feMergeNode in="displacedImage"/>
</feMerge>
</filter>
<filter id="filter18_g_521_2779" x="144.244" y="12.4294" width="34.1602" height="43.1363" filterUnits="userSpaceOnUse" color-interpolation-filters="sRGB">
<feFlood flood-opacity="0" result="BackgroundImageFix"/>
<feBlend mode="normal" in="SourceGraphic" in2="BackgroundImageFix" result="shape"/>
<feTurbulence type="fractalNoise" baseFrequency="0.83333331346511841 0.83333331346511841" numOctaves="3" seed="5017" />
<feDisplacementMap in="shape" scale="4" xChannelSelector="R" yChannelSelector="G" result="displacedImage" width="100%" height="100%" />
<feMerge result="effect1_texture_521_2779">
<feMergeNode in="displacedImage"/>
</feMerge>
</filter>
<filter id="filter19_g_521_2779" x="116.864" y="12.1646" width="33.6719" height="33.3516" filterUnits="userSpaceOnUse" color-interpolation-filters="sRGB">
<feFlood flood-opacity="0" result="BackgroundImageFix"/>
<feBlend mode="normal" in="SourceGraphic" in2="BackgroundImageFix" result="shape"/>
<feTurbulence type="fractalNoise" baseFrequency="0.83333331346511841 0.83333331346511841" numOctaves="3" seed="5017" />
<feDisplacementMap in="shape" scale="4" xChannelSelector="R" yChannelSelector="G" result="displacedImage" width="100%" height="100%" />
<feMerge result="effect1_texture_521_2779">
<feMergeNode in="displacedImage"/>
</feMerge>
</filter>
<filter id="filter20_g_521_2779" x="102.79" y="0" width="19.9531" height="45.558" filterUnits="userSpaceOnUse" color-interpolation-filters="sRGB">
<feFlood flood-opacity="0" result="BackgroundImageFix"/>
<feBlend mode="normal" in="SourceGraphic" in2="BackgroundImageFix" result="shape"/>
<feTurbulence type="fractalNoise" baseFrequency="0.83333331346511841 0.83333331346511841" numOctaves="3" seed="5017" />
<feDisplacementMap in="shape" scale="4" xChannelSelector="R" yChannelSelector="G" result="displacedImage" width="100%" height="100%" />
<feMerge result="effect1_texture_521_2779">
<feMergeNode in="displacedImage"/>
</feMerge>
</filter>
<filter id="filter21_g_521_2779" x="71.6387" y="2.00653" width="37.3691" height="43.4788" filterUnits="userSpaceOnUse" color-interpolation-filters="sRGB">
<feFlood flood-opacity="0" result="BackgroundImageFix"/>
<feBlend mode="normal" in="SourceGraphic" in2="BackgroundImageFix" result="shape"/>
<feTurbulence type="fractalNoise" baseFrequency="0.83333331346511841 0.83333331346511841" numOctaves="3" seed="5017" />
<feDisplacementMap in="shape" scale="4" xChannelSelector="R" yChannelSelector="G" result="displacedImage" width="100%" height="100%" />
<feMerge result="effect1_texture_521_2779">
<feMergeNode in="displacedImage"/>
</feMerge>
</filter>
<filter id="filter22_g_521_2779" x="238.682" y="41.93" width="12.8262" height="13.6584" filterUnits="userSpaceOnUse" color-interpolation-filters="sRGB">
<feFlood flood-opacity="0" result="BackgroundImageFix"/>
<feBlend mode="normal" in="SourceGraphic" in2="BackgroundImageFix" result="shape"/>
<feTurbulence type="fractalNoise" baseFrequency="0.83333331346511841 0.83333331346511841" numOctaves="3" seed="5017" />
<feDisplacementMap in="shape" scale="4" xChannelSelector="R" yChannelSelector="G" result="displacedImage" width="100%" height="100%" />
<feMerge result="effect1_texture_521_2779">
<feMergeNode in="displacedImage"/>
</feMerge>
</filter>
<filter id="filter23_g_521_2779" x="243.05" y="51.0847" width="13.4512" height="8.51202" filterUnits="userSpaceOnUse" color-interpolation-filters="sRGB">
<feFlood flood-opacity="0" result="BackgroundImageFix"/>
<feBlend mode="normal" in="SourceGraphic" in2="BackgroundImageFix" result="shape"/>
<feTurbulence type="fractalNoise" baseFrequency="0.83333331346511841 0.83333331346511841" numOctaves="3" seed="5017" />
<feDisplacementMap in="shape" scale="4" xChannelSelector="R" yChannelSelector="G" result="displacedImage" width="100%" height="100%" />
<feMerge result="effect1_texture_521_2779">
<feMergeNode in="displacedImage"/>
</feMerge>
</filter>
<linearGradient id="paint0_linear_521_2779" x1="187.247" y1="-7.59909" x2="187.247" y2="37.3185" gradientUnits="userSpaceOnUse">
<stop offset="0.4" stop-color="white" stop-opacity="0"/>
<stop offset="1" stop-color="#076945"/>
</linearGradient>
<linearGradient id="paint1_linear_521_2779" x1="160.252" y1="-16.8713" x2="160.252" y2="45.0806" gradientUnits="userSpaceOnUse">
<stop offset="0.4" stop-color="white" stop-opacity="0"/>
<stop offset="1" stop-color="#076945"/>
</linearGradient>
<linearGradient id="paint2_linear_521_2779" x1="132.647" y1="-8.12951" x2="132.647" y2="36.8948" gradientUnits="userSpaceOnUse">
<stop offset="0.4" stop-color="white" stop-opacity="0"/>
<stop offset="1" stop-color="#076945"/>
</linearGradient>
<linearGradient id="paint3_linear_521_2779" x1="112.263" y1="-31.5315" x2="112.263" y2="34.6117" gradientUnits="userSpaceOnUse">
<stop offset="0.4" stop-color="white" stop-opacity="0"/>
<stop offset="1" stop-color="#076945"/>
</linearGradient>
<linearGradient id="paint4_linear_521_2779" x1="89.1221" y1="-27.6122" x2="89.1222" y2="34.935" gradientUnits="userSpaceOnUse">
<stop offset="0.4" stop-color="white" stop-opacity="0"/>
<stop offset="1" stop-color="#076945"/>
</linearGradient>
</defs>
</svg>
