<svg width="307" height="178" viewBox="0 0 307 178" fill="none" xmlns="http://www.w3.org/2000/svg">
<mask id="mask0_382_762" style="mask-type:alpha" maskUnits="userSpaceOnUse" x="0" y="0" width="307" height="178">
<rect width="307" height="178" rx="30" fill="#076945"/>
</mask>
<g mask="url(#mask0_382_762)">
<path d="M297.3 218.358L267.199 122.627H288.162V115.921H150.388V122.627H171.35L141.25 218.358C140.742 219.978 141.6 221.707 143.193 222.279C144.879 222.887 146.729 221.968 147.266 220.255L153.899 199.159H284.651L291.284 220.255C291.821 221.963 293.671 222.887 295.357 222.279C296.95 221.707 297.808 219.973 297.3 218.358ZM156.009 192.458L177.968 122.632H260.587L282.546 192.458H156.009Z" fill="#FFF5ED"/>
<path d="M294.287 223.119C293.71 223.119 293.133 222.986 292.6 222.719C291.664 222.255 290.978 221.45 290.662 220.452L284.173 199.816H154.377L147.887 220.452C147.572 221.45 146.886 222.255 145.949 222.719C145.012 223.183 143.957 223.247 142.971 222.892C141.043 222.195 140.012 220.121 140.629 218.161L170.463 123.279H150.388C150.028 123.279 149.737 122.988 149.737 122.627V115.921C149.737 115.561 150.028 115.269 150.388 115.269H288.157C288.517 115.269 288.808 115.561 288.808 115.921V122.627C288.808 122.988 288.517 123.279 288.157 123.279H268.082L297.916 218.161C298.533 220.121 297.502 222.195 295.574 222.892C295.155 223.045 294.716 223.119 294.282 223.119H294.287ZM153.899 198.512H284.651C284.937 198.512 285.189 198.695 285.273 198.966L291.905 220.062C292.112 220.719 292.566 221.247 293.182 221.553C293.799 221.86 294.494 221.899 295.14 221.667C296.407 221.213 297.088 219.845 296.684 218.556L266.583 122.825C266.519 122.627 266.558 122.41 266.677 122.242C266.8 122.074 266.992 121.975 267.2 121.975H287.511V116.573H151.039V121.975H171.35C171.558 121.975 171.755 122.074 171.873 122.242C171.996 122.41 172.031 122.627 171.967 122.825L141.866 218.556C141.462 219.845 142.138 221.213 143.41 221.667C144.056 221.899 144.751 221.86 145.368 221.553C145.984 221.247 146.438 220.719 146.645 220.062L153.277 198.966C153.361 198.695 153.613 198.512 153.899 198.512ZM282.541 193.11H156.009C155.802 193.11 155.605 193.011 155.487 192.843C155.363 192.675 155.329 192.458 155.393 192.26L177.352 122.435C177.436 122.163 177.687 121.98 177.973 121.98H260.592C260.878 121.98 261.129 122.163 261.213 122.435L283.172 192.26C283.236 192.458 283.197 192.675 283.078 192.843C282.96 193.011 282.763 193.11 282.555 193.11H282.541ZM156.897 191.806H281.658L260.108 123.284H178.446L156.897 191.806Z" fill="#1A4200"/>
<path d="M251.691 106.267H253.279C257.682 106.267 261.262 109.847 261.262 114.262C261.262 115.18 260.518 115.926 259.601 115.926H245.379C244.462 115.926 243.717 115.18 243.717 114.262C243.717 109.852 247.292 106.267 251.701 106.267H251.691Z" fill="#FFF5ED"/>
<path d="M259.719 116.578H245.255C244.047 116.578 243.061 115.595 243.061 114.38V113.679C243.061 109.235 246.671 105.615 251.114 105.615H253.861C258.299 105.615 261.913 109.23 261.913 113.679V114.38C261.913 115.59 260.932 116.578 259.719 116.578ZM251.109 106.919C247.386 106.919 244.358 109.951 244.358 113.679V114.38C244.358 114.874 244.757 115.274 245.251 115.274H259.714C260.207 115.274 260.606 114.874 260.606 114.38V113.679C260.606 109.951 257.579 106.919 253.856 106.919H251.109Z" fill="#1A4200"/>
<path d="M252.485 113.052C252.125 113.052 251.834 112.761 251.834 112.4V106.267C251.834 105.907 252.125 105.615 252.485 105.615C252.845 105.615 253.136 105.907 253.136 106.267V112.4C253.136 112.761 252.845 113.052 252.485 113.052Z" fill="#1A4200"/>
<path d="M280.47 17.6469H170.108C168.384 17.6469 166.986 19.0464 166.986 20.7728V97.6057C166.986 99.332 168.384 100.731 170.108 100.731H280.47C282.193 100.731 283.591 99.332 283.591 97.6057V20.7728C283.591 19.0464 282.193 17.6469 280.47 17.6469Z" fill="#FFF5ED"/>
<path d="M280.47 101.383H170.113C168.032 101.383 166.34 99.6895 166.34 97.6056V20.7777C166.34 18.6938 168.032 17 170.113 17H280.47C282.551 17 284.242 18.6938 284.242 20.7777V97.6056C284.242 99.6895 282.551 101.383 280.47 101.383ZM170.113 18.2987C168.752 18.2987 167.642 19.4098 167.642 20.7728V97.6007C167.642 98.9636 168.752 100.075 170.113 100.075H280.47C281.831 100.075 282.94 98.9636 282.94 97.6007V20.7728C282.94 19.4098 281.831 18.2987 280.47 18.2987H170.113Z" fill="#1A4200"/>
<path d="M237.355 100.731H211.93V115.926H237.355V100.731Z" fill="#FFF5ED"/>
<path d="M237.355 116.578H211.93C211.57 116.578 211.279 116.287 211.279 115.926V100.731C211.279 100.371 211.57 100.08 211.93 100.08H237.355C237.715 100.08 238.006 100.371 238.006 100.731V115.926C238.006 116.287 237.715 116.578 237.355 116.578ZM212.581 115.274H236.705V101.383H212.581V115.274Z" fill="#1A4200"/>
<path d="M202.704 93.5391C202.704 92.065 201.51 90.87 200.038 90.87C198.566 90.87 197.373 92.065 197.373 93.5391C197.373 95.0132 198.566 96.2082 200.038 96.2082C201.51 96.2082 202.704 95.0132 202.704 93.5391Z" fill="#FFF5ED"/>
<path d="M201.333 96.8601H198.744C197.629 96.8601 196.722 95.9515 196.722 94.8354V92.2429C196.722 91.1269 197.629 90.2183 198.744 90.2183H201.333C202.447 90.2183 203.354 91.1269 203.354 92.2429V94.8354C203.354 95.9515 202.447 96.8601 201.333 96.8601ZM198.744 91.5219C198.344 91.5219 198.024 91.8479 198.024 92.2429V94.8354C198.024 95.2354 198.349 95.5564 198.744 95.5564H201.333C201.732 95.5564 202.053 95.2305 202.053 94.8354V92.2429C202.053 91.8429 201.727 91.5219 201.333 91.5219H198.744Z" fill="#1A4200"/>
<path d="M210.904 93.539C210.904 92.0649 209.711 90.8699 208.239 90.8699C206.767 90.8699 205.573 92.0649 205.573 93.539C205.573 95.0131 206.767 96.208 208.239 96.208C209.711 96.208 210.904 95.0131 210.904 93.539Z" fill="#FFF5ED"/>
<path d="M209.533 96.86H206.944C205.83 96.86 204.923 95.9514 204.923 94.8353V92.2428C204.923 91.1268 205.83 90.2181 206.944 90.2181H209.533C210.648 90.2181 211.555 91.1268 211.555 92.2428V94.8353C211.555 95.9514 210.648 96.86 209.533 96.86ZM206.944 91.5218C206.545 91.5218 206.224 91.8477 206.224 92.2428V94.8353C206.224 95.2353 206.55 95.5563 206.944 95.5563H209.533C209.933 95.5563 210.253 95.2304 210.253 94.8353V92.2428C210.253 91.8428 209.928 91.5218 209.533 91.5218H206.944Z" fill="#1A4200"/>
<path d="M219.105 93.539C219.105 92.0649 217.912 90.8699 216.44 90.8699C214.968 90.8699 213.774 92.0649 213.774 93.539C213.774 95.0131 214.968 96.208 216.44 96.208C217.912 96.208 219.105 95.0131 219.105 93.539Z" fill="#FFF5ED"/>
<path d="M217.734 96.86H215.145C214.031 96.86 213.123 95.9514 213.123 94.8353V92.2428C213.123 91.1268 214.031 90.2181 215.145 90.2181H217.734C218.848 90.2181 219.756 91.1268 219.756 92.2428V94.8353C219.756 95.9514 218.848 96.86 217.734 96.86ZM215.145 91.5218C214.746 91.5218 214.425 91.8477 214.425 92.2428V94.8353C214.425 95.2353 214.751 95.5563 215.145 95.5563H217.734C218.133 95.5563 218.454 95.2304 218.454 94.8353V92.2428C218.454 91.8428 218.129 91.5218 217.734 91.5218H215.145Z" fill="#1A4200"/>
<path d="M227.306 93.539C227.306 92.0649 226.112 90.8699 224.64 90.8699C223.168 90.8699 221.975 92.0649 221.975 93.539C221.975 95.0131 223.168 96.208 224.64 96.208C226.112 96.208 227.306 95.0131 227.306 93.539Z" fill="#FFF5ED"/>
<path d="M225.935 96.86H223.346C222.231 96.86 221.324 95.9514 221.324 94.8353V92.2428C221.324 91.1268 222.231 90.2181 223.346 90.2181H225.935C227.049 90.2181 227.957 91.1268 227.957 92.2428V94.8353C227.957 95.9514 227.049 96.86 225.935 96.86ZM223.346 91.5218C222.946 91.5218 222.626 91.8477 222.626 92.2428V94.8353C222.626 95.2353 222.951 95.5563 223.346 95.5563H225.935C226.334 95.5563 226.655 95.2304 226.655 94.8353V92.2428C226.655 91.8428 226.329 91.5218 225.935 91.5218H223.346Z" fill="#1A4200"/>
<path d="M235.506 93.539C235.506 92.0649 234.313 90.8699 232.841 90.8699C231.369 90.8699 230.176 92.0649 230.176 93.539C230.176 95.0131 231.369 96.208 232.841 96.208C234.313 96.208 235.506 95.0131 235.506 93.539Z" fill="#FFF5ED"/>
<path d="M234.135 96.86H231.546C230.432 96.86 229.525 95.9514 229.525 94.8353V92.2428C229.525 91.1268 230.432 90.2181 231.546 90.2181H234.135C235.25 90.2181 236.157 91.1268 236.157 92.2428V94.8353C236.157 95.9514 235.25 96.86 234.135 96.86ZM231.551 91.5218C231.152 91.5218 230.831 91.8477 230.831 92.2428V94.8353C230.831 95.2353 231.157 95.5563 231.551 95.5563H234.14C234.54 95.5563 234.86 95.2304 234.86 94.8353V92.2428C234.86 91.8428 234.535 91.5218 234.14 91.5218H231.551Z" fill="#1A4200"/>
<path d="M243.707 93.539C243.707 92.0649 242.514 90.8699 241.042 90.8699C239.57 90.8699 238.376 92.0649 238.376 93.539C238.376 95.0131 239.57 96.208 241.042 96.208C242.514 96.208 243.707 95.0131 243.707 93.539Z" fill="#FFF5ED"/>
<path d="M242.336 96.86H239.747C238.633 96.86 237.725 95.9514 237.725 94.8353V92.2428C237.725 91.1268 238.633 90.2181 239.747 90.2181H242.336C243.451 90.2181 244.358 91.1268 244.358 92.2428V94.8353C244.358 95.9514 243.451 96.86 242.336 96.86ZM239.752 91.5218C239.353 91.5218 239.032 91.8477 239.032 92.2428V94.8353C239.032 95.2353 239.358 95.5563 239.752 95.5563H242.341C242.741 95.5563 243.061 95.2304 243.061 94.8353V92.2428C243.061 91.8428 242.736 91.5218 242.341 91.5218H239.752Z" fill="#1A4200"/>
<path d="M251.908 93.539C251.908 92.0649 250.714 90.8699 249.242 90.8699C247.77 90.8699 246.577 92.0649 246.577 93.539C246.577 95.0131 247.77 96.208 249.242 96.208C250.714 96.208 251.908 95.0131 251.908 93.539Z" fill="#FFF5ED"/>
<path d="M250.537 96.86H247.948C246.833 96.86 245.926 95.9514 245.926 94.8353V92.2428C245.926 91.1268 246.833 90.2181 247.948 90.2181H250.537C251.651 90.2181 252.559 91.1268 252.559 92.2428V94.8353C252.559 95.9514 251.651 96.86 250.537 96.86ZM247.953 91.5218C247.553 91.5218 247.233 91.8477 247.233 92.2428V94.8353C247.233 95.2353 247.558 95.5563 247.953 95.5563H250.542C250.941 95.5563 251.262 95.2304 251.262 94.8353V92.2428C251.262 91.8428 250.936 91.5218 250.542 91.5218H247.953Z" fill="#1A4200"/>
<path d="M266.81 31.0346C266.81 31.0346 261.622 34.5358 262.18 36.9752C262.85 39.9381 266.958 41.2616 266.958 41.2616C266.958 41.2616 261.672 41.0591 260.459 42.6344C259.245 44.2096 259.388 50.012 259.388 50.012C259.388 50.012 256.592 44.5158 253.816 44.101C250.764 43.6417 246.054 48.1058 246.054 48.1058C246.054 48.1058 248.51 42.5208 246.794 40.5505C245.083 38.5801 240.605 37.8197 240.605 37.8197C240.605 37.8197 246.316 36.7925 246.957 33.4642C247.598 30.1359 245.167 26.931 245.167 26.931C245.167 26.931 248.929 31.5778 252.623 30.7383C255.394 30.1062 257.155 24.2051 257.155 24.2051C257.155 24.2051 256.73 31.0247 258.718 32.2494C260.325 33.242 266.8 31.0346 266.8 31.0346H266.81Z" fill="#FFF5ED"/>
<path d="M259.388 50.6686C259.147 50.6686 258.92 50.5353 258.807 50.3131C258.072 48.8662 255.72 45.049 253.718 44.7477C251.474 44.412 247.746 47.3995 246.498 48.5798C246.271 48.7921 245.931 48.8168 245.675 48.639C245.423 48.4612 245.329 48.1304 245.453 47.844C246.335 45.8292 247.346 42.1848 246.301 40.975C245.68 40.259 244.496 39.6022 242.874 39.0689C241.601 38.6491 240.507 38.4615 240.497 38.4615C240.186 38.4071 239.954 38.1405 239.954 37.8195C239.954 37.5035 240.181 37.2319 240.492 37.1726C240.507 37.1726 241.878 36.9158 243.298 36.2788C244.521 35.7307 246.04 34.7727 246.321 33.3357C246.903 30.3431 244.674 27.3506 244.649 27.321C244.437 27.0395 244.486 26.6346 244.767 26.4123C245.048 26.1951 245.448 26.2395 245.675 26.516C245.709 26.5605 249.23 30.8369 252.48 30.0962C254.447 29.6468 256.07 25.5531 256.533 24.0124C256.627 23.6964 256.948 23.4988 257.273 23.5581C257.598 23.6173 257.83 23.9087 257.81 24.2395C257.648 26.9111 257.929 30.9851 259.068 31.6863C259.25 31.7999 260.089 32.106 263.215 31.3752C264.985 30.9604 266.583 30.4172 266.603 30.4123C266.914 30.3086 267.249 30.4468 267.397 30.7382C267.54 31.0295 267.446 31.3851 267.18 31.5678C265.316 32.827 262.49 35.3702 262.821 36.8269C263.403 39.3849 267.126 40.6244 267.165 40.6392C267.476 40.738 267.663 41.054 267.604 41.375C267.545 41.696 267.269 41.9231 266.938 41.9132C264.882 41.8342 261.677 42.1305 260.981 43.0342C260.202 44.0465 259.995 47.844 260.049 49.997C260.059 50.3032 259.852 50.5698 259.556 50.6439C259.502 50.6587 259.448 50.6637 259.398 50.6637L259.388 50.6686ZM253.377 43.4194C253.56 43.4194 253.742 43.4342 253.915 43.4589C255.241 43.6564 256.671 44.7922 258.166 46.8316C258.382 47.123 258.58 47.4144 258.767 47.6909C258.851 45.7946 259.127 43.2959 259.941 42.2392C260.725 41.2219 262.648 40.8268 264.31 40.6787C263.136 39.9083 261.913 38.7429 261.543 37.1232C261.198 35.5973 262.525 33.869 263.896 32.5604C263.772 32.59 263.649 32.6196 263.521 32.6492C260.025 33.469 258.915 33.1282 258.387 32.8023C257.362 32.1702 256.76 30.5406 256.553 27.8148C256.543 27.7111 256.538 27.6074 256.533 27.5037C256.533 27.5086 256.528 27.5185 256.523 27.5234C255.389 29.7703 254.132 31.0641 252.781 31.3703C250.788 31.8246 248.831 30.9011 247.336 29.8246C247.682 30.9406 247.869 32.2493 247.608 33.5875C247.179 35.7949 244.93 37.0837 243.115 37.7751C244.56 38.2343 246.311 38.9898 247.292 40.1207C248.495 41.5034 248.051 44.1403 247.484 46.0712C249.077 44.8712 251.41 43.4194 253.377 43.4194Z" fill="#1A4200"/>
<path d="M227.256 26.9603H179.719V32.0022H227.256V26.9603Z" fill="#9CEE69"/>
<path d="M227.261 32.6541H179.724C179.364 32.6541 179.073 32.3628 179.073 32.0023V26.9604C179.073 26.5999 179.364 26.3086 179.724 26.3086H227.261C227.621 26.3086 227.912 26.5999 227.912 26.9604V32.0023C227.912 32.3628 227.621 32.6541 227.261 32.6541ZM180.37 31.3505H226.605V27.6123H180.37V31.3505Z" fill="#1A4200"/>
<path d="M227.261 57.6758H179.724C179.364 57.6758 179.073 57.3845 179.073 57.024V26.9604C179.073 26.5999 179.364 26.3086 179.724 26.3086H227.261C227.621 26.3086 227.912 26.5999 227.912 26.9604V57.024C227.912 57.3845 227.621 57.6758 227.261 57.6758ZM180.37 56.3721H226.605V27.6123H180.37V56.3721Z" fill="#1A4200"/>
<path d="M205.559 37.286H186.273C185.913 37.286 185.622 36.9946 185.622 36.6341C185.622 36.2736 185.913 35.9823 186.273 35.9823H205.559C205.919 35.9823 206.21 36.2736 206.21 36.6341C206.21 36.9946 205.919 37.286 205.559 37.286Z" fill="#1A4200"/>
<path d="M196.036 40.4267H186.273C185.913 40.4267 185.622 40.1354 185.622 39.7749C185.622 39.4144 185.913 39.123 186.273 39.123H196.036C196.396 39.123 196.687 39.4144 196.687 39.7749C196.687 40.1354 196.396 40.4267 196.036 40.4267Z" fill="#1A4200"/>
<path d="M202.866 43.5725H186.273C185.913 43.5725 185.622 43.2811 185.622 42.9206C185.622 42.5601 185.913 42.2688 186.273 42.2688H202.866C203.226 42.2688 203.517 42.5601 203.517 42.9206C203.517 43.2811 203.226 43.5725 202.866 43.5725Z" fill="#1A4200"/>
<path d="M208.473 46.718H186.273C185.913 46.718 185.622 46.4266 185.622 46.0661C185.622 45.7057 185.913 45.4143 186.273 45.4143H208.473C208.833 45.4143 209.124 45.7057 209.124 46.0661C209.124 46.4266 208.833 46.718 208.473 46.718Z" fill="#1A4200"/>
<path d="M205.559 49.8586H186.273C185.913 49.8586 185.622 49.5673 185.622 49.2068C185.622 48.8463 185.913 48.5549 186.273 48.5549H205.559C205.919 48.5549 206.21 48.8463 206.21 49.2068C206.21 49.5673 205.919 49.8586 205.559 49.8586Z" fill="#1A4200"/>
<path d="M202.866 53.0044H186.273C185.913 53.0044 185.622 52.713 185.622 52.3525C185.622 51.992 185.913 51.7007 186.273 51.7007H202.866C203.226 51.7007 203.517 51.992 203.517 52.3525C203.517 52.713 203.226 53.0044 202.866 53.0044Z" fill="#1A4200"/>
<path d="M270.864 84.6579H236.705C236.345 84.6579 236.054 84.3666 236.054 84.0061V54.782C236.054 54.4215 236.345 54.1302 236.705 54.1302H270.864C271.224 54.1302 271.514 54.4215 271.514 54.782V84.0061C271.514 84.3666 271.224 84.6579 270.864 84.6579ZM237.356 83.3542H270.213V55.4339H237.356V83.3542Z" fill="#1A4200"/>
<path d="M270.863 54.782H236.705V59.8239H270.863V54.782Z" fill="#9CEE69"/>
<path d="M270.864 60.4757H236.705C236.345 60.4757 236.054 60.1844 236.054 59.8239V54.782C236.054 54.4215 236.345 54.1302 236.705 54.1302H270.864C271.224 54.1302 271.514 54.4215 271.514 54.782V59.8239C271.514 60.1844 271.224 60.4757 270.864 60.4757ZM237.356 59.172H270.213V55.4339H237.356V59.172Z" fill="#1A4200"/>
<path d="M247.544 76.2778C247.391 76.2778 247.233 76.2235 247.11 76.1099L243.387 72.7717C243.253 72.6532 243.174 72.4804 243.17 72.3026C243.17 72.1199 243.239 71.9471 243.367 71.8236L246.976 68.2879C247.233 68.036 247.647 68.041 247.899 68.2978C248.15 68.5545 248.145 68.9694 247.889 69.2212L244.777 72.273L247.982 75.147C248.249 75.389 248.273 75.7988 248.032 76.0655C247.904 76.2087 247.726 76.2828 247.549 76.2828L247.544 76.2778Z" fill="#1A4200"/>
<path d="M260.02 76.2778C259.842 76.2778 259.665 76.2038 259.536 76.0605C259.295 75.7939 259.319 75.3791 259.586 75.1421L262.786 72.268L259.675 69.2163C259.418 68.9644 259.413 68.5496 259.665 68.2928C259.916 68.036 260.33 68.0311 260.587 68.2829L264.197 71.8187C264.325 71.9471 264.394 72.1199 264.394 72.2977C264.394 72.4804 264.31 72.6483 264.177 72.7668L260.454 76.105C260.33 76.2186 260.173 76.2729 260.02 76.2729V76.2778Z" fill="#1A4200"/>
<path d="M256.04 78.5247C255.784 78.5247 255.537 78.3667 255.434 78.1149L250.922 66.7472C250.788 66.4114 250.951 66.0361 251.286 65.9028C251.622 65.7694 251.997 65.9324 252.13 66.2682L256.642 77.6359C256.775 77.9717 256.612 78.3469 256.277 78.4803C256.198 78.5099 256.119 78.5247 256.035 78.5247H256.04Z" fill="#1A4200"/>
<path d="M217.897 81.9025H189.078C188.718 81.9025 188.427 81.6112 188.427 81.2507V63.9819C188.427 63.6214 188.718 63.3301 189.078 63.3301H217.897C218.257 63.3301 218.548 63.6214 218.548 63.9819V81.2507C218.548 81.6112 218.257 81.9025 217.897 81.9025ZM189.734 80.5988H217.251V64.6338H189.734V80.5988Z" fill="#1A4200"/>
<path d="M217.902 63.9818H189.083V69.0237H217.902V63.9818Z" fill="#9CEE69"/>
<path d="M217.897 69.6756H189.078C188.718 69.6756 188.427 69.3843 188.427 69.0238V63.9819C188.427 63.6214 188.718 63.3301 189.078 63.3301H217.897C218.257 63.3301 218.548 63.6214 218.548 63.9819V69.0238C218.548 69.3843 218.257 69.6756 217.897 69.6756ZM189.734 68.3719H217.251V64.6338H189.734V68.3719Z" fill="#1A4200"/>
<path d="M208.374 75.784H198.611C198.251 75.784 197.96 75.4926 197.96 75.1321C197.96 74.7716 198.251 74.4803 198.611 74.4803H208.374C208.734 74.4803 209.025 74.7716 209.025 75.1321C209.025 75.4926 208.734 75.784 208.374 75.784Z" fill="#1A4200"/>
<path d="M88.3128 221.519C87.9528 221.519 87.6619 221.228 87.6619 220.867V173.011C87.6619 172.651 87.9528 172.359 88.3128 172.359C88.6728 172.359 88.9637 172.651 88.9637 173.011V220.867C88.9637 221.228 88.6728 221.519 88.3128 221.519Z" fill="#1A4200"/>
<path d="M51.4941 138.847L44.2635 140.183L50.9976 176.745L58.2282 175.41L51.4941 138.847Z" fill="#FFF5ED"/>
<path d="M50.9831 177.401C50.85 177.401 50.7218 177.362 50.6133 177.288C50.4703 177.189 50.3716 177.041 50.3421 176.868L43.6109 140.301C43.5468 139.945 43.7785 139.605 44.1336 139.54L51.3628 138.207C51.5305 138.178 51.708 138.212 51.851 138.311C51.994 138.41 52.0927 138.558 52.1222 138.731L58.8534 175.298C58.883 175.466 58.8485 175.643 58.7499 175.787C58.6512 175.93 58.5033 176.029 58.3307 176.058L51.1015 177.391C51.062 177.396 51.0226 177.401 50.9831 177.401ZM45.0113 140.706L51.5058 175.989L57.4579 174.893L50.9634 139.61L45.0113 140.706Z" fill="#1A4200"/>
<path d="M112.978 127.492L105.748 128.828L112.482 165.39L119.712 164.055L112.978 127.492Z" fill="#FFF5ED"/>
<path d="M112.471 166.049C112.338 166.049 112.21 166.009 112.101 165.935C111.958 165.836 111.86 165.688 111.83 165.515L105.099 128.948C105.069 128.78 105.104 128.602 105.202 128.459C105.301 128.316 105.449 128.217 105.622 128.188L112.851 126.854C113.018 126.825 113.196 126.859 113.339 126.958C113.482 127.057 113.581 127.205 113.61 127.378L120.341 163.945C120.406 164.3 120.174 164.641 119.819 164.705L112.589 166.039C112.55 166.044 112.511 166.049 112.471 166.049ZM106.494 129.353L112.989 164.636L118.941 163.54L112.446 128.257L106.494 129.353Z" fill="#1A4200"/>
<path d="M105.474 86.791C104.857 83.438 101.642 81.2257 98.2986 81.8429L41.6975 92.2921C38.3492 92.9093 36.1399 96.129 36.7564 99.4771L44.2765 140.316L112.994 127.63L105.474 86.791Z" fill="#FFF5ED"/>
<path d="M44.2766 140.967C44.1434 140.967 44.0152 140.928 43.9067 140.854C43.7637 140.755 43.6651 140.607 43.6355 140.434L36.1153 99.5955C35.7849 97.803 36.1695 95.9907 37.2051 94.4895C38.2407 92.9883 39.7891 91.9809 41.5791 91.65L98.1803 81.2009C99.9703 80.87 101.78 81.2552 103.279 82.2922C104.778 83.3292 105.784 84.8798 106.115 86.6723L113.635 127.511C113.699 127.866 113.467 128.207 113.112 128.271L44.3949 140.958C44.3555 140.963 44.316 140.967 44.2766 140.967ZM99.4279 82.391C99.0925 82.391 98.7523 82.4206 98.417 82.4848L41.8159 92.9339C40.3661 93.2006 39.1135 94.0154 38.2752 95.2302C37.4418 96.445 37.1262 97.9116 37.3925 99.3585L44.7943 139.555L112.234 127.106L104.833 86.9094C104.566 85.4575 103.753 84.2033 102.54 83.3638C101.607 82.7218 100.532 82.391 99.4279 82.391Z" fill="#1A4200"/>
<path d="M104.409 121.749L148.622 113.583C151.536 113.045 154.344 114.976 154.882 117.9C155.42 120.819 153.491 123.63 150.571 124.17L106.359 132.335L104.409 121.749Z" fill="#FFF5ED"/>
<path d="M106.346 132.992C106.041 132.992 105.765 132.775 105.705 132.459L103.758 121.877C103.728 121.709 103.762 121.531 103.861 121.388C103.96 121.244 104.108 121.146 104.28 121.116L150.481 112.588C152.651 112.188 154.742 113.63 155.141 115.803L155.876 119.788C156.068 120.84 155.842 121.906 155.235 122.785C154.629 123.664 153.716 124.257 152.666 124.454L106.465 132.982C106.425 132.987 106.386 132.992 106.346 132.992ZM105.158 122.276L106.869 131.58L152.429 123.17C153.139 123.037 153.756 122.642 154.165 122.044C154.574 121.452 154.727 120.731 154.594 120.02L153.859 116.035C153.588 114.568 152.178 113.595 150.713 113.867L105.153 122.276H105.158Z" fill="#1A4200"/>
<path d="M135.258 158.577C134.721 155.654 131.92 153.723 129.001 154.261L51.6241 168.547C48.7048 169.086 46.7766 171.89 47.3141 174.814C47.8516 177.737 50.6526 179.668 53.5719 179.13L130.948 164.844C133.868 164.305 135.796 161.501 135.258 158.577Z" fill="#FFF5ED"/>
<path d="M52.5956 179.87C49.7453 179.87 47.2057 177.836 46.6731 174.932C46.3821 173.347 46.7224 171.742 47.6347 170.419C48.547 169.095 49.9228 168.201 51.5057 167.905L128.882 153.619C130.465 153.328 132.068 153.668 133.389 154.582C134.716 155.496 135.604 156.873 135.899 158.458C136.19 160.044 135.85 161.648 134.938 162.972C134.026 164.295 132.65 165.189 131.067 165.485L53.6903 179.772C53.3204 179.841 52.9555 179.87 52.5956 179.87ZM129.982 154.819C129.696 154.819 129.405 154.844 129.114 154.898L51.7375 169.184C49.1782 169.658 47.4769 172.127 47.9503 174.695C48.4237 177.258 50.8893 178.962 53.4536 178.488L130.83 164.202C133.389 163.727 135.091 161.258 134.617 158.691C134.391 157.446 133.69 156.37 132.65 155.654C131.851 155.105 130.929 154.819 129.982 154.819Z" fill="#1A4200"/>
<path d="M115.923 91.8672C116.791 83.181 109.374 80.9786 109.374 80.9786C107.012 80.3959 104.295 79.5761 100.261 79.27C94.5607 78.8404 88.8996 79.6156 82.4692 82.0008C81.8528 82.2279 81.2709 82.4798 80.7186 82.7563C67.6064 87.018 64.7512 99.7979 68.6124 111.773L71.8374 128.74L113.95 114.533L109.729 100.124C113.112 97.9461 115.583 95.2351 115.918 91.8672H115.923Z" fill="#FFF5ED"/>
<path d="M82.4693 82.6576C82.1635 82.6576 81.8923 82.4403 81.8282 82.1292C81.7592 81.7737 81.9909 81.4329 82.346 81.3687C84.1755 81.0181 85.9064 80.6231 87.5731 80.2428C92.1346 79.2058 96.0697 78.3071 100.311 78.6281C103.797 78.8898 106.273 79.5219 108.452 80.0799C108.822 80.1737 109.182 80.2675 109.532 80.3515C109.882 80.4354 110.094 80.791 110.01 81.1416C109.927 81.4922 109.572 81.7045 109.221 81.6206C108.866 81.5317 108.506 81.4428 108.132 81.3441C106.001 80.8009 103.59 80.1836 100.217 79.9317C96.1733 79.6256 92.3269 80.5046 87.869 81.5169C86.1874 81.9021 84.4467 82.2971 82.5975 82.6527C82.558 82.6625 82.5137 82.6625 82.4742 82.6625L82.4693 82.6576Z" fill="#1A4200"/>
<path d="M124.775 65.8181C122.994 69.5415 123.991 78.919 117.037 81.0523C114.084 81.956 111.939 81.6103 109.374 80.9782C109.374 80.9782 101.198 82.914 99.1172 88.6126C97.1743 93.9261 102.234 100.721 102.234 100.721C102.234 100.721 112.294 107.59 123.147 106.044C138.622 103.847 143.745 85.8917 147.518 79.1511C156.246 63.5367 130.702 53.4233 124.775 65.8181Z" fill="#FFF5ED"/>
<path d="M119.932 106.913C116.909 106.913 112.989 106.38 108.383 104.563C104.487 103.032 101.972 101.328 101.869 101.254C101.573 101.052 101.494 100.647 101.696 100.351C101.898 100.054 102.303 99.9754 102.599 100.178C102.697 100.247 112.584 106.884 123.054 105.397C135.431 103.639 141.033 91.4422 144.736 83.3733C145.555 81.5906 146.265 80.0499 146.946 78.8302C149.761 73.7883 148.598 69.9168 147.128 67.5563C144.554 63.433 138.893 60.6528 133.661 60.9441C129.795 61.1614 126.846 62.9885 125.361 66.0996C124.883 67.102 124.602 68.6575 124.301 70.3019C123.517 74.6426 122.536 80.0449 117.23 81.6745C114.202 82.6029 110.952 82.0301 108.176 81.3486C107.826 81.2647 107.614 80.9091 107.698 80.5585C107.781 80.2079 108.136 79.9956 108.487 80.0795C111.09 80.7215 114.123 81.2597 116.85 80.4252C121.402 79.0277 122.265 74.2673 123.024 70.0698C123.34 68.3366 123.635 66.6971 124.193 65.5366C125.894 61.9811 129.232 59.8874 133.592 59.6454C136.304 59.4923 139.243 60.1046 141.866 61.3688C144.613 62.6873 146.812 64.5934 148.238 66.8699C149.357 68.6625 149.939 70.6081 149.968 72.6525C150.003 74.8846 149.367 77.1759 148.09 79.4721C147.434 80.6474 146.738 82.1634 145.93 83.9214C144.031 88.0546 141.669 93.2002 138.128 97.6199C133.902 102.899 129.035 105.867 123.246 106.691C122.309 106.825 121.204 106.918 119.942 106.918L119.932 106.913Z" fill="#1A4200"/>
<path d="M157.844 50.1887C154.604 46.3962 147.853 54.9886 147.853 54.9886C147.853 54.9886 156.493 42.7963 150.452 40.1445C145.215 37.8433 140.905 50.7171 140.53 52.9047C140.875 50.7912 144.278 38.6581 139.046 38.7421C133.311 38.8359 133.163 49.5813 133.488 53.838C133.488 53.838 131.067 54.5837 128.863 56.638C127.516 57.8923 128.148 60.8996 128.148 60.8996L128.187 60.9144C128.128 61.2008 128.083 61.4971 128.054 61.8033C127.561 67.4476 132.605 72.3166 139.312 72.7611C147.345 73.2944 151.975 67.1711 152.469 61.5317C152.478 61.3934 161.133 54.0356 157.844 50.1838V50.1887Z" fill="#FFF5ED"/>
<path d="M142.946 63.5167C142.646 63.5167 142.379 63.3093 142.31 63.0032C141.211 57.9909 136.462 58.5539 136.26 58.5786C135.905 58.623 135.579 58.3761 135.53 58.0206C135.48 57.665 135.732 57.3391 136.087 57.2897C136.151 57.2798 137.64 57.0873 139.302 57.6551C140.865 58.1835 142.872 59.4971 143.583 62.7316C143.661 63.0822 143.439 63.4328 143.084 63.5069C143.035 63.5167 142.991 63.5217 142.946 63.5217V63.5167Z" fill="#1A4200"/>
<path d="M140.278 73.4525C139.948 73.4525 139.613 73.4426 139.272 73.4179C135.485 73.1661 132.038 71.5365 129.814 68.939C128.039 66.865 127.186 64.3169 127.408 61.7491C127.428 61.5071 127.462 61.2602 127.506 61.0182C127.487 60.9046 127.497 60.7861 127.541 60.6676C127.669 60.3318 128.049 60.1639 128.384 60.2972L128.424 60.312C128.72 60.4256 128.892 60.7417 128.823 61.0528C128.769 61.3194 128.724 61.591 128.705 61.8626C128.512 64.0749 129.257 66.2872 130.801 68.0897C132.798 70.4205 135.914 71.8871 139.356 72.1143C146.807 72.6081 151.339 67.0033 151.823 61.4775C151.847 61.2157 151.931 61.1318 152.355 60.7269C157.188 56.0899 158.958 52.4999 157.35 50.6135C156.917 50.1049 156.394 49.8629 155.758 49.8777C153.213 49.9271 149.559 53.8776 148.366 55.3936C148.149 55.6702 147.749 55.7245 147.463 55.5122C147.182 55.2998 147.118 54.8998 147.32 54.6134C147.335 54.5937 148.765 52.569 150.023 50.0407C151.64 46.7963 152.256 44.2087 151.798 42.5643C151.561 41.71 151.034 41.1125 150.19 40.7421C149.431 40.4063 148.671 40.4557 147.868 40.8903C144.362 42.7766 141.501 51.0925 141.171 53.0184C141.112 53.3739 140.776 53.611 140.421 53.5517C140.066 53.4924 139.83 53.1567 139.889 52.806C139.938 52.5196 140.032 52.0752 140.155 51.5073C140.712 48.9395 142.197 42.11 140.471 40.0063C140.126 39.5816 139.677 39.3891 139.055 39.4039C138.064 39.4187 137.236 39.8039 136.531 40.5792C135.421 41.7989 134.642 44.0112 134.272 46.9741C133.902 49.9567 134.05 52.7418 134.129 53.8036C134.159 54.164 133.888 54.4751 133.528 54.5048C133.168 54.5344 132.857 54.2628 132.827 53.9023C132.694 52.1789 132.211 43.389 135.559 39.7051C136.506 38.6681 137.67 38.1298 139.021 38.1051C140.037 38.0854 140.86 38.4508 141.462 39.1866C142.596 40.5693 142.705 43.1421 142.453 45.7346C143.696 43.2161 145.333 40.7816 147.236 39.7545C148.395 39.1273 149.564 39.0631 150.698 39.5619C151.906 40.0952 152.695 40.989 153.036 42.2285C153.588 44.2186 152.957 47.0531 151.162 50.6481C151.142 50.6826 151.127 50.7172 151.107 50.7518C152.542 49.5913 154.199 48.6086 155.708 48.579C156.749 48.5592 157.627 48.9592 158.322 49.774C159.762 51.4629 159.496 53.8134 157.523 56.7714C156.058 58.9689 154.012 60.9343 153.238 61.675C153.184 61.7293 153.124 61.7836 153.075 61.8281C152.464 67.6403 147.833 73.4574 140.259 73.4574L140.278 73.4525Z" fill="#1A4200"/>
<path d="M122.412 48.6281C119.197 54.0947 127.59 54.2626 128.148 60.9093C128.148 60.9093 130.83 62.1834 133.172 60.5884C135.515 58.9933 133.488 53.8428 133.488 53.8428C132.724 49.3047 124.799 44.5788 122.417 48.6281H122.412Z" fill="#FFF5ED"/>
<path d="M128.152 61.7539C127.817 61.7539 127.531 61.4972 127.506 61.1564C127.275 58.3466 125.534 56.7862 123.847 55.2751C121.885 53.5171 119.853 51.6949 121.855 48.2925C122.743 46.7864 124.345 46.1642 126.367 46.5395C129.558 47.132 133.557 50.332 134.129 53.7294C134.188 54.085 133.952 54.4208 133.597 54.48C133.241 54.5393 132.906 54.3023 132.847 53.9467C132.413 51.3542 129.149 48.3814 126.131 47.8234C125.105 47.6357 123.729 47.6753 122.975 48.9592C121.515 51.4381 122.718 52.5196 124.715 54.3072C126.412 55.8282 128.522 57.7195 128.803 61.0478C128.833 61.4083 128.567 61.7194 128.207 61.749C128.187 61.749 128.172 61.749 128.152 61.749V61.7539Z" fill="#1A4200"/>
<path d="M214.765 160.928C212.408 161.851 210.421 161.733 208.863 160.779C205.973 159.017 205.233 153.733 204.326 151.876C201.234 145.55 193.97 143.689 188.344 147.911C185.069 150.365 183.388 154.414 183.97 158.463C185.262 167.456 191.653 185.697 200.341 186.754C209.533 187.875 209.385 181.915 216.112 177.87C216.112 177.87 219.361 175.609 218.799 168.572C218.518 165.061 214.765 160.923 214.765 160.923V160.928Z" fill="#FFF5ED"/>
<path d="M202.467 187.549C201.791 187.549 201.061 187.505 200.262 187.406C195.144 186.779 191.204 180.789 188.797 175.875C185.681 169.5 183.901 162.567 183.324 158.562C182.707 154.276 184.482 149.994 187.954 147.392C190.799 145.259 194.138 144.513 197.353 145.288C200.578 146.069 203.335 148.365 204.908 151.594C205.179 152.147 205.421 152.938 205.702 153.846C206.382 156.054 207.309 159.076 209.198 160.226C210.643 161.11 212.438 161.14 214.524 160.32C214.859 160.187 215.234 160.355 215.367 160.69C215.5 161.026 215.332 161.402 214.997 161.535C212.546 162.498 210.303 162.429 208.517 161.337C206.21 159.93 205.194 156.636 204.454 154.231C204.188 153.372 203.961 152.631 203.734 152.167C202.309 149.244 199.932 147.254 197.042 146.557C194.207 145.876 191.253 146.543 188.728 148.439C185.636 150.755 184.058 154.567 184.606 158.379C185.962 167.806 192.407 185.139 200.41 186.117C206.022 186.803 207.837 184.808 210.352 182.048C211.738 180.527 213.311 178.799 215.766 177.322C216.077 177.135 216.476 177.238 216.659 177.544C216.846 177.856 216.743 178.256 216.437 178.438C214.144 179.816 212.704 181.396 211.313 182.922C209.075 185.381 207.097 187.549 202.457 187.549H202.467Z" fill="#1A4200"/>
<path d="M245.122 160.779C250.113 155.732 244.289 151.999 244.289 151.999C240.945 144.059 229.737 146.898 225.022 152.473C221.102 157.105 217.655 159.797 214.77 160.927C214.77 160.927 210.357 165.021 210.322 168.453C210.263 174.739 216.644 177.604 216.644 177.604C221.161 175.13 243.687 171.401 245.107 165.792C245.561 163.989 245.349 162.118 244.348 160.789H245.127L245.122 160.779Z" fill="#FFF5ED"/>
<path d="M213.7 161.935C213.429 161.935 213.178 161.762 213.084 161.495C212.965 161.155 213.148 160.784 213.488 160.666C217.034 159.451 220.643 156.631 224.524 152.049C227.764 148.221 233.652 145.866 238.223 146.567C241.296 147.036 243.569 148.765 244.807 151.57C245.428 152.014 247.489 153.663 247.761 156.127C247.953 157.866 247.218 159.584 245.581 161.243C245.329 161.5 244.915 161.5 244.659 161.243C244.402 160.987 244.402 160.577 244.659 160.32C246.005 158.957 246.612 157.599 246.469 156.276C246.227 154.058 243.954 152.562 243.934 152.547C243.825 152.478 243.737 152.374 243.687 152.251C242.647 149.782 240.694 148.266 238.026 147.856C233.864 147.219 228.484 149.382 225.516 152.893C221.482 157.658 217.685 160.606 213.907 161.9C213.838 161.925 213.764 161.935 213.695 161.935H213.7Z" fill="#1A4200"/>
<path d="M216.116 178.532C215.895 178.532 215.678 178.418 215.559 178.216C215.372 177.905 215.475 177.505 215.781 177.322C217.221 176.458 220.633 175.495 224.958 174.27C232.39 172.172 243.618 169.001 244.471 165.629C245.009 163.49 244.491 161.51 243.115 160.463C241.833 159.486 238.647 158.444 231.709 162.404C231.398 162.582 230.999 162.473 230.821 162.162C230.644 161.851 230.752 161.451 231.063 161.273C234.022 159.584 236.655 158.597 238.904 158.34C240.931 158.108 242.657 158.483 243.899 159.426C245.699 160.794 246.399 163.293 245.729 165.95C244.693 170.053 234.397 172.962 225.308 175.525C221.245 176.67 217.734 177.663 216.447 178.438C216.343 178.502 216.225 178.532 216.111 178.532H216.116Z" fill="#1A4200"/>
<path d="M231.389 154.77C231.162 154.77 230.945 154.651 230.822 154.444C230.644 154.133 230.748 153.733 231.063 153.555C235.294 151.12 241.074 149.283 244.624 151.446C244.93 151.634 245.028 152.034 244.841 152.34C244.654 152.646 244.254 152.745 243.949 152.557C240.881 150.691 235.442 152.533 231.714 154.681C231.611 154.74 231.502 154.77 231.389 154.77Z" fill="#1A4200"/>
<path d="M160.63 89.3586C160.63 89.3586 150.664 92.7215 148.08 105.487C145.989 115.817 151.334 127.076 151.334 127.076C159.303 126.666 177.776 173.851 177.776 173.851L220.234 146.903C220.234 146.903 181.519 91.9117 160.635 89.3537L160.63 89.3586Z" fill="#9CEE69"/>
<path d="M177.771 174.507C177.702 174.507 177.633 174.498 177.569 174.473C177.386 174.414 177.238 174.27 177.164 174.093C177.12 173.974 172.49 162.177 166.952 150.587C163.707 143.797 160.788 138.405 158.283 134.568C156.606 132 153.504 127.728 151.443 127.728C151.418 127.728 151.394 127.728 151.369 127.728C151.014 127.748 150.703 127.471 150.683 127.111C150.664 126.75 150.94 126.444 151.3 126.425C152.459 126.365 153.736 127.047 155.215 128.504C156.448 129.723 157.849 131.521 159.372 133.856C161.912 137.743 164.856 143.185 168.13 150.029C172.894 159.999 176.987 170.117 178.091 172.883L219.302 146.725C217.359 144.009 208.512 131.812 197.767 119.516C190.656 111.373 184.118 104.786 178.333 99.9313C171.173 93.9166 165.191 90.5784 160.556 90.0105C160.201 89.9661 159.944 89.6402 159.989 89.2846C160.033 88.9291 160.359 88.6723 160.714 88.7167C165.606 89.3143 171.814 92.7562 179.176 98.9338C185.01 103.832 191.598 110.474 198.758 118.667C210.929 132.597 220.673 146.399 220.767 146.533C220.87 146.681 220.91 146.859 220.875 147.036C220.841 147.214 220.737 147.362 220.584 147.461L178.126 174.409C178.022 174.478 177.899 174.512 177.776 174.512L177.771 174.507Z" fill="#1A4200"/>
<path d="M180.537 161.644C180.325 161.644 180.113 161.54 179.99 161.347C179.793 161.046 179.881 160.641 180.182 160.444L206.461 143.377C206.762 143.18 207.166 143.269 207.363 143.57C207.561 143.871 207.472 144.276 207.171 144.474L180.892 161.54C180.784 161.609 180.661 161.644 180.537 161.644Z" fill="#1A4200"/>
<path d="M102.352 118.914C98.1853 122.109 83.2632 120.721 75.817 132.4C72.2468 138 68.1982 158.365 89.9402 163.066C118.315 169.199 142.769 127.526 151.33 127.081C151.33 127.081 162.578 121.96 164.969 111.931C168.002 99.2202 160.625 89.3636 160.625 89.3636C140.959 86.9538 114.646 109.487 102.347 118.919L102.352 118.914Z" fill="#9CEE69"/>
<path d="M95.6653 164.33C93.6928 164.33 91.74 164.123 89.8069 163.703C85.571 162.789 82.0303 161.219 79.2886 159.046C76.8673 157.13 75.0427 154.73 73.874 151.915C72.0988 147.654 72.1777 143.318 72.5524 140.429C73.0505 136.607 74.2833 133.595 75.2696 132.044C80.4622 123.901 89.1215 121.951 95.4483 120.524C98.2838 119.887 100.73 119.333 101.958 118.39C103.171 117.462 104.537 116.385 105.986 115.25C112.673 110 121.831 102.81 131.614 97.2302C136.975 94.1735 142.014 91.9019 146.6 90.4798C151.98 88.8107 156.931 88.2428 161.32 88.7958C161.675 88.8403 161.932 89.1662 161.887 89.5218C161.843 89.8773 161.517 90.1341 161.162 90.0896C156.961 89.5613 152.192 90.1143 146.99 91.7291C142.498 93.1217 137.542 95.3587 132.265 98.366C122.565 103.897 113.452 111.052 106.8 116.277C105.35 117.417 103.979 118.489 102.761 119.427C101.307 120.543 98.8509 121.096 95.7491 121.798C89.6442 123.175 81.2857 125.057 76.384 132.745C74.1748 136.212 72.2319 144.543 75.092 151.412C77.4492 157.076 82.4988 160.779 90.0979 162.424C108.26 166.35 124.77 149.965 136.827 138.005C143.627 131.259 148.533 126.38 152.114 126.514C152.474 126.528 152.755 126.83 152.74 127.19C152.725 127.551 152.429 127.832 152.064 127.817C152.035 127.817 152 127.817 151.971 127.817C148.943 127.817 143.75 132.973 137.739 138.933C134.77 141.876 131.407 145.214 127.837 148.404C123.729 152.073 119.986 154.982 116.391 157.298C109.078 162.004 102.249 164.325 95.6801 164.325L95.6653 164.33Z" fill="#1A4200"/>
<path d="M128.596 145.96L120.149 209.159H173.584C173.584 209.159 183.856 116.948 152.099 116.958C133.039 116.963 129.075 141.852 128.596 145.96Z" fill="#9CEE69"/>
<path d="M173.584 209.81H120.149C119.962 209.81 119.784 209.731 119.661 209.588C119.538 209.445 119.478 209.257 119.508 209.075L127.955 145.881C128.128 144.404 129.163 136.77 132.803 129.625C134.795 125.714 137.236 122.612 140.052 120.4C143.518 117.684 147.567 116.306 152.099 116.306C156.69 116.306 160.689 118.178 163.983 121.867C168.071 126.439 171.143 133.901 173.126 144.044C174.699 152.103 175.591 161.876 175.779 173.095C176.099 192.171 174.245 209.07 174.225 209.238C174.191 209.568 173.91 209.815 173.579 209.815L173.584 209.81ZM120.889 208.507H172.993C173.313 205.386 174.763 190.112 174.477 173.1C174.289 161.96 173.402 152.266 171.844 144.286C169.911 134.38 166.937 127.131 163.012 122.736C159.974 119.333 156.3 117.61 152.094 117.61C147.863 117.61 144.081 118.894 140.851 121.427C138.183 123.521 135.86 126.479 133.957 130.217C130.411 137.17 129.405 144.617 129.242 146.039C129.242 146.039 129.242 146.044 129.242 146.049L120.894 208.507H120.889Z" fill="#1A4200"/>
<path d="M93.4709 129.244C92.9334 126.321 90.1325 124.39 87.2132 124.928L42.9994 133.091L44.9472 143.673L89.161 135.511C92.0803 134.972 94.0084 132.168 93.4709 129.244Z" fill="#FFF5ED"/>
<path d="M44.9472 144.325C44.6415 144.325 44.3653 144.108 44.3062 143.792L42.3583 133.21C42.2942 132.854 42.526 132.513 42.881 132.449L87.0948 124.286C90.3593 123.684 93.5104 125.852 94.112 129.126C94.4029 130.711 94.0627 132.316 93.1504 133.639C92.2381 134.963 90.8623 135.856 89.2793 136.153L45.0656 144.315C45.0261 144.32 44.9867 144.325 44.9472 144.325ZM43.7588 133.615L45.4699 142.918L89.0426 134.874C90.2853 134.647 91.3603 133.945 92.0754 132.903C92.7904 131.861 93.0567 130.607 92.8298 129.363C92.3564 126.8 89.8908 125.096 87.3266 125.57L43.7539 133.615H43.7588Z" fill="#1A4200"/>
<path d="M82.4692 82.0059C67.3154 84.9095 49.3902 92.7908 52.418 115.926C53.2021 121.916 55.4754 125.817 58.6511 128.202" fill="#FFF5ED"/>
<path d="M52.418 115.926C53.2021 121.916 55.4754 125.817 58.6511 128.202C58.6511 128.202 67.2759 128.202 71.7831 124.365C78.248 118.864 75.6048 102.529 75.6048 102.529C75.6048 102.529 85.7978 99.4376 87.144 93.4871C89.2595 84.1342 82.4692 82.0009 82.4692 82.0009C67.3154 84.9046 49.3902 92.7859 52.418 115.921V115.926Z" fill="#FFF5ED"/>
<path d="M58.6512 128.854C58.5131 128.854 58.38 128.81 58.2616 128.726C54.7111 126.059 52.5265 121.783 51.7721 116.015C50.3864 105.423 53.2218 96.9685 60.1996 90.8896C65.3528 86.4008 72.8039 83.1959 82.3459 81.3688C82.701 81.2997 83.0412 81.5318 83.1053 81.8873C83.1744 82.2429 82.9426 82.5836 82.5876 82.6478C73.2724 84.4305 66.0284 87.5366 61.0478 91.8723C57.9361 94.5833 55.6678 97.8228 54.3117 101.502C52.778 105.655 52.3589 110.479 53.0591 115.847C53.7643 121.254 55.7762 125.235 59.0358 127.684C59.3218 127.901 59.381 128.306 59.164 128.597C59.0358 128.77 58.8386 128.859 58.6413 128.859L58.6512 128.854Z" fill="#1A4200"/>
<path d="M75.3978 106.697C75.3436 106.697 75.2844 106.692 75.2302 106.672C74.885 106.578 74.6779 106.223 74.7716 105.872C75.6543 102.578 74.7814 99.2154 74.7716 99.1808C74.6779 98.8352 74.885 98.4747 75.2302 98.3809C75.5754 98.287 75.9353 98.4944 76.029 98.8401C76.0685 98.9882 77.0054 102.563 76.029 106.208C75.9501 106.499 75.6888 106.692 75.4028 106.692L75.3978 106.697Z" fill="#1A4200"/>
<path d="M97.0461 99.8032C86.6658 100.183 78.4749 103.492 70.3975 109.571C70.3975 109.571 63.6022 111.008 60.1257 116.395C57.4085 120.613 58.6562 128.203 58.6562 128.203C71.2309 137.649 97.9485 123.373 102.244 121.398C114.128 115.926 109.384 99.3538 97.051 99.8032H97.0461Z" fill="#FFF5ED"/>
<path d="M69.929 131.896C64.9484 131.896 60.8949 130.721 57.8178 128.375C57.5317 128.158 57.4775 127.748 57.6945 127.462C57.9114 127.175 58.3207 127.121 58.6068 127.338C63.4887 131.057 71.1272 131.595 81.3153 128.933C89.6047 126.765 97.3715 123.017 100.685 121.417C101.223 121.156 101.652 120.953 101.967 120.805C104.556 119.615 106.48 117.778 107.53 115.497C108.472 113.452 108.694 111.062 108.151 108.776C107.13 104.47 103.304 100.223 97.0657 100.455C87.2722 100.81 79.1702 103.783 70.787 110.094C70.501 110.312 70.0917 110.252 69.8747 109.966C69.6577 109.679 69.7169 109.27 70.0029 109.052C78.6129 102.573 86.9418 99.5216 97.0164 99.1562C100.118 99.0426 102.964 99.9562 105.237 101.798C107.303 103.472 108.787 105.842 109.414 108.479C110.025 111.052 109.774 113.739 108.708 116.05C107.525 118.618 105.38 120.672 102.505 121.995C102.199 122.133 101.78 122.341 101.247 122.598C97.8991 124.217 90.0535 128.005 81.6407 130.202C77.2963 131.338 73.3858 131.906 69.929 131.906V131.896Z" fill="#1A4200"/>
<path d="M119.513 109.828C122.95 103.092 116.293 102.188 116.293 102.188C114.947 100.055 112.93 98.3217 110.4 97.3439C104.142 94.9242 97.1151 98.0451 94.6988 104.312C92.2825 110.578 95.399 117.615 101.657 120.035C103.102 120.593 104.581 120.854 106.041 120.854C111.731 121.003 118.818 119.22 120.618 114.331C121.678 111.452 119.508 109.833 119.508 109.833L119.513 109.828Z" fill="#FFF5ED"/>
<path d="M106.716 121.516C106.489 121.516 106.263 121.516 106.031 121.506H106.021C104.448 121.506 102.899 121.215 101.42 120.647C94.8368 118.104 91.5477 110.672 94.0873 104.08C96.6269 97.4871 104.048 94.1933 110.632 96.7365C113.127 97.6994 115.218 99.3784 116.687 101.601C117.496 101.773 119.681 102.405 120.662 104.297C121.411 105.744 121.293 107.551 120.312 109.674C121.15 110.549 122.062 112.297 121.234 114.553C120.346 116.958 118.201 118.869 115.025 120.089C112.614 121.013 109.69 121.511 106.721 121.511L106.716 121.516ZM106.041 120.203C106.041 120.203 106.051 120.203 106.055 120.203C111.825 120.356 118.379 118.529 120.006 114.104C120.879 111.739 119.187 110.405 119.113 110.351C118.862 110.158 118.783 109.813 118.926 109.536C119.907 107.615 120.1 106.055 119.503 104.904C118.615 103.196 116.224 102.845 116.199 102.84C116.012 102.815 115.839 102.707 115.736 102.544C114.409 100.44 112.481 98.855 110.158 97.9562C104.246 95.6698 97.5786 98.6327 95.3004 104.554C93.0172 110.474 95.976 117.151 101.889 119.432C103.22 119.946 104.611 120.208 106.021 120.208C106.026 120.208 106.031 120.208 106.041 120.208V120.203Z" fill="#1A4200"/>
<path d="M105.908 98.618C105.908 98.618 123.123 89.4479 125.692 95.0872C127.753 99.6106 116.239 102.613 116.239 102.613" fill="#FFF5ED"/>
<path d="M116.239 103.26C115.948 103.26 115.686 103.067 115.607 102.771C115.519 102.42 115.726 102.065 116.071 101.976C116.091 101.971 118.034 101.462 120.129 100.564C122.807 99.4229 124.518 98.1884 125.08 97.0032C125.342 96.4501 125.347 95.9119 125.09 95.3539C124.829 94.781 124.365 94.3909 123.675 94.1539C121.712 93.4873 118.088 94.1342 113.201 96.0205C109.428 97.4773 106.238 99.1711 106.203 99.1908C105.888 99.3587 105.493 99.2402 105.321 98.9192C105.153 98.6032 105.271 98.2081 105.592 98.0353C106.125 97.7489 118.724 91.0922 124.094 92.9144C125.13 93.265 125.864 93.902 126.279 94.8057C126.698 95.7242 126.688 96.6477 126.259 97.5563C124.592 101.062 116.732 103.141 116.401 103.23C116.347 103.245 116.293 103.25 116.239 103.25V103.26Z" fill="#1A4200"/>
<path d="M110.114 91.7293C109.177 88.0059 104.64 88.5096 103.792 92.3021C103.033 95.7045 99.7632 98.4353 98.343 99.2698C98.343 99.2698 99.4032 101.452 103.486 101.497C107.283 101.536 108.102 98.4303 108.102 98.4303C109.281 96.6872 110.686 94.0107 110.109 91.7342L110.114 91.7293Z" fill="#FFF5ED"/>
<path d="M98.348 99.9217C98.1261 99.9217 97.9091 99.8081 97.7858 99.6007C97.6034 99.2896 97.7069 98.8896 98.0176 98.7069C99.1173 98.06 102.421 95.4674 103.161 92.1589C103.713 89.6799 105.567 88.554 107.165 88.5293C108.896 88.5046 110.272 89.67 110.75 91.5712C111.376 94.0502 109.951 96.8649 108.649 98.7908C108.447 99.0871 108.043 99.1661 107.747 98.9637C107.451 98.7612 107.372 98.3563 107.574 98.06C108.521 96.6625 110.025 94.0057 109.493 91.8922C109.162 90.5885 108.309 89.8231 107.19 89.8379C106.11 89.8527 104.838 90.6675 104.438 92.4453C103.595 96.223 100 99.0575 98.6883 99.8328C98.5847 99.892 98.4713 99.9217 98.3579 99.9217H98.348Z" fill="#1A4200"/>
<path d="M80.5954 89.8821C81.5471 93.1462 85.5217 94.8499 88.8602 93.8722C92.1986 92.8944 94.6248 89.3093 93.6682 86.0452C93.0616 83.9711 90.236 78.0552 84.708 79.6749C79.0075 81.349 79.8705 87.4032 80.5954 89.8772V89.8821Z" fill="#FFF5ED"/>
<path d="M86.9073 94.8054C83.771 94.8054 80.8024 92.9042 79.969 90.0697C79.6978 89.1463 79.1258 86.7464 79.6041 84.3563C80.1416 81.6798 81.8429 79.8477 84.5255 79.0576C87.1243 78.2972 89.5357 78.9786 91.5033 81.0329C92.9629 82.5539 93.9196 84.5884 94.2944 85.8723C95.3102 89.3537 92.8594 93.3882 89.0426 94.5042C88.3374 94.7116 87.6174 94.8104 86.9073 94.8104V94.8054ZM81.2216 89.6994C81.621 91.0672 82.6467 92.1981 84.1113 92.8796C85.5414 93.5462 87.2081 93.6795 88.6826 93.2499C90.1521 92.8203 91.4835 91.803 92.3317 90.4697C93.1947 89.1068 93.4511 87.6007 93.0517 86.2328C92.7164 85.0921 91.8682 83.2847 90.5713 81.9317C88.939 80.228 87.0306 79.6798 84.8954 80.307C82.6763 80.9588 81.3251 82.4057 80.8813 84.6081C80.4622 86.7167 80.9799 88.8698 81.2216 89.6994Z" fill="#1A4200"/>
<path d="M66.3194 77.1416C68.1587 83.4279 69.648 88.529 86.7841 83.502C102.875 78.786 102.426 73.3787 100.587 67.0925C98.7474 60.8062 92.2431 57.1766 80.122 60.7321C67.5916 64.4061 64.48 70.8554 66.3194 77.1416Z" fill="#FFF5ED"/>
<path d="M75.891 86.1686C73.3169 86.1686 71.3197 85.6205 69.7713 84.5094C67.4634 82.8551 66.5265 80.1638 65.6931 77.3243C64.6526 73.7738 65.2148 70.401 67.3106 67.5665C69.6677 64.3814 73.9185 61.8728 79.9395 60.105C85.8028 58.3865 90.6799 58.2186 94.4375 59.6111C97.8401 60.8704 100.182 63.3987 101.213 66.9098C102.106 69.9615 102.821 73.196 100.966 76.2281C99.0334 79.3836 94.5854 81.8971 86.9666 84.1291C86.6214 84.2279 86.2614 84.0304 86.1579 83.6847C86.0593 83.339 86.2565 82.9785 86.6017 82.8748C93.7915 80.7662 98.1261 78.3712 99.857 75.5417C101.435 72.9639 100.809 70.1591 99.9654 67.2702C99.0581 64.1691 96.9919 61.937 93.9887 60.8259C90.5023 59.5321 85.9015 59.7099 80.3094 61.3494C74.5645 63.0333 70.5455 65.3839 68.3609 68.3369C66.492 70.8652 66.0136 73.7639 66.9506 76.949C67.7445 79.665 68.5631 82.0255 70.5356 83.4427C72.7793 85.0526 76.4285 85.2748 81.6902 84.1291C82.0403 84.0501 82.3904 84.2773 82.4644 84.6279C82.5433 84.9785 82.3164 85.3291 81.9663 85.4032C79.6535 85.9069 77.6416 86.1587 75.8959 86.1587L75.891 86.1686Z" fill="#1A4200"/>
<path d="M82.5777 78.5983C81.1378 78.5983 80.1416 78.1292 79.5154 77.6699C78.608 77.0082 78.248 76.2379 78.2135 76.1539C78.0705 75.8231 78.2135 75.4379 78.5488 75.2947C78.8743 75.1515 79.2589 75.2947 79.4069 75.6255C79.4562 75.7292 80.4819 77.8378 83.8352 77.1662C84.1853 77.0971 84.5305 77.3243 84.5995 77.6749C84.6685 78.0255 84.4417 78.3711 84.0916 78.4403C83.5442 78.5489 83.0412 78.5983 82.5826 78.5983H82.5777Z" fill="#1A4200"/>
<path d="M83.5392 74.4799C83.2582 74.4799 82.9968 74.2972 82.913 74.0108C82.8143 73.6651 83.0116 73.3047 83.3568 73.201L85.1764 72.6676C85.5216 72.5689 85.8816 72.7664 85.9851 73.1121C86.0838 73.4577 85.8865 73.8182 85.5413 73.9219L83.7217 74.4552C83.6625 74.475 83.5984 74.4799 83.5392 74.4799Z" fill="#1A4200"/>
<path d="M85.0038 76.1047C84.7227 76.1047 84.4613 75.9219 84.3775 75.6355L83.8252 73.7442C83.7266 73.3985 83.9238 73.0381 84.269 72.9344C84.6142 72.8356 84.9742 73.0331 85.0777 73.3788L85.63 75.2701C85.7287 75.6158 85.5314 75.9763 85.1862 76.08C85.127 76.0997 85.0629 76.1047 85.0038 76.1047Z" fill="#1A4200"/>
<path d="M85.4774 71.379C85.3245 71.379 85.1667 71.3246 85.0434 71.2111C84.7771 70.9691 84.7525 70.5592 84.9941 70.2926L87.1639 67.8778C87.4055 67.6111 87.8148 67.5865 88.0811 67.8284C88.3474 68.0704 88.372 68.4803 88.1304 68.7469L85.9606 71.1617C85.8324 71.3049 85.6549 71.379 85.4774 71.379Z" fill="#1A4200"/>
<path d="M81.8972 72.4308C81.8232 72.4308 81.7493 72.4159 81.6753 72.3913L78.5834 71.2654C78.2431 71.1419 78.0705 70.7666 78.1938 70.4308C78.3171 70.0901 78.6919 69.9172 79.0272 70.0407L82.1191 71.1666C82.4594 71.29 82.632 71.6653 82.5087 72.0011C82.415 72.2678 82.1635 72.4308 81.8972 72.4308Z" fill="#1A4200"/>
<path d="M94.4917 65.1568C96.5086 62.5445 98.5353 60.2779 103.56 60.6335C109.621 61.068 119.474 67.5716 113.729 71.9616C109.596 75.122 107.116 67.4926 102.816 67.0926C100.429 66.8704 97.7907 69.2654 97.7907 69.2654" fill="#FFF5ED"/>
<path d="M111.751 73.3887C109.986 73.3887 108.467 71.9122 107.081 70.5641C105.73 69.2505 104.334 67.8926 102.752 67.7444C100.68 67.5518 98.2493 69.7295 98.2247 69.7493C97.9584 69.9913 97.5491 69.9715 97.3074 69.7049C97.0658 69.4382 97.0855 69.0283 97.3518 68.7864C97.4702 68.6827 100.232 66.1988 102.875 66.4457C104.911 66.6383 106.475 68.1592 107.989 69.6308C110.158 71.7443 111.475 72.8653 113.334 71.448C114.616 70.4703 115.055 69.3888 114.685 68.1444C114.246 66.6679 112.658 65.0284 110.341 63.6408C108.112 62.3124 105.557 61.4285 103.511 61.2853C98.9249 60.9594 97.0905 62.8507 95.0045 65.5568C94.7826 65.8432 94.3783 65.8926 94.0923 65.6753C93.8062 65.4531 93.7569 65.0482 93.9739 64.7618C96.1585 61.9272 98.3923 59.6162 103.605 59.9866C105.843 60.1446 108.61 61.0927 111.007 62.5248C112.535 63.4334 115.203 65.3296 115.933 67.774C116.303 69.0086 116.288 70.8308 114.123 72.485C113.28 73.127 112.491 73.3887 111.751 73.3887Z" fill="#1A4200"/>
<path d="M70.7476 72.4751C68.0453 70.5887 65.4268 69.0332 60.7421 70.8801C55.0908 73.1121 47.6348 82.2724 54.4251 84.7415C59.312 86.5143 59.3958 78.4947 63.3803 76.8207C65.5895 75.8923 68.8244 77.3886 68.8244 77.3886" fill="#FFF5ED"/>
<path d="M55.7615 85.6502C55.293 85.6502 54.7752 85.5563 54.2081 85.3489C51.6488 84.4206 51.0916 82.6873 51.0719 81.3984C51.0373 78.8454 53.0197 76.238 54.2032 74.9097C56.0623 72.8307 58.4194 71.0925 60.5054 70.2678C65.3676 68.3468 68.1883 69.8875 71.1224 71.9369C71.4183 72.1443 71.4873 72.5492 71.2851 72.8455C71.078 73.1418 70.6737 73.2109 70.3778 73.0085C67.5768 71.053 65.2641 69.7987 60.9837 71.4875C59.0753 72.243 56.9055 73.848 55.1747 75.7837C53.3748 77.7985 52.354 79.8429 52.3737 81.3836C52.3934 82.6823 53.1381 83.5761 54.652 84.1292C56.8513 84.9243 57.7685 83.4576 59.2085 80.791C60.2095 78.9343 61.2451 77.0133 63.1337 76.2183C65.5797 75.1911 68.9576 76.7269 69.1006 76.796C69.426 76.9491 69.569 77.3343 69.4162 77.6602C69.2633 77.9861 68.8787 78.1293 68.5532 77.9763C68.5236 77.9614 65.5501 76.6133 63.6367 77.4182C62.1721 78.0355 61.2451 79.7491 60.3525 81.4083C59.2676 83.4181 58.0644 85.6502 55.7615 85.6502Z" fill="#1A4200"/>
<path d="M96.7501 55.4733L71.1617 62.0509C71.1617 62.0509 72.868 45.2315 81.4286 46.8463C89.9943 48.4611 80.7974 59.572 80.7974 59.572" fill="#9CEE69"/>
<path d="M71.1618 62.7025C71.009 62.7025 70.8561 62.6482 70.7378 62.5445C70.575 62.4062 70.4912 62.1988 70.5158 61.9865C70.5602 61.542 71.6796 51.0336 76.5912 47.3547C78.0656 46.2486 79.7373 45.8634 81.552 46.2091C83.6232 46.5992 84.9398 47.5473 85.4773 49.0337C86.5375 51.9768 84.0127 56.2385 82.4397 58.4804L96.5875 54.8459C96.9376 54.757 97.2926 54.9644 97.3814 55.315C97.4702 55.6656 97.2631 56.0212 96.9129 56.1101L71.3246 62.6877C71.2703 62.7025 71.2161 62.7074 71.1618 62.7074V62.7025ZM80.2896 47.3893C79.2393 47.3893 78.2777 47.7251 77.3752 48.3967C73.7162 51.1324 72.3256 58.5495 71.9361 61.1766L80.4326 58.994C80.7975 58.5347 81.8528 57.152 82.7848 55.4879C84.2346 52.9052 84.7376 50.8262 84.2494 49.4682C83.8796 48.4362 82.918 47.7893 81.3104 47.4831C80.9603 47.4189 80.62 47.3843 80.2896 47.3843V47.3893Z" fill="#1A4200"/>
</g>
</svg>
