<svg width="216" height="26" viewBox="0 0 216 26" fill="none" xmlns="http://www.w3.org/2000/svg">
<mask id="path-1-outside-1_644_711" maskUnits="userSpaceOnUse" x="-0.467773" y="-0.300049" width="216" height="27" fill="black">
<rect fill="white" x="-0.467773" y="-0.300049" width="216" height="27"/>
<path d="M3.1251 1.82495H8.0001C11.8001 1.82495 13.6751 3.24995 13.6751 6.27495V6.57495C13.6751 8.22495 12.9501 9.72495 10.8251 10.25C13.0001 10.575 14.5001 11.825 14.5001 14.4V14.8C14.5001 17.825 12.6501 19.6 8.7751 19.6H3.1251C1.5251 19.6 1.0001 19.1 1.0001 17.525V3.89995C1.0001 2.32495 1.5251 1.82495 3.1251 1.82495ZM4.1751 11.65V16.95H7.0751C9.9001 16.95 11.2251 16.65 11.2251 14.45V14.125C11.2251 12.425 10.2751 11.65 6.8501 11.65H4.1751ZM4.1751 4.47495V9.04995H6.7751C9.7251 9.04995 10.4251 8.52495 10.4251 6.67495V6.44995C10.4251 4.84995 9.3251 4.47495 6.6251 4.47495H4.1751ZM19.0284 6.17495C19.8534 6.17495 20.6034 6.59995 20.6034 7.49995V18.425C20.6034 19.325 19.8534 19.75 19.0284 19.75C18.2284 19.75 17.4534 19.325 17.4534 18.425V7.49995C17.4534 6.59995 18.2284 6.17495 19.0284 6.17495ZM19.0284 0.999951C20.1284 0.999951 21.0034 1.84995 21.0034 2.89995C21.0034 3.94995 20.1284 4.79995 19.0284 4.79995C17.9284 4.79995 17.0534 3.94995 17.0534 2.89995C17.0534 1.84995 17.9284 0.999951 19.0284 0.999951ZM31.5341 6.02495C34.4341 6.02495 36.3341 7.77495 36.3341 11.125V18.425C36.3341 19.325 35.5841 19.75 34.7591 19.75C33.9591 19.75 33.1841 19.325 33.1841 18.425V11.8C33.1841 9.39995 32.0591 8.77495 30.5591 8.77495C29.2841 8.77495 27.5841 9.52495 27.5841 12V18.425C27.5841 19.325 26.8341 19.75 26.0091 19.75C25.2091 19.75 24.4341 19.325 24.4341 18.425V7.44995C24.4341 6.57495 25.1591 6.17495 25.9341 6.17495C26.7091 6.17495 27.4341 6.57495 27.4341 7.44995V7.89995H27.4841C28.2591 6.59995 30.0091 6.02495 31.5341 6.02495ZM44.7364 6.02495C46.8864 6.02495 48.0364 6.92495 48.4614 7.52495H48.4864V7.44995C48.4864 6.57495 49.2114 6.17495 50.0114 6.17495C50.7864 6.17495 51.5114 6.57495 51.5114 7.44995V19.225C51.5114 23.05 49.4614 24.925 44.9614 24.925C43.5114 24.925 41.9864 24.475 41.0614 23.95C40.3864 23.575 40.3364 22.7 40.6864 22.075C41.0864 21.375 41.6614 21.1 42.4114 21.475C43.0864 21.825 44.1114 22.2 45.0114 22.2C47.2364 22.2 48.4114 21.325 48.4114 19.2V17.65H48.3614C47.6364 18.975 46.1614 19.45 44.5114 19.45C41.0364 19.45 39.2114 17.175 39.2114 13V12.5C39.2114 8.24995 41.4114 6.02495 44.7364 6.02495ZM45.2614 8.72495C43.2864 8.72495 42.3364 10.075 42.3364 12.575V12.925C42.3364 15.5 43.1864 16.775 45.1364 16.775C47.2114 16.775 48.4114 15.275 48.4114 13.4V11.45C48.4114 10.175 47.4364 8.72495 45.2614 8.72495ZM60.994 6.02495C65.044 6.02495 67.444 8.29995 67.444 12.6V13.225C67.444 17.525 65.044 19.8 60.994 19.8C56.944 19.8 54.544 17.525 54.544 13.225V12.6C54.544 8.29995 56.944 6.02495 60.994 6.02495ZM60.994 8.77495C58.744 8.77495 57.719 9.94995 57.719 12.65V13.175C57.719 15.875 58.744 17.05 60.994 17.05C63.244 17.05 64.269 15.875 64.269 13.175V12.65C64.269 9.94995 63.244 8.77495 60.994 8.77495ZM89.379 1.67495C90.129 1.67495 90.854 2.07495 90.854 2.97495V17.575C90.854 19.15 90.329 19.65 88.729 19.65C87.504 19.65 87.029 19.4 85.754 17.125L81.029 8.67495C80.529 7.77495 80.129 6.92495 79.829 5.79995V18.45C79.829 19.35 79.104 19.75 78.354 19.75C77.604 19.75 76.879 19.35 76.879 18.45V3.84995C76.879 2.27495 77.404 1.77495 79.004 1.77495C80.229 1.77495 80.704 2.04995 81.979 4.29995L86.704 12.75C87.204 13.65 87.604 14.5 87.904 15.625V2.97495C87.904 2.07495 88.629 1.67495 89.379 1.67495ZM100.247 8.62495C98.1466 8.62495 97.0966 9.84995 97.0966 11.55V11.725H103.297V11.475C103.297 9.84995 102.447 8.62495 100.247 8.62495ZM100.297 6.02495C103.872 6.02495 106.322 8.17495 106.322 11.95V12C106.322 13.575 105.797 14.075 104.197 14.075H97.0966V14.125C97.0966 15.9 98.2216 17.175 100.447 17.175C101.847 17.175 102.797 16.975 103.897 16.475C104.572 16.175 105.272 16.4 105.572 17.1C105.872 17.8 105.697 18.525 105.047 18.85C103.797 19.475 102.347 19.8 100.322 19.8C96.3466 19.8 94.0216 17.6 94.0216 13.25V12.6C94.0216 8.27495 96.3966 6.02495 100.297 6.02495ZM111.747 2.64995C112.572 2.64995 113.322 3.07495 113.322 3.99995V6.32495H115.947C116.697 6.32495 117.047 6.92495 117.047 7.62495C117.047 8.32495 116.697 8.92495 115.947 8.92495H113.322V15.525C113.322 16.625 113.697 17.125 114.547 17.125C114.947 17.125 115.272 17.075 115.697 16.925C116.222 16.75 116.847 16.95 117.097 17.75C117.322 18.45 117.097 19.1 116.472 19.375C115.872 19.65 115.072 19.8 114.272 19.8C111.297 19.8 110.172 18.3 110.172 15.375V8.92495H108.922C108.172 8.92495 107.822 8.32495 107.822 7.62495C107.822 6.92495 108.172 6.32495 108.922 6.32495H110.172V3.99995C110.172 3.07495 110.922 2.64995 111.747 2.64995ZM127.675 6.17495C128.4 6.17495 129.2 6.57495 129.475 7.69995L131.525 16.5H131.625L133.6 7.34995C133.825 6.27495 134.65 6.04995 135.45 6.22495C136.325 6.42495 136.775 7.07495 136.525 8.07495L133.975 18.05C133.65 19.275 132.925 19.75 131.75 19.75C130.575 19.75 129.825 19.25 129.525 18.075L127.65 10.4H127.55L125.65 18.075C125.35 19.25 124.6 19.75 123.425 19.75C122.25 19.75 121.5 19.25 121.2 18.075L118.65 8.14995C118.4 7.14995 118.875 6.42495 119.8 6.22495C120.65 6.04995 121.55 6.27495 121.775 7.42495L123.575 16.5H123.675L125.825 7.74995C126.1 6.57495 126.925 6.17495 127.675 6.17495ZM144.978 6.02495C149.028 6.02495 151.428 8.29995 151.428 12.6V13.225C151.428 17.525 149.028 19.8 144.978 19.8C140.928 19.8 138.528 17.525 138.528 13.225V12.6C138.528 8.29995 140.928 6.02495 144.978 6.02495ZM144.978 8.77495C142.728 8.77495 141.703 9.94995 141.703 12.65V13.175C141.703 15.875 142.728 17.05 144.978 17.05C147.228 17.05 148.253 15.875 148.253 13.175V12.65C148.253 9.94995 147.228 8.77495 144.978 8.77495ZM161.138 6.02495C161.713 6.02495 162.188 6.12495 162.488 6.29995C163.088 6.62495 163.263 7.17495 163.138 7.87495C162.963 8.79995 162.313 9.37495 161.563 9.22495C161.138 9.14995 160.738 9.02495 160.313 9.02495C158.788 9.02495 157.613 10.275 157.613 11.95V18.425C157.613 19.325 156.863 19.75 156.038 19.75C155.238 19.75 154.463 19.325 154.463 18.425V7.44995C154.463 6.57495 155.188 6.17495 155.963 6.17495C156.763 6.17495 157.488 6.57495 157.488 7.44995V8.32495H157.538C158.238 6.94995 159.588 6.02495 161.138 6.02495ZM167.098 1.04995C167.923 1.04995 168.673 1.47495 168.673 2.37495V11.925L174.048 6.62495C174.673 5.99995 175.673 6.07495 176.223 6.67495C176.798 7.32495 176.823 8.17495 176.173 8.74995L172.473 12.1L176.823 17.225C177.423 17.925 177.223 18.8 176.598 19.325C175.923 19.9 174.948 19.925 174.398 19.225L170.223 14.05L168.673 15.45V18.425C168.673 19.325 167.923 19.75 167.098 19.75C166.298 19.75 165.523 19.325 165.523 18.425V2.37495C165.523 1.47495 166.298 1.04995 167.098 1.04995ZM181.724 6.17495C182.549 6.17495 183.299 6.59995 183.299 7.49995V18.425C183.299 19.325 182.549 19.75 181.724 19.75C180.924 19.75 180.149 19.325 180.149 18.425V7.49995C180.149 6.59995 180.924 6.17495 181.724 6.17495ZM181.724 0.999951C182.824 0.999951 183.699 1.84995 183.699 2.89995C183.699 3.94995 182.824 4.79995 181.724 4.79995C180.624 4.79995 179.749 3.94995 179.749 2.89995C179.749 1.84995 180.624 0.999951 181.724 0.999951ZM194.229 6.02495C197.129 6.02495 199.029 7.77495 199.029 11.125V18.425C199.029 19.325 198.279 19.75 197.454 19.75C196.654 19.75 195.879 19.325 195.879 18.425V11.8C195.879 9.39995 194.754 8.77495 193.254 8.77495C191.979 8.77495 190.279 9.52495 190.279 12V18.425C190.279 19.325 189.529 19.75 188.704 19.75C187.904 19.75 187.129 19.325 187.129 18.425V7.44995C187.129 6.57495 187.854 6.17495 188.629 6.17495C189.404 6.17495 190.129 6.57495 190.129 7.44995V7.89995H190.179C190.954 6.59995 192.704 6.02495 194.229 6.02495ZM207.432 6.02495C209.582 6.02495 210.732 6.92495 211.157 7.52495H211.182V7.44995C211.182 6.57495 211.907 6.17495 212.707 6.17495C213.482 6.17495 214.207 6.57495 214.207 7.44995V19.225C214.207 23.05 212.157 24.925 207.657 24.925C206.207 24.925 204.682 24.475 203.757 23.95C203.082 23.575 203.032 22.7 203.382 22.075C203.782 21.375 204.357 21.1 205.107 21.475C205.782 21.825 206.807 22.2 207.707 22.2C209.932 22.2 211.107 21.325 211.107 19.2V17.65H211.057C210.332 18.975 208.857 19.45 207.207 19.45C203.732 19.45 201.907 17.175 201.907 13V12.5C201.907 8.24995 204.107 6.02495 207.432 6.02495ZM207.957 8.72495C205.982 8.72495 205.032 10.075 205.032 12.575V12.925C205.032 15.5 205.882 16.775 207.832 16.775C209.907 16.775 211.107 15.275 211.107 13.4V11.45C211.107 10.175 210.132 8.72495 207.957 8.72495Z"/>
</mask>
<path d="M3.1251 1.82495H8.0001C11.8001 1.82495 13.6751 3.24995 13.6751 6.27495V6.57495C13.6751 8.22495 12.9501 9.72495 10.8251 10.25C13.0001 10.575 14.5001 11.825 14.5001 14.4V14.8C14.5001 17.825 12.6501 19.6 8.7751 19.6H3.1251C1.5251 19.6 1.0001 19.1 1.0001 17.525V3.89995C1.0001 2.32495 1.5251 1.82495 3.1251 1.82495ZM4.1751 11.65V16.95H7.0751C9.9001 16.95 11.2251 16.65 11.2251 14.45V14.125C11.2251 12.425 10.2751 11.65 6.8501 11.65H4.1751ZM4.1751 4.47495V9.04995H6.7751C9.7251 9.04995 10.4251 8.52495 10.4251 6.67495V6.44995C10.4251 4.84995 9.3251 4.47495 6.6251 4.47495H4.1751ZM19.0284 6.17495C19.8534 6.17495 20.6034 6.59995 20.6034 7.49995V18.425C20.6034 19.325 19.8534 19.75 19.0284 19.75C18.2284 19.75 17.4534 19.325 17.4534 18.425V7.49995C17.4534 6.59995 18.2284 6.17495 19.0284 6.17495ZM19.0284 0.999951C20.1284 0.999951 21.0034 1.84995 21.0034 2.89995C21.0034 3.94995 20.1284 4.79995 19.0284 4.79995C17.9284 4.79995 17.0534 3.94995 17.0534 2.89995C17.0534 1.84995 17.9284 0.999951 19.0284 0.999951ZM31.5341 6.02495C34.4341 6.02495 36.3341 7.77495 36.3341 11.125V18.425C36.3341 19.325 35.5841 19.75 34.7591 19.75C33.9591 19.75 33.1841 19.325 33.1841 18.425V11.8C33.1841 9.39995 32.0591 8.77495 30.5591 8.77495C29.2841 8.77495 27.5841 9.52495 27.5841 12V18.425C27.5841 19.325 26.8341 19.75 26.0091 19.75C25.2091 19.75 24.4341 19.325 24.4341 18.425V7.44995C24.4341 6.57495 25.1591 6.17495 25.9341 6.17495C26.7091 6.17495 27.4341 6.57495 27.4341 7.44995V7.89995H27.4841C28.2591 6.59995 30.0091 6.02495 31.5341 6.02495ZM44.7364 6.02495C46.8864 6.02495 48.0364 6.92495 48.4614 7.52495H48.4864V7.44995C48.4864 6.57495 49.2114 6.17495 50.0114 6.17495C50.7864 6.17495 51.5114 6.57495 51.5114 7.44995V19.225C51.5114 23.05 49.4614 24.925 44.9614 24.925C43.5114 24.925 41.9864 24.475 41.0614 23.95C40.3864 23.575 40.3364 22.7 40.6864 22.075C41.0864 21.375 41.6614 21.1 42.4114 21.475C43.0864 21.825 44.1114 22.2 45.0114 22.2C47.2364 22.2 48.4114 21.325 48.4114 19.2V17.65H48.3614C47.6364 18.975 46.1614 19.45 44.5114 19.45C41.0364 19.45 39.2114 17.175 39.2114 13V12.5C39.2114 8.24995 41.4114 6.02495 44.7364 6.02495ZM45.2614 8.72495C43.2864 8.72495 42.3364 10.075 42.3364 12.575V12.925C42.3364 15.5 43.1864 16.775 45.1364 16.775C47.2114 16.775 48.4114 15.275 48.4114 13.4V11.45C48.4114 10.175 47.4364 8.72495 45.2614 8.72495ZM60.994 6.02495C65.044 6.02495 67.444 8.29995 67.444 12.6V13.225C67.444 17.525 65.044 19.8 60.994 19.8C56.944 19.8 54.544 17.525 54.544 13.225V12.6C54.544 8.29995 56.944 6.02495 60.994 6.02495ZM60.994 8.77495C58.744 8.77495 57.719 9.94995 57.719 12.65V13.175C57.719 15.875 58.744 17.05 60.994 17.05C63.244 17.05 64.269 15.875 64.269 13.175V12.65C64.269 9.94995 63.244 8.77495 60.994 8.77495ZM89.379 1.67495C90.129 1.67495 90.854 2.07495 90.854 2.97495V17.575C90.854 19.15 90.329 19.65 88.729 19.65C87.504 19.65 87.029 19.4 85.754 17.125L81.029 8.67495C80.529 7.77495 80.129 6.92495 79.829 5.79995V18.45C79.829 19.35 79.104 19.75 78.354 19.75C77.604 19.75 76.879 19.35 76.879 18.45V3.84995C76.879 2.27495 77.404 1.77495 79.004 1.77495C80.229 1.77495 80.704 2.04995 81.979 4.29995L86.704 12.75C87.204 13.65 87.604 14.5 87.904 15.625V2.97495C87.904 2.07495 88.629 1.67495 89.379 1.67495ZM100.247 8.62495C98.1466 8.62495 97.0966 9.84995 97.0966 11.55V11.725H103.297V11.475C103.297 9.84995 102.447 8.62495 100.247 8.62495ZM100.297 6.02495C103.872 6.02495 106.322 8.17495 106.322 11.95V12C106.322 13.575 105.797 14.075 104.197 14.075H97.0966V14.125C97.0966 15.9 98.2216 17.175 100.447 17.175C101.847 17.175 102.797 16.975 103.897 16.475C104.572 16.175 105.272 16.4 105.572 17.1C105.872 17.8 105.697 18.525 105.047 18.85C103.797 19.475 102.347 19.8 100.322 19.8C96.3466 19.8 94.0216 17.6 94.0216 13.25V12.6C94.0216 8.27495 96.3966 6.02495 100.297 6.02495ZM111.747 2.64995C112.572 2.64995 113.322 3.07495 113.322 3.99995V6.32495H115.947C116.697 6.32495 117.047 6.92495 117.047 7.62495C117.047 8.32495 116.697 8.92495 115.947 8.92495H113.322V15.525C113.322 16.625 113.697 17.125 114.547 17.125C114.947 17.125 115.272 17.075 115.697 16.925C116.222 16.75 116.847 16.95 117.097 17.75C117.322 18.45 117.097 19.1 116.472 19.375C115.872 19.65 115.072 19.8 114.272 19.8C111.297 19.8 110.172 18.3 110.172 15.375V8.92495H108.922C108.172 8.92495 107.822 8.32495 107.822 7.62495C107.822 6.92495 108.172 6.32495 108.922 6.32495H110.172V3.99995C110.172 3.07495 110.922 2.64995 111.747 2.64995ZM127.675 6.17495C128.4 6.17495 129.2 6.57495 129.475 7.69995L131.525 16.5H131.625L133.6 7.34995C133.825 6.27495 134.65 6.04995 135.45 6.22495C136.325 6.42495 136.775 7.07495 136.525 8.07495L133.975 18.05C133.65 19.275 132.925 19.75 131.75 19.75C130.575 19.75 129.825 19.25 129.525 18.075L127.65 10.4H127.55L125.65 18.075C125.35 19.25 124.6 19.75 123.425 19.75C122.25 19.75 121.5 19.25 121.2 18.075L118.65 8.14995C118.4 7.14995 118.875 6.42495 119.8 6.22495C120.65 6.04995 121.55 6.27495 121.775 7.42495L123.575 16.5H123.675L125.825 7.74995C126.1 6.57495 126.925 6.17495 127.675 6.17495ZM144.978 6.02495C149.028 6.02495 151.428 8.29995 151.428 12.6V13.225C151.428 17.525 149.028 19.8 144.978 19.8C140.928 19.8 138.528 17.525 138.528 13.225V12.6C138.528 8.29995 140.928 6.02495 144.978 6.02495ZM144.978 8.77495C142.728 8.77495 141.703 9.94995 141.703 12.65V13.175C141.703 15.875 142.728 17.05 144.978 17.05C147.228 17.05 148.253 15.875 148.253 13.175V12.65C148.253 9.94995 147.228 8.77495 144.978 8.77495ZM161.138 6.02495C161.713 6.02495 162.188 6.12495 162.488 6.29995C163.088 6.62495 163.263 7.17495 163.138 7.87495C162.963 8.79995 162.313 9.37495 161.563 9.22495C161.138 9.14995 160.738 9.02495 160.313 9.02495C158.788 9.02495 157.613 10.275 157.613 11.95V18.425C157.613 19.325 156.863 19.75 156.038 19.75C155.238 19.75 154.463 19.325 154.463 18.425V7.44995C154.463 6.57495 155.188 6.17495 155.963 6.17495C156.763 6.17495 157.488 6.57495 157.488 7.44995V8.32495H157.538C158.238 6.94995 159.588 6.02495 161.138 6.02495ZM167.098 1.04995C167.923 1.04995 168.673 1.47495 168.673 2.37495V11.925L174.048 6.62495C174.673 5.99995 175.673 6.07495 176.223 6.67495C176.798 7.32495 176.823 8.17495 176.173 8.74995L172.473 12.1L176.823 17.225C177.423 17.925 177.223 18.8 176.598 19.325C175.923 19.9 174.948 19.925 174.398 19.225L170.223 14.05L168.673 15.45V18.425C168.673 19.325 167.923 19.75 167.098 19.75C166.298 19.75 165.523 19.325 165.523 18.425V2.37495C165.523 1.47495 166.298 1.04995 167.098 1.04995ZM181.724 6.17495C182.549 6.17495 183.299 6.59995 183.299 7.49995V18.425C183.299 19.325 182.549 19.75 181.724 19.75C180.924 19.75 180.149 19.325 180.149 18.425V7.49995C180.149 6.59995 180.924 6.17495 181.724 6.17495ZM181.724 0.999951C182.824 0.999951 183.699 1.84995 183.699 2.89995C183.699 3.94995 182.824 4.79995 181.724 4.79995C180.624 4.79995 179.749 3.94995 179.749 2.89995C179.749 1.84995 180.624 0.999951 181.724 0.999951ZM194.229 6.02495C197.129 6.02495 199.029 7.77495 199.029 11.125V18.425C199.029 19.325 198.279 19.75 197.454 19.75C196.654 19.75 195.879 19.325 195.879 18.425V11.8C195.879 9.39995 194.754 8.77495 193.254 8.77495C191.979 8.77495 190.279 9.52495 190.279 12V18.425C190.279 19.325 189.529 19.75 188.704 19.75C187.904 19.75 187.129 19.325 187.129 18.425V7.44995C187.129 6.57495 187.854 6.17495 188.629 6.17495C189.404 6.17495 190.129 6.57495 190.129 7.44995V7.89995H190.179C190.954 6.59995 192.704 6.02495 194.229 6.02495ZM207.432 6.02495C209.582 6.02495 210.732 6.92495 211.157 7.52495H211.182V7.44995C211.182 6.57495 211.907 6.17495 212.707 6.17495C213.482 6.17495 214.207 6.57495 214.207 7.44995V19.225C214.207 23.05 212.157 24.925 207.657 24.925C206.207 24.925 204.682 24.475 203.757 23.95C203.082 23.575 203.032 22.7 203.382 22.075C203.782 21.375 204.357 21.1 205.107 21.475C205.782 21.825 206.807 22.2 207.707 22.2C209.932 22.2 211.107 21.325 211.107 19.2V17.65H211.057C210.332 18.975 208.857 19.45 207.207 19.45C203.732 19.45 201.907 17.175 201.907 13V12.5C201.907 8.24995 204.107 6.02495 207.432 6.02495ZM207.957 8.72495C205.982 8.72495 205.032 10.075 205.032 12.575V12.925C205.032 15.5 205.882 16.775 207.832 16.775C209.907 16.775 211.107 15.275 211.107 13.4V11.45C211.107 10.175 210.132 8.72495 207.957 8.72495Z" fill="white"/>
<path d="M10.8251 10.25L10.5853 9.27914L10.6773 11.239L10.8251 10.25ZM4.1751 11.65V10.65H3.1751V11.65H4.1751ZM4.1751 16.95H3.1751V17.95H4.1751V16.95ZM4.1751 4.47495V3.47495H3.1751V4.47495H4.1751ZM4.1751 9.04995H3.1751V10.0499H4.1751V9.04995ZM3.1251 1.82495V2.82495H8.0001V1.82495V0.824951H3.1251V1.82495ZM8.0001 1.82495V2.82495C9.80562 2.82495 10.9599 3.16898 11.6485 3.70479C12.2864 4.20116 12.6751 4.98222 12.6751 6.27495H13.6751H14.6751C14.6751 4.54268 14.1263 3.09874 12.8767 2.12636C11.6778 1.19343 9.99457 0.824951 8.0001 0.824951V1.82495ZM13.6751 6.27495H12.6751V6.57495H13.6751H14.6751V6.27495H13.6751ZM13.6751 6.57495H12.6751C12.6751 7.26047 12.5242 7.83176 12.2242 8.26594C11.9352 8.68437 11.4457 9.06656 10.5853 9.27914L10.8251 10.25L11.0649 11.2208C12.3295 10.9083 13.265 10.278 13.8697 9.40271C14.4635 8.54314 14.6751 7.53943 14.6751 6.57495H13.6751ZM10.8251 10.25L10.6773 11.239C11.6214 11.38 12.3082 11.7056 12.7562 12.1731C13.1904 12.6262 13.5001 13.3161 13.5001 14.4H14.5001H15.5001C15.5001 12.9088 15.0597 11.6862 14.2002 10.7893C13.3545 9.90682 12.2038 9.44486 10.9729 9.26093L10.8251 10.25ZM14.5001 14.4H13.5001V14.8H14.5001H15.5001V14.4H14.5001ZM14.5001 14.8H13.5001C13.5001 16.1023 13.1096 16.9938 12.4352 17.5791C11.7369 18.1853 10.5778 18.6 8.7751 18.6V19.6V20.6C10.8474 20.6 12.5508 20.1271 13.7462 19.0895C14.9656 18.0311 15.5001 16.5226 15.5001 14.8H14.5001ZM8.7751 19.6V18.6H3.1251V19.6V20.6H8.7751V19.6ZM3.1251 19.6V18.6C2.36792 18.6 2.19141 18.4669 2.15948 18.4359C2.1359 18.413 2.0001 18.2589 2.0001 17.525H1.0001H9.76324e-05C9.76324e-05 18.366 0.126793 19.2494 0.765713 19.8703C1.39629 20.483 2.28228 20.6 3.1251 20.6V19.6ZM1.0001 17.525H2.0001V3.89995H1.0001H9.76324e-05V17.525H1.0001ZM1.0001 3.89995H2.0001C2.0001 3.16599 2.1359 3.01192 2.15948 2.98901C2.19141 2.95798 2.36792 2.82495 3.1251 2.82495V1.82495V0.824951C2.28228 0.824951 1.39629 0.941916 0.765713 1.55464C0.126793 2.17548 9.76324e-05 3.05891 9.76324e-05 3.89995H1.0001ZM4.1751 11.65H3.1751V16.95H4.1751H5.1751V11.65H4.1751ZM4.1751 16.95V17.95H7.0751V16.95V15.95H4.1751V16.95ZM7.0751 16.95V17.95C8.44671 17.95 9.73153 17.8926 10.6648 17.4153C11.1791 17.1522 11.5964 16.761 11.8688 16.2151C12.1301 15.6913 12.2251 15.091 12.2251 14.45H11.2251H10.2251C10.2251 14.9089 10.1545 15.1711 10.0791 15.3223C10.0147 15.4514 9.92418 15.5477 9.75415 15.6346C9.31866 15.8573 8.52848 15.95 7.0751 15.95V16.95ZM11.2251 14.45H12.2251V14.125H11.2251H10.2251V14.45H11.2251ZM11.2251 14.125H12.2251C12.2251 13.6139 12.1548 13.0911 11.9325 12.6051C11.7023 12.1018 11.3361 11.6974 10.8429 11.3964C9.92201 10.8343 8.58004 10.65 6.8501 10.65V11.65V12.65C8.54515 12.65 9.39069 12.8531 9.80101 13.1035C9.97347 13.2088 10.0588 13.3168 10.1138 13.437C10.1766 13.5744 10.2251 13.786 10.2251 14.125H11.2251ZM6.8501 11.65V10.65H4.1751V11.65V12.65H6.8501V11.65ZM4.1751 4.47495H3.1751V9.04995H4.1751H5.1751V4.47495H4.1751ZM4.1751 9.04995V10.0499H6.7751V9.04995V8.04995H4.1751V9.04995ZM6.7751 9.04995V10.0499C7.53451 10.0499 8.19272 10.0167 8.75044 9.92605C9.30482 9.83591 9.82449 9.67929 10.261 9.38825C11.24 8.73561 11.4251 7.68641 11.4251 6.67495H10.4251H9.4251C9.4251 7.51349 9.26019 7.65179 9.15165 7.72415C9.04446 7.79561 8.836 7.88587 8.42945 7.95198C8.02622 8.01754 7.49068 8.04995 6.7751 8.04995V9.04995ZM10.4251 6.67495H11.4251V6.44995H10.4251H9.4251V6.67495H10.4251ZM10.4251 6.44995H11.4251C11.4251 5.94111 11.3384 5.43394 11.0841 4.97871C10.822 4.50954 10.4302 4.18146 9.97003 3.96078C9.12681 3.55638 7.95895 3.47495 6.6251 3.47495V4.47495V5.47495C7.99125 5.47495 8.72338 5.58102 9.10517 5.76412C9.25754 5.83719 9.30943 5.90285 9.33799 5.954C9.37434 6.01908 9.4251 6.15879 9.4251 6.44995H10.4251ZM6.6251 4.47495V3.47495H4.1751V4.47495V5.47495H6.6251V4.47495ZM19.0284 6.17495V7.17495C19.2851 7.17495 19.4498 7.24316 19.5239 7.29892C19.556 7.32306 19.5704 7.3435 19.5789 7.36045C19.5871 7.37683 19.6034 7.41721 19.6034 7.49995H20.6034H21.6034C21.6034 6.73452 21.2673 6.10788 20.7267 5.70098C20.2195 5.31924 19.5967 5.17495 19.0284 5.17495V6.17495ZM20.6034 7.49995H19.6034V18.4249H20.6034H21.6034V7.49995H20.6034ZM20.6034 18.4249H19.6034C19.6034 18.5077 19.5871 18.5481 19.5789 18.5645C19.5704 18.5814 19.556 18.6018 19.5239 18.626C19.4498 18.6817 19.2851 18.75 19.0284 18.75V19.75V20.75C19.5967 20.75 20.2195 20.6057 20.7267 20.2239C21.2673 19.817 21.6034 19.1904 21.6034 18.4249H20.6034ZM19.0284 19.75V18.75C18.7892 18.75 18.6202 18.684 18.5382 18.6229C18.5023 18.5962 18.4861 18.5735 18.4772 18.5561C18.469 18.5401 18.4534 18.5024 18.4534 18.4249H17.4534H16.4534C16.4534 19.2022 16.8057 19.8264 17.3437 20.227C17.8491 20.6034 18.4677 20.75 19.0284 20.75V19.75ZM17.4534 18.4249H18.4534V7.49995H17.4534H16.4534V18.4249H17.4534ZM17.4534 7.49995H18.4534C18.4534 7.42248 18.469 7.38481 18.4772 7.36879C18.4861 7.35144 18.5023 7.32872 18.5382 7.30199C18.6202 7.24088 18.7892 7.17495 19.0284 7.17495V6.17495V5.17495C18.4677 5.17495 17.8491 5.32152 17.3437 5.69791C16.8057 6.09851 16.4534 6.72268 16.4534 7.49995H17.4534ZM19.0284 0.99995V1.99995C19.6101 1.99995 20.0034 2.4356 20.0034 2.89995H21.0034H22.0034C22.0034 1.2643 20.6467 -4.95911e-05 19.0284 -4.95911e-05V0.99995ZM21.0034 2.89995H20.0034C20.0034 3.3643 19.6101 3.79995 19.0284 3.79995V4.79995V5.79995C20.6467 5.79995 22.0034 4.5356 22.0034 2.89995H21.0034ZM19.0284 4.79995V3.79995C18.4467 3.79995 18.0534 3.3643 18.0534 2.89995H17.0534H16.0534C16.0534 4.5356 17.4101 5.79995 19.0284 5.79995V4.79995ZM17.0534 2.89995H18.0534C18.0534 2.4356 18.4467 1.99995 19.0284 1.99995V0.99995V-4.95911e-05C17.4101 -4.95911e-05 16.0534 1.2643 16.0534 2.89995H17.0534ZM27.4341 7.89995H26.4341V8.89995H27.4341V7.89995ZM27.4841 7.89995V8.89995H28.0521L28.343 8.41201L27.4841 7.89995ZM31.5341 6.02495V7.02495C32.7827 7.02495 33.6999 7.39754 34.3067 8.01794C34.9152 8.64003 35.3341 9.63673 35.3341 11.125H36.3341H37.3341C37.3341 9.26318 36.803 7.70987 35.7365 6.61946C34.6683 5.52736 33.1855 5.02495 31.5341 5.02495V6.02495ZM36.3341 11.125H35.3341V18.4249H36.3341H37.3341V11.125H36.3341ZM36.3341 18.4249H35.3341C35.3341 18.5077 35.3178 18.5481 35.3096 18.5645C35.3011 18.5814 35.2867 18.6018 35.2546 18.626C35.1805 18.6817 35.0158 18.75 34.7591 18.75V19.75V20.75C35.3274 20.75 35.9502 20.6057 36.4573 20.2239C36.9979 19.817 37.3341 19.1904 37.3341 18.4249H36.3341ZM34.7591 19.75V18.75C34.5198 18.75 34.3509 18.684 34.2688 18.6229C34.233 18.5962 34.2168 18.5735 34.2079 18.5561C34.1997 18.5401 34.1841 18.5024 34.1841 18.4249H33.1841H32.1841C32.1841 19.2022 32.5364 19.8264 33.0743 20.227C33.5798 20.6034 34.1983 20.75 34.7591 20.75V19.75ZM33.1841 18.4249H34.1841V11.7999H33.1841H32.1841V18.4249H33.1841ZM33.1841 11.7999H34.1841C34.1841 10.465 33.8728 9.39228 33.1316 8.67085C32.3928 7.95181 31.424 7.77495 30.5591 7.77495V8.77495V9.77495C31.1941 9.77495 31.5378 9.91059 31.7366 10.104C31.9329 10.2951 32.1841 10.7349 32.1841 11.7999H33.1841ZM30.5591 8.77495V7.77495C29.7457 7.77495 28.7528 8.01126 27.9457 8.69749C27.1073 9.41036 26.5841 10.5118 26.5841 12H27.5841H28.5841C28.5841 11.0131 28.9109 10.502 29.2412 10.2212C29.6029 9.91364 30.0975 9.77495 30.5591 9.77495V8.77495ZM27.5841 12H26.5841V18.4249H27.5841H28.5841V12H27.5841ZM27.5841 18.4249H26.5841C26.5841 18.5077 26.5678 18.5481 26.5596 18.5645C26.5511 18.5814 26.5367 18.6018 26.5046 18.626C26.4305 18.6817 26.2658 18.75 26.0091 18.75V19.75V20.75C26.5774 20.75 27.2002 20.6057 27.7073 20.2239C28.2479 19.817 28.5841 19.1904 28.5841 18.4249H27.5841ZM26.0091 19.75V18.75C25.7698 18.75 25.6009 18.684 25.5188 18.6229C25.483 18.5962 25.4668 18.5735 25.4579 18.5561C25.4497 18.5401 25.4341 18.5024 25.4341 18.4249H24.4341H23.4341C23.4341 19.2022 23.7864 19.8264 24.3243 20.227C24.8298 20.6034 25.4483 20.75 26.0091 20.75V19.75ZM24.4341 18.4249H25.4341V7.44995H24.4341H23.4341V18.4249H24.4341ZM24.4341 7.44995H25.4341C25.4341 7.3726 25.4492 7.33825 25.4543 7.32793C25.4597 7.31715 25.4693 7.30248 25.4949 7.28325C25.5563 7.23701 25.7022 7.17495 25.9341 7.17495V6.17495V5.17495C25.391 5.17495 24.7869 5.31289 24.292 5.6854C23.7628 6.08377 23.4341 6.69844 23.4341 7.44995H24.4341ZM25.9341 6.17495V7.17495C26.166 7.17495 26.3119 7.23701 26.3733 7.28325C26.3988 7.30248 26.4085 7.31715 26.4138 7.32793C26.419 7.33825 26.4341 7.3726 26.4341 7.44995H27.4341H28.4341C28.4341 6.69844 28.1053 6.08377 27.5761 5.6854C27.0813 5.31289 26.4772 5.17495 25.9341 5.17495V6.17495ZM27.4341 7.44995H26.4341V7.89995H27.4341H28.4341V7.44995H27.4341ZM27.4341 7.89995V8.89995H27.4841V7.89995V6.89995H27.4341V7.89995ZM27.4841 7.89995L28.343 8.41201C28.8555 7.55243 30.164 7.02495 31.5341 7.02495V6.02495V5.02495C29.8541 5.02495 27.6627 5.64747 26.6251 7.38789L27.4841 7.89995ZM48.4614 7.52495L47.6454 8.10297L47.9443 8.52495H48.4614V7.52495ZM48.4864 7.52495V8.52495H49.4864V7.52495H48.4864ZM41.0614 23.95L41.5551 23.0802L41.5471 23.0758L41.0614 23.95ZM40.6864 22.075L39.8181 21.5788L39.8139 21.5863L40.6864 22.075ZM42.4114 21.475L42.8717 20.5872L42.8652 20.5838L42.8586 20.5805L42.4114 21.475ZM48.4114 17.65H49.4114V16.65H48.4114V17.65ZM48.3614 17.65V16.65H47.7687L47.4842 17.1699L48.3614 17.65ZM44.7364 6.02495V7.02495C46.5923 7.02495 47.4247 7.7914 47.6454 8.10297L48.4614 7.52495L49.2775 6.94693C48.6481 6.0585 47.1805 5.02495 44.7364 5.02495V6.02495ZM48.4614 7.52495V8.52495H48.4864V7.52495V6.52495H48.4614V7.52495ZM48.4864 7.52495H49.4864V7.44995H48.4864H47.4864V7.52495H48.4864ZM48.4864 7.44995H49.4864C49.4864 7.37257 49.5015 7.33897 49.5062 7.32967C49.511 7.32002 49.5201 7.30579 49.5461 7.28646C49.6088 7.23977 49.7612 7.17495 50.0114 7.17495V6.17495V5.17495C49.4616 5.17495 48.8516 5.31014 48.3518 5.68219C47.8161 6.08099 47.4864 6.69765 47.4864 7.44995H48.4864ZM50.0114 6.17495V7.17495C50.2433 7.17495 50.3892 7.23701 50.4506 7.28325C50.4762 7.30248 50.4858 7.31715 50.4912 7.32793C50.4963 7.33825 50.5114 7.3726 50.5114 7.44995H51.5114H52.5114C52.5114 6.69844 52.1827 6.08377 51.6535 5.6854C51.1587 5.31289 50.5545 5.17495 50.0114 5.17495V6.17495ZM51.5114 7.44995H50.5114V19.225H51.5114H52.5114V7.44995H51.5114ZM51.5114 19.225H50.5114C50.5114 20.9637 50.0498 22.0658 49.263 22.7589C48.4494 23.4755 47.0991 23.9249 44.9614 23.9249V24.9249V25.9249C47.3237 25.9249 49.2484 25.4369 50.5849 24.2597C51.948 23.0591 52.5114 21.3112 52.5114 19.225H51.5114ZM44.9614 24.9249V23.9249C43.6827 23.9249 42.3281 23.519 41.555 23.0803L41.0614 23.95L40.5678 24.8196C41.6448 25.4309 43.3401 25.9249 44.9614 25.9249V24.9249ZM41.0614 23.95L41.5471 23.0758C41.5225 23.0622 41.5131 23.0506 41.5068 23.0409C41.4986 23.0283 41.4852 23.0014 41.4778 22.9535C41.4614 22.8474 41.4844 22.6967 41.5589 22.5636L40.6864 22.075L39.8139 21.5863C39.5385 22.0782 39.4114 22.6775 39.5013 23.2589C39.5943 23.8607 39.9292 24.4649 40.5758 24.8241L41.0614 23.95ZM40.6864 22.075L41.5547 22.5711C41.6186 22.4591 41.675 22.3903 41.7159 22.3505C41.7358 22.3312 41.7507 22.32 41.76 22.314C41.7646 22.3109 41.768 22.309 41.77 22.308C41.7721 22.3069 41.7731 22.3065 41.7732 22.3065C41.7734 22.3064 41.773 22.3066 41.7723 22.3067C41.772 22.3068 41.7717 22.3069 41.7715 22.3069C41.7712 22.307 41.7711 22.307 41.7711 22.307C41.7711 22.307 41.7713 22.307 41.7718 22.3069C41.7722 22.3069 41.773 22.3069 41.7741 22.3068C41.7762 22.3068 41.7799 22.3069 41.7855 22.3074C41.8073 22.3095 41.8652 22.3199 41.9642 22.3694L42.4114 21.475L42.8586 20.5805C42.297 20.2997 41.6708 20.2056 41.0621 20.4372C40.4819 20.6579 40.0848 21.1122 39.8182 21.5788L40.6864 22.075ZM42.4114 21.475L41.9511 22.3627C42.6932 22.7475 43.8838 23.2 45.0114 23.2V22.2V21.2C44.339 21.2 43.4797 20.9024 42.8717 20.5872L42.4114 21.475ZM45.0114 22.2V23.2C46.2253 23.2 47.3579 22.9664 48.1921 22.2599C49.0612 21.5238 49.4114 20.4452 49.4114 19.2H48.4114H47.4114C47.4114 20.0798 47.1741 20.5011 46.8995 20.7338C46.5899 20.996 46.0225 21.2 45.0114 21.2V22.2ZM48.4114 19.2H49.4114V17.65H48.4114H47.4114V19.2H48.4114ZM48.4114 17.65V16.65H48.3614V17.65V18.65H48.4114V17.65ZM48.3614 17.65L47.4842 17.1699C47.0212 18.016 46.0214 18.45 44.5114 18.45V19.45V20.45C46.3015 20.45 48.2517 19.9339 49.2387 18.13L48.3614 17.65ZM44.5114 19.45V18.45C43.007 18.45 41.9948 17.9686 41.3329 17.1581C40.643 16.3133 40.2114 14.9621 40.2114 13H39.2114H38.2114C38.2114 15.2128 38.6924 17.0866 39.7838 18.4231C40.9031 19.7938 42.5409 20.45 44.5114 20.45V19.45ZM39.2114 13H40.2114V12.5H39.2114H38.2114V13H39.2114ZM39.2114 12.5H40.2114C40.2114 10.5387 40.7184 9.18449 41.4748 8.33266C42.2181 7.49551 43.3068 7.02495 44.7364 7.02495V6.02495V5.02495C42.841 5.02495 41.1672 5.66689 39.9793 7.00474C38.8044 8.32791 38.2114 10.2113 38.2114 12.5H39.2114ZM45.2614 8.72495V7.72495C44.0218 7.72495 42.9646 8.16458 42.2565 9.11492C41.588 10.012 41.3364 11.2259 41.3364 12.575H42.3364H43.3364C43.3364 11.424 43.5599 10.7129 43.8601 10.31C44.1207 9.96033 44.526 9.72495 45.2614 9.72495V8.72495ZM42.3364 12.575H41.3364V12.9249H42.3364H43.3364V12.575H42.3364ZM42.3364 12.9249H41.3364C41.3364 14.2865 41.5542 15.5021 42.1906 16.3957C42.8774 17.36 43.9198 17.775 45.1364 17.775V16.775V15.775C44.4031 15.775 44.0454 15.5524 43.8197 15.2355C43.5436 14.8478 43.3364 14.1384 43.3364 12.9249H42.3364ZM45.1364 16.775V17.775C46.43 17.775 47.5243 17.2996 48.2887 16.4668C49.0428 15.6453 49.4114 14.5477 49.4114 13.4H48.4114H47.4114C47.4114 14.1272 47.1801 14.7171 46.8154 15.1143C46.461 15.5003 45.9179 15.775 45.1364 15.775V16.775ZM48.4114 13.4H49.4114V11.45H48.4114H47.4114V13.4H48.4114ZM48.4114 11.45H49.4114C49.4114 10.5655 49.0751 9.62678 48.3634 8.90649C47.6383 8.17261 46.5839 7.72495 45.2614 7.72495V8.72495V9.72495C46.114 9.72495 46.6345 10.0023 46.9407 10.3122C47.2603 10.6356 47.4114 11.0594 47.4114 11.45H48.4114ZM60.994 6.02495V7.02495C62.8357 7.02495 64.1629 7.53926 65.0307 8.40706C65.898 9.27441 66.444 10.6324 66.444 12.6H67.444H68.444C68.444 10.2675 67.79 8.33799 66.4449 6.99284C65.1002 5.64814 63.2023 5.02495 60.994 5.02495V6.02495ZM67.444 12.6H66.444V13.225H67.444H68.444V12.6H67.444ZM67.444 13.225H66.444C66.444 15.1925 65.898 16.5505 65.0307 17.4178C64.1629 18.2856 62.8357 18.7999 60.994 18.7999V19.7999V20.7999C63.2023 20.7999 65.1002 20.1768 66.4449 18.8321C67.79 17.4869 68.444 15.5574 68.444 13.225H67.444ZM60.994 19.7999V18.7999C59.1523 18.7999 57.8252 18.2856 56.9574 17.4178C56.09 16.5505 55.544 15.1925 55.544 13.225H54.544H53.544C53.544 15.5574 54.198 17.4869 55.5432 18.8321C56.8879 20.1768 58.7858 20.7999 60.994 20.7999V19.7999ZM54.544 13.225H55.544V12.6H54.544H53.544V13.225H54.544ZM54.544 12.6H55.544C55.544 10.6324 56.09 9.27441 56.9574 8.40706C57.8252 7.53926 59.1523 7.02495 60.994 7.02495V6.02495V5.02495C58.7858 5.02495 56.8879 5.64814 55.5432 6.99284C54.198 8.33799 53.544 10.2675 53.544 12.6H54.544ZM60.994 8.77495V7.77495C59.7017 7.77495 58.5476 8.11662 57.7514 9.05165C56.9866 9.94984 56.719 11.2072 56.719 12.65H57.719H58.719C58.719 11.3927 58.964 10.7126 59.2742 10.3483C59.553 10.0208 60.0364 9.77495 60.994 9.77495V8.77495ZM57.719 12.65H56.719V13.175H57.719H58.719V12.65H57.719ZM57.719 13.175H56.719C56.719 14.6177 56.9866 15.8751 57.7514 16.7733C58.5476 17.7083 59.7017 18.0499 60.994 18.0499V17.0499V16.05C60.0364 16.05 59.553 15.8041 59.2742 15.4766C58.964 15.1123 58.719 14.4322 58.719 13.175H57.719ZM60.994 17.0499V18.0499C62.2864 18.0499 63.4405 17.7083 64.2367 16.7733C65.0015 15.8751 65.269 14.6177 65.269 13.175H64.269H63.269C63.269 14.4322 63.0241 15.1123 62.7139 15.4766C62.4351 15.8041 61.9517 16.05 60.994 16.05V17.0499ZM64.269 13.175H65.269V12.65H64.269H63.269V13.175H64.269ZM64.269 12.65H65.269C65.269 11.2072 65.0015 9.94984 64.2367 9.05165C63.4405 8.11662 62.2864 7.77495 60.994 7.77495V8.77495V9.77495C61.9517 9.77495 62.4351 10.0208 62.7139 10.3483C63.0241 10.7126 63.269 11.3927 63.269 12.65H64.269ZM85.754 17.125L84.8812 17.613L84.8817 17.6138L85.754 17.125ZM81.029 8.67495L80.1548 9.16059L80.1562 9.163L81.029 8.67495ZM79.829 5.79995L80.7952 5.54229L78.829 5.79995H79.829ZM81.979 4.29995L82.8518 3.81189L82.849 3.80694L81.979 4.29995ZM86.704 12.75L87.5782 12.2643L87.5768 12.2619L86.704 12.75ZM87.904 15.625L86.9378 15.8826L88.904 15.625H87.904ZM89.379 1.67495V2.67495C89.5923 2.67495 89.7284 2.73395 89.7863 2.77874C89.8105 2.7974 89.8219 2.81333 89.8295 2.82904C89.8371 2.8447 89.854 2.88708 89.854 2.97495H90.854H91.854C91.854 2.22167 91.5343 1.60192 91.0092 1.19617C90.5172 0.815948 89.9157 0.674952 89.379 0.674952V1.67495ZM90.854 2.97495H89.854V17.575H90.854H91.854V2.97495H90.854ZM90.854 17.575H89.854C89.854 18.3089 89.7182 18.463 89.6946 18.4859C89.6627 18.5169 89.4862 18.65 88.729 18.65V19.65V20.65C89.5718 20.65 90.4578 20.533 91.0884 19.9203C91.7273 19.2994 91.854 18.416 91.854 17.575H90.854ZM88.729 19.65V18.65C88.1932 18.65 88.0506 18.593 87.887 18.4614C87.6263 18.2517 87.2713 17.7868 86.6263 16.6361L85.754 17.125L84.8817 17.6138C85.5117 18.7381 86.0317 19.5357 86.6335 20.0198C87.3324 20.5819 88.0398 20.65 88.729 20.65V19.65ZM85.754 17.125L86.6268 16.6369L81.9018 8.1869L81.029 8.67495L80.1562 9.163L84.8812 17.613L85.754 17.125ZM81.029 8.67495L81.9032 8.18931C81.4276 7.3333 81.0671 6.56193 80.7952 5.54229L79.829 5.79995L78.8628 6.05761C79.1909 7.28797 79.6304 8.2166 80.1548 9.16059L81.029 8.67495ZM79.829 5.79995H78.829V18.45H79.829H80.829V5.79995H79.829ZM79.829 18.45H78.829C78.829 18.5378 78.8121 18.5802 78.8045 18.5959C78.7969 18.6116 78.7855 18.6275 78.7613 18.6462C78.7034 18.6909 78.5673 18.75 78.354 18.75V19.75V20.75C78.8907 20.75 79.4922 20.609 79.9842 20.2287C80.5093 19.823 80.829 19.2032 80.829 18.45H79.829ZM78.354 19.75V18.75C78.1407 18.75 78.0047 18.6909 77.9467 18.6462C77.9225 18.6275 77.9111 18.6116 77.9035 18.5959C77.8959 18.5802 77.879 18.5378 77.879 18.45H76.879H75.879C75.879 19.2032 76.1987 19.823 76.7238 20.2287C77.2159 20.609 77.8173 20.75 78.354 20.75V19.75ZM76.879 18.45H77.879V3.84995H76.879H75.879V18.45H76.879ZM76.879 3.84995H77.879C77.879 3.11599 78.0148 2.96192 78.0384 2.93901C78.0703 2.90799 78.2468 2.77495 79.004 2.77495V1.77495V0.774952C78.1612 0.774952 77.2752 0.891914 76.6446 1.50464C76.0057 2.12548 75.879 3.00891 75.879 3.84995H76.879ZM79.004 1.77495V2.77495C79.5284 2.77495 79.6748 2.83402 79.8426 2.97016C80.1077 3.18529 80.4636 3.65406 81.109 4.79296L81.979 4.29995L82.849 3.80694C82.2194 2.69584 81.7003 1.90211 81.1029 1.41724C80.4082 0.853382 79.7046 0.774952 79.004 0.774952V1.77495ZM81.979 4.29995L81.1062 4.788L85.8312 13.238L86.704 12.75L87.5768 12.2619L82.8518 3.8119L81.979 4.29995ZM86.704 12.75L85.8298 13.2356C86.3054 14.0916 86.6659 14.863 86.9378 15.8826L87.904 15.625L88.8702 15.3673C88.5421 14.1369 88.1026 13.2083 87.5782 12.2643L86.704 12.75ZM87.904 15.625H88.904V2.97495H87.904H86.904V15.625H87.904ZM87.904 2.97495H88.904C88.904 2.88708 88.9209 2.8447 88.9285 2.82904C88.9361 2.81333 88.9475 2.7974 88.9717 2.77874C89.0297 2.73395 89.1657 2.67495 89.379 2.67495V1.67495V0.674952C88.8423 0.674952 88.2409 0.815948 87.7488 1.19617C87.2237 1.60192 86.904 2.22167 86.904 2.97495H87.904ZM97.0966 11.725H96.0966V12.725H97.0966V11.725ZM103.297 11.725V12.725H104.297V11.725H103.297ZM97.0966 14.075V13.075H96.0966V14.075H97.0966ZM103.897 16.475L103.49 15.5611L103.483 15.5646L103.897 16.475ZM105.572 17.1L104.652 17.4939V17.4939L105.572 17.1ZM105.047 18.85L105.494 19.7444V19.7444L105.047 18.85ZM100.247 8.62495V7.62495C99.0017 7.62495 97.9369 7.99191 97.1812 8.73862C96.4264 9.48442 96.0966 10.4941 96.0966 11.5499H97.0966H98.0966C98.0966 10.9058 98.2917 10.453 98.5869 10.1613C98.8812 9.87049 99.3915 9.62495 100.247 9.62495V8.62495ZM97.0966 11.5499H96.0966V11.725H97.0966H98.0966V11.5499H97.0966ZM97.0966 11.725V12.725H103.297V11.725V10.725H97.0966V11.725ZM103.297 11.725H104.297V11.475H103.297H102.297V11.725H103.297ZM103.297 11.475H104.297C104.297 10.4991 104.041 9.50312 103.319 8.74915C102.589 7.98633 101.53 7.62495 100.247 7.62495V8.62495V9.62495C101.163 9.62495 101.629 9.87607 101.874 10.132C102.128 10.3968 102.297 10.8258 102.297 11.475H103.297ZM100.297 6.02495V7.02495C101.886 7.02495 103.125 7.50022 103.96 8.29581C104.788 9.08467 105.322 10.2863 105.322 11.95H106.322H107.322C107.322 9.83862 106.63 8.07773 105.34 6.84784C104.056 5.62468 102.282 5.02495 100.297 5.02495V6.02495ZM106.322 11.95H105.322V12H106.322H107.322V11.95H106.322ZM106.322 12H105.322C105.322 12.7339 105.186 12.888 105.162 12.9109C105.13 12.9419 104.954 13.075 104.197 13.075V14.075V15.075C105.039 15.075 105.925 14.958 106.556 14.3453C107.195 13.7244 107.322 12.841 107.322 12H106.322ZM104.197 14.075V13.075H97.0966V14.075V15.075H104.197V14.075ZM97.0966 14.075H96.0966V14.125H97.0966H98.0966V14.075H97.0966ZM97.0966 14.125H96.0966C96.0966 15.2258 96.45 16.2689 97.2423 17.0346C98.0327 17.7986 99.1442 18.1749 100.447 18.1749V17.1749V16.175C99.524 16.175 98.9605 15.9138 98.6322 15.5965C98.3057 15.281 98.0966 14.7991 98.0966 14.125H97.0966ZM100.447 17.1749V18.1749C101.973 18.1749 103.066 17.9507 104.31 17.3853L103.897 16.475L103.483 15.5646C102.527 15.9992 101.72 16.175 100.447 16.175V17.1749ZM103.897 16.475L104.303 17.3888C104.438 17.3287 104.515 17.3457 104.538 17.354C104.551 17.3588 104.566 17.3667 104.582 17.3825C104.598 17.3986 104.626 17.4314 104.652 17.4939L105.572 17.1L106.491 16.706C106.24 16.1216 105.791 15.6783 105.212 15.4709C104.641 15.2667 104.03 15.3212 103.49 15.5611L103.897 16.475ZM105.572 17.1L104.652 17.4939C104.727 17.6687 104.719 17.7888 104.703 17.8434C104.696 17.8699 104.685 17.8872 104.675 17.9003C104.664 17.9131 104.643 17.9337 104.599 17.9555L105.047 18.85L105.494 19.7444C106.736 19.1232 106.943 17.7606 106.491 16.706L105.572 17.1ZM105.047 18.85L104.599 17.9555C103.521 18.4949 102.232 18.7999 100.322 18.7999V19.7999V20.7999C102.461 20.7999 104.072 20.4551 105.494 19.7444L105.047 18.85ZM100.322 19.7999V18.7999C98.5138 18.7999 97.2295 18.3026 96.3931 17.4542C95.555 16.6039 95.0216 15.2537 95.0216 13.25H94.0216H93.0216C93.0216 15.5962 93.6507 17.521 94.9688 18.8582C96.2887 20.1973 98.1543 20.7999 100.322 20.7999V19.7999ZM94.0216 13.25H95.0216V12.6H94.0216H93.0216V13.25H94.0216ZM94.0216 12.6H95.0216C95.0216 10.6157 95.5639 9.25457 96.4107 8.39057C97.2553 7.52886 98.5369 7.02495 100.297 7.02495V6.02495V5.02495C98.1562 5.02495 96.3003 5.64604 94.9824 6.99059C93.6668 8.33284 93.0216 10.2592 93.0216 12.6H94.0216ZM113.322 6.32495H112.322V7.32495H113.322V6.32495ZM113.322 8.92495V7.92495H112.322V8.92495H113.322ZM115.697 16.9249L115.381 15.9763L115.373 15.979L115.365 15.982L115.697 16.9249ZM117.097 17.75L116.143 18.0482L116.145 18.056L117.097 17.75ZM116.472 19.375L116.07 18.4596L116.063 18.4627L116.056 18.4659L116.472 19.375ZM110.172 8.92495H111.172V7.92495H110.172V8.92495ZM110.172 6.32495V7.32495H111.172V6.32495H110.172ZM111.747 2.64995V3.64995C112.004 3.64995 112.166 3.7181 112.237 3.77292C112.268 3.79661 112.284 3.81786 112.294 3.83854C112.304 3.85919 112.322 3.90674 112.322 3.99995H113.322H114.322C114.322 3.23173 113.994 2.59791 113.451 2.18323C112.942 1.7943 112.316 1.64995 111.747 1.64995V2.64995ZM113.322 3.99995H112.322V6.32495H113.322H114.322V3.99995H113.322ZM113.322 6.32495V7.32495H115.947V6.32495V5.32495H113.322V6.32495ZM115.947 6.32495V7.32495C115.999 7.32495 116.01 7.33451 115.999 7.32909C115.987 7.3235 115.981 7.31616 115.984 7.31912C115.996 7.33475 116.047 7.42564 116.047 7.62495H117.047H118.047C118.047 7.12426 117.924 6.56515 117.574 6.10578C117.197 5.61197 116.623 5.32495 115.947 5.32495V6.32495ZM117.047 7.62495H116.047C116.047 7.82426 115.996 7.91515 115.984 7.93078C115.981 7.93374 115.987 7.9264 115.999 7.92081C116.01 7.91539 115.999 7.92495 115.947 7.92495V8.92495V9.92495C116.623 9.92495 117.197 9.63793 117.574 9.14412C117.924 8.68475 118.047 8.12564 118.047 7.62495H117.047ZM115.947 8.92495V7.92495H113.322V8.92495V9.92495H115.947V8.92495ZM113.322 8.92495H112.322V15.525H113.322H114.322V8.92495H113.322ZM113.322 15.525H112.322C112.322 16.1511 112.422 16.8199 112.821 17.3435C113.266 17.9283 113.917 18.125 114.547 18.125V17.125V16.125C114.43 16.125 114.384 16.1072 114.38 16.1057C114.379 16.1054 114.385 16.1079 114.394 16.1149C114.404 16.122 114.409 16.1287 114.412 16.1314C114.415 16.1362 114.391 16.107 114.367 16.0054C114.342 15.9021 114.322 15.7474 114.322 15.525H113.322ZM114.547 17.125V18.125C115.058 18.125 115.496 18.0565 116.03 17.8679L115.697 16.9249L115.365 15.982C115.049 16.0934 114.836 16.125 114.547 16.125V17.125ZM115.697 16.9249L116.014 17.8736C116.058 17.8589 116.065 17.8721 116.049 17.864C116.042 17.8608 116.048 17.8613 116.064 17.8804C116.08 17.9008 116.112 17.9503 116.143 18.0482L117.097 17.75L118.052 17.4517C117.861 16.8396 117.486 16.3498 116.952 16.0796C116.43 15.8153 115.862 15.816 115.381 15.9763L115.697 16.9249ZM117.097 17.75L116.145 18.056C116.202 18.231 116.181 18.3338 116.167 18.3718C116.16 18.3908 116.151 18.4031 116.142 18.4132C116.132 18.4233 116.112 18.4411 116.07 18.4596L116.472 19.375L116.875 20.2903C117.428 20.047 117.837 19.6157 118.04 19.0718C118.239 18.5411 118.218 17.9689 118.049 17.4439L117.097 17.75ZM116.472 19.375L116.056 18.4659C115.616 18.6673 114.965 18.7999 114.272 18.7999V19.7999V20.7999C115.179 20.7999 116.128 20.6326 116.889 20.284L116.472 19.375ZM114.272 19.7999V18.7999C112.941 18.7999 112.248 18.4663 111.857 18.0229C111.441 17.5518 111.172 16.742 111.172 15.375H110.172H109.172C109.172 16.9329 109.466 18.3356 110.357 19.3457C111.272 20.3836 112.629 20.7999 114.272 20.7999V19.7999ZM110.172 15.375H111.172V8.92495H110.172H109.172V15.375H110.172ZM110.172 8.92495V7.92495H108.922V8.92495V9.92495H110.172V8.92495ZM108.922 8.92495V7.92495C108.871 7.92495 108.86 7.91539 108.871 7.92081C108.883 7.9264 108.888 7.93374 108.886 7.93078C108.874 7.91515 108.822 7.82426 108.822 7.62495H107.822H106.822C106.822 8.12564 106.946 8.68475 107.296 9.14412C107.673 9.63793 108.246 9.92495 108.922 9.92495V8.92495ZM107.822 7.62495H108.822C108.822 7.42564 108.874 7.33475 108.886 7.31912C108.888 7.31616 108.883 7.3235 108.871 7.32909C108.86 7.33451 108.871 7.32495 108.922 7.32495V6.32495V5.32495C108.246 5.32495 107.673 5.61197 107.296 6.10578C106.946 6.56515 106.822 7.12426 106.822 7.62495H107.822ZM108.922 6.32495V7.32495H110.172V6.32495V5.32495H108.922V6.32495ZM110.172 6.32495H111.172V3.99995H110.172H109.172V6.32495H110.172ZM110.172 3.99995H111.172C111.172 3.90674 111.19 3.85919 111.201 3.83854C111.211 3.81786 111.226 3.79661 111.257 3.77292C111.329 3.7181 111.491 3.64995 111.747 3.64995V2.64995V1.64995C111.179 1.64995 110.553 1.7943 110.044 2.18323C109.501 2.59791 109.172 3.23173 109.172 3.99995H110.172ZM129.475 7.69995L130.448 7.47306L130.446 7.4625L129.475 7.69995ZM131.525 16.5L130.551 16.7268L130.731 17.5H131.525V16.5ZM131.625 16.5V17.5H132.432L132.602 16.7109L131.625 16.5ZM133.6 7.34995L134.577 7.56094L134.578 7.55481L133.6 7.34995ZM135.45 6.22495L135.672 5.25005L135.663 5.24805L135.45 6.22495ZM136.525 8.07495L137.493 8.32263L137.495 8.31749L136.525 8.07495ZM133.975 18.0499L134.941 18.3064L134.943 18.2976L133.975 18.0499ZM129.525 18.075L128.553 18.3123L128.556 18.3223L129.525 18.075ZM127.65 10.4L128.621 10.1626L128.435 9.39995H127.65V10.4ZM127.55 10.4V9.39995H126.767L126.579 10.1596L127.55 10.4ZM125.65 18.075L126.618 18.3223L126.62 18.3153L125.65 18.075ZM121.2 18.075L122.168 17.8276L122.168 17.8261L121.2 18.075ZM118.65 8.14995L117.679 8.39249L117.681 8.3988L118.65 8.14995ZM119.8 6.22495L119.598 5.24545L119.588 5.24754L119.8 6.22495ZM121.775 7.42495L120.793 7.61696L120.794 7.61951L121.775 7.42495ZM123.575 16.5L122.594 16.6945L122.753 17.5H123.575V16.5ZM123.675 16.5V17.5H124.459L124.646 16.7386L123.675 16.5ZM125.825 7.74995L126.796 7.98858L126.798 7.97784L125.825 7.74995ZM127.675 6.17495V7.17495C127.857 7.17495 128.021 7.22518 128.148 7.31927C128.265 7.40593 128.415 7.57611 128.503 7.9374L129.475 7.69995L130.446 7.4625C130.259 6.69879 129.871 6.10647 129.338 5.71188C128.815 5.32472 128.217 5.17495 127.675 5.17495V6.17495ZM129.475 7.69995L128.501 7.92683L130.551 16.7268L131.525 16.5L132.498 16.2731L130.448 7.47307L129.475 7.69995ZM131.525 16.5V17.5H131.625V16.5V15.5H131.525V16.5ZM131.625 16.5L132.602 16.7109L134.577 7.56094L133.6 7.34995L132.622 7.13896L130.647 16.289L131.625 16.5ZM133.6 7.34995L134.578 7.55481C134.611 7.39939 134.656 7.31763 134.684 7.27852C134.71 7.24234 134.734 7.22438 134.759 7.21145C134.822 7.17988 134.975 7.1447 135.236 7.20185L135.45 6.22495L135.663 5.24805C135.124 5.1302 134.465 5.12002 133.858 5.42595C133.21 5.75303 132.785 6.35946 132.621 7.14509L133.6 7.34995ZM135.45 6.22495L135.227 7.19981C135.473 7.25616 135.539 7.34466 135.555 7.37071C135.571 7.39602 135.633 7.517 135.554 7.83241L136.525 8.07495L137.495 8.31749C137.666 7.6329 137.628 6.92889 137.263 6.32919C136.897 5.73024 136.301 5.39374 135.672 5.25009L135.45 6.22495ZM136.525 8.07495L135.556 7.82728L133.006 17.8023L133.975 18.0499L134.943 18.2976L137.493 8.32262L136.525 8.07495ZM133.975 18.0499L133.008 17.7935C132.884 18.2598 132.72 18.4568 132.587 18.5544C132.449 18.6566 132.21 18.75 131.75 18.75V19.75V20.75C132.464 20.75 133.175 20.6059 133.774 20.1642C134.379 19.7181 134.74 19.0651 134.941 18.3064L133.975 18.0499ZM131.75 19.75V18.75C131.298 18.75 131.047 18.6539 130.899 18.5458C130.76 18.444 130.602 18.2511 130.493 17.8276L129.525 18.075L128.556 18.3223C128.747 19.0738 129.114 19.7184 129.719 20.1603C130.315 20.596 131.026 20.75 131.75 20.75V19.75ZM129.525 18.075L130.496 17.8376L128.621 10.1626L127.65 10.4L126.678 10.6373L128.553 18.3123L129.525 18.075ZM127.65 10.4V9.39995H127.55V10.4V11.4H127.65V10.4ZM127.55 10.4L126.579 10.1596L124.679 17.8346L125.65 18.075L126.62 18.3153L128.52 10.6403L127.55 10.4ZM125.65 18.075L124.681 17.8276C124.572 18.2511 124.414 18.444 124.275 18.5458C124.127 18.6539 123.876 18.75 123.425 18.75V19.75V20.75C124.148 20.75 124.859 20.596 125.455 20.1603C126.06 19.7184 126.427 19.0738 126.618 18.3223L125.65 18.075ZM123.425 19.75V18.75C122.973 18.75 122.722 18.6539 122.574 18.5458C122.435 18.444 122.277 18.2511 122.168 17.8276L121.2 18.075L120.231 18.3223C120.422 19.0738 120.789 19.7184 121.394 20.1603C121.99 20.596 122.701 20.75 123.425 20.75V19.75ZM121.2 18.075L122.168 17.8261L119.618 7.90111L118.65 8.14995L117.681 8.3988L120.231 18.3238L121.2 18.075ZM118.65 8.14995L119.62 7.90742C119.545 7.60846 119.603 7.46503 119.636 7.4102C119.67 7.35578 119.76 7.25661 120.011 7.20236L119.8 6.22495L119.588 5.24754C118.914 5.39329 118.304 5.75662 117.931 6.3647C117.559 6.97237 117.504 7.69144 117.679 8.39249L118.65 8.14995ZM119.8 6.22495L120.001 7.20441C120.296 7.1437 120.486 7.17877 120.577 7.22406C120.616 7.24305 120.648 7.26815 120.678 7.31092C120.711 7.35648 120.76 7.44732 120.793 7.61696L121.775 7.42495L122.756 7.23294C122.592 6.39634 122.142 5.76718 121.465 5.43209C120.838 5.12113 120.153 5.1312 119.598 5.24549L119.8 6.22495ZM121.775 7.42495L120.794 7.61951L122.594 16.6945L123.575 16.5L124.555 16.3054L122.755 7.23039L121.775 7.42495ZM123.575 16.5V17.5H123.675V16.5V15.5H123.575V16.5ZM123.675 16.5L124.646 16.7386L126.796 7.98857L125.825 7.74995L124.853 7.51133L122.703 16.2613L123.675 16.5ZM125.825 7.74995L126.798 7.97784C126.888 7.59291 127.044 7.41564 127.165 7.32631C127.298 7.22868 127.473 7.17495 127.675 7.17495V6.17495V5.17495C127.126 5.17495 126.514 5.32122 125.977 5.71734C125.43 6.12176 125.036 6.73199 124.851 7.52207L125.825 7.74995ZM144.978 6.02495V7.02495C146.82 7.02495 148.147 7.53926 149.015 8.40706C149.882 9.27441 150.428 10.6324 150.428 12.6H151.428H152.428C152.428 10.2675 151.774 8.33799 150.429 6.99284C149.085 5.64814 147.187 5.02495 144.978 5.02495V6.02495ZM151.428 12.6H150.428V13.225H151.428H152.428V12.6H151.428ZM151.428 13.225H150.428C150.428 15.1925 149.882 16.5505 149.015 17.4178C148.147 18.2856 146.82 18.7999 144.978 18.7999V19.7999V20.7999C147.187 20.7999 149.085 20.1768 150.429 18.8321C151.774 17.4869 152.428 15.5574 152.428 13.225H151.428ZM144.978 19.7999V18.7999C143.137 18.7999 141.81 18.2856 140.942 17.4178C140.074 16.5505 139.528 15.1925 139.528 13.225H138.528H137.528C137.528 15.5574 138.182 17.4869 139.528 18.8321C140.872 20.1768 142.77 20.7999 144.978 20.7999V19.7999ZM138.528 13.225H139.528V12.6H138.528H137.528V13.225H138.528ZM138.528 12.6H139.528C139.528 10.6324 140.074 9.27441 140.942 8.40706C141.81 7.53926 143.137 7.02495 144.978 7.02495V6.02495V5.02495C142.77 5.02495 140.872 5.64814 139.528 6.99284C138.182 8.33799 137.528 10.2675 137.528 12.6H138.528ZM144.978 8.77495V7.77495C143.686 7.77495 142.532 8.11662 141.736 9.05165C140.971 9.94984 140.703 11.2072 140.703 12.65H141.703H142.703C142.703 11.3927 142.948 10.7126 143.259 10.3483C143.537 10.0208 144.021 9.77495 144.978 9.77495V8.77495ZM141.703 12.65H140.703V13.175H141.703H142.703V12.65H141.703ZM141.703 13.175H140.703C140.703 14.6177 140.971 15.8751 141.736 16.7733C142.532 17.7083 143.686 18.0499 144.978 18.0499V17.0499V16.05C144.021 16.05 143.537 15.8041 143.259 15.4766C142.948 15.1123 142.703 14.4322 142.703 13.175H141.703ZM144.978 17.0499V18.0499C146.271 18.0499 147.425 17.7083 148.221 16.7733C148.986 15.8751 149.253 14.6177 149.253 13.175H148.253H147.253C147.253 14.4322 147.008 15.1123 146.698 15.4766C146.419 15.8041 145.936 16.05 144.978 16.05V17.0499ZM148.253 13.175H149.253V12.65H148.253H147.253V13.175H148.253ZM148.253 12.65H149.253C149.253 11.2072 148.986 9.94984 148.221 9.05165C147.425 8.11662 146.271 7.77495 144.978 7.77495V8.77495V9.77495C145.936 9.77495 146.419 10.0208 146.698 10.3483C147.008 10.7126 147.253 11.3927 147.253 12.65H148.253ZM162.488 6.29995L161.985 7.16373L161.998 7.1717L162.012 7.17924L162.488 6.29995ZM163.138 7.87495L164.121 8.06085L164.123 8.05074L163.138 7.87495ZM161.563 9.22495L161.759 8.24437L161.748 8.24214L161.737 8.24017L161.563 9.22495ZM157.488 8.32495H156.488V9.32495H157.488V8.32495ZM157.538 8.32495V9.32495H158.151L158.43 8.77863L157.538 8.32495ZM161.138 6.02495V7.02495C161.631 7.02495 161.902 7.11578 161.985 7.16373L162.488 6.29995L162.992 5.43617C162.474 5.13412 161.796 5.02495 161.138 5.02495V6.02495ZM162.488 6.29995L162.012 7.17924C162.126 7.24113 162.145 7.28717 162.153 7.30874C162.169 7.35103 162.196 7.46519 162.154 7.69916L163.138 7.87495L164.123 8.05074C164.206 7.58471 164.207 7.07387 164.017 6.58491C163.82 6.07523 163.45 5.68377 162.965 5.42066L162.488 6.29995ZM163.138 7.87495L162.156 7.68906C162.102 7.97422 161.988 8.13089 161.912 8.19683C161.851 8.24971 161.811 8.25461 161.759 8.24437L161.563 9.22495L161.367 10.2055C162.872 10.5065 163.887 9.29624 164.121 8.06084L163.138 7.87495ZM161.563 9.22495L161.737 8.24017C161.519 8.20173 161.413 8.17101 161.132 8.11568C160.901 8.0702 160.621 8.02495 160.313 8.02495V9.02495V10.025C160.431 10.025 160.563 10.0422 160.745 10.078C160.877 10.1039 161.182 10.1732 161.39 10.2097L161.563 9.22495ZM160.313 9.02495V8.02495C158.167 8.02495 156.613 9.7942 156.613 11.95H157.613H158.613C158.613 10.7557 159.41 10.025 160.313 10.025V9.02495ZM157.613 11.95H156.613V18.4249H157.613H158.613V11.95H157.613ZM157.613 18.4249H156.613C156.613 18.5077 156.597 18.5481 156.589 18.5645C156.58 18.5814 156.566 18.6018 156.534 18.626C156.46 18.6817 156.295 18.75 156.038 18.75V19.75V20.75C156.607 20.75 157.229 20.6057 157.737 20.2239C158.277 19.817 158.613 19.1904 158.613 18.4249H157.613ZM156.038 19.75V18.75C155.799 18.75 155.63 18.684 155.548 18.6229C155.512 18.5962 155.496 18.5735 155.487 18.5561C155.479 18.5401 155.463 18.5024 155.463 18.4249H154.463H153.463C153.463 19.2022 153.816 19.8264 154.354 20.227C154.859 20.6034 155.478 20.75 156.038 20.75V19.75ZM154.463 18.4249H155.463V7.44995H154.463H153.463V18.4249H154.463ZM154.463 7.44995H155.463C155.463 7.3726 155.478 7.33825 155.484 7.32793C155.489 7.31715 155.499 7.30248 155.524 7.28325C155.586 7.23701 155.731 7.17495 155.963 7.17495V6.17495V5.17495C155.42 5.17495 154.816 5.31289 154.321 5.6854C153.792 6.08377 153.463 6.69844 153.463 7.44995H154.463ZM155.963 6.17495V7.17495C156.214 7.17495 156.366 7.23977 156.429 7.28646C156.455 7.30579 156.464 7.32002 156.469 7.32967C156.473 7.33897 156.488 7.37257 156.488 7.44995H157.488H158.488C158.488 6.69765 158.159 6.08099 157.623 5.68219C157.123 5.31014 156.513 5.17495 155.963 5.17495V6.17495ZM157.488 7.44995H156.488V8.32495H157.488H158.488V7.44995H157.488ZM157.488 8.32495V9.32495H157.538V8.32495V7.32495H157.488V8.32495ZM157.538 8.32495L158.43 8.77863C158.979 7.69969 160.007 7.02495 161.138 7.02495V6.02495V5.02495C159.17 5.02495 157.498 6.20021 156.647 7.87127L157.538 8.32495ZM168.673 11.9249H167.673V14.3154L169.375 12.637L168.673 11.9249ZM174.048 6.62495L174.75 7.33702L174.755 7.33206L174.048 6.62495ZM176.223 6.67495L176.972 6.01238L176.966 6.00575L176.96 5.99923L176.223 6.67495ZM176.173 8.74995L175.51 8.0009L175.502 8.00865L176.173 8.74995ZM172.473 12.1L171.802 11.3587L171.084 12.0087L171.711 12.7471L172.473 12.1ZM176.823 17.225L176.061 17.8721L176.064 17.8757L176.823 17.225ZM176.598 19.325L175.955 18.5592L175.949 18.5637L176.598 19.325ZM174.398 19.225L175.184 18.6071L175.176 18.5971L174.398 19.225ZM170.223 14.05L171.001 13.4221L170.337 12.5991L169.553 13.3078L170.223 14.05ZM168.673 15.45L168.003 14.7078L167.673 15.0057V15.45H168.673ZM167.098 1.04995V2.04995C167.355 2.04995 167.519 2.11816 167.593 2.17392C167.626 2.19806 167.64 2.2185 167.648 2.23545C167.657 2.25183 167.673 2.29221 167.673 2.37495H168.673H169.673C169.673 1.60952 169.337 0.982885 168.796 0.575983C168.289 0.194239 167.666 0.0499496 167.098 0.0499496V1.04995ZM168.673 2.37495H167.673V11.9249H168.673H169.673V2.37495H168.673ZM168.673 11.9249L169.375 12.637L174.75 7.33701L174.048 6.62495L173.346 5.9129L167.971 11.2129L168.673 11.9249ZM174.048 6.62495L174.755 7.33206C174.954 7.13346 175.297 7.1451 175.486 7.35067L176.223 6.67495L176.96 5.99923C176.049 5.0048 174.392 4.86644 173.341 5.91784L174.048 6.62495ZM176.223 6.67495L175.474 7.33752C175.625 7.50797 175.658 7.6513 175.657 7.73203C175.657 7.7982 175.635 7.89044 175.51 8.00095L176.173 8.74995L176.836 9.49895C177.361 9.03446 177.652 8.4142 177.657 7.74912C177.663 7.0986 177.396 6.49193 176.972 6.01238L176.223 6.67495ZM176.173 8.74995L175.502 8.00865L171.802 11.3587L172.473 12.1L173.144 12.8412L176.844 9.49125L176.173 8.74995ZM172.473 12.1L171.711 12.7471L176.061 17.8721L176.823 17.225L177.585 16.5778L173.235 11.4528L172.473 12.1ZM176.823 17.225L176.064 17.8757C176.181 18.0122 176.191 18.1187 176.18 18.1992C176.166 18.2986 176.102 18.4353 175.955 18.5592L176.598 19.325L177.241 20.0907C177.719 19.6896 178.068 19.1263 178.16 18.482C178.255 17.8187 178.065 17.1377 177.582 16.5742L176.823 17.225ZM176.598 19.325L175.949 18.5637C175.784 18.7051 175.606 18.7565 175.475 18.7534C175.358 18.7506 175.264 18.7087 175.184 18.6071L174.398 19.225L173.612 19.8428C174.599 21.0999 176.254 20.9312 177.246 20.0862L176.598 19.325ZM174.398 19.225L175.176 18.5971L171.001 13.4221L170.223 14.05L169.445 14.6779L173.62 19.8529L174.398 19.225ZM170.223 14.05L169.553 13.3078L168.003 14.7078L168.673 15.45L169.343 16.1921L170.893 14.7921L170.223 14.05ZM168.673 15.45H167.673V18.4249H168.673H169.673V15.45H168.673ZM168.673 18.4249H167.673C167.673 18.5077 167.657 18.5481 167.648 18.5645C167.64 18.5814 167.626 18.6018 167.593 18.626C167.519 18.6817 167.355 18.75 167.098 18.75V19.75V20.75C167.666 20.75 168.289 20.6057 168.796 20.2239C169.337 19.817 169.673 19.1904 169.673 18.4249H168.673ZM167.098 19.75V18.75C166.859 18.75 166.69 18.684 166.608 18.6229C166.572 18.5962 166.556 18.5735 166.547 18.5561C166.539 18.5401 166.523 18.5024 166.523 18.4249H165.523H164.523C164.523 19.2022 164.875 19.8264 165.413 20.227C165.919 20.6034 166.537 20.75 167.098 20.75V19.75ZM165.523 18.4249H166.523V2.37495H165.523H164.523V18.4249H165.523ZM165.523 2.37495H166.523C166.523 2.29748 166.539 2.25981 166.547 2.24378C166.556 2.22644 166.572 2.20372 166.608 2.17699C166.69 2.11588 166.859 2.04995 167.098 2.04995V1.04995V0.0499496C166.537 0.0499496 165.919 0.196518 165.413 0.572906C164.875 0.973511 164.523 1.59768 164.523 2.37495H165.523ZM181.724 6.17495V7.17495C181.98 7.17495 182.145 7.24316 182.219 7.29892C182.251 7.32306 182.266 7.3435 182.274 7.36045C182.282 7.37683 182.299 7.41721 182.299 7.49995H183.299H184.299C184.299 6.73452 183.963 6.10788 183.422 5.70098C182.915 5.31924 182.292 5.17495 181.724 5.17495V6.17495ZM183.299 7.49995H182.299V18.4249H183.299H184.299V7.49995H183.299ZM183.299 18.4249H182.299C182.299 18.5077 182.282 18.5481 182.274 18.5645C182.266 18.5814 182.251 18.6018 182.219 18.626C182.145 18.6817 181.98 18.75 181.724 18.75V19.75V20.75C182.292 20.75 182.915 20.6057 183.422 20.2239C183.963 19.817 184.299 19.1904 184.299 18.4249H183.299ZM181.724 19.75V18.75C181.484 18.75 181.316 18.684 181.233 18.6229C181.198 18.5962 181.181 18.5735 181.173 18.5561C181.164 18.5401 181.149 18.5024 181.149 18.4249H180.149H179.149C179.149 19.2022 179.501 19.8264 180.039 20.227C180.544 20.6034 181.163 20.75 181.724 20.75V19.75ZM180.149 18.4249H181.149V7.49995H180.149H179.149V18.4249H180.149ZM180.149 7.49995H181.149C181.149 7.42248 181.164 7.38481 181.173 7.36879C181.181 7.35144 181.198 7.32872 181.233 7.30199C181.316 7.24088 181.484 7.17495 181.724 7.17495V6.17495V5.17495C181.163 5.17495 180.544 5.32152 180.039 5.69791C179.501 6.09851 179.149 6.72268 179.149 7.49995H180.149ZM181.724 0.99995V1.99995C182.305 1.99995 182.699 2.4356 182.699 2.89995H183.699H184.699C184.699 1.2643 183.342 -4.95911e-05 181.724 -4.95911e-05V0.99995ZM183.699 2.89995H182.699C182.699 3.3643 182.305 3.79995 181.724 3.79995V4.79995V5.79995C183.342 5.79995 184.699 4.5356 184.699 2.89995H183.699ZM181.724 4.79995V3.79995C181.142 3.79995 180.749 3.3643 180.749 2.89995H179.749H178.749C178.749 4.5356 180.105 5.79995 181.724 5.79995V4.79995ZM179.749 2.89995H180.749C180.749 2.4356 181.142 1.99995 181.724 1.99995V0.99995V-4.95911e-05C180.105 -4.95911e-05 178.749 1.2643 178.749 2.89995H179.749ZM190.129 7.89995H189.129V8.89995H190.129V7.89995ZM190.179 7.89995V8.89995H190.747L191.038 8.41201L190.179 7.89995ZM194.229 6.02495V7.02495C195.478 7.02495 196.395 7.39754 197.002 8.01794C197.61 8.64003 198.029 9.63673 198.029 11.125H199.029H200.029C200.029 9.26318 199.498 7.70987 198.432 6.61946C197.364 5.52736 195.881 5.02495 194.229 5.02495V6.02495ZM199.029 11.125H198.029V18.4249H199.029H200.029V11.125H199.029ZM199.029 18.4249H198.029C198.029 18.5077 198.013 18.5481 198.005 18.5645C197.996 18.5814 197.982 18.6018 197.95 18.626C197.876 18.6817 197.711 18.75 197.454 18.75V19.75V20.75C198.023 20.75 198.645 20.6057 199.153 20.2239C199.693 19.817 200.029 19.1904 200.029 18.4249H199.029ZM197.454 19.75V18.75C197.215 18.75 197.046 18.684 196.964 18.6229C196.928 18.5962 196.912 18.5735 196.903 18.5561C196.895 18.5401 196.879 18.5024 196.879 18.4249H195.879H194.879C194.879 19.2022 195.232 19.8264 195.77 20.227C196.275 20.6034 196.894 20.75 197.454 20.75V19.75ZM195.879 18.4249H196.879V11.7999H195.879H194.879V18.4249H195.879ZM195.879 11.7999H196.879C196.879 10.465 196.568 9.39228 195.827 8.67085C195.088 7.95181 194.119 7.77495 193.254 7.77495V8.77495V9.77495C193.889 9.77495 194.233 9.91059 194.432 10.104C194.628 10.2951 194.879 10.7349 194.879 11.7999H195.879ZM193.254 8.77495V7.77495C192.441 7.77495 191.448 8.01126 190.641 8.69749C189.803 9.41036 189.279 10.5118 189.279 12H190.279H191.279C191.279 11.0131 191.606 10.502 191.937 10.2212C192.298 9.91364 192.793 9.77495 193.254 9.77495V8.77495ZM190.279 12H189.279V18.4249H190.279H191.279V12H190.279ZM190.279 18.4249H189.279C189.279 18.5077 189.263 18.5481 189.255 18.5645C189.246 18.5814 189.232 18.6018 189.2 18.626C189.126 18.6817 188.961 18.75 188.704 18.75V19.75V20.75C189.273 20.75 189.895 20.6057 190.403 20.2239C190.943 19.817 191.279 19.1904 191.279 18.4249H190.279ZM188.704 19.75V18.75C188.465 18.75 188.296 18.684 188.214 18.6229C188.178 18.5962 188.162 18.5735 188.153 18.5561C188.145 18.5401 188.129 18.5024 188.129 18.4249H187.129H186.129C186.129 19.2022 186.482 19.8264 187.02 20.227C187.525 20.6034 188.144 20.75 188.704 20.75V19.75ZM187.129 18.4249H188.129V7.44995H187.129H186.129V18.4249H187.129ZM187.129 7.44995H188.129C188.129 7.3726 188.145 7.33825 188.15 7.32793C188.155 7.31715 188.165 7.30248 188.19 7.28325C188.252 7.23701 188.397 7.17495 188.629 7.17495V6.17495V5.17495C188.086 5.17495 187.482 5.31289 186.987 5.6854C186.458 6.08377 186.129 6.69844 186.129 7.44995H187.129ZM188.629 6.17495V7.17495C188.861 7.17495 189.007 7.23701 189.069 7.28325C189.094 7.30248 189.104 7.31715 189.109 7.32793C189.114 7.33825 189.129 7.3726 189.129 7.44995H190.129H191.129C191.129 6.69844 190.801 6.08377 190.271 5.6854C189.777 5.31289 189.172 5.17495 188.629 5.17495V6.17495ZM190.129 7.44995H189.129V7.89995H190.129H191.129V7.44995H190.129ZM190.129 7.89995V8.89995H190.179V7.89995V6.89995H190.129V7.89995ZM190.179 7.89995L191.038 8.41201C191.551 7.55243 192.859 7.02495 194.229 7.02495V6.02495V5.02495C192.549 5.02495 190.358 5.64747 189.32 7.38789L190.179 7.89995ZM211.157 7.52495L210.341 8.10297L210.64 8.52495H211.157V7.52495ZM211.182 7.52495V8.52495H212.182V7.52495H211.182ZM203.757 23.95L204.25 23.0802L204.242 23.0758L203.757 23.95ZM203.382 22.075L202.513 21.5788L202.509 21.5863L203.382 22.075ZM205.107 21.475L205.567 20.5872L205.561 20.5838L205.554 20.5805L205.107 21.475ZM211.107 17.65H212.107V16.65H211.107V17.65ZM211.057 17.65V16.65H210.464L210.179 17.1699L211.057 17.65ZM207.432 6.02495V7.02495C209.288 7.02495 210.12 7.7914 210.341 8.10297L211.157 7.52495L211.973 6.94693C211.343 6.0585 209.876 5.02495 207.432 5.02495V6.02495ZM211.157 7.52495V8.52495H211.182V7.52495V6.52495H211.157V7.52495ZM211.182 7.52495H212.182V7.44995H211.182H210.182V7.52495H211.182ZM211.182 7.44995H212.182C212.182 7.37257 212.197 7.33897 212.202 7.32967C212.206 7.32002 212.215 7.30579 212.241 7.28646C212.304 7.23977 212.457 7.17495 212.707 7.17495V6.17495V5.17495C212.157 5.17495 211.547 5.31014 211.047 5.68219C210.511 6.08099 210.182 6.69765 210.182 7.44995H211.182ZM212.707 6.17495V7.17495C212.939 7.17495 213.085 7.23701 213.146 7.28325C213.171 7.30248 213.181 7.31715 213.186 7.32793C213.192 7.33825 213.207 7.3726 213.207 7.44995H214.207H215.207C215.207 6.69844 214.878 6.08377 214.349 5.6854C213.854 5.31289 213.25 5.17495 212.707 5.17495V6.17495ZM214.207 7.44995H213.207V19.225H214.207H215.207V7.44995H214.207ZM214.207 19.225H213.207C213.207 20.9637 212.745 22.0658 211.958 22.7589C211.145 23.4755 209.794 23.9249 207.657 23.9249V24.9249V25.9249C210.019 25.9249 211.944 25.4369 213.28 24.2597C214.643 23.0591 215.207 21.3112 215.207 19.225H214.207ZM207.657 24.9249V23.9249C206.378 23.9249 205.023 23.519 204.25 23.0803L203.757 23.95L203.263 24.8196C204.34 25.4309 206.035 25.9249 207.657 25.9249V24.9249ZM203.757 23.95L204.242 23.0758C204.218 23.0622 204.208 23.0506 204.202 23.0409C204.194 23.0283 204.181 23.0014 204.173 22.9535C204.157 22.8474 204.18 22.6967 204.254 22.5636L203.382 22.075L202.509 21.5863C202.234 22.0782 202.107 22.6775 202.197 23.2589C202.29 23.8607 202.624 24.4649 203.271 24.8241L203.757 23.95ZM203.382 22.075L204.25 22.5711C204.314 22.4591 204.37 22.3903 204.411 22.3505C204.431 22.3312 204.446 22.32 204.455 22.314C204.46 22.3109 204.463 22.309 204.465 22.308C204.467 22.3069 204.468 22.3065 204.469 22.3065C204.469 22.3064 204.468 22.3066 204.468 22.3067C204.467 22.3068 204.467 22.3069 204.467 22.3069C204.467 22.307 204.466 22.307 204.466 22.307C204.466 22.307 204.467 22.307 204.467 22.3069C204.468 22.3069 204.468 22.3069 204.469 22.3068C204.471 22.3068 204.475 22.3069 204.481 22.3074C204.503 22.3095 204.561 22.3199 204.66 22.3694L205.107 21.475L205.554 20.5805C204.992 20.2997 204.366 20.2056 203.757 20.4372C203.177 20.6579 202.78 21.1122 202.513 21.5788L203.382 22.075ZM205.107 21.475L204.646 22.3627C205.388 22.7475 206.579 23.2 207.707 23.2V22.2V21.2C207.034 21.2 206.175 20.9024 205.567 20.5872L205.107 21.475ZM207.707 22.2V23.2C208.921 23.2 210.053 22.9664 210.887 22.2599C211.757 21.5238 212.107 20.4452 212.107 19.2H211.107H210.107C210.107 20.0798 209.869 20.5011 209.595 20.7338C209.285 20.996 208.718 21.2 207.707 21.2V22.2ZM211.107 19.2H212.107V17.65H211.107H210.107V19.2H211.107ZM211.107 17.65V16.65H211.057V17.65V18.65H211.107V17.65ZM211.057 17.65L210.179 17.1699C209.717 18.016 208.717 18.45 207.207 18.45V19.45V20.45C208.997 20.45 210.947 19.9339 211.934 18.13L211.057 17.65ZM207.207 19.45V18.45C205.702 18.45 204.69 17.9686 204.028 17.1581C203.338 16.3133 202.907 14.9621 202.907 13H201.907H200.907C200.907 15.2128 201.388 17.0866 202.479 18.4231C203.598 19.7938 205.236 20.45 207.207 20.45V19.45ZM201.907 13H202.907V12.5H201.907H200.907V13H201.907ZM201.907 12.5H202.907C202.907 10.5387 203.414 9.18449 204.17 8.33266C204.913 7.49551 206.002 7.02495 207.432 7.02495V6.02495V5.02495C205.536 5.02495 203.863 5.66689 202.675 7.00474C201.5 8.32791 200.907 10.2113 200.907 12.5H201.907ZM207.957 8.72495V7.72495C206.717 7.72495 205.66 8.16458 204.952 9.11492C204.283 10.012 204.032 11.2259 204.032 12.575H205.032H206.032C206.032 11.424 206.255 10.7129 206.555 10.31C206.816 9.96033 207.221 9.72495 207.957 9.72495V8.72495ZM205.032 12.575H204.032V12.9249H205.032H206.032V12.575H205.032ZM205.032 12.9249H204.032C204.032 14.2865 204.25 15.5021 204.886 16.3957C205.573 17.36 206.615 17.775 207.832 17.775V16.775V15.775C207.098 15.775 206.741 15.5524 206.515 15.2355C206.239 14.8478 206.032 14.1384 206.032 12.9249H205.032ZM207.832 16.775V17.775C209.125 17.775 210.22 17.2996 210.984 16.4668C211.738 15.6453 212.107 14.5477 212.107 13.4H211.107H210.107C210.107 14.1272 209.875 14.7171 209.511 15.1143C209.156 15.5003 208.613 15.775 207.832 15.775V16.775ZM211.107 13.4H212.107V11.45H211.107H210.107V13.4H211.107ZM211.107 11.45H212.107C212.107 10.5655 211.77 9.62678 211.059 8.90649C210.334 8.17261 209.279 7.72495 207.957 7.72495V8.72495V9.72495C208.809 9.72495 209.33 10.0023 209.636 10.3122C209.956 10.6356 210.107 11.0594 210.107 11.45H211.107Z" fill="white" mask="url(#path-1-outside-1_644_711)"/>
</svg>
