<svg width="192" height="28" viewBox="0 0 192 28" fill="none" xmlns="http://www.w3.org/2000/svg">
<g filter="url(#filter0_g_382_3063)">
<path d="M178.64 24.0542C177.5 22.1342 178.64 19.9542 181.24 20.2142C182.34 20.3542 183.88 20.9742 184.44 19.2142C184.78 18.1942 184.34 17.7542 183.54 18.4542C182.6 19.3342 180.82 19.3542 179.74 18.9342C176 17.4942 175.76 11.9142 178.76 9.27424C180.48 7.77424 182.96 7.63424 183.88 8.69424C184.24 9.13424 184.66 9.15424 184.96 8.63424C185.22 8.23424 185.7 7.97424 186.76 7.97424C188.82 7.97424 190.22 10.1942 189.32 12.9342C189 13.8942 189.06 15.3142 189.28 16.8342C189.76 20.1142 188.86 23.9742 184.06 24.7542C181.98 25.0742 179.72 25.8142 178.64 24.0542ZM181.72 14.4742C182.1 15.2542 183.14 15.2742 183.62 14.6942C184.22 13.9742 184.04 12.9542 183.3 12.6542C182.26 12.2142 181.36 13.7342 181.72 14.4742Z" fill="white"/>
</g>
<g filter="url(#filter1_g_382_3063)">
<path d="M173.4 20.3142C172.02 20.3142 171.04 19.5542 171.26 18.0142C171.84 14.2342 171.12 13.3542 170 13.3542C168.94 13.3542 168.26 14.5742 168.46 17.7942C168.54 19.3142 167.56 20.3542 166.02 20.3542C164.24 20.3542 163.14 19.1742 163.68 17.3742C164.14 15.8742 164.32 14.3342 163.98 12.9742C163.58 11.4742 163.68 9.79419 164.34 8.85419C165.44 7.23419 167.9 7.71419 168.52 9.25419C168.74 9.79419 168.96 9.79419 169.28 9.51419C169.8 9.05419 171.18 8.21419 172.66 8.35419C176.22 8.65419 176.04 10.8942 175.68 13.6542C175.54 14.7142 176.26 15.8742 176.2 17.1142C176.1 19.4942 175.2 20.3142 173.4 20.3142Z" fill="white"/>
</g>
<g filter="url(#filter2_g_382_3063)">
<path d="M160.281 20.3743C158.261 20.3543 156.581 19.4343 157.141 16.7943C157.601 14.6943 157.861 13.4143 157.341 11.8143C156.821 10.1943 157.641 8.25425 159.881 8.29425C162.101 8.31425 162.801 9.85425 162.521 11.5543C162.161 13.7343 162.281 14.7143 162.601 17.1143C162.761 18.4943 162.321 20.3943 160.281 20.3743ZM161.621 7.07425C160.601 7.71425 158.741 7.45425 157.501 6.49425C156.321 5.57425 156.621 3.15425 158.121 2.37425C159.741 1.51425 161.621 2.31425 162.201 2.99425C163.141 4.11425 163.141 6.11425 161.621 7.07425Z" fill="white"/>
</g>
<g filter="url(#filter3_g_382_3063)">
<path d="M146.143 2.79419C148.503 2.79419 149.123 4.39419 148.783 6.49419C148.643 7.43419 148.583 8.97419 148.623 9.63419C148.643 10.0942 148.843 10.3142 149.223 10.3542C150.003 10.4342 150.383 10.0542 150.603 9.29419C151.343 6.57419 153.683 6.95419 154.803 7.67419C155.943 8.41419 156.243 9.69419 155.503 11.0342C155.003 11.8942 154.143 12.5342 153.303 12.8342C152.823 13.0142 152.783 13.4142 152.943 13.9142C153.223 14.7542 153.483 15.4142 154.523 15.6142C155.983 15.9142 156.343 16.9142 156.263 18.1342C156.183 19.2742 155.423 20.2542 153.803 20.2742C151.043 20.2942 149.643 17.8742 149.403 14.8942C149.363 14.3942 148.643 14.1942 148.723 15.0342C148.843 16.4542 148.883 17.6542 148.623 18.5742C148.243 19.9142 147.403 20.5542 145.923 20.4542C143.823 20.3142 143.283 18.8942 143.483 17.1542C143.603 16.0142 143.863 15.4542 144.063 13.9942C144.343 11.9942 144.483 10.4942 143.863 7.81419C143.063 4.31419 144.283 2.79419 146.143 2.79419Z" fill="white"/>
</g>
<g filter="url(#filter4_g_382_3063)">
<path d="M139.583 13.5942C138.323 13.2942 137.583 13.8142 137.843 14.8742C138.043 15.7542 138.283 16.4542 138.523 17.2542C139.003 18.8742 137.703 20.3542 136.003 20.3942C134.263 20.4342 133.143 19.3542 133.363 17.5542C133.523 16.0342 133.403 14.4942 133.023 13.1942C132.303 10.7342 132.363 8.63421 134.603 8.03421C136.083 7.65421 137.083 8.53421 137.603 9.17421C137.963 9.57421 138.463 9.49421 138.783 9.21421C139.263 8.77421 140.063 8.43421 141.103 8.55421C143.303 8.83421 143.723 11.3542 142.983 12.5142C142.103 13.8742 141.003 13.9542 139.583 13.5942Z" fill="white"/>
</g>
<g filter="url(#filter5_g_382_3063)">
<path d="M124.317 20.3742C120.597 19.8342 119.717 15.8742 120.457 11.9942C120.897 9.73422 122.997 8.07422 125.297 8.07422C126.637 8.07422 127.897 8.25422 128.837 8.81422C131.037 10.0942 131.937 11.1742 131.937 13.8142C131.937 19.5542 129.197 21.1342 124.317 20.3742ZM125.777 16.4342C126.877 16.6342 127.537 15.9942 127.537 14.2942C127.537 12.9342 127.077 12.2142 126.157 12.2142C125.257 12.2142 124.537 12.9142 124.537 14.4942C124.537 15.4942 124.837 16.2742 125.777 16.4342Z" fill="white"/>
</g>
<g filter="url(#filter6_g_382_3063)">
<path d="M104.824 8.09428C106.484 7.85428 107.584 8.47428 107.724 10.0543C107.844 11.9343 108.044 12.7543 108.104 13.6143C108.144 14.4943 108.944 14.2543 109.164 13.6343C109.424 12.7543 109.324 12.1343 109.204 10.9343C109.084 9.67428 109.844 8.55428 111.564 8.55428C113.304 8.55428 114.024 9.71428 113.904 10.9343C113.764 12.1343 113.664 12.7543 113.944 13.6343C114.144 14.2543 114.724 14.2943 114.764 13.4143C114.824 12.5543 114.724 11.1343 115.504 9.51428C116.144 8.07428 117.664 7.93427 118.784 8.43428C119.964 8.95427 120.304 10.7743 119.624 11.9743C118.764 13.6143 118.324 15.5143 117.924 17.2343C117.524 18.9343 116.864 20.2543 115.024 20.3743C113.464 20.4943 112.364 19.5743 112.024 18.2943C111.844 17.6743 111.244 17.6743 111.084 18.2943C110.724 19.5743 109.644 20.4943 108.064 20.3743C106.244 20.2543 105.764 18.8743 105.164 17.2343C104.564 15.5143 103.484 12.9143 103.264 11.2143C103.044 9.27428 103.524 8.27428 104.824 8.09428Z" fill="white"/>
</g>
<g filter="url(#filter7_g_382_3063)">
<path d="M94.704 7.79425C95.364 7.99425 95.604 7.87425 95.564 7.25425C95.544 6.79425 95.9839 5.23425 97.8639 5.23425C99.6239 5.23425 100.424 6.55425 100.124 7.61425C99.944 8.25425 100.084 8.33425 100.604 8.23425C101.684 8.07425 103.204 8.81425 102.824 10.9943C102.444 13.0743 100.504 12.7143 99.704 12.8343C99.404 12.8743 99.124 13.2343 99.124 13.7143C99.124 15.4943 99.344 15.9143 100.104 15.9143C101.444 15.9143 102.444 16.6743 102.084 18.4543C101.744 20.1543 100.144 20.4943 98.704 20.4743C95.664 20.4143 93.3039 18.8743 94.3639 14.0943C94.6439 12.7743 94.844 12.3543 94.164 12.2943C93.024 12.1743 92.424 11.6543 92.304 10.1743C92.164 8.51425 92.864 7.25425 94.704 7.79425Z" fill="white"/>
</g>
<g filter="url(#filter8_g_382_3063)">
<path d="M83.9689 19.6142C82.4889 18.7142 81.6089 17.2142 81.4089 14.8942C81.1689 11.5742 82.6289 8.0742 86.8089 7.8542C90.2889 7.6342 92.1889 9.8742 92.1689 12.2742C92.1489 14.4342 89.5289 15.7342 86.6489 14.9742C86.1089 14.8142 85.9689 15.1942 86.0489 15.6142C86.2289 16.7342 87.4289 16.7742 88.6089 16.1142C89.9089 15.3342 91.1689 15.5142 91.6489 16.8942C92.0489 18.0342 91.2289 19.5342 90.1289 19.9742C88.4489 20.6142 85.4689 20.5542 83.9689 19.6142ZM87.1689 12.5542C87.8089 12.5542 88.2289 12.1942 88.0089 11.6342C87.6889 10.8742 86.6289 11.1542 86.4089 11.7142C86.1889 12.3142 86.3689 12.5542 87.1689 12.5542Z" fill="white"/>
</g>
<g filter="url(#filter9_g_382_3063)">
<path d="M68.9163 2.99422C70.8763 2.89422 71.9763 3.35422 72.8363 4.93422C73.6563 6.47422 74.1363 7.95422 74.4163 9.51422C74.7363 11.2942 75.4563 12.0742 75.8763 11.3942C76.1563 10.9542 76.1963 9.05422 75.8763 6.61422C75.5963 4.41422 76.2363 3.05422 78.3363 3.03422C81.1363 2.99422 80.8763 5.93422 80.5163 7.19422C79.6363 10.1742 79.5963 12.5142 80.0563 15.3942C80.5363 18.4742 79.4963 19.6742 77.5763 20.0942C75.8363 20.4742 74.5963 19.4942 73.9163 18.3742C72.9963 16.8742 72.0163 13.8742 71.6363 12.2342C71.5163 11.7142 71.1763 11.5742 70.7763 11.8342C70.2763 12.1542 70.4363 13.0942 70.5563 13.9942C70.7363 15.2742 71.0563 16.1742 71.1763 17.7142C71.2963 19.2542 70.3563 20.4542 68.3963 20.4142C66.4363 20.3742 65.8763 18.3342 66.4163 16.7742C67.0763 14.8742 67.2163 11.1342 66.5963 7.07422C66.2363 4.69422 66.9363 3.09422 68.9163 2.99422Z" fill="white"/>
</g>
<g filter="url(#filter10_g_382_3063)">
<path d="M54.5127 20.3742C50.7927 19.8342 49.9127 15.8742 50.6527 11.9942C51.0927 9.73422 53.1927 8.07422 55.4927 8.07422C56.8327 8.07422 58.0927 8.25422 59.0327 8.81422C61.2327 10.0942 62.1327 11.1742 62.1327 13.8142C62.1327 19.5542 59.3927 21.1342 54.5127 20.3742ZM55.9727 16.4342C57.0727 16.6342 57.7327 15.9942 57.7327 14.2942C57.7327 12.9342 57.2727 12.2142 56.3527 12.2142C55.4527 12.2142 54.7327 12.9142 54.7327 14.4942C54.7327 15.4942 55.0327 16.2742 55.9727 16.4342Z" fill="white"/>
</g>
<g filter="url(#filter11_g_382_3063)">
<path d="M38.8352 24.0542C37.6952 22.1342 38.8352 19.9542 41.4352 20.2142C42.5352 20.3542 44.0752 20.9742 44.6352 19.2142C44.9752 18.1942 44.5352 17.7542 43.7352 18.4542C42.7952 19.3342 41.0152 19.3542 39.9352 18.9342C36.1952 17.4942 35.9552 11.9142 38.9552 9.27424C40.6752 7.77424 43.1552 7.63424 44.0752 8.69424C44.4352 9.13424 44.8552 9.15424 45.1552 8.63424C45.4152 8.23424 45.8952 7.97424 46.9552 7.97424C49.0152 7.97424 50.4152 10.1942 49.5152 12.9342C49.1952 13.8942 49.2552 15.3142 49.4752 16.8342C49.9552 20.1142 49.0552 23.9742 44.2552 24.7542C42.1752 25.0742 39.9152 25.8142 38.8352 24.0542ZM41.9152 14.4742C42.2952 15.2542 43.3352 15.2742 43.8152 14.6942C44.4152 13.9742 44.2352 12.9542 43.4952 12.6542C42.4552 12.2142 41.5552 13.7342 41.9152 14.4742Z" fill="white"/>
</g>
<g filter="url(#filter12_g_382_3063)">
<path d="M33.595 20.3142C32.215 20.3142 31.235 19.5542 31.455 18.0142C32.035 14.2342 31.315 13.3542 30.195 13.3542C29.135 13.3542 28.455 14.5742 28.655 17.7942C28.735 19.3142 27.755 20.3542 26.215 20.3542C24.435 20.3542 23.335 19.1742 23.875 17.3742C24.335 15.8742 24.515 14.3342 24.175 12.9742C23.775 11.4742 23.875 9.79419 24.535 8.85419C25.635 7.23419 28.095 7.71419 28.715 9.25419C28.935 9.79419 29.155 9.79419 29.475 9.51419C29.995 9.05419 31.375 8.21419 32.855 8.35419C36.415 8.65419 36.235 10.8942 35.875 13.6542C35.735 14.7142 36.455 15.8742 36.395 17.1142C36.295 19.4942 35.395 20.3142 33.595 20.3142Z" fill="white"/>
</g>
<g filter="url(#filter13_g_382_3063)">
<path d="M20.4766 20.3743C18.4566 20.3543 16.7766 19.4343 17.3366 16.7943C17.7966 14.6943 18.0566 13.4143 17.5366 11.8143C17.0166 10.1943 17.8366 8.25425 20.0766 8.29425C22.2966 8.31425 22.9966 9.85425 22.7166 11.5543C22.3566 13.7343 22.4766 14.7143 22.7966 17.1143C22.9566 18.4943 22.5166 20.3943 20.4766 20.3743ZM21.8166 7.07425C20.7966 7.71425 18.9366 7.45425 17.6966 6.49425C16.5166 5.57425 16.8166 3.15425 18.3166 2.37425C19.9366 1.51425 21.8166 2.31425 22.3966 2.99425C23.3366 4.11425 23.3366 6.11425 21.8166 7.07425Z" fill="white"/>
</g>
<g filter="url(#filter14_g_382_3063)">
<path d="M11.6777 20.2742C10.7577 20.4142 9.4977 20.3142 8.2377 20.1142C7.1177 19.9342 6.1177 19.9542 5.1977 20.1342C3.0177 20.5542 1.4577 18.9342 2.1777 16.3142C3.0577 13.0742 3.2377 9.25419 2.5777 6.77419C1.9777 4.55419 3.3777 2.45418 5.9177 3.07418C7.6177 3.49418 8.7377 3.41418 10.0377 3.13418C12.5177 2.59419 14.9977 4.29418 14.9977 6.91418C14.9977 8.99419 14.0977 9.93419 12.4377 10.3942C11.9977 10.5142 12.0577 11.0342 12.5977 10.9942C14.6977 10.8342 16.9977 12.7342 16.3177 16.1942C15.6777 19.4342 14.4377 19.8542 11.6777 20.2742ZM9.7177 15.8942C11.1577 15.6942 11.6777 15.1742 11.6777 14.3342C11.6777 13.1742 10.2977 12.6542 8.7377 12.6542C7.7177 12.6542 7.3777 13.0542 7.2977 13.7342C6.9977 15.6542 7.6977 16.1542 9.7177 15.8942ZM8.8577 8.79419C10.2777 8.23419 9.9777 7.05418 8.5777 6.83418C7.7577 6.61418 7.5777 6.91418 7.4977 7.43419C7.4377 7.81419 7.4777 8.17418 7.5177 8.43419C7.5977 8.95418 8.1977 9.05419 8.8577 8.79419Z" fill="white"/>
</g>
<defs>
<filter id="filter0_g_382_3063" x="174.702" y="5.97424" width="16.8962" height="21.2101" filterUnits="userSpaceOnUse" color-interpolation-filters="sRGB">
<feFlood flood-opacity="0" result="BackgroundImageFix"/>
<feBlend mode="normal" in="SourceGraphic" in2="BackgroundImageFix" result="shape"/>
<feTurbulence type="fractalNoise" baseFrequency="0.83333331346511841 0.83333331346511841" numOctaves="3" seed="5017" />
<feDisplacementMap in="shape" scale="4" xChannelSelector="R" yChannelSelector="G" result="displacedImage" width="100%" height="100%" />
<feMerge result="effect1_texture_382_3063">
<feMergeNode in="displacedImage"/>
</feMerge>
</filter>
<filter id="filter1_g_382_3063" x="161.542" y="5.84656" width="16.6616" height="16.5077" filterUnits="userSpaceOnUse" color-interpolation-filters="sRGB">
<feFlood flood-opacity="0" result="BackgroundImageFix"/>
<feBlend mode="normal" in="SourceGraphic" in2="BackgroundImageFix" result="shape"/>
<feTurbulence type="fractalNoise" baseFrequency="0.83333331346511841 0.83333331346511841" numOctaves="3" seed="5017" />
<feDisplacementMap in="shape" scale="4" xChannelSelector="R" yChannelSelector="G" result="displacedImage" width="100%" height="100%" />
<feMerge result="effect1_texture_382_3063">
<feMergeNode in="displacedImage"/>
</feMerge>
</filter>
<filter id="filter2_g_382_3063" x="154.777" y="0" width="10.0698" height="22.3744" filterUnits="userSpaceOnUse" color-interpolation-filters="sRGB">
<feFlood flood-opacity="0" result="BackgroundImageFix"/>
<feBlend mode="normal" in="SourceGraphic" in2="BackgroundImageFix" result="shape"/>
<feTurbulence type="fractalNoise" baseFrequency="0.83333331346511841 0.83333331346511841" numOctaves="3" seed="5017" />
<feDisplacementMap in="shape" scale="4" xChannelSelector="R" yChannelSelector="G" result="displacedImage" width="100%" height="100%" />
<feMerge result="effect1_texture_382_3063">
<feMergeNode in="displacedImage"/>
</feMerge>
</filter>
<filter id="filter3_g_382_3063" x="141.444" y="0.794189" width="16.8291" height="21.6702" filterUnits="userSpaceOnUse" color-interpolation-filters="sRGB">
<feFlood flood-opacity="0" result="BackgroundImageFix"/>
<feBlend mode="normal" in="SourceGraphic" in2="BackgroundImageFix" result="shape"/>
<feTurbulence type="fractalNoise" baseFrequency="0.83333331346511841 0.83333331346511841" numOctaves="3" seed="5017" />
<feDisplacementMap in="shape" scale="4" xChannelSelector="R" yChannelSelector="G" result="displacedImage" width="100%" height="100%" />
<feMerge result="effect1_texture_382_3063">
<feMergeNode in="displacedImage"/>
</feMerge>
</filter>
<filter id="filter4_g_382_3063" x="130.613" y="5.94226" width="14.7056" height="16.453" filterUnits="userSpaceOnUse" color-interpolation-filters="sRGB">
<feFlood flood-opacity="0" result="BackgroundImageFix"/>
<feBlend mode="normal" in="SourceGraphic" in2="BackgroundImageFix" result="shape"/>
<feTurbulence type="fractalNoise" baseFrequency="0.83333331346511841 0.83333331346511841" numOctaves="3" seed="5017" />
<feDisplacementMap in="shape" scale="4" xChannelSelector="R" yChannelSelector="G" result="displacedImage" width="100%" height="100%" />
<feMerge result="effect1_texture_382_3063">
<feMergeNode in="displacedImage"/>
</feMerge>
</filter>
<filter id="filter5_g_382_3063" x="118.217" y="6.07422" width="15.7207" height="16.478" filterUnits="userSpaceOnUse" color-interpolation-filters="sRGB">
<feFlood flood-opacity="0" result="BackgroundImageFix"/>
<feBlend mode="normal" in="SourceGraphic" in2="BackgroundImageFix" result="shape"/>
<feTurbulence type="fractalNoise" baseFrequency="0.83333331346511841 0.83333331346511841" numOctaves="3" seed="5017" />
<feDisplacementMap in="shape" scale="4" xChannelSelector="R" yChannelSelector="G" result="displacedImage" width="100%" height="100%" />
<feMerge result="effect1_texture_382_3063">
<feMergeNode in="displacedImage"/>
</feMerge>
</filter>
<filter id="filter6_g_382_3063" x="101.212" y="6.04431" width="20.7583" height="16.3405" filterUnits="userSpaceOnUse" color-interpolation-filters="sRGB">
<feFlood flood-opacity="0" result="BackgroundImageFix"/>
<feBlend mode="normal" in="SourceGraphic" in2="BackgroundImageFix" result="shape"/>
<feTurbulence type="fractalNoise" baseFrequency="0.83333331346511841 0.83333331346511841" numOctaves="3" seed="5017" />
<feDisplacementMap in="shape" scale="4" xChannelSelector="R" yChannelSelector="G" result="displacedImage" width="100%" height="100%" />
<feMerge result="effect1_texture_382_3063">
<feMergeNode in="displacedImage"/>
</feMerge>
</filter>
<filter id="filter7_g_382_3063" x="90.2866" y="3.23425" width="14.5969" height="19.2408" filterUnits="userSpaceOnUse" color-interpolation-filters="sRGB">
<feFlood flood-opacity="0" result="BackgroundImageFix"/>
<feBlend mode="normal" in="SourceGraphic" in2="BackgroundImageFix" result="shape"/>
<feTurbulence type="fractalNoise" baseFrequency="0.83333331346511841 0.83333331346511841" numOctaves="3" seed="5017" />
<feDisplacementMap in="shape" scale="4" xChannelSelector="R" yChannelSelector="G" result="displacedImage" width="100%" height="100%" />
<feMerge result="effect1_texture_382_3063">
<feMergeNode in="displacedImage"/>
</feMerge>
</filter>
<filter id="filter8_g_382_3063" x="79.3838" y="5.83923" width="14.7852" height="16.558" filterUnits="userSpaceOnUse" color-interpolation-filters="sRGB">
<feFlood flood-opacity="0" result="BackgroundImageFix"/>
<feBlend mode="normal" in="SourceGraphic" in2="BackgroundImageFix" result="shape"/>
<feTurbulence type="fractalNoise" baseFrequency="0.83333331346511841 0.83333331346511841" numOctaves="3" seed="5017" />
<feDisplacementMap in="shape" scale="4" xChannelSelector="R" yChannelSelector="G" result="displacedImage" width="100%" height="100%" />
<feMerge result="effect1_texture_382_3063">
<feMergeNode in="displacedImage"/>
</feMerge>
</filter>
<filter id="filter9_g_382_3063" x="64.2217" y="0.981201" width="18.5125" height="21.434" filterUnits="userSpaceOnUse" color-interpolation-filters="sRGB">
<feFlood flood-opacity="0" result="BackgroundImageFix"/>
<feBlend mode="normal" in="SourceGraphic" in2="BackgroundImageFix" result="shape"/>
<feTurbulence type="fractalNoise" baseFrequency="0.83333331346511841 0.83333331346511841" numOctaves="3" seed="5017" />
<feDisplacementMap in="shape" scale="4" xChannelSelector="R" yChannelSelector="G" result="displacedImage" width="100%" height="100%" />
<feMerge result="effect1_texture_382_3063">
<feMergeNode in="displacedImage"/>
</feMerge>
</filter>
<filter id="filter10_g_382_3063" x="48.4121" y="6.07422" width="15.7207" height="16.478" filterUnits="userSpaceOnUse" color-interpolation-filters="sRGB">
<feFlood flood-opacity="0" result="BackgroundImageFix"/>
<feBlend mode="normal" in="SourceGraphic" in2="BackgroundImageFix" result="shape"/>
<feTurbulence type="fractalNoise" baseFrequency="0.83333331346511841 0.83333331346511841" numOctaves="3" seed="5017" />
<feDisplacementMap in="shape" scale="4" xChannelSelector="R" yChannelSelector="G" result="displacedImage" width="100%" height="100%" />
<feMerge result="effect1_texture_382_3063">
<feMergeNode in="displacedImage"/>
</feMerge>
</filter>
<filter id="filter11_g_382_3063" x="34.897" y="5.97424" width="16.8962" height="21.2101" filterUnits="userSpaceOnUse" color-interpolation-filters="sRGB">
<feFlood flood-opacity="0" result="BackgroundImageFix"/>
<feBlend mode="normal" in="SourceGraphic" in2="BackgroundImageFix" result="shape"/>
<feTurbulence type="fractalNoise" baseFrequency="0.83333331346511841 0.83333331346511841" numOctaves="3" seed="5017" />
<feDisplacementMap in="shape" scale="4" xChannelSelector="R" yChannelSelector="G" result="displacedImage" width="100%" height="100%" />
<feMerge result="effect1_texture_382_3063">
<feMergeNode in="displacedImage"/>
</feMerge>
</filter>
<filter id="filter12_g_382_3063" x="21.7371" y="5.84656" width="16.6616" height="16.5077" filterUnits="userSpaceOnUse" color-interpolation-filters="sRGB">
<feFlood flood-opacity="0" result="BackgroundImageFix"/>
<feBlend mode="normal" in="SourceGraphic" in2="BackgroundImageFix" result="shape"/>
<feTurbulence type="fractalNoise" baseFrequency="0.83333331346511841 0.83333331346511841" numOctaves="3" seed="5017" />
<feDisplacementMap in="shape" scale="4" xChannelSelector="R" yChannelSelector="G" result="displacedImage" width="100%" height="100%" />
<feMerge result="effect1_texture_382_3063">
<feMergeNode in="displacedImage"/>
</feMerge>
</filter>
<filter id="filter13_g_382_3063" x="14.9722" y="0" width="10.0698" height="22.3744" filterUnits="userSpaceOnUse" color-interpolation-filters="sRGB">
<feFlood flood-opacity="0" result="BackgroundImageFix"/>
<feBlend mode="normal" in="SourceGraphic" in2="BackgroundImageFix" result="shape"/>
<feTurbulence type="fractalNoise" baseFrequency="0.83333331346511841 0.83333331346511841" numOctaves="3" seed="5017" />
<feDisplacementMap in="shape" scale="4" xChannelSelector="R" yChannelSelector="G" result="displacedImage" width="100%" height="100%" />
<feMerge result="effect1_texture_382_3063">
<feMergeNode in="displacedImage"/>
</feMerge>
</filter>
<filter id="filter14_g_382_3063" x="0" y="0.963989" width="18.4392" height="21.3755" filterUnits="userSpaceOnUse" color-interpolation-filters="sRGB">
<feFlood flood-opacity="0" result="BackgroundImageFix"/>
<feBlend mode="normal" in="SourceGraphic" in2="BackgroundImageFix" result="shape"/>
<feTurbulence type="fractalNoise" baseFrequency="0.83333331346511841 0.83333331346511841" numOctaves="3" seed="5017" />
<feDisplacementMap in="shape" scale="4" xChannelSelector="R" yChannelSelector="G" result="displacedImage" width="100%" height="100%" />
<feMerge result="effect1_texture_382_3063">
<feMergeNode in="displacedImage"/>
</feMerge>
</filter>
</defs>
</svg>
