<svg width="176" height="149" viewBox="0 0 176 149" fill="none" xmlns="http://www.w3.org/2000/svg">
<mask id="mask0_382_1298" style="mask-type:alpha" maskUnits="userSpaceOnUse" x="0" y="0" width="176" height="149">
<rect width="176" height="149" fill="#D9D9D9"/>
</mask>
<g mask="url(#mask0_382_1298)">
<path d="M60.8792 178.375C60.5428 178.375 60.271 178.103 60.271 177.766V133.051C60.271 132.715 60.5428 132.442 60.8792 132.442C61.2156 132.442 61.4874 132.715 61.4874 133.051V177.766C61.4874 178.103 61.2156 178.375 60.8792 178.375Z" fill="#1A4200"/>
<path d="M26.4771 101.13L19.7212 102.378L26.0133 136.54L32.7692 135.293L26.4771 101.13Z" fill="#FFF5ED"/>
<path d="M25.9994 137.153C25.875 137.153 25.7552 137.116 25.6538 137.047C25.5202 136.955 25.428 136.816 25.4004 136.655L19.111 102.488C19.0511 102.156 19.2677 101.837 19.5994 101.777L26.3541 100.532C26.5108 100.504 26.6767 100.536 26.8103 100.629C26.9439 100.721 27.0361 100.859 27.0637 101.021L33.3531 135.188C33.3807 135.344 33.3485 135.511 33.2563 135.644C33.1642 135.778 33.0259 135.87 32.8647 135.898L26.1099 137.144C26.0731 137.149 26.0362 137.153 25.9994 137.153ZM20.4196 102.866L26.4878 135.834L32.0491 134.809L25.9809 101.842L20.4196 102.866Z" fill="#1A4200"/>
<path d="M83.9254 90.52L77.1694 91.7678L83.4615 125.931L90.2175 124.683L83.9254 90.52Z" fill="#FFF5ED"/>
<path d="M83.4511 126.546C83.3267 126.546 83.2069 126.509 83.1056 126.439C82.9719 126.347 82.8798 126.209 82.8521 126.047L76.5628 91.8804C76.5351 91.7235 76.5674 91.5574 76.6596 91.4236C76.7517 91.2898 76.8899 91.1975 77.0512 91.1699L83.8059 89.9241C83.9626 89.8964 84.1284 89.9287 84.2621 90.021C84.3957 90.1132 84.4878 90.2517 84.5155 90.4132L90.8048 124.58C90.8647 124.912 90.6482 125.231 90.3164 125.291L83.5617 126.536C83.5248 126.541 83.488 126.546 83.4511 126.546ZM77.8667 92.2588L83.9349 125.226L89.4963 124.202L83.4281 91.2345L77.8667 92.2588Z" fill="#1A4200"/>
<path d="M76.9134 52.4904C76.3374 49.3575 73.3333 47.2904 70.2094 47.8672L17.3235 57.6305C14.195 58.2072 12.1308 61.2156 12.7067 64.3439L19.7333 102.502L83.94 90.6484L76.9134 52.4904Z" fill="#FFF5ED"/>
<path d="M19.7333 103.111C19.6089 103.111 19.4891 103.074 19.3877 103.005C19.2541 102.912 19.1619 102.774 19.1343 102.612L12.1077 64.4544C11.799 62.7795 12.1584 61.0861 13.126 59.6835C14.0936 58.2808 15.5404 57.3395 17.2129 57.0304L70.0988 47.2671C71.7713 46.958 73.4623 47.3179 74.863 48.2868C76.2637 49.2558 77.2037 50.7046 77.5124 52.3795L84.5389 90.5374C84.5988 90.8696 84.3823 91.188 84.0505 91.248L19.8439 103.101C19.807 103.106 19.7701 103.111 19.7333 103.111ZM71.2645 48.3791C70.9512 48.3791 70.6332 48.4068 70.3199 48.4668L17.4341 58.23C16.0795 58.4792 14.9091 59.2405 14.1259 60.3756C13.3472 61.5106 13.0523 62.881 13.3011 64.2329L20.2171 101.791L83.2304 90.1591L76.3144 52.6009C76.0656 51.2444 75.3053 50.0725 74.1719 49.2881C73.301 48.6882 72.2966 48.3791 71.2645 48.3791Z" fill="#1A4200"/>
<path d="M75.9189 85.1536L117.23 77.5238C119.953 77.0208 122.576 78.8259 123.079 81.5575C123.582 84.2845 121.779 86.9117 119.051 87.4155L77.7408 95.0454L75.9189 85.1536Z" fill="#FFF5ED"/>
<path d="M77.7293 95.6591C77.4437 95.6591 77.1856 95.4561 77.1304 95.1608L75.3104 85.2729C75.2827 85.116 75.315 84.9499 75.4071 84.8161C75.4993 84.6823 75.6375 84.59 75.7988 84.5624L118.967 76.5939C120.995 76.2202 122.948 77.5675 123.321 79.5977L124.008 83.3212C124.188 84.304 123.976 85.3006 123.409 86.1219C122.842 86.9432 121.99 87.4969 121.008 87.6814L77.8399 95.6499C77.8031 95.6545 77.7662 95.6591 77.7293 95.6591ZM76.6189 85.6467L78.2177 94.3395L120.787 86.4818C121.451 86.3572 122.027 85.9881 122.409 85.4298C122.791 84.8761 122.934 84.2025 122.81 83.5381L122.123 79.8145C121.87 78.4442 120.552 77.5352 119.184 77.789L76.6143 85.6467H76.6189Z" fill="#1A4200"/>
<path d="M104.743 119.564C104.241 116.833 101.624 115.029 98.8959 115.532L26.5983 128.88C23.8706 129.383 22.0691 132.004 22.5713 134.735C23.0735 137.467 25.6906 139.271 28.4183 138.768L100.716 125.42C103.444 124.917 105.245 122.296 104.743 119.564Z" fill="#FFF5ED"/>
<path d="M27.5063 139.46C24.8431 139.46 22.4702 137.559 21.9726 134.846C21.7007 133.365 22.0187 131.865 22.8711 130.629C23.7235 129.392 25.009 128.557 26.488 128.28L98.7856 114.932C100.265 114.66 101.762 114.978 102.997 115.832C104.236 116.685 105.066 117.972 105.342 119.454C105.614 120.935 105.296 122.434 104.444 123.671C103.591 124.907 102.306 125.742 100.827 126.019L28.5292 139.368C28.1836 139.432 27.8427 139.46 27.5063 139.46ZM99.8131 116.053C99.5459 116.053 99.274 116.076 99.0022 116.127L26.7046 129.475C24.3132 129.918 22.7236 132.225 23.166 134.624C23.6083 137.019 25.9121 138.611 28.308 138.168L100.606 124.82C102.997 124.377 104.587 122.07 104.144 119.67C103.932 118.508 103.278 117.502 102.306 116.833C101.559 116.321 100.698 116.053 99.8131 116.053Z" fill="#1A4200"/>
<path d="M86.6772 57.2334C87.4881 49.1174 80.5583 47.0595 80.5583 47.0595C78.3513 46.515 75.8125 45.7491 72.0435 45.4631C66.7171 45.0616 61.4276 45.786 55.4194 48.0146C54.8434 48.2269 54.2997 48.4622 53.7837 48.7206C41.5321 52.7025 38.8643 64.6435 42.472 75.8326L45.4854 91.6863L84.8342 78.4118L80.8901 64.9481C84.0509 62.9133 86.3593 60.3802 86.6726 57.2334H86.6772Z" fill="#FFF5ED"/>
<path d="M55.4189 48.6282C55.1333 48.6282 54.8799 48.4251 54.82 48.1345C54.7555 47.8022 54.972 47.4839 55.3038 47.4239C57.0132 47.0963 58.6304 46.7272 60.1878 46.3719C64.4498 45.403 68.1267 44.5632 72.0892 44.8631C75.3467 45.1077 77.6597 45.6983 79.6963 46.2196C80.0419 46.3073 80.3782 46.395 80.7054 46.4734C81.0325 46.5518 81.2306 46.8841 81.1523 47.2117C81.074 47.5392 80.7422 47.7377 80.4151 47.6592C80.0833 47.5762 79.747 47.4931 79.3968 47.4008C77.4063 46.8933 75.1532 46.3165 72.0016 46.0812C68.2234 45.7951 64.6295 46.6164 60.4642 47.5623C58.8931 47.9222 57.2666 48.2913 55.5387 48.6235C55.5019 48.6328 55.4604 48.6328 55.4236 48.6328L55.4189 48.6282Z" fill="#1A4200"/>
<path d="M94.9474 32.8945C93.2841 36.3735 94.2148 45.1355 87.7181 47.1287C84.9582 47.9731 82.9539 47.6501 80.5579 47.0595C80.5579 47.0595 72.9186 48.8682 70.9742 54.1928C69.1588 59.1575 73.8862 65.5064 73.8862 65.5064C73.8862 65.5064 83.2856 71.9245 93.4269 70.4803C107.886 68.4271 112.673 51.6505 116.198 45.3523C124.353 30.7628 100.486 21.3133 94.9474 32.8945Z" fill="#FFF5ED"/>
<path d="M90.423 71.2923C87.5986 71.2923 83.9355 70.794 79.6321 69.0961C75.9921 67.6657 73.6422 66.0739 73.5455 66.0047C73.269 65.8155 73.1953 65.4371 73.3842 65.1603C73.5731 64.8835 73.9509 64.8096 74.2274 64.9988C74.3195 65.0634 83.5577 71.2647 93.3396 69.8758C104.905 68.2332 110.139 56.8366 113.599 49.2973C114.364 47.6316 115.028 46.1921 115.663 45.0524C118.294 40.3415 117.207 36.7241 115.834 34.5186C113.429 30.6659 108.139 28.0682 103.251 28.3404C99.6382 28.5434 96.8829 30.2506 95.496 33.1574C95.049 34.0941 94.7864 35.5475 94.5053 37.084C93.7727 41.1397 92.8558 46.1874 87.8981 47.7101C85.069 48.5775 82.0326 48.0423 79.4385 47.4055C79.1114 47.3271 78.9133 46.9949 78.9916 46.6673C79.0699 46.3397 79.4017 46.1413 79.7288 46.2197C82.1616 46.8196 84.9953 47.3225 87.5433 46.5427C91.7961 45.2369 92.6024 40.789 93.312 36.8671C93.6069 35.2476 93.8833 33.7157 94.404 32.6314C95.9936 29.3093 99.1129 27.353 103.186 27.1269C105.72 26.9839 108.466 27.556 110.918 28.7372C113.484 29.9691 115.539 31.7502 116.871 33.8772C117.916 35.5521 118.46 37.37 118.488 39.2802C118.52 41.3658 117.926 43.5067 116.732 45.6522C116.12 46.7503 115.47 48.1669 114.714 49.8095C112.94 53.6714 110.733 58.4792 107.425 62.6087C103.476 67.5411 98.9286 70.3142 93.5193 71.0847C92.6439 71.2093 91.6118 71.2969 90.4322 71.2969L90.423 71.2923Z" fill="#1A4200"/>
<path d="M125.845 18.2911C122.818 14.7475 116.51 22.7759 116.51 22.7759C116.51 22.7759 124.583 11.3839 118.939 8.90615C114.045 6.75602 110.018 18.7848 109.668 20.8288C109.991 18.854 113.17 7.51733 108.281 7.59577C102.923 7.68344 102.784 17.7235 103.089 21.7008C103.089 21.7008 100.826 22.3976 98.7667 24.317C97.5088 25.489 98.0986 28.2989 98.0986 28.2989L98.1354 28.3127C98.0801 28.5803 98.0387 28.8572 98.011 29.1433C97.5503 34.4171 102.264 38.9665 108.53 39.3818C116.036 39.8801 120.362 34.1587 120.823 28.8895C120.832 28.7603 128.919 21.8854 125.845 18.2865V18.2911Z" fill="#FFF5ED"/>
<path d="M111.926 30.7442C111.645 30.7442 111.396 30.5505 111.332 30.2644C110.304 25.5811 105.867 26.1072 105.678 26.1302C105.347 26.1717 105.043 25.941 104.996 25.6088C104.95 25.2766 105.185 24.9721 105.517 24.926C105.577 24.9167 106.969 24.7368 108.521 25.2674C109.982 25.7611 111.857 26.9884 112.521 30.0106C112.594 30.3382 112.387 30.6658 112.055 30.735C112.009 30.7442 111.968 30.7489 111.926 30.7489V30.7442Z" fill="#1A4200"/>
<path d="M109.434 40.0279C109.125 40.0279 108.812 40.0187 108.494 39.9956C104.955 39.7603 101.734 38.2377 99.6562 35.8107C97.9975 33.8728 97.2004 31.4919 97.4077 29.0927C97.4262 28.8666 97.4584 28.6359 97.4999 28.4098C97.4815 28.3037 97.4907 28.1929 97.5322 28.0822C97.652 27.7684 98.0067 27.6116 98.32 27.7361L98.3569 27.75C98.6334 27.8561 98.7946 28.1514 98.7301 28.4421C98.6794 28.6912 98.638 28.945 98.6195 29.1988C98.4398 31.2659 99.1356 33.3329 100.578 35.0171C102.444 37.1949 105.356 38.5652 108.572 38.7775C115.534 39.2389 119.768 34.002 120.22 28.8389C120.243 28.5943 120.321 28.5159 120.718 28.1376C125.233 23.805 126.887 20.4506 125.385 18.688C124.98 18.2128 124.491 17.9867 123.897 18.0005C121.519 18.0467 118.105 21.7379 116.99 23.1544C116.787 23.4128 116.414 23.4635 116.147 23.2651C115.884 23.0667 115.824 22.693 116.013 22.4254C116.027 22.4069 117.363 20.5152 118.538 18.1528C120.049 15.1214 120.625 12.7036 120.197 11.1672C119.976 10.3689 119.483 9.81066 118.695 9.4646C117.985 9.15085 117.276 9.19698 116.525 9.60302C113.249 11.3656 110.576 19.1356 110.268 20.9351C110.212 21.2673 109.899 21.4887 109.567 21.4334C109.235 21.378 109.014 21.0643 109.07 20.7367C109.116 20.469 109.203 20.0538 109.318 19.5232C109.839 17.1239 111.226 10.7427 109.613 8.77711C109.291 8.38031 108.871 8.20036 108.291 8.2142C107.365 8.22804 106.591 8.58794 105.932 9.31234C104.895 10.452 104.167 12.5191 103.822 15.2875C103.476 18.0744 103.614 20.6767 103.688 21.6687C103.716 22.0055 103.462 22.2962 103.126 22.3239C102.789 22.3516 102.499 22.0978 102.471 21.761C102.347 20.1507 101.896 11.9377 105.024 8.49566C105.909 7.52671 106.996 7.02378 108.259 7.00071C109.208 6.98225 109.977 7.32369 110.539 8.01118C111.599 9.30311 111.7 11.707 111.465 14.1294C112.627 11.7762 114.156 9.50152 115.935 8.5418C117.018 7.95582 118.11 7.89584 119.169 8.36185C120.298 8.86017 121.035 9.6953 121.353 10.8534C121.869 12.7129 121.28 15.3613 119.602 18.7203C119.584 18.7526 119.57 18.7849 119.552 18.8172C120.893 17.7329 122.441 16.8147 123.851 16.7871C124.823 16.7686 125.643 17.1423 126.293 17.9036C127.638 19.4816 127.389 21.6779 125.546 24.4417C124.178 26.495 122.266 28.3313 121.542 29.0234C121.492 29.0742 121.436 29.125 121.39 29.1665C120.819 34.5972 116.492 40.0325 109.415 40.0325L109.434 40.0279Z" fill="#1A4200"/>
<path d="M92.7401 16.8329C89.7359 21.9406 97.578 22.0975 98.0987 28.308C98.0987 28.308 100.605 29.4984 102.794 28.008C104.982 26.5177 103.089 21.7053 103.089 21.7053C102.375 17.465 94.9701 13.0494 92.7447 16.8329H92.7401Z" fill="#FFF5ED"/>
<path d="M98.1032 29.0972C97.7899 29.0972 97.5226 28.8573 97.4996 28.5389C97.283 25.9135 95.6566 24.4555 94.0808 23.0436C92.2469 21.401 90.3486 19.6984 92.2193 16.5194C93.0487 15.1121 94.5461 14.5307 96.4352 14.8814C99.4163 15.4351 103.153 18.4249 103.688 21.5994C103.743 21.9316 103.522 22.2454 103.19 22.3007C102.858 22.3561 102.545 22.1346 102.49 21.8024C102.084 19.38 99.0339 16.6024 96.2141 16.081C95.2557 15.9057 93.9702 15.9426 93.2652 17.1423C91.9014 19.4585 93.0256 20.469 94.8917 22.1392C96.4767 23.5604 98.4487 25.3275 98.7114 28.4374C98.739 28.7742 98.4902 29.0649 98.1539 29.0926C98.1354 29.0926 98.1216 29.0926 98.1032 29.0926V29.0972Z" fill="#1A4200"/>
<path d="M179.031 121.761C176.829 122.623 174.972 122.513 173.516 121.622C170.816 119.975 170.125 115.038 169.277 113.303C166.388 107.393 159.601 105.653 154.344 109.598C151.285 111.891 149.713 115.675 150.257 119.458C151.464 127.86 157.436 144.905 165.554 145.892C174.143 146.939 174.005 141.37 180.289 137.591C180.289 137.591 183.326 135.478 182.8 128.903C182.538 125.623 179.031 121.756 179.031 121.756V121.761Z" fill="#FFF5ED"/>
<path d="M167.54 146.635C166.909 146.635 166.227 146.593 165.48 146.501C160.698 145.915 157.016 140.318 154.768 135.727C151.856 129.771 150.192 123.292 149.653 119.55C149.077 115.546 150.736 111.545 153.98 109.114C156.638 107.12 159.758 106.424 162.762 107.148C165.775 107.877 168.351 110.023 169.821 113.04C170.074 113.557 170.3 114.295 170.562 115.144C171.198 117.207 172.065 120.03 173.829 121.105C175.179 121.931 176.856 121.959 178.805 121.193C179.119 121.069 179.469 121.225 179.593 121.539C179.718 121.853 179.561 122.204 179.248 122.328C176.958 123.228 174.861 123.163 173.193 122.144C171.037 120.829 170.088 117.751 169.397 115.504C169.148 114.701 168.936 114.009 168.724 113.575C167.392 110.844 165.172 108.984 162.472 108.334C159.822 107.697 157.062 108.32 154.703 110.092C151.814 112.256 150.34 115.818 150.851 119.38C152.118 128.188 158.14 144.383 165.619 145.297C170.862 145.938 172.558 144.074 174.907 141.495C176.202 140.074 177.672 138.459 179.967 137.079C180.257 136.904 180.63 137.001 180.801 137.287C180.976 137.577 180.879 137.951 180.593 138.122C178.451 139.409 177.105 140.886 175.806 142.311C173.714 144.609 171.866 146.635 167.531 146.635H167.54Z" fill="#1A4200"/>
<path d="M207.396 121.622C212.059 116.906 206.617 113.418 206.617 113.418C203.493 105.999 193.02 108.652 188.615 113.861C184.952 118.189 181.732 120.704 179.036 121.76C179.036 121.76 174.913 125.585 174.88 128.792C174.825 134.666 180.787 137.342 180.787 137.342C185.008 135.03 206.055 131.547 207.382 126.305C207.806 124.621 207.608 122.872 206.673 121.631H207.401L207.396 121.622Z" fill="#FFF5ED"/>
<path d="M128.449 54.8896C128.449 54.8896 119.137 58.0318 116.723 69.959C114.769 79.6116 119.764 90.1315 119.764 90.1315C127.21 89.7486 144.47 133.836 144.47 133.836L184.141 108.657C184.141 108.657 147.967 57.2751 128.454 54.885L128.449 54.8896Z" fill="#9CEE69"/>
<path d="M144.465 134.449C144.401 134.449 144.336 134.44 144.276 134.417C144.106 134.362 143.968 134.228 143.898 134.062C143.857 133.951 139.53 122.928 134.356 112.099C131.324 105.755 128.597 100.716 126.256 97.1309C124.689 94.7317 121.791 90.7405 119.865 90.7405C119.842 90.7405 119.819 90.7405 119.796 90.7405C119.464 90.759 119.174 90.5006 119.156 90.1638C119.137 89.8269 119.395 89.5409 119.732 89.5224C120.814 89.467 122.008 90.1038 123.39 91.4649C124.542 92.6046 125.851 94.2841 127.274 96.4665C129.647 100.098 132.398 105.182 135.457 111.577C139.908 120.893 143.733 130.347 144.765 132.931L183.27 108.491C181.455 105.953 173.189 94.5563 163.149 83.0674C156.505 75.4589 150.395 69.3038 144.99 64.7682C138.3 59.1483 132.711 56.0292 128.38 55.4986C128.048 55.4571 127.809 55.1526 127.85 54.8203C127.892 54.4881 128.196 54.2482 128.528 54.2897C133.098 54.848 138.899 58.064 145.778 63.8362C151.229 68.4133 157.385 74.6191 164.075 82.2738C175.447 95.2899 184.551 108.186 184.639 108.311C184.735 108.449 184.772 108.615 184.74 108.781C184.708 108.947 184.611 109.086 184.468 109.178L144.797 134.357C144.7 134.421 144.585 134.454 144.47 134.454L144.465 134.449Z" fill="#1A4200"/>
<path d="M147.05 122.43C146.852 122.43 146.654 122.333 146.539 122.153C146.354 121.871 146.437 121.493 146.719 121.308L171.272 105.362C171.553 105.178 171.931 105.261 172.115 105.542C172.3 105.824 172.217 106.202 171.936 106.387L147.382 122.333C147.281 122.397 147.165 122.43 147.05 122.43Z" fill="#1A4200"/>
<path d="M73.9968 82.5045C70.1034 85.4898 56.1609 84.1932 49.2034 95.1054C45.8675 100.338 42.0847 119.366 62.3995 123.758C88.9116 129.489 111.761 90.5514 119.759 90.1361C119.759 90.1361 130.269 85.3514 132.504 75.9803C135.338 64.1038 128.445 54.8942 128.445 54.8942C110.07 52.6425 85.4835 73.6963 73.9922 82.5091L73.9968 82.5045Z" fill="#9CEE69"/>
<path d="M67.7491 124.94C65.906 124.94 64.0814 124.746 62.2753 124.354C58.3174 123.5 55.0091 122.033 52.4473 120.003C50.185 118.213 48.4802 115.97 47.3882 113.34C45.7294 109.358 45.8032 105.307 46.1533 102.608C46.6187 99.0366 47.7706 96.2221 48.6921 94.7733C53.5439 87.1647 61.6348 85.3422 67.5463 84.0088C70.1957 83.4135 72.4811 82.8968 73.6283 82.0155C74.7618 81.1481 76.0381 80.1422 77.3927 79.081C83.6406 74.1763 92.1969 67.4582 101.338 62.2444C106.347 59.3883 111.056 57.2659 115.341 55.937C120.368 54.3775 124.994 53.8469 129.094 54.3637C129.426 54.4052 129.666 54.7097 129.624 55.0419C129.583 55.3741 129.279 55.6141 128.947 55.5725C125.021 55.0788 120.566 55.5956 115.705 57.1044C111.507 58.4055 106.877 60.4957 101.947 63.3056C92.8834 68.4733 84.3686 75.1591 78.153 80.0407C76.7984 81.1065 75.5175 82.1078 74.3794 82.9844C73.0201 84.0272 70.7256 84.544 67.8274 85.1992C62.1232 86.4865 54.3134 88.2444 49.7334 95.4285C47.6692 98.6675 45.8538 106.451 48.5262 112.869C50.7287 118.162 55.4468 121.622 62.5471 123.159C79.5168 126.827 94.943 111.518 106.209 100.342C112.562 94.0396 117.147 89.481 120.492 89.6056C120.828 89.6194 121.091 89.9009 121.077 90.2377C121.063 90.5745 120.787 90.8375 120.446 90.8237C120.418 90.8237 120.386 90.8237 120.358 90.8237C117.529 90.8237 112.678 95.6407 107.061 101.21C104.287 103.96 101.145 107.079 97.8089 110.06C93.9708 113.488 90.4737 116.205 87.1147 118.369C80.2817 122.767 73.9002 124.935 67.7629 124.935L67.7491 124.94Z" fill="#1A4200"/>
<path d="M98.5183 107.775L90.6255 166.826H140.553C140.553 166.826 150.151 80.6681 120.478 80.6773C102.67 80.6819 98.9652 103.937 98.5183 107.775Z" fill="#9CEE69"/>
<path d="M140.553 167.435H90.6255C90.4505 167.435 90.2846 167.361 90.1694 167.227C90.0542 167.093 89.9989 166.918 90.0266 166.747L97.9193 107.702C98.0806 106.322 99.0482 99.1888 102.449 92.5123C104.31 88.858 106.591 85.9604 109.222 83.8933C112.461 81.3556 116.244 80.0683 120.478 80.0683C124.768 80.0683 128.504 81.817 131.582 85.2637C135.402 89.5363 138.273 96.5081 140.125 105.985C141.595 113.515 142.429 122.647 142.604 133.13C142.903 150.954 141.171 166.743 141.152 166.9C141.12 167.209 140.857 167.439 140.549 167.439L140.553 167.435ZM91.3167 166.217H140C140.3 163.301 141.655 149.029 141.387 133.134C141.212 122.725 140.383 113.668 138.927 106.211C137.121 96.9556 134.342 90.1822 130.675 86.0758C127.836 82.8967 124.404 81.2864 120.473 81.2864C116.52 81.2864 112.986 82.486 109.968 84.853C107.475 86.8094 105.305 89.5732 103.527 93.066C100.214 99.5626 99.274 106.52 99.1219 107.849C99.1219 107.849 99.1219 107.854 99.1219 107.859L91.3213 166.217H91.3167Z" fill="#1A4200"/>
<path d="M65.6986 92.1571C65.1964 89.4256 62.5793 87.6215 59.8516 88.1244L18.54 95.7514L20.36 105.639L61.6716 98.0123C64.3993 97.5093 66.2009 94.8886 65.6986 92.1571Z" fill="#FFF5ED"/>
<path d="M20.3601 106.248C20.0744 106.248 19.8164 106.045 19.7611 105.75L17.9411 95.8622C17.8812 95.53 18.0978 95.2116 18.4295 95.1516L59.7411 87.5246C62.7913 86.9617 65.7355 88.9873 66.2977 92.0464C66.5695 93.5275 66.2516 95.027 65.3992 96.2636C64.5468 97.5002 63.2613 98.3353 61.7822 98.6121L20.4707 106.239C20.4338 106.244 20.3969 106.248 20.3601 106.248ZM19.2497 96.2405L20.8485 104.933L61.5611 97.4171C62.7222 97.2049 63.7266 96.5497 64.3947 95.5761C65.0628 94.6026 65.3117 93.4306 65.0997 92.2679C64.6574 89.8732 62.3536 88.2813 59.9576 88.7243L19.245 96.2405H19.2497Z" fill="#1A4200"/>
<path d="M55.419 48.0193C41.2599 50.7324 24.5114 58.0963 27.3404 79.713C28.073 85.3099 30.1971 88.9549 33.1644 91.1835" fill="#FFF5ED"/>
<path d="M27.3404 79.7131C28.073 85.3099 30.1971 88.955 33.1644 91.1836C33.1644 91.1836 41.2231 91.1836 45.4344 87.5985C51.4749 82.4585 49.0053 67.1953 49.0053 67.1953C49.0053 67.1953 58.5292 64.3069 59.787 58.747C61.7637 50.008 55.419 48.0148 55.419 48.0148C41.2599 50.7278 24.5114 58.0918 27.3404 79.7085V79.7131Z" fill="#FFF5ED"/>
<path d="M33.1646 91.7925C33.0356 91.7925 32.9112 91.751 32.8006 91.6726C29.4832 89.181 27.442 85.1852 26.7371 79.7961C25.4423 69.899 28.0917 61.9998 34.6114 56.3199C39.4263 52.1258 46.3884 49.1313 55.3041 47.4241C55.6358 47.3595 55.9537 47.5763 56.0136 47.9086C56.0781 48.2408 55.8616 48.5591 55.5298 48.6191C46.8261 50.2848 40.0576 53.187 35.4039 57.2381C32.4965 59.7712 30.3771 62.798 29.11 66.2355C27.677 70.1158 27.2854 74.6237 27.9396 79.6392C28.5985 84.6915 30.4784 88.4104 33.524 90.699C33.7913 90.902 33.8466 91.2804 33.6438 91.5526C33.524 91.7141 33.3397 91.7971 33.1554 91.7971L33.1646 91.7925Z" fill="#1A4200"/>
<path d="M48.8118 71.0896C48.7611 71.0896 48.7058 71.0849 48.6551 71.0665C48.3326 70.9788 48.1391 70.6466 48.2266 70.319C49.0514 67.2415 48.2358 64.0993 48.2266 64.067C48.1391 63.744 48.3326 63.4072 48.6551 63.3196C48.9777 63.2319 49.314 63.4257 49.4016 63.7487C49.4384 63.8871 50.3139 67.2276 49.4016 70.6328C49.3278 70.905 49.0836 71.085 48.8164 71.085L48.8118 71.0896Z" fill="#1A4200"/>
<path d="M69.0395 64.6485C59.3406 65.0038 51.6874 68.0952 44.1401 73.775C44.1401 73.775 37.7909 75.1177 34.5425 80.1516C32.0038 84.092 33.1695 91.1838 33.1695 91.1838C44.9188 100.01 69.8827 86.6712 73.8959 84.8256C85.0002 79.7133 80.5677 64.2286 69.0441 64.6485H69.0395Z" fill="#FFF5ED"/>
<path d="M43.702 94.6349C39.0483 94.6349 35.2609 93.5367 32.3858 91.3451C32.1185 91.1421 32.0679 90.7591 32.2706 90.4915C32.4733 90.2239 32.8558 90.1731 33.123 90.3761C37.6845 93.8505 44.8216 94.3534 54.3409 91.8665C62.0863 89.8409 69.3432 86.3389 72.4395 84.8439C72.9417 84.5994 73.3426 84.4102 73.6375 84.2718C76.0564 83.1598 77.8534 81.4434 78.8348 79.3117C79.7149 77.4015 79.9222 75.1683 79.4154 73.032C78.4616 69.0086 74.8861 65.0405 69.0575 65.2574C59.9069 65.5896 52.3366 68.3672 44.5037 74.264C44.2365 74.467 43.8541 74.4116 43.6513 74.144C43.4486 73.8764 43.5039 73.4934 43.7711 73.2904C51.816 67.2368 59.5982 64.3853 69.0115 64.0439C71.9096 63.9378 74.5682 64.7914 76.6923 66.5124C78.6229 68.0766 80.0098 70.2913 80.5949 72.7552C81.1663 75.1591 80.9313 77.6691 79.936 79.8285C78.8302 82.2278 76.8259 84.1472 74.1397 85.3838C73.854 85.513 73.4624 85.7067 72.9648 85.9467C69.8362 87.4601 62.5055 90.999 54.645 93.0523C50.5857 94.1135 46.9319 94.6441 43.702 94.6441V94.6349Z" fill="#1A4200"/>
<path d="M90.0315 74.0148C93.243 67.7213 87.0227 66.8769 87.0227 66.8769C85.7649 64.8837 83.8804 63.2642 81.5167 62.3506C75.6696 60.0897 69.1038 63.0058 66.8461 68.861C64.5884 74.7162 67.5004 81.2912 73.3474 83.552C74.6974 84.0734 76.0797 84.3179 77.4436 84.3179C82.7607 84.4564 89.3818 82.7907 91.0636 78.2228C92.0542 75.5328 90.0269 74.0194 90.0269 74.0194L90.0315 74.0148Z" fill="#FFF5ED"/>
<path d="M78.075 84.936C77.863 84.936 77.6511 84.936 77.4345 84.9267H77.4253C75.9555 84.9267 74.5087 84.6545 73.1264 84.1239C66.9753 81.7477 63.9021 74.8036 66.275 68.6439C68.6479 62.4841 75.5823 59.4066 81.7334 61.7828C84.0648 62.6825 86.0185 64.2513 87.3915 66.3276C88.1472 66.4891 90.1883 67.0797 91.1052 68.8469C91.8056 70.1988 91.695 71.8875 90.7781 73.8715C91.5614 74.6882 92.4138 76.3216 91.6397 78.4302C90.8103 80.6772 88.806 82.4629 85.8388 83.6025C83.5857 84.4653 80.8534 84.9314 78.0796 84.9314L78.075 84.936ZM77.4437 83.7086C77.4437 83.7086 77.453 83.7086 77.4576 83.7086C82.8484 83.8517 88.9719 82.1445 90.4924 78.0103C91.308 75.8002 89.7276 74.5544 89.6584 74.5037C89.4235 74.3237 89.3497 74.0007 89.4834 73.7424C90.4003 71.9475 90.58 70.4895 90.0224 69.4144C89.1931 67.8179 86.9584 67.4904 86.9354 67.4857C86.7603 67.4627 86.599 67.3612 86.5023 67.2089C85.2628 65.2433 83.4613 63.7622 81.2911 62.9225C75.7666 60.7862 69.5371 63.5546 67.4084 69.0868C65.2751 74.619 68.0397 80.8572 73.5642 82.9889C74.8082 83.4687 76.1075 83.7133 77.4253 83.7133C77.4299 83.7133 77.4345 83.7133 77.4437 83.7133V83.7086Z" fill="#1A4200"/>
<path d="M77.3188 63.5408C77.3188 63.5408 93.4039 54.9726 95.8045 60.2418C97.7304 64.4682 86.9717 67.2736 86.9717 67.2736" fill="#FFF5ED"/>
<path d="M86.9719 67.878C86.7 67.878 86.4558 67.698 86.3821 67.4212C86.2992 67.0936 86.4927 66.7614 86.8152 66.6784C86.8336 66.6737 88.649 66.1985 90.6073 65.3587C93.1092 64.2929 94.708 63.1394 95.2333 62.032C95.4775 61.5153 95.4821 61.0123 95.2425 60.4909C94.9983 59.9557 94.5652 59.5912 93.9201 59.3697C92.0863 58.7469 88.6997 59.3513 84.1336 61.1138C80.6088 62.475 77.6277 64.0576 77.5954 64.076C77.3006 64.2329 76.932 64.1222 76.7707 63.8223C76.614 63.527 76.7246 63.1579 77.0241 62.9964C77.5217 62.7287 89.2941 56.509 94.3118 58.2116C95.2794 58.5392 95.9659 59.1344 96.3529 59.9788C96.7446 60.837 96.7353 61.6998 96.3345 62.5488C94.7771 65.8248 87.4326 67.7673 87.1239 67.8503C87.0732 67.8642 87.0226 67.8688 86.9719 67.8688V67.878Z" fill="#1A4200"/>
<path d="M81.2493 57.1045C80.3738 53.6256 76.1349 54.0962 75.3424 57.6398C74.6328 60.8188 71.578 63.3704 70.251 64.1501C70.251 64.1501 71.2416 66.1895 75.0567 66.2311C78.6045 66.268 79.3694 63.3658 79.3694 63.3658C80.4706 61.737 81.7838 59.2362 81.2447 57.1091L81.2493 57.1045Z" fill="#FFF5ED"/>
<path d="M70.2559 64.759C70.0485 64.759 69.8458 64.6529 69.7306 64.4591C69.5601 64.1684 69.6569 63.7947 69.9472 63.624C70.9747 63.0195 74.0617 60.5972 74.7529 57.5058C75.2689 55.1895 77.0014 54.1375 78.4942 54.1145C80.1115 54.0914 81.397 55.1803 81.844 56.9567C82.4291 59.2729 81.0975 61.9029 79.8811 63.7024C79.6922 63.9792 79.3144 64.0531 79.0379 63.8639C78.7615 63.6747 78.6878 63.2964 78.8767 63.0195C79.7613 61.7138 81.1666 59.2314 80.669 57.2566C80.3603 56.0385 79.5632 55.3233 78.5173 55.3372C77.5082 55.351 76.3195 56.1123 75.9462 57.7734C75.1583 61.3031 71.7994 63.9516 70.5738 64.676C70.477 64.7313 70.3711 64.759 70.2651 64.759H70.2559Z" fill="#1A4200"/>
<path d="M53.6679 55.3785C54.5571 58.4284 58.2708 60.0202 61.3902 59.1066C64.5095 58.193 66.7764 54.8433 65.8826 51.7934C65.3158 49.8555 62.6757 44.3279 57.5106 45.8413C52.1842 47.4055 52.9905 53.0623 53.6679 55.3739V55.3785Z" fill="#FFF5ED"/>
<path d="M59.5655 59.9787C56.6351 59.9787 53.8613 58.2023 53.0826 55.5539C52.8292 54.6911 52.2947 52.4487 52.7417 50.2155C53.2439 47.7147 54.8335 46.0029 57.34 45.2646C59.7682 44.5541 62.0213 45.1908 63.8598 47.1102C65.2236 48.5313 66.1175 50.4323 66.4676 51.632C67.4168 54.8848 65.1268 58.6545 61.5606 59.6973C60.9017 59.8911 60.229 59.9833 59.5655 59.9833V59.9787ZM54.2529 55.2078C54.6262 56.4859 55.5845 57.5425 56.953 58.1793C58.2892 58.8022 59.8466 58.9267 61.2242 58.5253C62.5973 58.1239 63.8413 57.1734 64.6338 55.9276C65.4402 54.6541 65.6798 53.2469 65.3065 51.9688C64.9932 50.903 64.2007 49.2142 62.9889 47.95C61.4638 46.3581 59.6807 45.846 57.6856 46.432C55.6122 47.041 54.3497 48.3929 53.935 50.4508C53.5434 52.421 54.0272 54.4327 54.2529 55.2078Z" fill="#1A4200"/>
<path d="M40.3295 43.4743C42.0481 49.3479 43.4396 54.1142 59.451 49.4172C74.4855 45.0108 74.0662 39.9584 72.3476 34.0848C70.629 28.2111 64.5516 24.8198 53.2261 28.1419C41.5183 31.5747 38.6109 37.6006 40.3295 43.4743Z" fill="#FFF5ED"/>
<path d="M49.2727 51.9087C46.8675 51.9087 45.0014 51.3966 43.5546 50.3584C41.3983 48.8127 40.5229 46.2981 39.7442 43.645C38.772 40.3275 39.2972 37.1762 41.2555 34.5277C43.4579 31.5517 47.4296 29.2078 53.0555 27.5559C58.5339 25.9503 63.0908 25.7934 66.6018 27.0945C69.781 28.2711 71.9696 30.6335 72.9326 33.9141C73.7666 36.7655 74.4347 39.7877 72.7022 42.6207C70.896 45.5691 66.74 47.9176 59.6213 50.0032C59.2988 50.0954 58.9624 49.9109 58.8656 49.5879C58.7735 49.2649 58.9578 48.9281 59.2803 48.8312C65.9982 46.861 70.0482 44.6232 71.6655 41.9794C73.1399 39.5709 72.5548 36.9501 71.7669 34.2509C70.9191 31.3533 68.9885 29.2677 66.1825 28.2296C62.9249 27.0207 58.626 27.1868 53.401 28.7187C48.0332 30.292 44.278 32.4883 42.2369 35.2475C40.4906 37.6099 40.0437 40.3183 40.9191 43.2944C41.6609 45.8321 42.4258 48.0376 44.2688 49.3618C46.3653 50.866 49.7749 51.0736 54.6912 50.0032C55.0183 49.9293 55.3454 50.1416 55.4146 50.4692C55.4883 50.7968 55.2763 51.1244 54.9492 51.1936C52.7882 51.6642 50.9083 51.8995 49.2773 51.8995L49.2727 51.9087Z" fill="#1A4200"/>
<path d="M55.5204 44.8353C54.175 44.8353 53.2442 44.397 52.6591 43.9679C51.8113 43.3496 51.4749 42.6298 51.4427 42.5514C51.3091 42.2422 51.4427 41.8823 51.756 41.7485C52.0601 41.6147 52.4195 41.7485 52.5577 42.0577C52.6038 42.1546 53.5622 44.1247 56.6953 43.4972C57.0225 43.4326 57.345 43.6449 57.4095 43.9725C57.474 44.3001 57.2621 44.6231 56.9349 44.6877C56.4235 44.7892 55.9535 44.8353 55.525 44.8353H55.5204Z" fill="#1A4200"/>
<path d="M56.4189 40.9872C56.1563 40.9872 55.9121 40.8165 55.8338 40.5489C55.7416 40.2259 55.9259 39.8891 56.2485 39.7922L57.9487 39.2939C58.2712 39.2016 58.6075 39.3862 58.7043 39.7092C58.7965 40.0321 58.6122 40.369 58.2896 40.4659L56.5894 40.9642C56.5341 40.9826 56.4742 40.9872 56.4189 40.9872Z" fill="#1A4200"/>
<path d="M57.787 42.5055C57.5244 42.5055 57.2802 42.3348 57.2019 42.0672L56.6858 40.3C56.5937 39.977 56.778 39.6402 57.1005 39.5433C57.423 39.451 57.7594 39.6356 57.8562 39.9586L58.3722 41.7257C58.4644 42.0487 58.2801 42.3856 57.9575 42.4824C57.9022 42.5009 57.8423 42.5055 57.787 42.5055Z" fill="#1A4200"/>
<path d="M58.2295 38.0899C58.0867 38.0899 57.9392 38.0392 57.824 37.9331C57.5752 37.707 57.5522 37.324 57.7779 37.0749L59.8053 34.8186C60.0311 34.5694 60.4135 34.5464 60.6623 34.7725C60.9111 34.9985 60.9341 35.3815 60.7084 35.6307L58.681 37.8869C58.5612 38.0207 58.3954 38.0899 58.2295 38.0899Z" fill="#1A4200"/>
<path d="M54.8842 39.0728C54.8151 39.0728 54.7459 39.0589 54.6768 39.0359L51.7879 37.9839C51.47 37.8685 51.3087 37.5178 51.4239 37.2041C51.5391 36.8857 51.8892 36.7242 52.2026 36.8396L55.0915 37.8916C55.4094 38.0069 55.5707 38.3576 55.4555 38.6713C55.368 38.9205 55.133 39.0728 54.8842 39.0728Z" fill="#1A4200"/>
<path d="M66.6519 32.2764C68.5364 29.8356 70.4301 27.7177 75.1252 28.05C80.7879 28.456 89.9939 34.5327 84.626 38.6345C80.7649 41.5875 78.4473 34.4588 74.4295 34.0851C72.1994 33.8775 69.7343 36.1153 69.7343 36.1153" fill="#FFF5ED"/>
<path d="M82.7786 39.9678C81.1291 39.9678 79.71 38.5882 78.4153 37.3286C77.1528 36.1013 75.8488 34.8324 74.3698 34.694C72.4346 34.514 70.1631 36.5488 70.14 36.5673C69.8912 36.7934 69.5088 36.7749 69.283 36.5257C69.0573 36.2766 69.0757 35.8936 69.3245 35.6675C69.4351 35.5707 72.0153 33.2498 74.485 33.4805C76.3879 33.6604 77.8485 35.0816 79.2631 36.4565C81.2904 38.4313 82.5206 39.4787 84.2577 38.1545C85.4557 37.2409 85.8657 36.2305 85.5202 35.0677C85.1101 33.6881 83.6264 32.1563 81.4609 30.8597C79.3782 29.6186 76.9915 28.7926 75.0794 28.6588C70.7943 28.3543 69.0803 30.1215 67.1313 32.65C66.924 32.9176 66.5461 32.9637 66.2789 32.7607C66.0117 32.5531 65.9656 32.1747 66.1683 31.9071C68.2095 29.2587 70.2967 27.0993 75.1669 27.4454C77.2588 27.593 79.8436 28.4789 82.0829 29.817C83.5112 30.6659 86.0039 32.4377 86.6859 34.7217C87.0314 35.8752 87.0176 37.5777 84.9949 39.1234C84.207 39.7233 83.4698 39.9678 82.7786 39.9678Z" fill="#1A4200"/>
<path d="M44.4669 39.1142C41.9419 37.3516 39.4953 35.8982 35.1181 37.6239C29.8378 39.7094 22.8711 48.2684 29.2158 50.5754C33.7819 52.2319 33.8602 44.7387 37.5831 43.1745C39.6473 42.3071 42.6699 43.7051 42.6699 43.7051" fill="#FFF5ED"/>
<path d="M30.4643 51.4244C30.0265 51.4244 29.5427 51.3368 29.0129 51.143C26.6215 50.2755 26.1009 48.656 26.0824 47.4517C26.0502 45.0663 27.9024 42.6301 29.0083 41.3889C30.7453 39.4464 32.9477 37.8223 34.8968 37.0517C39.4398 35.2569 42.0754 36.6965 44.8169 38.6113C45.0933 38.8051 45.1578 39.1834 44.9689 39.4603C44.7754 39.7371 44.3976 39.8017 44.1211 39.6125C41.504 37.7854 39.3431 36.6134 35.3437 38.1914C33.5606 38.8973 31.5332 40.3969 29.916 42.2056C28.2342 44.0881 27.2804 45.9983 27.2988 47.4379C27.3173 48.6514 28.013 49.4865 29.4276 50.0033C31.4825 50.7462 32.3395 49.3758 33.685 46.8842C34.6203 45.1494 35.5879 43.3545 37.3526 42.6116C39.638 41.6519 42.7941 43.0869 42.9278 43.1515C43.2319 43.2945 43.3655 43.6544 43.2227 43.9589C43.0798 44.2635 42.7204 44.3973 42.4163 44.2542C42.3887 44.2404 39.6103 42.9808 37.8226 43.7328C36.4541 44.3096 35.5879 45.9107 34.7539 47.461C33.7402 49.3389 32.616 51.4244 30.4643 51.4244Z" fill="#1A4200"/>
<path d="M68.7623 23.2281L44.8535 29.374C44.8535 29.374 46.4477 13.6586 54.4465 15.1674C62.4499 16.6762 53.8567 27.0577 53.8567 27.0577" fill="#9CEE69"/>
<path d="M44.8537 29.9829C44.7108 29.9829 44.568 29.9321 44.4574 29.8352C44.3054 29.706 44.227 29.5122 44.2501 29.3138C44.2915 28.8986 45.3375 19.0799 49.9266 15.6425C51.3043 14.6089 52.8662 14.249 54.5618 14.572C56.497 14.9365 57.7272 15.8224 58.2295 17.2113C59.2201 19.9612 56.861 23.9431 55.3912 26.0379L68.6104 22.642C68.9375 22.5589 69.2692 22.7527 69.3522 23.0803C69.4351 23.4079 69.2416 23.7401 68.9144 23.8231L45.0057 29.969C44.955 29.9829 44.9043 29.9875 44.8537 29.9875V29.9829ZM53.3823 15.6748C52.4009 15.6748 51.5024 15.9885 50.6592 16.616C47.2404 19.1722 45.941 26.1025 45.577 28.5571L53.5159 26.5177C53.8569 26.0886 54.8429 24.7967 55.7137 23.2418C57.0684 20.8286 57.5383 18.8861 57.0822 17.6173C56.7366 16.653 55.8381 16.0485 54.3361 15.7624C54.0089 15.7025 53.691 15.6702 53.3823 15.6702V15.6748Z" fill="#1A4200"/>
</g>
</svg>
