<svg width="89" height="89" viewBox="0 0 89 89" fill="none" xmlns="http://www.w3.org/2000/svg">
<g filter="url(#filter0_g_382_4091)">
<path d="M40.4117 3.14675C42.61 1.61775 45.5275 1.61775 47.7259 3.14675C49.3328 4.2644 51.3626 4.58589 53.2363 4.01951C55.7995 3.24468 58.5743 4.14624 60.1925 6.27973C61.3755 7.83925 63.2066 8.77225 65.1635 8.81258C67.8408 8.86776 70.2011 10.5826 71.0809 13.1118C71.724 14.9605 73.1772 16.4137 75.0259 17.0568C77.555 17.9366 79.2699 20.2969 79.3251 22.9741C79.3654 24.9311 80.2984 26.7622 81.8579 27.9451C83.9914 29.5634 84.893 32.3381 84.1182 34.9014C83.5518 36.7751 83.8733 38.8048 84.9909 40.4118C86.5199 42.6101 86.5199 45.5277 84.9909 47.726C83.8733 49.333 83.5518 51.3628 84.1182 53.2364C84.893 55.7997 83.9914 58.5744 81.8579 60.1927C80.2984 61.3756 79.3654 63.2067 79.3251 65.1637C79.2699 67.8409 77.555 70.2012 75.0259 71.081C73.1772 71.7241 71.724 73.1773 71.0809 75.026C70.2011 77.5552 67.8408 79.2701 65.1635 79.3252C63.2066 79.3656 61.3755 80.2986 60.1925 81.8581C58.5743 83.9916 55.7995 84.8931 53.2363 84.1183C51.3626 83.5519 49.3328 83.8734 47.7259 84.9911C45.5275 86.5201 42.61 86.5201 40.4117 84.9911C38.8047 83.8734 36.7749 83.5519 34.9013 84.1183C32.338 84.8931 29.5633 83.9916 27.945 81.8581C26.7621 80.2986 24.931 79.3656 22.974 79.3252C20.2968 79.2701 17.9365 77.5552 17.0567 75.026C16.4136 73.1773 14.9604 71.7241 13.1117 71.081C10.5825 70.2012 8.86763 67.8409 8.81245 65.1637C8.77212 63.2067 7.83912 61.3756 6.2796 60.1927C4.14611 58.5744 3.24455 55.7997 4.01938 53.2364C4.58576 51.3628 4.26427 49.333 3.14662 47.726C1.61762 45.5277 1.61762 42.6101 3.14662 40.4118C4.26427 38.8048 4.58576 36.7751 4.01938 34.9014C3.24455 32.3381 4.14611 29.5634 6.2796 27.9451C7.83912 26.7622 8.77212 24.9311 8.81245 22.9741C8.86763 20.2969 10.5825 17.9366 13.1117 17.0568C14.9604 16.4137 16.4136 14.9605 17.0567 13.1118C17.9365 10.5826 20.2968 8.86776 22.974 8.81258C24.931 8.77225 26.7621 7.83925 27.945 6.27973C29.5633 4.14624 32.338 3.24468 34.9013 4.01951C36.7749 4.58589 38.8047 4.2644 40.4117 3.14675Z" fill="#DDFF57"/>
</g>
<defs>
<filter id="filter0_g_382_4091" x="0" y="0" width="88.1377" height="88.1378" filterUnits="userSpaceOnUse" color-interpolation-filters="sRGB">
<feFlood flood-opacity="0" result="BackgroundImageFix"/>
<feBlend mode="normal" in="SourceGraphic" in2="BackgroundImageFix" result="shape"/>
<feTurbulence type="fractalNoise" baseFrequency="0.83333331346511841 0.83333331346511841" numOctaves="3" seed="5017" />
<feDisplacementMap in="shape" scale="4" xChannelSelector="R" yChannelSelector="G" result="displacedImage" width="100%" height="100%" />
<feMerge result="effect1_texture_382_4091">
<feMergeNode in="displacedImage"/>
</feMerge>
</filter>
</defs>
</svg>
