<svg width="80" height="80" viewBox="0 0 80 80" fill="none" xmlns="http://www.w3.org/2000/svg">
<g filter="url(#filter0_g_382_4092)">
<path d="M36.2811 3.03379C38.2393 1.65541 40.8564 1.65541 42.8146 3.03379C44.2444 4.04019 46.0603 4.33073 47.7323 3.81924C50.0143 3.1211 52.505 3.94973 53.9363 5.85937C54.9853 7.25902 56.6311 8.11292 58.3798 8.14939C60.7643 8.19913 62.8645 9.73136 63.6398 11.9869L63.662 12.0515C64.2318 13.7093 65.5284 15.0155 67.1819 15.5977C69.4372 16.3916 70.9643 18.5397 71.013 20.9302C71.0488 22.6884 71.8821 24.3621 73.2771 25.4329C75.1824 26.8955 75.9807 29.4038 75.2933 31.7053C74.7885 33.3952 75.0714 35.2377 76.0703 36.6913C77.4375 38.6806 77.4375 41.3068 76.0703 43.2961C75.0714 44.7497 74.7885 46.5922 75.2933 48.2821C75.9807 50.5836 75.1824 53.0919 73.2771 54.5545C71.8821 55.6253 71.0488 57.299 71.013 59.0572C70.9643 61.4477 69.4372 63.5958 67.1819 64.3897C65.5284 64.9719 64.2318 66.2781 63.662 67.9359L63.6398 68.0005C62.8645 70.2561 60.7643 71.7883 58.3798 71.838C56.6311 71.8745 54.9853 72.7284 53.9363 74.128C52.505 76.0377 50.0143 76.8663 47.7323 76.1682C46.0603 75.6567 44.2444 75.9472 42.8146 76.9536C40.8564 78.332 38.2393 78.332 36.2811 76.9536C34.8513 75.9472 33.0354 75.6567 31.3634 76.1682C29.0814 76.8663 26.5907 76.0377 25.1595 74.128C24.1105 72.7284 22.4647 71.8745 20.7159 71.838C18.3314 71.7883 16.2312 70.2561 15.4559 68.0005L15.4337 67.936C14.8639 66.2781 13.5673 64.9719 11.9138 64.3897C9.65852 63.5958 8.13144 61.4477 8.08276 59.0572C8.04695 57.299 7.2136 55.6253 5.81863 54.5545C3.91332 53.0919 3.11502 50.5836 3.80244 48.2821C4.30721 46.5922 4.02435 44.7497 3.0254 43.2961C1.65824 41.3068 1.65824 38.6806 3.0254 36.6913C4.02435 35.2377 4.30721 33.3952 3.80244 31.7053C3.11502 29.4038 3.91332 26.8955 5.81863 25.4329C7.2136 24.3621 8.04695 22.6884 8.08276 20.9302C8.13144 18.5397 9.65852 16.3916 11.9138 15.5977C13.5673 15.0155 14.8639 13.7093 15.4337 12.0515L15.4559 11.9869C16.2312 9.73136 18.3314 8.19913 20.7159 8.14939C22.4647 8.11292 24.1105 7.25902 25.1595 5.85936C26.5907 3.94973 29.0814 3.1211 31.3634 3.81924C33.0354 4.33073 34.8513 4.04019 36.2811 3.03379Z" fill="#DDFF57"/>
<path d="M36.7129 3.6474C38.4122 2.45129 40.6835 2.45129 42.3828 3.6474C44.0017 4.78691 46.0585 5.11538 47.9521 4.53607C49.9279 3.93186 52.0919 4.64967 53.3359 6.30951C54.5217 7.89155 56.3823 8.85801 58.3643 8.89935C60.4342 8.94256 62.2576 10.2725 62.9307 12.2304L62.9531 12.2949C63.5974 14.1693 65.0631 15.6463 66.9326 16.3046C68.8875 16.9928 70.2202 18.8616 70.2627 20.9453C70.3031 22.9274 71.2417 24.8165 72.8203 26.0283C74.4761 27.2994 75.1734 29.4837 74.5742 31.4902C74.0051 33.3954 74.3235 35.4738 75.4521 37.1161C76.6434 38.8496 76.6433 41.1376 75.4521 42.871C74.3235 44.5133 74.0051 46.5917 74.5742 48.497C75.1735 50.5036 74.4762 52.6887 72.8203 53.9599C71.2419 55.1717 70.3031 57.0599 70.2627 59.0419C70.2203 61.1257 68.8876 62.9943 66.9326 63.6826C65.063 64.3408 63.5974 65.8179 62.9531 67.6923L62.9307 67.7568C62.2576 69.7148 60.4343 71.0446 58.3643 71.0878C56.3823 71.1292 54.5217 72.0965 53.3359 73.6786C52.0919 75.3383 49.9278 76.0553 47.9521 75.4511C46.0585 74.8718 44.0017 75.2012 42.3828 76.3408C40.6837 77.5366 38.412 77.5366 36.7129 76.3408C35.094 75.2012 33.0372 74.8718 31.1436 75.4511C29.1679 76.0553 27.0038 75.3383 25.7598 73.6786C24.574 72.0965 22.7134 71.1292 20.7314 71.0878C18.6614 71.0446 16.8381 69.7148 16.165 67.7568L16.1426 67.6923C15.4983 65.8178 14.0327 64.3408 12.1631 63.6826C10.2081 62.9943 8.87544 61.1257 8.83301 59.0419C8.79264 57.0598 7.85386 55.1717 6.27539 53.9599C4.61949 52.6887 3.92219 50.5036 4.52148 48.497C5.09056 46.5917 4.77221 44.5133 3.64355 42.871C2.45238 41.1376 2.45231 38.8496 3.64355 37.1161C4.77221 35.4739 5.09056 33.3954 4.52148 31.4902C3.92232 29.4837 4.61966 27.2994 6.27539 26.0283C7.85398 24.8165 8.79264 22.9274 8.83301 20.9453C8.87553 18.8616 10.2082 16.9928 12.1631 16.3046C14.0326 15.6463 15.4983 14.1693 16.1426 12.2949L16.165 12.2304C16.8381 10.2725 18.6615 8.94258 20.7314 8.89935C22.7134 8.85801 24.574 7.89154 25.7598 6.30951C27.0038 4.64968 29.1678 3.93188 31.1436 4.53607C33.0372 5.11538 35.094 4.7869 36.7129 3.6474Z" stroke="#4FC399" stroke-width="1.5" stroke-linecap="round"/>
</g>
<defs>
<filter id="filter0_g_382_4092" x="0" y="0" width="79.0957" height="79.9874" filterUnits="userSpaceOnUse" color-interpolation-filters="sRGB">
<feFlood flood-opacity="0" result="BackgroundImageFix"/>
<feBlend mode="normal" in="SourceGraphic" in2="BackgroundImageFix" result="shape"/>
<feTurbulence type="fractalNoise" baseFrequency="0.83333331346511841 0.83333331346511841" numOctaves="3" seed="5017" />
<feDisplacementMap in="shape" scale="4" xChannelSelector="R" yChannelSelector="G" result="displacedImage" width="100%" height="100%" />
<feMerge result="effect1_texture_382_4092">
<feMergeNode in="displacedImage"/>
</feMerge>
</filter>
</defs>
</svg>
