<svg width="308" height="126" viewBox="0 0 308 126" fill="none" xmlns="http://www.w3.org/2000/svg">
<path opacity="0.7" d="M141.11 104.973C141.79 104.973 142.31 105.233 142.67 106.153L147.17 117.753C147.47 118.513 147.11 119.133 146.45 119.333C145.79 119.533 145.05 119.473 144.75 118.613L143.59 115.413H138.55L137.37 118.693C137.09 119.473 136.41 119.553 135.77 119.333C135.13 119.113 134.79 118.593 135.07 117.853L139.57 106.153C139.91 105.233 140.45 104.973 141.11 104.973ZM141.07 108.173C140.85 108.973 140.69 109.473 140.37 110.393L139.31 113.293H142.83L141.79 110.393C141.45 109.453 141.27 108.873 141.07 108.173ZM153.701 110.613C152.121 110.613 151.361 111.693 151.361 113.773V114.173C151.361 116.313 152.041 117.333 153.601 117.333C155.261 117.333 156.221 116.133 156.221 114.633V112.793C156.221 111.773 155.441 110.613 153.701 110.613ZM157.441 104.473C158.101 104.473 158.701 104.813 158.701 105.533V118.413C158.701 119.113 158.121 119.433 157.501 119.433C156.901 119.433 156.321 119.113 156.321 118.413V118.013H156.261C155.681 119.073 154.421 119.473 153.101 119.473C150.321 119.473 148.861 117.653 148.861 114.233V113.713C148.861 110.233 150.621 108.453 153.281 108.453C155.021 108.453 155.861 109.153 156.181 109.633V105.533C156.181 104.813 156.801 104.473 157.441 104.473ZM167.147 108.453C168.507 108.453 169.687 109.133 170.087 110.133C170.867 109.033 171.847 108.453 173.507 108.453C175.547 108.453 177.307 109.853 177.307 112.613V118.373C177.307 119.093 176.707 119.433 176.047 119.433C175.407 119.433 174.787 119.093 174.787 118.373V113.133C174.787 111.153 173.847 110.693 172.787 110.693C171.807 110.693 170.767 111.213 170.767 113.053V118.373C170.767 119.093 170.167 119.433 169.507 119.433C168.867 119.433 168.247 119.093 168.247 118.373V113.093C168.247 111.233 167.367 110.693 166.247 110.693C165.067 110.693 164.227 111.433 164.227 112.953V118.373C164.227 119.093 163.627 119.433 162.967 119.433C162.327 119.433 161.707 119.093 161.707 118.373V109.593C161.707 108.893 162.287 108.573 162.887 108.573C163.507 108.573 164.087 108.893 164.087 109.593V110.153C164.667 109.073 165.747 108.453 167.147 108.453ZM181.523 108.573C182.183 108.573 182.783 108.913 182.783 109.633V118.373C182.783 119.093 182.183 119.433 181.523 119.433C180.883 119.433 180.263 119.093 180.263 118.373V109.633C180.263 108.913 180.883 108.573 181.523 108.573ZM181.523 104.433C182.403 104.433 183.103 105.113 183.103 105.953C183.103 106.793 182.403 107.473 181.523 107.473C180.643 107.473 179.943 106.793 179.943 105.953C179.943 105.113 180.643 104.433 181.523 104.433ZM191.528 108.453C193.848 108.453 195.368 109.853 195.368 112.533V118.373C195.368 119.093 194.768 119.433 194.108 119.433C193.468 119.433 192.848 119.093 192.848 118.373V113.073C192.848 111.153 191.948 110.653 190.748 110.653C189.728 110.653 188.368 111.253 188.368 113.233V118.373C188.368 119.093 187.768 119.433 187.108 119.433C186.468 119.433 185.848 119.093 185.848 118.373V109.593C185.848 108.893 186.428 108.573 187.048 108.573C187.668 108.573 188.248 108.893 188.248 109.593V109.953H188.288C188.908 108.913 190.308 108.453 191.528 108.453Z" fill="#60626E"/>
<g opacity="0.8" filter="url(#filter0_g_466_7339)" style="mix-blend-mode:soft-light">
<path d="M87.8582 104.774C87.8582 104.774 71.3551 89.753 63.3647 93.7245C53.6748 98.5574 52.5536 113.898 52.5536 113.898C52.5536 113.898 48.7953 95.4098 42.3061 92.5246C35.8196 89.6504 15.8472 95.0427 15.8472 95.0427C15.8472 95.0427 32.5235 80.71 31.6306 70.7486C30.6469 59.7844 11.2066 47.2225 11.2066 47.2225C11.2066 47.2225 32.6267 51.0204 38.0013 43.421C43.3787 35.8327 42.2249 19.6674 42.2249 19.6674C42.2249 19.6674 50.6046 38.5975 62.6758 38.0269C74.7469 37.4563 83.7934 26.3005 83.7934 26.3005C83.7934 26.3005 70.8694 43.2658 76.9036 55.3685C81.4374 64.4553 103.358 65.5632 103.358 65.5632C103.358 65.5632 79.39 69.8428 76.8184 77.773C74.7395 84.1932 87.8359 104.779 87.8359 104.779L87.8582 104.774Z" fill="#FFF5ED"/>
</g>
<g opacity="0.8" filter="url(#filter1_g_466_7339)" style="mix-blend-mode:soft-light">
<path d="M251.173 27.4654C251.173 27.4654 258.691 29.084 260.384 26.5172C262.435 23.3995 260.113 18.6342 260.113 18.6342C260.113 18.6342 264.434 23.4926 266.867 23.2289C269.297 22.9623 274.315 17.8978 274.315 17.8978C274.315 17.8978 271.827 25.0558 273.818 27.8695C276.009 30.9663 283.977 31.3438 283.977 31.3438C283.977 31.3438 276.937 33.9205 276.651 37.1155C276.362 40.3076 279.505 44.9248 279.505 44.9248C279.505 44.9248 273.73 40.7348 270.232 42.9947C266.734 45.2546 265.97 50.145 265.97 50.145C265.97 50.145 266.884 42.8522 262.99 40.2905C260.066 38.3678 253.343 41.8327 253.343 41.8327C253.343 41.8327 259.743 36.408 259.137 33.5997C258.645 31.3267 251.178 27.4599 251.178 27.4599L251.173 27.4654Z" fill="#FFF5ED"/>
</g>
<g filter="url(#filter2_g_466_7339)">
<path d="M267.026 97.1456C264.746 93.3056 267.026 88.9456 272.226 89.4656C274.426 89.7456 277.506 90.9856 278.626 87.4656C279.306 85.4256 278.426 84.5456 276.826 85.9456C274.946 87.7056 271.386 87.7456 269.226 86.9056C261.746 84.0256 261.266 72.8656 267.266 67.5856C270.706 64.5856 275.666 64.3056 277.506 66.4256C278.226 67.3056 279.066 67.3456 279.666 66.3056C280.186 65.5056 281.146 64.9856 283.266 64.9856C287.386 64.9856 290.186 69.4256 288.386 74.9056C287.746 76.8256 287.866 79.6656 288.306 82.7056C289.266 89.2656 287.466 96.9856 277.866 98.5456C273.706 99.1856 269.186 100.666 267.026 97.1456ZM273.186 77.9856C273.946 79.5456 276.026 79.5856 276.986 78.4256C278.186 76.9856 277.826 74.9456 276.346 74.3456C274.266 73.4656 272.466 76.5056 273.186 77.9856Z" fill="#60626E"/>
</g>
<g filter="url(#filter3_g_466_7339)">
<path d="M256.546 89.6656C253.786 89.6656 251.826 88.1456 252.266 85.0656C253.426 77.5056 251.986 75.7456 249.746 75.7456C247.626 75.7456 246.266 78.1856 246.666 84.6256C246.826 87.6656 244.866 89.7456 241.786 89.7456C238.226 89.7456 236.026 87.3856 237.106 83.7856C238.026 80.7856 238.386 77.7056 237.706 74.9856C236.906 71.9856 237.106 68.6256 238.426 66.7456C240.626 63.5056 245.546 64.4656 246.786 67.5456C247.226 68.6256 247.666 68.6256 248.306 68.0656C249.346 67.1456 252.106 65.4656 255.066 65.7456C262.186 66.3456 261.826 70.8256 261.106 76.3456C260.826 78.4656 262.266 80.7856 262.146 83.2656C261.946 88.0256 260.146 89.6656 256.546 89.6656Z" fill="#60626E"/>
</g>
<g filter="url(#filter4_g_466_7339)">
<path d="M230.309 89.7856C226.269 89.7456 222.909 87.9056 224.029 82.6256C224.949 78.4256 225.469 75.8656 224.429 72.6656C223.389 69.4256 225.029 65.5456 229.509 65.6256C233.949 65.6656 235.349 68.7456 234.789 72.1456C234.069 76.5056 234.309 78.4656 234.949 83.2656C235.269 86.0256 234.389 89.8256 230.309 89.7856ZM232.989 63.1856C230.949 64.4656 227.229 63.9456 224.749 62.0256C222.389 60.1856 222.989 55.3456 225.989 53.7856C229.229 52.0656 232.989 53.6656 234.149 55.0256C236.029 57.2656 236.029 61.2656 232.989 63.1856Z" fill="#60626E"/>
</g>
<g filter="url(#filter5_g_466_7339)">
<path d="M202.032 54.6256C206.752 54.6256 207.992 57.8256 207.312 62.0256C207.032 63.9056 206.912 66.9856 206.992 68.3056C207.032 69.2256 207.432 69.6656 208.192 69.7456C209.752 69.9056 210.512 69.1456 210.952 67.6256C212.432 62.1856 217.112 62.9456 219.352 64.3856C221.632 65.8656 222.232 68.4256 220.752 71.1056C219.752 72.8256 218.032 74.1056 216.352 74.7056C215.392 75.0656 215.312 75.8656 215.632 76.8656C216.192 78.5456 216.712 79.8656 218.792 80.2656C221.712 80.8656 222.432 82.8656 222.272 85.3056C222.112 87.5856 220.592 89.5456 217.352 89.5856C211.832 89.6256 209.032 84.7856 208.552 78.8256C208.472 77.8256 207.032 77.4256 207.192 79.1056C207.432 81.9456 207.512 84.3456 206.992 86.1856C206.232 88.8656 204.552 90.1456 201.592 89.9456C197.392 89.6656 196.312 86.8256 196.712 83.3456C196.952 81.0656 197.472 79.9456 197.872 77.0256C198.432 73.0256 198.712 70.0256 197.472 64.6656C195.872 57.6656 198.312 54.6256 202.032 54.6256Z" fill="#60626E"/>
</g>
<g filter="url(#filter6_g_466_7339)">
<path d="M188.912 76.2256C186.392 75.6256 184.912 76.6656 185.432 78.7856C185.832 80.5456 186.312 81.9456 186.792 83.5456C187.752 86.7856 185.152 89.7456 181.752 89.8256C178.272 89.9056 176.032 87.7456 176.472 84.1456C176.792 81.1056 176.552 78.0256 175.792 75.4256C174.352 70.5056 174.472 66.3056 178.952 65.1056C181.912 64.3456 183.912 66.1056 184.952 67.3856C185.672 68.1856 186.672 68.0256 187.312 67.4656C188.272 66.5856 189.872 65.9056 191.952 66.1456C196.352 66.7056 197.192 71.7456 195.712 74.0656C193.952 76.7856 191.752 76.9456 188.912 76.2256Z" fill="#60626E"/>
</g>
<g filter="url(#filter7_g_466_7339)">
<path d="M158.381 89.7856C150.941 88.7056 149.181 80.7856 150.661 73.0256C151.541 68.5056 155.741 65.1856 160.341 65.1856C163.021 65.1856 165.541 65.5456 167.421 66.6656C171.821 69.2256 173.621 71.3856 173.621 76.6656C173.621 88.1456 168.141 91.3056 158.381 89.7856ZM161.301 81.9056C163.501 82.3056 164.821 81.0256 164.821 77.6256C164.821 74.9056 163.901 73.4656 162.061 73.4656C160.261 73.4656 158.821 74.8656 158.821 78.0256C158.821 80.0256 159.421 81.5856 161.301 81.9056Z" fill="#60626E"/>
</g>
<g filter="url(#filter8_g_466_7339)">
<path d="M119.394 65.2256C122.714 64.7456 124.914 65.9856 125.194 69.1456C125.434 72.9056 125.834 74.5456 125.954 76.2656C126.034 78.0256 127.634 77.5456 128.074 76.3056C128.594 74.5456 128.394 73.3056 128.154 70.9056C127.914 68.3856 129.434 66.1456 132.874 66.1456C136.354 66.1456 137.794 68.4656 137.554 70.9056C137.274 73.3056 137.074 74.5456 137.634 76.3056C138.034 77.5456 139.194 77.6256 139.274 75.8656C139.394 74.1456 139.194 71.3056 140.754 68.0656C142.034 65.1856 145.074 64.9056 147.314 65.9056C149.674 66.9456 150.354 70.5856 148.994 72.9856C147.274 76.2656 146.394 80.0656 145.594 83.5056C144.794 86.9056 143.474 89.5456 139.794 89.7856C136.674 90.0256 134.474 88.1856 133.794 85.6256C133.434 84.3856 132.234 84.3856 131.914 85.6256C131.194 88.1856 129.034 90.0256 125.874 89.7856C122.234 89.5456 121.274 86.7856 120.074 83.5056C118.874 80.0656 116.714 74.8656 116.274 71.4656C115.834 67.5856 116.794 65.5856 119.394 65.2256Z" fill="#60626E"/>
</g>
<g filter="url(#filter9_g_466_7339)">
<path d="M99.1545 64.6256C100.474 65.0256 100.954 64.7856 100.874 63.5456C100.834 62.6256 101.714 59.5056 105.474 59.5056C108.994 59.5056 110.594 62.1456 109.994 64.2656C109.634 65.5456 109.914 65.7056 110.954 65.5056C113.114 65.1856 116.154 66.6656 115.394 71.0256C114.634 75.1856 110.754 74.4656 109.154 74.7056C108.554 74.7856 107.994 75.5056 107.994 76.4656C107.994 80.0256 108.434 80.8656 109.954 80.8656C112.634 80.8656 114.634 82.3856 113.914 85.9456C113.234 89.3456 110.034 90.0256 107.154 89.9856C101.074 89.8656 96.3545 86.7856 98.4745 77.2256C99.0345 74.5856 99.4345 73.7456 98.0745 73.6256C95.7945 73.3856 94.5945 72.3456 94.3545 69.3856C94.0745 66.0656 95.4745 63.5456 99.1545 64.6256Z" fill="#60626E"/>
</g>
<g filter="url(#filter10_g_466_7339)">
<path d="M77.6843 88.2656C74.7243 86.4656 72.9643 83.4656 72.5643 78.8256C72.0843 72.1856 75.0043 65.1856 83.3643 64.7456C90.3243 64.3056 94.1243 68.7856 94.0843 73.5856C94.0443 77.9056 88.8043 80.5056 83.0443 78.9856C81.9643 78.6656 81.6843 79.4256 81.8443 80.2656C82.2043 82.5056 84.6043 82.5856 86.9643 81.2656C89.5643 79.7056 92.0843 80.0656 93.0443 82.8256C93.8443 85.1056 92.2043 88.1056 90.0043 88.9856C86.6443 90.2656 80.6843 90.1456 77.6843 88.2656ZM84.0843 74.1456C85.3643 74.1456 86.2043 73.4256 85.7643 72.3056C85.1243 70.7856 83.0043 71.3456 82.5643 72.4656C82.1243 73.6656 82.4843 74.1456 84.0843 74.1456Z" fill="#60626E"/>
</g>
<g filter="url(#filter11_g_466_7339)">
<path d="M47.5791 55.0256C51.4991 54.8256 53.6991 55.7456 55.4191 58.9056C57.0591 61.9856 58.0191 64.9456 58.5791 68.0656C59.2191 71.6256 60.6591 73.1856 61.4991 71.8256C62.0591 70.9456 62.1391 67.1456 61.4991 62.2656C60.9391 57.8656 62.2191 55.1456 66.4191 55.1056C72.0191 55.0256 71.4991 60.9056 70.7791 63.4256C69.0191 69.3856 68.9391 74.0656 69.8591 79.8256C70.8191 85.9856 68.7391 88.3856 64.8991 89.2256C61.4191 89.9856 58.9391 88.0256 57.5791 85.7856C55.7391 82.7856 53.7791 76.7856 53.0191 73.5056C52.7791 72.4656 52.0991 72.1856 51.2991 72.7056C50.2991 73.3456 50.6191 75.2256 50.8591 77.0256C51.2191 79.5856 51.8591 81.3856 52.0991 84.4656C52.3391 87.5456 50.4591 89.9456 46.5391 89.8656C42.6191 89.7856 41.4991 85.7056 42.5791 82.5856C43.8991 78.7856 44.1791 71.3056 42.9391 63.1856C42.2191 58.4256 43.6191 55.2256 47.5791 55.0256Z" fill="#60626E"/>
</g>
<g filter="url(#filter12_g_466_7339)">
<path d="M221.763 47.9356C212.463 46.5856 210.263 36.6856 212.113 26.9856C213.213 21.3356 218.463 17.1856 224.213 17.1856C227.563 17.1856 230.713 17.6356 233.063 19.0356C238.563 22.2356 240.813 24.9356 240.813 31.5356C240.813 45.8856 233.963 49.8356 221.763 47.9356ZM225.413 38.0856C228.163 38.5856 229.813 36.9856 229.813 32.7356C229.813 29.3356 228.663 27.5356 226.363 27.5356C224.113 27.5356 222.313 29.2856 222.313 33.2356C222.313 35.7356 223.063 37.6856 225.413 38.0856Z" fill="#4FC399"/>
<path d="M221.763 47.9356C212.463 46.5856 210.263 36.6856 212.113 26.9856C213.213 21.3356 218.463 17.1856 224.213 17.1856C227.563 17.1856 230.713 17.6356 233.063 19.0356C238.563 22.2356 240.813 24.9356 240.813 31.5356C240.813 45.8856 233.963 49.8356 221.763 47.9356ZM225.413 38.0856C228.163 38.5856 229.813 36.9856 229.813 32.7356C229.813 29.3356 228.663 27.5356 226.363 27.5356C224.113 27.5356 222.313 29.2856 222.313 33.2356C222.313 35.7356 223.063 37.6856 225.413 38.0856Z" fill="url(#paint0_linear_466_7339)" fill-opacity="0.2"/>
</g>
<g filter="url(#filter13_g_466_7339)">
<path d="M182.569 57.1356C179.719 52.3356 182.569 46.8856 189.069 47.5356C191.819 47.8856 195.669 49.4356 197.069 45.0356C197.919 42.4856 196.819 41.3856 194.819 43.1356C192.469 45.3356 188.019 45.3856 185.319 44.3356C175.969 40.7356 175.369 26.7856 182.869 20.1856C187.169 16.4356 193.369 16.0856 195.669 18.7356C196.569 19.8356 197.619 19.8856 198.369 18.5856C199.019 17.5856 200.219 16.9356 202.869 16.9356C208.019 16.9356 211.519 22.4856 209.269 29.3356C208.469 31.7356 208.619 35.2856 209.169 39.0856C210.369 47.2856 208.119 56.9356 196.119 58.8856C190.919 59.6856 185.269 61.5356 182.569 57.1356ZM190.269 33.1856C191.219 35.1356 193.819 35.1856 195.019 33.7356C196.519 31.9356 196.069 29.3856 194.219 28.6356C191.619 27.5356 189.369 31.3356 190.269 33.1856Z" fill="#4FC399"/>
<path d="M182.569 57.1356C179.719 52.3356 182.569 46.8856 189.069 47.5356C191.819 47.8856 195.669 49.4356 197.069 45.0356C197.919 42.4856 196.819 41.3856 194.819 43.1356C192.469 45.3356 188.019 45.3856 185.319 44.3356C175.969 40.7356 175.369 26.7856 182.869 20.1856C187.169 16.4356 193.369 16.0856 195.669 18.7356C196.569 19.8356 197.619 19.8856 198.369 18.5856C199.019 17.5856 200.219 16.9356 202.869 16.9356C208.019 16.9356 211.519 22.4856 209.269 29.3356C208.469 31.7356 208.619 35.2856 209.169 39.0856C210.369 47.2856 208.119 56.9356 196.119 58.8856C190.919 59.6856 185.269 61.5356 182.569 57.1356ZM190.269 33.1856C191.219 35.1356 193.819 35.1856 195.019 33.7356C196.519 31.9356 196.069 29.3856 194.219 28.6356C191.619 27.5356 189.369 31.3356 190.269 33.1856Z" fill="url(#paint1_linear_466_7339)" fill-opacity="0.2"/>
</g>
<g filter="url(#filter14_g_466_7339)">
<path d="M169.468 47.7856C166.018 47.7856 163.568 45.8856 164.118 42.0356C165.568 32.5856 163.768 30.3856 160.968 30.3856C158.318 30.3856 156.618 33.4356 157.118 41.4856C157.318 45.2856 154.868 47.8856 151.018 47.8856C146.568 47.8856 143.818 44.9356 145.168 40.4356C146.318 36.6856 146.768 32.8356 145.918 29.4356C144.918 25.6856 145.168 21.4856 146.818 19.1356C149.568 15.0856 155.718 16.2856 157.268 20.1356C157.818 21.4856 158.368 21.4856 159.168 20.7856C160.468 19.6356 163.918 17.5356 167.618 17.8856C176.518 18.6356 176.068 24.2356 175.168 31.1356C174.818 33.7856 176.618 36.6856 176.468 39.7856C176.218 45.7356 173.968 47.7856 169.468 47.7856Z" fill="#4FC399"/>
<path d="M169.468 47.7856C166.018 47.7856 163.568 45.8856 164.118 42.0356C165.568 32.5856 163.768 30.3856 160.968 30.3856C158.318 30.3856 156.618 33.4356 157.118 41.4856C157.318 45.2856 154.868 47.8856 151.018 47.8856C146.568 47.8856 143.818 44.9356 145.168 40.4356C146.318 36.6856 146.768 32.8356 145.918 29.4356C144.918 25.6856 145.168 21.4856 146.818 19.1356C149.568 15.0856 155.718 16.2856 157.268 20.1356C157.818 21.4856 158.368 21.4856 159.168 20.7856C160.468 19.6356 163.918 17.5356 167.618 17.8856C176.518 18.6356 176.068 24.2356 175.168 31.1356C174.818 33.7856 176.618 36.6856 176.468 39.7856C176.218 45.7356 173.968 47.7856 169.468 47.7856Z" fill="url(#paint2_linear_466_7339)" fill-opacity="0.2"/>
</g>
<g filter="url(#filter15_g_466_7339)">
<path d="M136.672 47.9356C131.622 47.8856 127.422 45.5856 128.822 38.9856C129.972 33.7356 130.622 30.5356 129.322 26.5356C128.022 22.4856 130.072 17.6356 135.672 17.7356C141.222 17.7856 142.972 21.6356 142.272 25.8856C141.372 31.3356 141.672 33.7856 142.472 39.7856C142.872 43.2356 141.772 47.9856 136.672 47.9356ZM140.022 14.6856C137.472 16.2856 132.822 15.6356 129.722 13.2356C126.772 10.9356 127.522 4.88563 131.272 2.93563C135.322 0.785632 140.022 2.78563 141.472 4.48563C143.822 7.28563 143.822 12.2856 140.022 14.6856Z" fill="#4FC399"/>
<path d="M136.672 47.9356C131.622 47.8856 127.422 45.5856 128.822 38.9856C129.972 33.7356 130.622 30.5356 129.322 26.5356C128.022 22.4856 130.072 17.6356 135.672 17.7356C141.222 17.7856 142.972 21.6356 142.272 25.8856C141.372 31.3356 141.672 33.7856 142.472 39.7856C142.872 43.2356 141.772 47.9856 136.672 47.9356ZM140.022 14.6856C137.472 16.2856 132.822 15.6356 129.722 13.2356C126.772 10.9356 127.522 4.88563 131.272 2.93563C135.322 0.785632 140.022 2.78563 141.472 4.48563C143.822 7.28563 143.822 12.2856 140.022 14.6856Z" fill="url(#paint3_linear_466_7339)" fill-opacity="0.2"/>
</g>
<g filter="url(#filter16_g_466_7339)">
<path d="M114.675 47.6856C112.375 48.0356 109.225 47.7856 106.075 47.2856C103.275 46.8356 100.775 46.8856 98.4747 47.3356C93.0247 48.3856 89.1247 44.3356 90.9247 37.7856C93.1247 29.6856 93.5747 20.1356 91.9247 13.9356C90.4247 8.38558 93.9247 3.13558 100.275 4.68558C104.525 5.73558 107.325 5.53558 110.575 4.83558C116.775 3.48558 122.975 7.73558 122.975 14.2856C122.975 19.4856 120.725 21.8356 116.575 22.9856C115.475 23.2856 115.625 24.5856 116.975 24.4856C122.225 24.0856 127.975 28.8356 126.275 37.4856C124.675 45.5856 121.575 46.6356 114.675 47.6856ZM109.775 36.7356C113.375 36.2356 114.675 34.9356 114.675 32.8356C114.675 29.9356 111.225 28.6356 107.325 28.6356C104.775 28.6356 103.925 29.6356 103.725 31.3356C102.975 36.1356 104.725 37.3856 109.775 36.7356ZM107.625 18.9856C111.175 17.5856 110.425 14.6356 106.925 14.0856C104.875 13.5356 104.425 14.2856 104.225 15.5856C104.075 16.5356 104.175 17.4356 104.275 18.0856C104.475 19.3856 105.975 19.6356 107.625 18.9856Z" fill="#4FC399"/>
<path d="M114.675 47.6856C112.375 48.0356 109.225 47.7856 106.075 47.2856C103.275 46.8356 100.775 46.8856 98.4747 47.3356C93.0247 48.3856 89.1247 44.3356 90.9247 37.7856C93.1247 29.6856 93.5747 20.1356 91.9247 13.9356C90.4247 8.38558 93.9247 3.13558 100.275 4.68558C104.525 5.73558 107.325 5.53558 110.575 4.83558C116.775 3.48558 122.975 7.73558 122.975 14.2856C122.975 19.4856 120.725 21.8356 116.575 22.9856C115.475 23.2856 115.625 24.5856 116.975 24.4856C122.225 24.0856 127.975 28.8356 126.275 37.4856C124.675 45.5856 121.575 46.6356 114.675 47.6856ZM109.775 36.7356C113.375 36.2356 114.675 34.9356 114.675 32.8356C114.675 29.9356 111.225 28.6356 107.325 28.6356C104.775 28.6356 103.925 29.6356 103.725 31.3356C102.975 36.1356 104.725 37.3856 109.775 36.7356ZM107.625 18.9856C111.175 17.5856 110.425 14.6356 106.925 14.0856C104.875 13.5356 104.425 14.2856 104.225 15.5856C104.075 16.5356 104.175 17.4356 104.275 18.0856C104.475 19.3856 105.975 19.6356 107.625 18.9856Z" fill="url(#paint4_linear_466_7339)" fill-opacity="0.2"/>
</g>
<g filter="url(#filter17_g_466_7339)">
<path d="M291.001 60.1856C292.168 57.6856 295.201 52.5856 298.001 52.1856" stroke="#60626E" stroke-width="3" stroke-linecap="round"/>
</g>
<g filter="url(#filter18_g_466_7339)">
<path d="M296.251 65.0019C298.75 63.8349 302.001 63.1854 304.001 63.1854" stroke="#60626E" stroke-width="3" stroke-linecap="round"/>
</g>
<defs>
<filter id="filter0_g_466_7339" x="9.20654" y="17.6674" width="96.1509" height="98.2308" filterUnits="userSpaceOnUse" color-interpolation-filters="sRGB">
<feFlood flood-opacity="0" result="BackgroundImageFix"/>
<feBlend mode="normal" in="SourceGraphic" in2="BackgroundImageFix" result="shape"/>
<feTurbulence type="fractalNoise" baseFrequency="0.83333331346511841 0.83333331346511841" numOctaves="3" seed="5017" />
<feDisplacementMap in="shape" scale="4" xChannelSelector="R" yChannelSelector="G" result="displacedImage" width="100%" height="100%" />
<feMerge result="effect1_texture_466_7339">
<feMergeNode in="displacedImage"/>
</feMerge>
</filter>
<filter id="filter1_g_466_7339" x="249.172" y="15.8978" width="36.8047" height="36.2473" filterUnits="userSpaceOnUse" color-interpolation-filters="sRGB">
<feFlood flood-opacity="0" result="BackgroundImageFix"/>
<feBlend mode="normal" in="SourceGraphic" in2="BackgroundImageFix" result="shape"/>
<feTurbulence type="fractalNoise" baseFrequency="0.83333331346511841 0.83333331346511841" numOctaves="3" seed="5017" />
<feDisplacementMap in="shape" scale="4" xChannelSelector="R" yChannelSelector="G" result="displacedImage" width="100%" height="100%" />
<feMerge result="effect1_texture_466_7339">
<feMergeNode in="displacedImage"/>
</feMerge>
</filter>
<filter id="filter2_g_466_7339" x="261.15" y="62.9856" width="29.7925" height="38.4202" filterUnits="userSpaceOnUse" color-interpolation-filters="sRGB">
<feFlood flood-opacity="0" result="BackgroundImageFix"/>
<feBlend mode="normal" in="SourceGraphic" in2="BackgroundImageFix" result="shape"/>
<feTurbulence type="fractalNoise" baseFrequency="0.83333331346511841 0.83333331346511841" numOctaves="3" seed="5017" />
<feDisplacementMap in="shape" scale="4" xChannelSelector="R" yChannelSelector="G" result="displacedImage" width="100%" height="100%" />
<feMerge result="effect1_texture_466_7339">
<feMergeNode in="displacedImage"/>
</feMerge>
</filter>
<filter id="filter3_g_466_7339" x="234.83" y="62.7303" width="29.3232" height="29.0153" filterUnits="userSpaceOnUse" color-interpolation-filters="sRGB">
<feFlood flood-opacity="0" result="BackgroundImageFix"/>
<feBlend mode="normal" in="SourceGraphic" in2="BackgroundImageFix" result="shape"/>
<feTurbulence type="fractalNoise" baseFrequency="0.83333331346511841 0.83333331346511841" numOctaves="3" seed="5017" />
<feDisplacementMap in="shape" scale="4" xChannelSelector="R" yChannelSelector="G" result="displacedImage" width="100%" height="100%" />
<feMerge result="effect1_texture_466_7339">
<feMergeNode in="displacedImage"/>
</feMerge>
</filter>
<filter id="filter4_g_466_7339" x="221.3" y="51.0371" width="16.1396" height="40.7488" filterUnits="userSpaceOnUse" color-interpolation-filters="sRGB">
<feFlood flood-opacity="0" result="BackgroundImageFix"/>
<feBlend mode="normal" in="SourceGraphic" in2="BackgroundImageFix" result="shape"/>
<feTurbulence type="fractalNoise" baseFrequency="0.83333331346511841 0.83333331346511841" numOctaves="3" seed="5017" />
<feDisplacementMap in="shape" scale="4" xChannelSelector="R" yChannelSelector="G" result="displacedImage" width="100%" height="100%" />
<feMerge result="effect1_texture_466_7339">
<feMergeNode in="displacedImage"/>
</feMerge>
</filter>
<filter id="filter5_g_466_7339" x="194.635" y="52.6256" width="29.6582" height="39.3403" filterUnits="userSpaceOnUse" color-interpolation-filters="sRGB">
<feFlood flood-opacity="0" result="BackgroundImageFix"/>
<feBlend mode="normal" in="SourceGraphic" in2="BackgroundImageFix" result="shape"/>
<feTurbulence type="fractalNoise" baseFrequency="0.83333331346511841 0.83333331346511841" numOctaves="3" seed="5017" />
<feDisplacementMap in="shape" scale="4" xChannelSelector="R" yChannelSelector="G" result="displacedImage" width="100%" height="100%" />
<feMerge result="effect1_texture_466_7339">
<feMergeNode in="displacedImage"/>
</feMerge>
</filter>
<filter id="filter6_g_466_7339" x="172.973" y="62.9217" width="25.4111" height="28.9061" filterUnits="userSpaceOnUse" color-interpolation-filters="sRGB">
<feFlood flood-opacity="0" result="BackgroundImageFix"/>
<feBlend mode="normal" in="SourceGraphic" in2="BackgroundImageFix" result="shape"/>
<feTurbulence type="fractalNoise" baseFrequency="0.83333331346511841 0.83333331346511841" numOctaves="3" seed="5017" />
<feDisplacementMap in="shape" scale="4" xChannelSelector="R" yChannelSelector="G" result="displacedImage" width="100%" height="100%" />
<feMerge result="effect1_texture_466_7339">
<feMergeNode in="displacedImage"/>
</feMerge>
</filter>
<filter id="filter7_g_466_7339" x="148.18" y="63.1856" width="27.4414" height="28.956" filterUnits="userSpaceOnUse" color-interpolation-filters="sRGB">
<feFlood flood-opacity="0" result="BackgroundImageFix"/>
<feBlend mode="normal" in="SourceGraphic" in2="BackgroundImageFix" result="shape"/>
<feTurbulence type="fractalNoise" baseFrequency="0.83333331346511841 0.83333331346511841" numOctaves="3" seed="5017" />
<feDisplacementMap in="shape" scale="4" xChannelSelector="R" yChannelSelector="G" result="displacedImage" width="100%" height="100%" />
<feMerge result="effect1_texture_466_7339">
<feMergeNode in="displacedImage"/>
</feMerge>
</filter>
<filter id="filter8_g_466_7339" x="114.171" y="63.1257" width="37.5166" height="28.681" filterUnits="userSpaceOnUse" color-interpolation-filters="sRGB">
<feFlood flood-opacity="0" result="BackgroundImageFix"/>
<feBlend mode="normal" in="SourceGraphic" in2="BackgroundImageFix" result="shape"/>
<feTurbulence type="fractalNoise" baseFrequency="0.83333331346511841 0.83333331346511841" numOctaves="3" seed="5017" />
<feDisplacementMap in="shape" scale="4" xChannelSelector="R" yChannelSelector="G" result="displacedImage" width="100%" height="100%" />
<feMerge result="effect1_texture_466_7339">
<feMergeNode in="displacedImage"/>
</feMerge>
</filter>
<filter id="filter9_g_466_7339" x="92.3198" y="57.5056" width="25.1938" height="34.4816" filterUnits="userSpaceOnUse" color-interpolation-filters="sRGB">
<feFlood flood-opacity="0" result="BackgroundImageFix"/>
<feBlend mode="normal" in="SourceGraphic" in2="BackgroundImageFix" result="shape"/>
<feTurbulence type="fractalNoise" baseFrequency="0.83333331346511841 0.83333331346511841" numOctaves="3" seed="5017" />
<feDisplacementMap in="shape" scale="4" xChannelSelector="R" yChannelSelector="G" result="displacedImage" width="100%" height="100%" />
<feMerge result="effect1_texture_466_7339">
<feMergeNode in="displacedImage"/>
</feMerge>
</filter>
<filter id="filter10_g_466_7339" x="70.5142" y="62.7157" width="25.5703" height="29.116" filterUnits="userSpaceOnUse" color-interpolation-filters="sRGB">
<feFlood flood-opacity="0" result="BackgroundImageFix"/>
<feBlend mode="normal" in="SourceGraphic" in2="BackgroundImageFix" result="shape"/>
<feTurbulence type="fractalNoise" baseFrequency="0.83333331346511841 0.83333331346511841" numOctaves="3" seed="5017" />
<feDisplacementMap in="shape" scale="4" xChannelSelector="R" yChannelSelector="G" result="displacedImage" width="100%" height="100%" />
<feMerge result="effect1_texture_466_7339">
<feMergeNode in="displacedImage"/>
</feMerge>
</filter>
<filter id="filter11_g_466_7339" x="40.1899" y="52.9996" width="33.0249" height="38.868" filterUnits="userSpaceOnUse" color-interpolation-filters="sRGB">
<feFlood flood-opacity="0" result="BackgroundImageFix"/>
<feBlend mode="normal" in="SourceGraphic" in2="BackgroundImageFix" result="shape"/>
<feTurbulence type="fractalNoise" baseFrequency="0.83333331346511841 0.83333331346511841" numOctaves="3" seed="5017" />
<feDisplacementMap in="shape" scale="4" xChannelSelector="R" yChannelSelector="G" result="displacedImage" width="100%" height="100%" />
<feMerge result="effect1_texture_466_7339">
<feMergeNode in="displacedImage"/>
</feMerge>
</filter>
<filter id="filter12_g_466_7339" x="209.511" y="15.1856" width="33.3013" height="35.195" filterUnits="userSpaceOnUse" color-interpolation-filters="sRGB">
<feFlood flood-opacity="0" result="BackgroundImageFix"/>
<feBlend mode="normal" in="SourceGraphic" in2="BackgroundImageFix" result="shape"/>
<feTurbulence type="fractalNoise" baseFrequency="0.83333331346511841 0.83333331346511841" numOctaves="3" seed="5017" />
<feDisplacementMap in="shape" scale="4" xChannelSelector="R" yChannelSelector="G" result="displacedImage" width="100%" height="100%" />
<feMerge result="effect1_texture_466_7339">
<feMergeNode in="displacedImage"/>
</feMerge>
</filter>
<filter id="filter13_g_466_7339" x="175.723" y="14.9356" width="36.2402" height="47.0252" filterUnits="userSpaceOnUse" color-interpolation-filters="sRGB">
<feFlood flood-opacity="0" result="BackgroundImageFix"/>
<feBlend mode="normal" in="SourceGraphic" in2="BackgroundImageFix" result="shape"/>
<feTurbulence type="fractalNoise" baseFrequency="0.83333331346511841 0.83333331346511841" numOctaves="3" seed="5017" />
<feDisplacementMap in="shape" scale="4" xChannelSelector="R" yChannelSelector="G" result="displacedImage" width="100%" height="100%" />
<feMerge result="effect1_texture_466_7339">
<feMergeNode in="displacedImage"/>
</feMerge>
</filter>
<filter id="filter14_g_466_7339" x="142.823" y="14.6165" width="35.6538" height="35.2691" filterUnits="userSpaceOnUse" color-interpolation-filters="sRGB">
<feFlood flood-opacity="0" result="BackgroundImageFix"/>
<feBlend mode="normal" in="SourceGraphic" in2="BackgroundImageFix" result="shape"/>
<feTurbulence type="fractalNoise" baseFrequency="0.83333331346511841 0.83333331346511841" numOctaves="3" seed="5017" />
<feDisplacementMap in="shape" scale="4" xChannelSelector="R" yChannelSelector="G" result="displacedImage" width="100%" height="100%" />
<feMerge result="effect1_texture_466_7339">
<feMergeNode in="displacedImage"/>
</feMerge>
</filter>
<filter id="filter15_g_466_7339" x="125.911" y="0" width="19.1748" height="49.936" filterUnits="userSpaceOnUse" color-interpolation-filters="sRGB">
<feFlood flood-opacity="0" result="BackgroundImageFix"/>
<feBlend mode="normal" in="SourceGraphic" in2="BackgroundImageFix" result="shape"/>
<feTurbulence type="fractalNoise" baseFrequency="0.83333331346511841 0.83333331346511841" numOctaves="3" seed="5017" />
<feDisplacementMap in="shape" scale="4" xChannelSelector="R" yChannelSelector="G" result="displacedImage" width="100%" height="100%" />
<feMerge result="effect1_texture_466_7339">
<feMergeNode in="displacedImage"/>
</feMerge>
</filter>
<filter id="filter16_g_466_7339" x="88.4805" y="2.4101" width="40.0981" height="47.4387" filterUnits="userSpaceOnUse" color-interpolation-filters="sRGB">
<feFlood flood-opacity="0" result="BackgroundImageFix"/>
<feBlend mode="normal" in="SourceGraphic" in2="BackgroundImageFix" result="shape"/>
<feTurbulence type="fractalNoise" baseFrequency="0.83333331346511841 0.83333331346511841" numOctaves="3" seed="5017" />
<feDisplacementMap in="shape" scale="4" xChannelSelector="R" yChannelSelector="G" result="displacedImage" width="100%" height="100%" />
<feMerge result="effect1_texture_466_7339">
<feMergeNode in="displacedImage"/>
</feMerge>
</filter>
<filter id="filter17_g_466_7339" x="287.5" y="48.6854" width="14.0005" height="15.0005" filterUnits="userSpaceOnUse" color-interpolation-filters="sRGB">
<feFlood flood-opacity="0" result="BackgroundImageFix"/>
<feBlend mode="normal" in="SourceGraphic" in2="BackgroundImageFix" result="shape"/>
<feTurbulence type="fractalNoise" baseFrequency="0.83333331346511841 0.83333331346511841" numOctaves="3" seed="5017" />
<feDisplacementMap in="shape" scale="4" xChannelSelector="R" yChannelSelector="G" result="displacedImage" width="100%" height="100%" />
<feMerge result="effect1_texture_466_7339">
<feMergeNode in="displacedImage"/>
</feMerge>
</filter>
<filter id="filter18_g_466_7339" x="292.75" y="59.6854" width="14.751" height="8.81677" filterUnits="userSpaceOnUse" color-interpolation-filters="sRGB">
<feFlood flood-opacity="0" result="BackgroundImageFix"/>
<feBlend mode="normal" in="SourceGraphic" in2="BackgroundImageFix" result="shape"/>
<feTurbulence type="fractalNoise" baseFrequency="0.83333331346511841 0.83333331346511841" numOctaves="3" seed="5017" />
<feDisplacementMap in="shape" scale="4" xChannelSelector="R" yChannelSelector="G" result="displacedImage" width="100%" height="100%" />
<feMerge result="effect1_texture_466_7339">
<feMergeNode in="displacedImage"/>
</feMerge>
</filter>
<linearGradient id="paint0_linear_466_7339" x1="224.991" y1="-11.5336" x2="224.991" y2="42.4387" gradientUnits="userSpaceOnUse">
<stop offset="0.4" stop-color="white" stop-opacity="0"/>
<stop offset="1" stop-color="#076945"/>
</linearGradient>
<linearGradient id="paint1_linear_466_7339" x1="192.555" y1="-22.6749" x2="192.555" y2="51.7655" gradientUnits="userSpaceOnUse">
<stop offset="0.4" stop-color="white" stop-opacity="0"/>
<stop offset="1" stop-color="#076945"/>
</linearGradient>
<linearGradient id="paint2_linear_466_7339" x1="159.385" y1="-12.1709" x2="159.385" y2="41.9296" gradientUnits="userSpaceOnUse">
<stop offset="0.4" stop-color="white" stop-opacity="0"/>
<stop offset="1" stop-color="#076945"/>
</linearGradient>
<linearGradient id="paint3_linear_466_7339" x1="134.892" y1="-40.2903" x2="134.892" y2="39.1863" gradientUnits="userSpaceOnUse">
<stop offset="0.4" stop-color="white" stop-opacity="0"/>
<stop offset="1" stop-color="#076945"/>
</linearGradient>
<linearGradient id="paint4_linear_466_7339" x1="107.087" y1="-35.581" x2="107.087" y2="39.5747" gradientUnits="userSpaceOnUse">
<stop offset="0.4" stop-color="white" stop-opacity="0"/>
<stop offset="1" stop-color="#076945"/>
</linearGradient>
</defs>
</svg>
