<svg width="326" height="129" viewBox="0 0 326 129" fill="none" xmlns="http://www.w3.org/2000/svg">
<path opacity="0.7" d="M50.3197 108.612V110.492H54.1597V108.612C54.1597 107.892 54.7797 107.552 55.4197 107.552C56.0597 107.552 56.6797 107.892 56.6797 108.612V114.972C56.6797 116.232 56.2597 116.632 54.9797 116.632H49.4997C48.2197 116.632 47.7997 116.232 47.7997 114.972V108.612C47.7997 107.892 48.4197 107.552 49.0597 107.552C49.6997 107.552 50.3197 107.892 50.3197 108.612ZM50.7797 114.552H53.6997C54.0397 114.552 54.1597 114.432 54.1597 114.092V112.572H50.3197V114.092C50.3197 114.432 50.4397 114.552 50.7797 114.552ZM62.1397 107.812V116.792C62.1397 117.532 61.5197 117.872 60.8597 117.872C60.1997 117.872 59.5797 117.532 59.5797 116.792V107.812C59.5797 107.072 60.1997 106.732 60.8597 106.732C61.5197 106.732 62.1397 107.072 62.1397 107.812ZM50.1997 121.812C50.1997 119.252 52.4597 117.992 56.1997 117.992C59.9397 117.992 62.1997 119.252 62.1997 121.812C62.1997 124.372 59.9397 125.632 56.1997 125.632C52.4597 125.632 50.1997 124.372 50.1997 121.812ZM59.6597 121.812C59.6597 120.752 58.6997 120.032 56.1997 120.032C53.6997 120.032 52.7397 120.752 52.7397 121.812C52.7397 122.872 53.6997 123.592 56.1997 123.592C58.6997 123.592 59.6597 122.872 59.6597 121.812ZM76.7628 110.212H67.8428C67.2228 110.212 66.9428 109.712 66.9428 109.112C66.9428 108.512 67.2228 108.012 67.8428 108.012H78.0828C79.3628 108.012 79.7828 108.412 79.7828 109.672V111.472C79.7828 113.912 79.6028 115.752 79.2428 117.412C79.0828 118.132 78.4028 118.392 77.6628 118.252C77.0628 118.132 76.5828 117.732 76.7228 117.012C77.0628 115.332 77.2228 113.552 77.2228 111.412V110.672C77.2228 110.332 77.1028 110.212 76.7628 110.212ZM73.4828 120.412H81.0428C81.6628 120.412 81.9428 120.912 81.9428 121.492C81.9428 122.072 81.6628 122.572 81.0428 122.572H65.9228C65.3028 122.572 65.0228 122.072 65.0228 121.492C65.0228 120.912 65.3028 120.412 65.9228 120.412H70.9228V115.032C70.9228 114.292 71.5428 113.952 72.2028 113.952C72.8628 113.952 73.4828 114.292 73.4828 115.032V120.412ZM99.2459 122.572H84.1259C83.5059 122.572 83.2259 122.072 83.2259 121.492C83.2259 120.912 83.5059 120.412 84.1259 120.412H90.4059V117.712H87.1459C85.8659 117.712 85.4459 117.312 85.4459 116.052V113.352C85.4459 112.092 85.8659 111.692 87.1459 111.692H94.9059C95.2459 111.692 95.3659 111.572 95.3659 111.232V110.392C95.3659 110.052 95.2459 109.932 94.9059 109.932H86.3059C85.6859 109.932 85.4059 109.432 85.4059 108.852C85.4059 108.272 85.6859 107.772 86.3059 107.772H96.1859C97.4659 107.772 97.8859 108.172 97.8859 109.432V112.112C97.8859 113.372 97.4659 113.772 96.1859 113.772H88.4259C88.0859 113.772 87.9659 113.892 87.9659 114.232V115.092C87.9659 115.432 88.0859 115.552 88.4259 115.552H97.3859C98.0059 115.552 98.2859 116.052 98.2859 116.632C98.2859 117.212 98.0059 117.712 97.3859 117.712H92.9659V120.412H99.2459C99.8659 120.412 100.146 120.912 100.146 121.492C100.146 122.072 99.8659 122.572 99.2459 122.572ZM113.589 109.212H109.309C108.729 109.212 108.449 108.752 108.449 108.172C108.449 107.612 108.729 107.152 109.309 107.152H120.469C121.049 107.152 121.329 107.612 121.329 108.172C121.329 108.752 121.049 109.212 120.469 109.212H116.189V109.352C116.189 109.912 116.609 110.252 117.809 110.672C119.129 111.132 120.189 111.472 121.229 111.772C121.789 111.932 121.969 112.552 121.769 113.112C121.569 113.672 121.049 113.932 120.409 113.752C119.529 113.512 118.389 113.132 117.329 112.772C115.629 112.192 115.089 111.792 114.909 111.312H114.889C114.729 111.832 114.169 112.252 112.449 112.832C111.389 113.192 110.249 113.572 109.369 113.812C108.729 113.992 108.209 113.732 108.009 113.152C107.809 112.572 107.969 111.932 108.549 111.772C109.589 111.472 110.649 111.132 111.969 110.672C113.169 110.252 113.589 109.912 113.589 109.352V109.212ZM122.469 116.572H107.309C106.709 116.572 106.429 116.112 106.429 115.512C106.429 114.952 106.709 114.492 107.309 114.492H122.469C123.069 114.492 123.349 114.952 123.349 115.512C123.349 116.112 123.069 116.572 122.469 116.572ZM109.349 117.772H119.469C120.749 117.772 121.169 118.172 121.169 119.432V120.892C121.169 122.152 120.749 122.552 119.469 122.552H111.349C111.149 122.552 111.049 122.652 111.049 122.852V123.212C111.049 123.412 111.149 123.512 111.349 123.512H120.749C121.309 123.512 121.569 123.992 121.569 124.492C121.569 125.012 121.309 125.472 120.749 125.472H110.269C108.989 125.472 108.569 125.072 108.569 123.812V122.332C108.569 121.072 108.989 120.672 110.269 120.672H118.389C118.589 120.672 118.689 120.572 118.689 120.372V120.032C118.689 119.832 118.589 119.732 118.389 119.732H109.349C108.789 119.732 108.529 119.272 108.529 118.752C108.529 118.252 108.789 117.772 109.349 117.772ZM131.212 110.272H126.492C125.872 110.272 125.592 109.772 125.592 109.192C125.592 108.592 125.872 108.092 126.492 108.092H132.512C133.792 108.092 134.212 108.492 134.212 109.752V111.972C134.212 115.352 133.292 116.512 127.212 120.232C126.652 120.572 125.972 120.272 125.652 119.792C125.332 119.312 125.272 118.552 125.852 118.192C131.332 114.872 131.672 114.272 131.672 111.892V110.732C131.672 110.392 131.552 110.272 131.212 110.272ZM139.952 107.812V123.132C139.952 123.872 139.332 124.212 138.652 124.212C137.992 124.212 137.372 123.872 137.372 123.132V107.812C137.372 107.072 137.992 106.732 138.652 106.732C139.332 106.732 139.952 107.072 139.952 107.812ZM148.075 112.092H156.975C157.595 112.092 157.875 112.592 157.875 113.172C157.875 113.752 157.595 114.252 156.975 114.252H146.735C145.455 114.252 145.035 113.852 145.035 112.592V108.272C145.035 107.532 145.655 107.192 146.335 107.192C146.995 107.192 147.615 107.532 147.615 108.272V111.632C147.615 111.972 147.735 112.092 148.075 112.092ZM158.855 118.132H143.735C143.115 118.132 142.835 117.632 142.835 117.052C142.835 116.472 143.115 115.972 143.735 115.972H158.855C159.475 115.972 159.755 116.472 159.755 117.052C159.755 117.632 159.475 118.132 158.855 118.132ZM148.035 123.052H157.015C157.635 123.052 157.915 123.552 157.915 124.132C157.915 124.712 157.635 125.212 157.015 125.212H146.695C145.415 125.212 144.995 124.812 144.995 123.552V120.452C144.995 119.712 145.615 119.372 146.295 119.372C146.955 119.372 147.575 119.712 147.575 120.452V122.592C147.575 122.932 147.695 123.052 148.035 123.052ZM169.358 111.652V108.872C169.358 108.132 169.978 107.792 170.638 107.792C171.298 107.792 171.918 108.132 171.918 108.872V111.652C171.918 113.252 172.238 114.312 173.078 115.352C173.698 116.132 174.358 116.852 174.818 117.352C175.258 117.832 175.118 118.572 174.698 118.952C174.258 119.352 173.538 119.392 173.098 118.932C172.778 118.592 172.218 117.972 171.738 117.392C170.918 116.412 170.738 115.972 170.658 115.572H170.638C170.558 116.032 170.378 116.492 169.538 117.492C169.058 118.072 168.498 118.692 167.918 119.312C167.478 119.772 166.718 119.692 166.318 119.292C165.858 118.852 165.738 118.132 166.198 117.632C166.918 116.852 167.578 116.132 168.198 115.352C169.038 114.312 169.358 113.252 169.358 111.652ZM177.978 107.932V112.752H179.578V107.732C179.578 107.052 180.158 106.732 180.758 106.732C181.358 106.732 181.938 107.052 181.938 107.732V123.212C181.938 123.892 181.358 124.212 180.758 124.212C180.158 124.212 179.578 123.892 179.578 123.212V114.912H177.978V122.372C177.978 123.052 177.398 123.372 176.798 123.372C176.218 123.372 175.638 123.052 175.638 122.372V107.932C175.638 107.252 176.218 106.932 176.798 106.932C177.398 106.932 177.978 107.252 177.978 107.932ZM200.262 122.572H185.142C184.522 122.572 184.242 122.072 184.242 121.492C184.242 120.912 184.522 120.412 185.142 120.412H191.422V117.712H188.162C186.882 117.712 186.462 117.312 186.462 116.052V113.352C186.462 112.092 186.882 111.692 188.162 111.692H195.922C196.262 111.692 196.382 111.572 196.382 111.232V110.392C196.382 110.052 196.262 109.932 195.922 109.932H187.322C186.702 109.932 186.422 109.432 186.422 108.852C186.422 108.272 186.702 107.772 187.322 107.772H197.202C198.482 107.772 198.902 108.172 198.902 109.432V112.112C198.902 113.372 198.482 113.772 197.202 113.772H189.442C189.102 113.772 188.982 113.892 188.982 114.232V115.092C188.982 115.432 189.102 115.552 189.442 115.552H198.402C199.022 115.552 199.302 116.052 199.302 116.632C199.302 117.212 199.022 117.712 198.402 117.712H193.982V120.412H200.262C200.882 120.412 201.162 120.912 201.162 121.492C201.162 122.072 200.882 122.572 200.262 122.572ZM204.645 110.932C204.645 108.392 207.005 107.192 210.905 107.192C214.805 107.192 217.165 108.392 217.165 110.932C217.165 113.472 214.805 114.672 210.905 114.672C207.005 114.672 204.645 113.472 204.645 110.932ZM214.625 110.932C214.625 109.932 213.565 109.292 210.905 109.292C208.245 109.292 207.185 109.932 207.185 110.932C207.185 111.932 208.245 112.572 210.905 112.572C213.565 112.572 214.625 111.932 214.625 110.932ZM209.905 118.052H203.345C202.725 118.052 202.445 117.552 202.445 116.992C202.445 116.412 202.725 115.912 203.345 115.912H218.465C219.085 115.912 219.365 116.412 219.365 116.992C219.365 117.552 219.085 118.052 218.465 118.052H212.445V120.412C212.445 121.092 211.885 121.392 211.165 121.392C210.465 121.392 209.905 121.092 209.905 120.412V118.052ZM207.645 123.052H216.625C217.245 123.052 217.525 123.552 217.525 124.132C217.525 124.712 217.245 125.212 216.625 125.212H206.305C205.025 125.212 204.605 124.812 204.605 123.552V120.452C204.605 119.712 205.225 119.372 205.905 119.372C206.565 119.372 207.185 119.712 207.185 120.452V122.592C207.185 122.932 207.305 123.052 207.645 123.052ZM227.828 119.552C226.548 119.552 226.128 119.152 226.128 117.892V109.112C226.128 108.372 226.748 108.032 227.408 108.032C228.088 108.032 228.708 108.372 228.708 109.112V116.912C228.708 117.252 228.828 117.372 229.168 117.372C230.188 117.372 231.868 117.292 233.148 117.112C233.748 117.032 234.108 117.452 234.168 118.052C234.228 118.652 234.028 119.172 233.448 119.272C232.588 119.412 230.648 119.552 227.828 119.552ZM239.188 123.212V107.732C239.188 107.052 239.768 106.732 240.368 106.732C240.968 106.732 241.548 107.052 241.548 107.732V123.212C241.548 123.892 240.968 124.212 240.368 124.212C239.768 124.212 239.188 123.892 239.188 123.212ZM235.428 122.372V114.272H232.648C232.028 114.272 231.748 113.772 231.748 113.192C231.748 112.592 232.028 112.092 232.648 112.092H235.428V107.932C235.428 107.252 236.008 106.932 236.608 106.932C237.188 106.932 237.768 107.252 237.768 107.932V122.372C237.768 123.052 237.188 123.372 236.608 123.372C236.008 123.372 235.428 123.052 235.428 122.372ZM248.511 110.472V111.832H257.451C258.071 111.832 258.351 112.332 258.351 112.872C258.351 113.412 258.071 113.912 257.451 113.912H248.511V115.292C248.511 115.632 248.631 115.752 248.971 115.752H257.951C258.571 115.752 258.851 116.252 258.851 116.832C258.851 117.412 258.571 117.912 257.951 117.912H247.711C246.431 117.912 246.011 117.512 246.011 116.252V109.512C246.011 108.252 246.431 107.852 247.711 107.852H257.651C258.271 107.852 258.551 108.352 258.551 108.932C258.551 109.512 258.271 110.012 257.651 110.012H248.971C248.631 110.012 248.511 110.132 248.511 110.472ZM259.871 122.572H244.751C244.131 122.572 243.851 122.072 243.851 121.492C243.851 120.892 244.131 120.392 244.751 120.392H259.871C260.491 120.392 260.771 120.892 260.771 121.492C260.771 122.072 260.491 122.572 259.871 122.572ZM268.334 114.912C265.094 114.912 263.434 113.372 263.434 111.092C263.434 108.812 265.094 107.272 268.334 107.272C271.574 107.272 273.234 108.812 273.234 111.092C273.234 113.372 271.574 114.912 268.334 114.912ZM268.334 109.372C266.634 109.372 265.854 110.032 265.854 111.092C265.854 112.152 266.634 112.812 268.334 112.812C270.034 112.812 270.814 112.152 270.814 111.092C270.814 110.032 270.034 109.372 268.334 109.372ZM275.194 123.132V121.052H272.514C271.914 121.052 271.634 120.572 271.634 119.992C271.634 119.412 271.914 118.932 272.514 118.932H275.194V107.812C275.194 107.072 275.814 106.732 276.474 106.732C277.114 106.732 277.734 107.072 277.734 107.812V123.132C277.734 123.872 277.114 124.212 276.474 124.212C275.814 124.212 275.194 123.872 275.194 123.132ZM263.174 116.032C266.574 116.032 270.074 115.992 273.434 115.692C274.054 115.632 274.374 116.052 274.414 116.632C274.454 117.192 274.234 117.732 273.634 117.792C272.454 117.912 270.994 117.992 269.434 118.052V122.932C269.434 123.672 268.814 124.012 268.174 124.012C267.534 124.012 266.914 123.672 266.914 122.932V118.132C265.674 118.172 264.414 118.172 263.174 118.172C262.554 118.172 262.274 117.672 262.274 117.092C262.274 116.532 262.554 116.032 263.174 116.032ZM287.037 109.832H282.317C281.697 109.832 281.417 109.332 281.417 108.792C281.417 108.212 281.697 107.712 282.317 107.712H288.257C289.537 107.712 289.957 108.112 289.957 109.372V111.452C289.957 114.152 289.117 115.132 282.797 117.792C282.177 118.052 281.597 117.752 281.337 117.192C281.117 116.712 281.097 115.992 281.797 115.712C285.317 114.272 286.677 113.652 287.177 113.092L281.897 113.472C281.297 113.512 280.977 113.032 280.937 112.432C280.897 111.912 281.137 111.352 281.757 111.332L287.497 111.152V110.292C287.497 109.952 287.377 109.832 287.037 109.832ZM295.577 107.812V116.792C295.577 117.532 294.957 117.872 294.297 117.872C293.637 117.872 293.017 117.532 293.017 116.792V107.812C293.017 107.072 293.637 106.732 294.297 106.732C294.957 106.732 295.577 107.072 295.577 107.812ZM283.637 121.812C283.637 119.252 285.897 117.992 289.637 117.992C293.377 117.992 295.637 119.252 295.637 121.812C295.637 124.372 293.377 125.632 289.637 125.632C285.897 125.632 283.637 124.372 283.637 121.812ZM293.097 121.812C293.097 120.752 292.137 120.032 289.637 120.032C287.137 120.032 286.177 120.752 286.177 121.812C286.177 122.872 287.137 123.592 289.637 123.592C292.137 123.592 293.097 122.872 293.097 121.812Z" fill="white"/>
<g opacity="0.8" filter="url(#filter0_g_605_1212)" style="mix-blend-mode:soft-light">
<path d="M87.8579 97.773C87.8579 97.773 71.3548 82.7524 63.3645 86.7239C53.6745 91.5568 52.5533 106.898 52.5533 106.898C52.5533 106.898 48.7951 88.4093 42.3059 85.524C35.8194 82.6499 15.847 88.0421 15.847 88.0421C15.847 88.0421 32.5232 73.7094 31.6304 63.748C30.6466 52.7838 11.2064 40.2219 11.2064 40.2219C11.2064 40.2219 32.6264 44.0199 38.0011 36.4205C43.3785 28.8321 42.2246 12.6668 42.2246 12.6668C42.2246 12.6668 50.6044 31.5969 62.6755 31.0263C74.7467 30.4557 83.7931 19.2999 83.7931 19.2999C83.7931 19.2999 70.8692 36.2652 76.9033 48.3679C81.4372 57.4547 103.357 58.5627 103.357 58.5627C103.357 58.5627 79.3898 62.8423 76.8181 70.7725C74.7392 77.1926 87.8356 97.7784 87.8356 97.7784L87.8579 97.773Z" fill="#FFF5ED"/>
</g>
<g opacity="0.8" filter="url(#filter1_g_605_1212)" style="mix-blend-mode:soft-light">
<path d="M251.172 20.4648C251.172 20.4648 258.69 22.0835 260.383 19.5167C262.434 16.399 260.112 11.6336 260.112 11.6336C260.112 11.6336 264.433 16.4921 266.866 16.2284C269.296 15.9618 274.314 10.8972 274.314 10.8972C274.314 10.8972 271.826 18.0552 273.817 20.8689C276.008 23.9657 283.976 24.3432 283.976 24.3432C283.976 24.3432 276.936 26.92 276.65 30.115C276.361 33.3071 279.504 37.9243 279.504 37.9243C279.504 37.9243 273.73 33.7343 270.231 35.9942C266.733 38.2541 265.969 43.1445 265.969 43.1445C265.969 43.1445 266.883 35.8517 262.989 33.29C260.065 31.3672 253.342 34.8321 253.342 34.8321C253.342 34.8321 259.743 29.4074 259.136 26.5991C258.644 24.3261 251.177 20.4594 251.177 20.4594L251.172 20.4648Z" fill="#FFF5ED"/>
</g>
<path d="M311 54.1851C312.167 51.6851 315.2 46.5851 318 46.1851" stroke="white" stroke-width="3" stroke-linecap="round"/>
<path d="M316.25 59.0013C318.749 57.8344 322 57.1849 324 57.1849" stroke="white" stroke-width="3" stroke-linecap="round"/>
<mask id="path-6-outside-1_605_1212" maskUnits="userSpaceOnUse" x="106" y="3" width="134" height="53" fill="black">
<rect fill="white" x="106" y="3" width="134" height="53"/>
<path d="M113.124 7.68H122.484C129.78 7.68 133.38 10.416 133.38 16.224V16.8C133.38 19.968 131.988 22.848 127.908 23.856C132.084 24.48 134.964 26.88 134.964 31.824V32.592C134.964 38.4 131.412 41.808 123.972 41.808H113.124C110.052 41.808 109.044 40.848 109.044 37.824V11.664C109.044 8.64 110.052 7.68 113.124 7.68ZM115.14 26.544V36.72H120.708C126.132 36.72 128.676 36.144 128.676 31.92V31.296C128.676 28.032 126.852 26.544 120.276 26.544H115.14ZM115.14 12.768V21.552H120.132C125.796 21.552 127.14 20.544 127.14 16.992V16.56C127.14 13.488 125.028 12.768 119.844 12.768H115.14ZM143.659 16.032C145.243 16.032 146.683 16.848 146.683 18.576V39.552C146.683 41.28 145.243 42.096 143.659 42.096C142.123 42.096 140.635 41.28 140.635 39.552V18.576C140.635 16.848 142.123 16.032 143.659 16.032ZM143.659 6.096C145.771 6.096 147.451 7.728 147.451 9.744C147.451 11.76 145.771 13.392 143.659 13.392C141.547 13.392 139.867 11.76 139.867 9.744C139.867 7.728 141.547 6.096 143.659 6.096ZM167.67 15.744C173.238 15.744 176.885 19.104 176.885 25.536V39.552C176.885 41.28 175.446 42.096 173.862 42.096C172.326 42.096 170.838 41.28 170.838 39.552V26.832C170.838 22.224 168.678 21.024 165.798 21.024C163.35 21.024 160.086 22.464 160.086 27.216V39.552C160.086 41.28 158.646 42.096 157.062 42.096C155.526 42.096 154.038 41.28 154.038 39.552V18.48C154.038 16.8 155.43 16.032 156.918 16.032C158.406 16.032 159.798 16.8 159.798 18.48V19.344H159.894C161.382 16.848 164.742 15.744 167.67 15.744ZM193.018 15.744C197.146 15.744 199.354 17.472 200.17 18.624H200.218V18.48C200.218 16.8 201.61 16.032 203.146 16.032C204.634 16.032 206.026 16.8 206.026 18.48V41.088C206.026 48.432 202.09 52.032 193.45 52.032C190.666 52.032 187.738 51.168 185.962 50.16C184.666 49.44 184.57 47.76 185.242 46.56C186.01 45.216 187.114 44.688 188.554 45.408C189.85 46.08 191.818 46.8 193.546 46.8C197.818 46.8 200.074 45.12 200.074 41.04V38.064H199.978C198.586 40.608 195.754 41.52 192.586 41.52C185.914 41.52 182.41 37.152 182.41 29.136V28.176C182.41 20.016 186.634 15.744 193.018 15.744ZM194.026 20.928C190.234 20.928 188.41 23.52 188.41 28.32V28.992C188.41 33.936 190.042 36.384 193.786 36.384C197.77 36.384 200.074 33.504 200.074 29.904V26.16C200.074 23.712 198.202 20.928 194.026 20.928ZM224.233 15.744C232.009 15.744 236.617 20.112 236.617 28.368V29.568C236.617 37.824 232.009 42.192 224.233 42.192C216.457 42.192 211.849 37.824 211.849 29.568V28.368C211.849 20.112 216.457 15.744 224.233 15.744ZM224.233 21.024C219.913 21.024 217.945 23.28 217.945 28.464V29.472C217.945 34.656 219.913 36.912 224.233 36.912C228.553 36.912 230.521 34.656 230.521 29.472V28.464C230.521 23.28 228.553 21.024 224.233 21.024Z"/>
</mask>
<path d="M113.124 7.68H122.484C129.78 7.68 133.38 10.416 133.38 16.224V16.8C133.38 19.968 131.988 22.848 127.908 23.856C132.084 24.48 134.964 26.88 134.964 31.824V32.592C134.964 38.4 131.412 41.808 123.972 41.808H113.124C110.052 41.808 109.044 40.848 109.044 37.824V11.664C109.044 8.64 110.052 7.68 113.124 7.68ZM115.14 26.544V36.72H120.708C126.132 36.72 128.676 36.144 128.676 31.92V31.296C128.676 28.032 126.852 26.544 120.276 26.544H115.14ZM115.14 12.768V21.552H120.132C125.796 21.552 127.14 20.544 127.14 16.992V16.56C127.14 13.488 125.028 12.768 119.844 12.768H115.14ZM143.659 16.032C145.243 16.032 146.683 16.848 146.683 18.576V39.552C146.683 41.28 145.243 42.096 143.659 42.096C142.123 42.096 140.635 41.28 140.635 39.552V18.576C140.635 16.848 142.123 16.032 143.659 16.032ZM143.659 6.096C145.771 6.096 147.451 7.728 147.451 9.744C147.451 11.76 145.771 13.392 143.659 13.392C141.547 13.392 139.867 11.76 139.867 9.744C139.867 7.728 141.547 6.096 143.659 6.096ZM167.67 15.744C173.238 15.744 176.885 19.104 176.885 25.536V39.552C176.885 41.28 175.446 42.096 173.862 42.096C172.326 42.096 170.838 41.28 170.838 39.552V26.832C170.838 22.224 168.678 21.024 165.798 21.024C163.35 21.024 160.086 22.464 160.086 27.216V39.552C160.086 41.28 158.646 42.096 157.062 42.096C155.526 42.096 154.038 41.28 154.038 39.552V18.48C154.038 16.8 155.43 16.032 156.918 16.032C158.406 16.032 159.798 16.8 159.798 18.48V19.344H159.894C161.382 16.848 164.742 15.744 167.67 15.744ZM193.018 15.744C197.146 15.744 199.354 17.472 200.17 18.624H200.218V18.48C200.218 16.8 201.61 16.032 203.146 16.032C204.634 16.032 206.026 16.8 206.026 18.48V41.088C206.026 48.432 202.09 52.032 193.45 52.032C190.666 52.032 187.738 51.168 185.962 50.16C184.666 49.44 184.57 47.76 185.242 46.56C186.01 45.216 187.114 44.688 188.554 45.408C189.85 46.08 191.818 46.8 193.546 46.8C197.818 46.8 200.074 45.12 200.074 41.04V38.064H199.978C198.586 40.608 195.754 41.52 192.586 41.52C185.914 41.52 182.41 37.152 182.41 29.136V28.176C182.41 20.016 186.634 15.744 193.018 15.744ZM194.026 20.928C190.234 20.928 188.41 23.52 188.41 28.32V28.992C188.41 33.936 190.042 36.384 193.786 36.384C197.77 36.384 200.074 33.504 200.074 29.904V26.16C200.074 23.712 198.202 20.928 194.026 20.928ZM224.233 15.744C232.009 15.744 236.617 20.112 236.617 28.368V29.568C236.617 37.824 232.009 42.192 224.233 42.192C216.457 42.192 211.849 37.824 211.849 29.568V28.368C211.849 20.112 216.457 15.744 224.233 15.744ZM224.233 21.024C219.913 21.024 217.945 23.28 217.945 28.464V29.472C217.945 34.656 219.913 36.912 224.233 36.912C228.553 36.912 230.521 34.656 230.521 29.472V28.464C230.521 23.28 228.553 21.024 224.233 21.024Z" fill="#4FC399"/>
<path d="M127.908 23.856L127.189 20.9436L127.465 26.8231L127.908 23.856ZM115.14 26.544V23.544H112.14V26.544H115.14ZM115.14 36.72H112.14V39.72H115.14V36.72ZM115.14 12.768V9.768H112.14V12.768H115.14ZM115.14 21.552H112.14V24.552H115.14V21.552ZM113.124 7.68V10.68H122.484V7.68V4.68H113.124V7.68ZM122.484 7.68V10.68C125.849 10.68 127.779 11.3273 128.826 12.1416C129.72 12.8376 130.38 13.9793 130.38 16.224H133.38H136.38C136.38 12.6607 135.24 9.53036 132.511 7.40636C129.933 5.40067 126.416 4.68 122.484 4.68V7.68ZM133.38 16.224H130.38V16.8H133.38H136.38V16.224H133.38ZM133.38 16.8H130.38C130.38 17.9656 130.123 18.8289 129.706 19.4328C129.321 19.9895 128.623 20.5893 127.189 20.9436L127.908 23.856L128.628 26.7684C131.274 26.1147 133.311 24.7705 134.643 22.8431C135.941 20.9631 136.38 18.8024 136.38 16.8H133.38ZM127.908 23.856L127.465 26.8231C129.123 27.0708 130.191 27.6221 130.836 28.2957C131.44 28.926 131.964 29.9631 131.964 31.824H134.964H137.964C137.964 28.7409 137.048 26.106 135.168 24.1443C133.33 22.2259 130.87 21.2652 128.352 20.8889L127.908 23.856ZM134.964 31.824H131.964V32.592H134.964H137.964V31.824H134.964ZM134.964 32.592H131.964C131.964 34.8656 131.292 36.2441 130.292 37.1124C129.219 38.0432 127.288 38.808 123.972 38.808V41.808V44.808C128.097 44.808 131.661 43.8688 134.225 41.6436C136.86 39.3559 137.964 36.1264 137.964 32.592H134.964ZM123.972 41.808V38.808H113.124V41.808V44.808H123.972V41.808ZM113.124 41.808V38.808C112.487 38.808 112.13 38.7554 111.948 38.7078C111.792 38.6673 111.882 38.662 112.023 38.7985C112.167 38.9389 112.175 39.0439 112.141 38.9226C112.099 38.7685 112.044 38.4392 112.044 37.824H109.044H106.044C106.044 39.4966 106.283 41.5867 107.842 43.1015C109.376 44.5921 111.46 44.808 113.124 44.808V41.808ZM109.044 37.824H112.044V11.664H109.044H106.044V37.824H109.044ZM109.044 11.664H112.044C112.044 11.0488 112.099 10.7195 112.141 10.5654C112.175 10.4441 112.167 10.5491 112.023 10.6895C111.882 10.826 111.792 10.8207 111.948 10.7802C112.13 10.7326 112.487 10.68 113.124 10.68V7.68V4.68C111.46 4.68 109.376 4.89589 107.842 6.38645C106.283 7.90134 106.044 9.99137 106.044 11.664H109.044ZM115.14 26.544H112.14V36.72H115.14H118.14V26.544H115.14ZM115.14 36.72V39.72H120.708V36.72V33.72H115.14V36.72ZM120.708 36.72V39.72C123.298 39.72 126.032 39.6288 128.092 38.575C129.266 37.9749 130.243 37.0645 130.879 35.7912C131.481 34.5842 131.676 33.2491 131.676 31.92H128.676H125.676C125.676 32.7029 125.554 33.0238 125.509 33.1128C125.498 33.1355 125.501 33.1611 125.36 33.233C125.149 33.3409 124.717 33.4855 123.885 33.5853C123.065 33.6835 122.033 33.72 120.708 33.72V36.72ZM128.676 31.92H131.676V31.296H128.676H125.676V31.92H128.676ZM128.676 31.296H131.676C131.676 30.2218 131.53 29.05 131.017 27.9287C130.48 26.7555 129.625 25.8189 128.505 25.1353C126.461 23.8878 123.617 23.544 120.276 23.544V26.544V29.544C123.512 29.544 124.867 29.9442 125.379 30.2567C125.537 30.3531 125.549 30.4005 125.56 30.4243C125.595 30.5 125.676 30.7383 125.676 31.296H128.676ZM120.276 26.544V23.544H115.14V26.544V29.544H120.276V26.544ZM115.14 12.768H112.14V21.552H115.14H118.14V12.768H115.14ZM115.14 21.552V24.552H120.132V21.552V18.552H115.14V21.552ZM120.132 21.552V24.552C121.614 24.552 122.944 24.4878 124.098 24.3001C125.242 24.1141 126.408 23.7775 127.424 23.1001C129.774 21.5337 130.14 19.0274 130.14 16.992H127.14H124.14C124.14 17.7331 124.064 18.0634 124.02 18.1841C124.005 18.2259 124.005 18.2099 124.036 18.17C124.068 18.128 124.097 18.107 124.096 18.1078C124.068 18.1265 123.836 18.2639 123.135 18.3779C122.444 18.4902 121.483 18.552 120.132 18.552V21.552ZM127.14 16.992H130.14V16.56H127.14H124.14V16.992H127.14ZM127.14 16.56H130.14C130.14 15.4655 129.954 14.2933 129.348 13.2086C128.719 12.082 127.783 11.3104 126.734 10.807C124.865 9.91105 122.388 9.768 119.844 9.768V12.768V15.768C121.087 15.768 122.051 15.8121 122.8 15.9055C123.565 16.0008 123.959 16.1308 124.139 16.217C124.265 16.2776 124.181 16.262 124.11 16.1344C124.062 16.0487 124.14 16.1185 124.14 16.56H127.14ZM119.844 12.768V9.768H115.14V12.768V15.768H119.844V12.768ZM143.659 16.032V19.032C143.802 19.032 143.906 19.051 143.966 19.0683C144.026 19.0858 144.014 19.093 143.961 19.0529C143.9 19.0072 143.814 18.92 143.75 18.7911C143.684 18.6606 143.683 18.5708 143.683 18.576H146.683H149.683C149.683 16.7657 148.877 15.2436 147.569 14.2591C146.361 13.3501 144.918 13.032 143.659 13.032V16.032ZM146.683 18.576H143.683V39.552H146.683H149.683V18.576H146.683ZM146.683 39.552H143.683C143.683 39.5572 143.684 39.4674 143.75 39.3369C143.814 39.208 143.9 39.1208 143.961 39.0751C144.014 39.035 144.026 39.0422 143.966 39.0597C143.906 39.077 143.802 39.096 143.659 39.096V42.096V45.096C144.918 45.096 146.361 44.7779 147.569 43.8689C148.877 42.8844 149.683 41.3623 149.683 39.552H146.683ZM143.659 42.096V39.096C143.535 39.096 143.438 39.079 143.377 39.0611C143.314 39.0429 143.318 39.0329 143.362 39.0659C143.413 39.1038 143.496 39.1842 143.562 39.3118C143.593 39.3724 143.612 39.4296 143.623 39.4773C143.629 39.5004 143.632 39.519 143.633 39.5322C143.635 39.5454 143.635 39.5522 143.635 39.552H140.635H137.635C137.635 41.3978 138.482 42.9126 139.779 43.8781C140.978 44.771 142.408 45.096 143.659 45.096V42.096ZM140.635 39.552H143.635V18.576H140.635H137.635V39.552H140.635ZM140.635 18.576H143.635C143.635 18.5757 143.635 18.5826 143.633 18.5958C143.632 18.609 143.629 18.6276 143.623 18.6507C143.612 18.6984 143.593 18.7556 143.562 18.8162C143.496 18.9438 143.413 19.0242 143.362 19.0621C143.318 19.0951 143.314 19.0851 143.377 19.0669C143.438 19.049 143.535 19.032 143.659 19.032V16.032V13.032C142.408 13.032 140.978 13.357 139.779 14.2499C138.482 15.2154 137.635 16.7302 137.635 18.576H140.635ZM143.659 6.096V9.096C144.216 9.096 144.451 9.48495 144.451 9.744H147.451H150.451C150.451 5.97104 147.326 3.096 143.659 3.096V6.096ZM147.451 9.744H144.451C144.451 10.003 144.216 10.392 143.659 10.392V13.392V16.392C147.326 16.392 150.451 13.5169 150.451 9.744H147.451ZM143.659 13.392V10.392C143.102 10.392 142.867 10.003 142.867 9.744H139.867H136.867C136.867 13.5169 139.992 16.392 143.659 16.392V13.392ZM139.867 9.744H142.867C142.867 9.48495 143.102 9.096 143.659 9.096V6.096V3.096C139.992 3.096 136.867 5.97105 136.867 9.744H139.867ZM159.798 19.344H156.798V22.344H159.798V19.344ZM159.894 19.344V22.344H161.598L162.47 20.8802L159.894 19.344ZM167.67 15.744V18.744C169.849 18.744 171.305 19.3893 172.221 20.3257C173.142 21.2672 173.885 22.8803 173.885 25.536H176.885H179.885C179.885 21.7597 178.805 18.4768 176.51 16.1303C174.21 13.7787 171.058 12.744 167.67 12.744V15.744ZM176.885 25.536H173.885V39.552H176.885H179.885V25.536H176.885ZM176.885 39.552H173.885C173.885 39.5572 173.887 39.4674 173.952 39.3369C174.017 39.208 174.103 39.1208 174.163 39.0751C174.217 39.035 174.229 39.0422 174.169 39.0597C174.109 39.077 174.005 39.096 173.862 39.096V42.096V45.096C175.121 45.096 176.564 44.7779 177.772 43.8689C179.08 42.8844 179.885 41.3623 179.885 39.552H176.885ZM173.862 42.096V39.096C173.738 39.096 173.641 39.079 173.58 39.0611C173.517 39.0429 173.521 39.0329 173.565 39.0659C173.616 39.1038 173.699 39.1842 173.765 39.3118C173.796 39.3724 173.815 39.4296 173.826 39.4773C173.832 39.5004 173.835 39.519 173.836 39.5322C173.838 39.5454 173.838 39.5522 173.838 39.552H170.838H167.838C167.838 41.3978 168.685 42.9126 169.982 43.8781C171.181 44.771 172.611 45.096 173.862 45.096V42.096ZM170.838 39.552H173.838V26.832H170.838H167.838V39.552H170.838ZM170.838 26.832H173.838C173.838 24.1231 173.207 21.7217 171.49 20.0502C169.78 18.3858 167.582 18.024 165.798 18.024V21.024V24.024C166.893 24.024 167.215 24.2622 167.305 24.3498C167.388 24.4303 167.838 24.9329 167.838 26.832H170.838ZM165.798 21.024V18.024C164.046 18.024 161.87 18.5304 160.08 20.0525C158.196 21.6545 157.085 24.088 157.085 27.216H160.086H163.086C163.086 25.592 163.607 24.9295 163.967 24.6235C164.421 24.2376 165.101 24.024 165.798 24.024V21.024ZM160.086 27.216H157.085V39.552H160.086H163.086V27.216H160.086ZM160.086 39.552H157.085C157.085 39.5572 157.087 39.4674 157.152 39.3369C157.217 39.208 157.303 39.1208 157.363 39.0751C157.417 39.035 157.429 39.0422 157.369 39.0597C157.309 39.077 157.205 39.096 157.062 39.096V42.096V45.096C158.321 45.096 159.764 44.7779 160.972 43.8689C162.28 42.8844 163.086 41.3623 163.086 39.552H160.086ZM157.062 42.096V39.096C156.938 39.096 156.841 39.079 156.78 39.0611C156.717 39.0429 156.721 39.0329 156.765 39.0659C156.816 39.1038 156.899 39.1842 156.965 39.3118C156.996 39.3724 157.015 39.4296 157.026 39.4773C157.032 39.5004 157.035 39.519 157.036 39.5322C157.038 39.5454 157.037 39.5522 157.037 39.552H154.037H151.037C151.037 41.3978 151.885 42.9126 153.182 43.8781C154.381 44.771 155.811 45.096 157.062 45.096V42.096ZM154.037 39.552H157.037V18.48H154.037H151.037V39.552H154.037ZM154.037 18.48H157.037C157.037 18.478 157.038 18.5042 157.027 18.552C157.016 18.6006 156.996 18.6614 156.963 18.7278C156.892 18.8688 156.797 18.9674 156.724 19.0228C156.658 19.0723 156.63 19.0725 156.673 19.0602C156.715 19.0479 156.798 19.032 156.917 19.032V16.032V13.032C155.707 13.032 154.299 13.3378 153.115 14.2292C151.828 15.1982 151.037 16.698 151.037 18.48H154.037ZM156.917 16.032V19.032C157.037 19.032 157.119 19.0479 157.162 19.0602C157.205 19.0725 157.177 19.0723 157.111 19.0228C157.038 18.9674 156.943 18.8688 156.872 18.7278C156.839 18.6614 156.819 18.6006 156.808 18.552C156.797 18.5042 156.798 18.478 156.798 18.48H159.798H162.798C162.798 16.698 162.007 15.1982 160.72 14.2292C159.536 13.3378 158.128 13.032 156.917 13.032V16.032ZM159.798 18.48H156.798V19.344H159.798H162.798V18.48H159.798ZM159.798 19.344V22.344H159.894V19.344V16.344H159.798V19.344ZM159.894 19.344L162.47 20.8802C163.171 19.7054 165.206 18.744 167.67 18.744V15.744V12.744C164.277 12.744 159.592 13.9906 157.317 17.8078L159.894 19.344ZM200.17 18.624L197.722 20.358L198.619 21.624H200.17V18.624ZM200.218 18.624V21.624H203.218V18.624H200.218ZM185.962 50.16L187.443 47.5509L187.431 47.5442L187.419 47.5375L185.962 50.16ZM185.242 46.56L182.637 45.0716L182.631 45.0829L182.624 45.0942L185.242 46.56ZM188.554 45.408L189.935 42.7447L189.915 42.7346L189.896 42.7247L188.554 45.408ZM200.074 38.064H203.074V35.064H200.074V38.064ZM199.978 38.064V35.064H198.2L197.346 36.624L199.978 38.064ZM193.018 15.744V18.744C196.264 18.744 197.519 20.0713 197.722 20.358L200.17 18.624L202.618 16.8899C201.189 14.8727 198.028 12.744 193.018 12.744V15.744ZM200.17 18.624V21.624H200.218V18.624V15.624H200.17V18.624ZM200.218 18.624H203.218V18.48H200.218H197.218V18.624H200.218ZM200.218 18.48H203.218C203.218 18.4779 203.218 18.5047 203.207 18.5535C203.196 18.603 203.175 18.6651 203.141 18.733C203.069 18.8774 202.971 18.9773 202.897 19.0324C202.832 19.0814 202.807 19.0791 202.859 19.0645C202.91 19.0499 203.007 19.032 203.146 19.032V16.032V13.032C201.929 13.032 200.51 13.3296 199.315 14.2196C198.011 15.1899 197.218 16.6956 197.218 18.48H200.218ZM203.146 16.032V19.032C203.265 19.032 203.348 19.0479 203.39 19.0602C203.433 19.0725 203.406 19.0723 203.34 19.0228C203.266 18.9674 203.171 18.8688 203.101 18.7278C203.068 18.6614 203.048 18.6006 203.037 18.552C203.026 18.5042 203.026 18.478 203.026 18.48H206.026H209.026C209.026 16.698 208.235 15.1982 206.948 14.2292C205.764 13.3378 204.357 13.032 203.146 13.032V16.032ZM206.026 18.48H203.026V41.088H206.026H209.026V18.48H206.026ZM206.026 41.088H203.026C203.026 44.2387 202.195 46.0061 200.995 47.0628C199.716 48.1898 197.433 49.032 193.45 49.032V52.032V55.032C198.107 55.032 202.112 54.0742 204.961 51.5652C207.889 48.9859 209.026 45.2813 209.026 41.088H206.026ZM193.45 52.032V49.032C191.18 49.032 188.763 48.3002 187.443 47.5509L185.962 50.16L184.481 52.7691C186.713 54.0358 190.152 55.032 193.45 55.032V52.032ZM185.962 50.16L187.419 47.5375C187.528 47.5979 187.639 47.6983 187.722 47.8251C187.799 47.9434 187.822 48.04 187.829 48.0818C187.835 48.121 187.829 48.1246 187.834 48.097C187.839 48.0699 187.85 48.043 187.86 48.0258L185.242 46.56L182.624 45.0942C181.987 46.2322 181.687 47.6252 181.899 48.9982C182.121 50.4321 182.93 51.9073 184.505 52.7825L185.962 50.16ZM185.242 46.56L187.847 48.0484C187.931 47.9016 187.98 47.8553 187.971 47.8639C187.957 47.8774 187.873 47.9528 187.713 48.0139C187.543 48.0785 187.375 48.0936 187.248 48.0813C187.135 48.0703 187.118 48.044 187.212 48.0913L188.554 45.408L189.896 42.7247C188.616 42.0847 187.095 41.8295 185.579 42.4061C184.149 42.9501 183.221 44.0496 182.637 45.0716L185.242 46.56ZM188.554 45.408L187.173 48.0713C188.67 48.8476 191.135 49.8 193.546 49.8V46.8V43.8C192.501 43.8 191.03 43.3124 189.935 42.7447L188.554 45.408ZM193.546 46.8V49.8C195.986 49.8 198.466 49.3357 200.351 47.7392C202.341 46.0539 203.074 43.6281 203.074 41.04H200.074H197.074C197.074 42.5319 196.679 42.9861 196.473 43.1608C196.162 43.4243 195.378 43.8 193.546 43.8V46.8ZM200.074 41.04H203.074V38.064H200.074H197.074V41.04H200.074ZM200.074 38.064V35.064H199.978V38.064V41.064H200.074V38.064ZM199.978 38.064L197.346 36.624C196.74 37.7313 195.334 38.52 192.586 38.52V41.52V44.52C196.174 44.52 200.432 43.4847 202.61 39.504L199.978 38.064ZM192.586 41.52V38.52C189.949 38.52 188.344 37.6903 187.32 36.4365C186.212 35.08 185.41 32.768 185.41 29.136H182.41H179.41C179.41 33.52 180.36 37.4 182.672 40.2315C185.068 43.1657 188.551 44.52 192.586 44.52V41.52ZM182.41 29.136H185.41V28.176H182.41H179.41V29.136H182.41ZM182.41 28.176H185.41C185.41 24.5871 186.337 22.2729 187.563 20.8919C188.75 19.5549 190.525 18.744 193.018 18.744V15.744V12.744C189.127 12.744 185.598 14.0691 183.077 16.9081C180.595 19.7031 179.41 23.6049 179.41 28.176H182.41ZM194.026 20.928V17.928C191.374 17.928 188.992 18.8824 187.39 21.0314C185.908 23.0205 185.41 25.6228 185.41 28.32H188.41H191.41C191.41 26.2172 191.824 25.1235 192.202 24.6166C192.46 24.2696 192.886 23.928 194.026 23.928V20.928ZM188.41 28.32H185.41V28.992H188.41H191.41V28.32H188.41ZM188.41 28.992H185.41C185.41 31.6861 185.834 34.2934 187.25 36.2823C188.818 38.4833 191.189 39.384 193.786 39.384V36.384V33.384C192.639 33.384 192.322 33.0607 192.138 32.8017C191.802 32.3306 191.41 31.2419 191.41 28.992H188.41ZM193.786 36.384V39.384C196.546 39.384 198.945 38.3629 200.634 36.5227C202.292 34.7164 203.074 32.3348 203.074 29.904H200.074H197.074C197.074 31.0732 196.704 31.9316 196.214 32.4653C195.755 32.9651 195.01 33.384 193.786 33.384V36.384ZM200.074 29.904H203.074V26.16H200.074H197.074V29.904H200.074ZM200.074 26.16H203.074C203.074 24.1953 202.328 22.1147 200.75 20.5175C199.132 18.8795 196.819 17.928 194.026 17.928V20.928V23.928C195.409 23.928 196.12 24.3685 196.482 24.7345C196.884 25.1413 197.074 25.6767 197.074 26.16H200.074ZM224.233 15.744V18.744C227.571 18.744 229.811 19.6727 231.219 21.0813C232.627 22.4886 233.617 24.7874 233.617 28.368H236.617H239.617C239.617 23.6926 238.303 19.6794 235.462 16.8387C232.623 13.9993 228.671 12.744 224.233 12.744V15.744ZM236.617 28.368H233.617V29.568H236.617H239.617V28.368H236.617ZM236.617 29.568H233.617C233.617 33.1486 232.627 35.4474 231.219 36.8547C229.811 38.2633 227.571 39.192 224.233 39.192V42.192V45.192C228.671 45.192 232.623 43.9367 235.462 41.0973C238.303 38.2566 239.617 34.2434 239.617 29.568H236.617ZM224.233 42.192V39.192C220.895 39.192 218.655 38.2633 217.246 36.8547C215.839 35.4474 214.849 33.1486 214.849 29.568H211.849H208.849C208.849 34.2434 210.163 38.2566 213.003 41.0973C215.843 43.9367 219.795 45.192 224.233 45.192V42.192ZM211.849 29.568H214.849V28.368H211.849H208.849V29.568H211.849ZM211.849 28.368H214.849C214.849 24.7874 215.839 22.4886 217.246 21.0813C218.655 19.6727 220.895 18.744 224.233 18.744V15.744V12.744C219.795 12.744 215.843 13.9993 213.003 16.8387C210.163 19.6794 208.849 23.6926 208.849 28.368H211.849ZM224.233 21.024V18.024C221.571 18.024 218.992 18.7317 217.184 20.8551C215.471 22.8679 214.945 25.5939 214.945 28.464H217.945H220.945C220.945 26.1501 221.403 25.1561 221.753 24.7449C222.009 24.4443 222.575 24.024 224.233 24.024V21.024ZM217.945 28.464H214.945V29.472H217.945H220.945V28.464H217.945ZM217.945 29.472H214.945C214.945 32.3421 215.471 35.0681 217.184 37.0809C218.992 39.2043 221.571 39.912 224.233 39.912V36.912V33.912C222.575 33.912 222.009 33.4917 221.753 33.1911C221.403 32.7799 220.945 31.7859 220.945 29.472H217.945ZM224.233 36.912V39.912C226.895 39.912 229.473 39.2043 231.281 37.0809C232.995 35.0681 233.521 32.3421 233.521 29.472H230.521H227.521C227.521 31.7859 227.063 32.7799 226.712 33.1911C226.456 33.4917 225.891 33.912 224.233 33.912V36.912ZM230.521 29.472H233.521V28.464H230.521H227.521V29.472H230.521ZM230.521 28.464H233.521C233.521 25.5939 232.995 22.8679 231.281 20.8551C229.473 18.7317 226.895 18.024 224.233 18.024V21.024V24.024C225.891 24.024 226.456 24.4443 226.712 24.7449C227.063 25.1561 227.521 26.1501 227.521 28.464H230.521Z" fill="white" mask="url(#path-6-outside-1_605_1212)"/>
<mask id="path-8-outside-2_605_1212" maskUnits="userSpaceOnUse" x="39" y="51" width="266" height="49" fill="black">
<rect fill="white" x="39" y="51" width="266" height="49"/>
<path d="M64.3021 53.392C65.7421 53.392 67.1341 54.16 67.1341 55.888V83.92C67.1341 86.944 66.1261 87.904 63.0541 87.904C60.7021 87.904 59.7901 87.424 57.3421 83.056L48.2701 66.832C47.3101 65.104 46.5421 63.472 45.9661 61.312V85.6C45.9661 87.328 44.5741 88.096 43.1341 88.096C41.6941 88.096 40.3021 87.328 40.3021 85.6V57.568C40.3021 54.544 41.3101 53.584 44.3821 53.584C46.7341 53.584 47.6461 54.112 50.0941 58.432L59.1661 74.656C60.1261 76.384 60.8941 78.016 61.4701 80.176V55.888C61.4701 54.16 62.8621 53.392 64.3021 53.392ZM85.1678 66.736C81.1358 66.736 79.1198 69.088 79.1198 72.352V72.688H91.0238V72.208C91.0238 69.088 89.3918 66.736 85.1678 66.736ZM85.2638 61.744C92.1278 61.744 96.8318 65.872 96.8318 73.12V73.216C96.8318 76.24 95.8238 77.2 92.7518 77.2H79.1198V77.296C79.1198 80.704 81.2798 83.152 85.5518 83.152C88.2398 83.152 90.0638 82.768 92.1758 81.808C93.4718 81.232 94.8158 81.664 95.3918 83.008C95.9678 84.352 95.6318 85.744 94.3838 86.368C91.9838 87.568 89.1998 88.192 85.3118 88.192C77.6798 88.192 73.2158 83.968 73.2158 75.616V74.368C73.2158 66.064 77.7758 61.744 85.2638 61.744ZM107.249 55.264C108.833 55.264 110.273 56.08 110.273 57.856V62.32H115.313C116.753 62.32 117.425 63.472 117.425 64.816C117.425 66.16 116.753 67.312 115.313 67.312H110.273V79.984C110.273 82.096 110.993 83.056 112.625 83.056C113.393 83.056 114.017 82.96 114.833 82.672C115.841 82.336 117.041 82.72 117.521 84.256C117.953 85.6 117.521 86.848 116.321 87.376C115.169 87.904 113.633 88.192 112.097 88.192C106.385 88.192 104.225 85.312 104.225 79.696V67.312H101.825C100.385 67.312 99.7133 66.16 99.7133 64.816C99.7133 63.472 100.385 62.32 101.825 62.32H104.225V57.856C104.225 56.08 105.665 55.264 107.249 55.264ZM137.829 62.032C139.221 62.032 140.757 62.8 141.285 64.96L145.221 81.856H145.413L149.205 64.288C149.637 62.224 151.221 61.792 152.757 62.128C154.437 62.512 155.301 63.76 154.821 65.68L149.925 84.832C149.301 87.184 147.909 88.096 145.653 88.096C143.397 88.096 141.957 87.136 141.381 84.88L137.781 70.144H137.589L133.941 84.88C133.365 87.136 131.925 88.096 129.669 88.096C127.413 88.096 125.973 87.136 125.397 84.88L120.501 65.824C120.021 63.904 120.933 62.512 122.709 62.128C124.341 61.792 126.069 62.224 126.501 64.432L129.957 81.856H130.149L134.277 65.056C134.805 62.8 136.389 62.032 137.829 62.032ZM171.053 61.744C178.829 61.744 183.437 66.112 183.437 74.368V75.568C183.437 83.824 178.829 88.192 171.053 88.192C163.277 88.192 158.669 83.824 158.669 75.568V74.368C158.669 66.112 163.277 61.744 171.053 61.744ZM171.053 67.024C166.733 67.024 164.765 69.28 164.765 74.464V75.472C164.765 80.656 166.733 82.912 171.053 82.912C175.373 82.912 177.341 80.656 177.341 75.472V74.464C177.341 69.28 175.373 67.024 171.053 67.024ZM202.08 61.744C203.184 61.744 204.096 61.936 204.672 62.272C205.824 62.896 206.16 63.952 205.92 65.296C205.584 67.072 204.336 68.176 202.896 67.888C202.08 67.744 201.312 67.504 200.496 67.504C197.568 67.504 195.312 69.904 195.312 73.12V85.552C195.312 87.28 193.872 88.096 192.288 88.096C190.752 88.096 189.264 87.28 189.264 85.552V64.48C189.264 62.8 190.656 62.032 192.144 62.032C193.68 62.032 195.072 62.8 195.072 64.48V66.16H195.168C196.512 63.52 199.104 61.744 202.08 61.744ZM213.522 52.192C215.106 52.192 216.546 53.008 216.546 54.736V73.072L226.866 62.896C228.066 61.696 229.986 61.84 231.042 62.992C232.146 64.24 232.194 65.872 230.946 66.976L223.842 73.408L232.194 83.248C233.346 84.592 232.962 86.272 231.762 87.28C230.466 88.384 228.594 88.432 227.538 87.088L219.522 77.152L216.546 79.84V85.552C216.546 87.28 215.106 88.096 213.522 88.096C211.986 88.096 210.498 87.28 210.498 85.552V54.736C210.498 53.008 211.986 52.192 213.522 52.192ZM241.604 62.032C243.188 62.032 244.628 62.848 244.628 64.576V85.552C244.628 87.28 243.188 88.096 241.604 88.096C240.068 88.096 238.58 87.28 238.58 85.552V64.576C238.58 62.848 240.068 62.032 241.604 62.032ZM241.604 52.096C243.716 52.096 245.396 53.728 245.396 55.744C245.396 57.76 243.716 59.392 241.604 59.392C239.492 59.392 237.812 57.76 237.812 55.744C237.812 53.728 239.492 52.096 241.604 52.096ZM265.615 61.744C271.183 61.744 274.831 65.104 274.831 71.536V85.552C274.831 87.28 273.391 88.096 271.807 88.096C270.271 88.096 268.783 87.28 268.783 85.552V72.832C268.783 68.224 266.623 67.024 263.743 67.024C261.295 67.024 258.031 68.464 258.031 73.216V85.552C258.031 87.28 256.591 88.096 255.007 88.096C253.471 88.096 251.983 87.28 251.983 85.552V64.48C251.983 62.8 253.375 62.032 254.863 62.032C256.351 62.032 257.743 62.8 257.743 64.48V65.344H257.839C259.327 62.848 262.687 61.744 265.615 61.744ZM290.963 61.744C295.091 61.744 297.299 63.472 298.115 64.624H298.163V64.48C298.163 62.8 299.555 62.032 301.091 62.032C302.579 62.032 303.971 62.8 303.971 64.48V87.088C303.971 94.432 300.035 98.032 291.395 98.032C288.611 98.032 285.683 97.168 283.907 96.16C282.611 95.44 282.515 93.76 283.187 92.56C283.955 91.216 285.059 90.688 286.499 91.408C287.795 92.08 289.763 92.8 291.491 92.8C295.763 92.8 298.019 91.12 298.019 87.04V84.064H297.923C296.531 86.608 293.699 87.52 290.531 87.52C283.859 87.52 280.355 83.152 280.355 75.136V74.176C280.355 66.016 284.579 61.744 290.963 61.744ZM291.971 66.928C288.179 66.928 286.355 69.52 286.355 74.32V74.992C286.355 79.936 287.987 82.384 291.731 82.384C295.715 82.384 298.019 79.504 298.019 75.904V72.16C298.019 69.712 296.147 66.928 291.971 66.928Z"/>
</mask>
<path d="M64.3021 53.392C65.7421 53.392 67.1341 54.16 67.1341 55.888V83.92C67.1341 86.944 66.1261 87.904 63.0541 87.904C60.7021 87.904 59.7901 87.424 57.3421 83.056L48.2701 66.832C47.3101 65.104 46.5421 63.472 45.9661 61.312V85.6C45.9661 87.328 44.5741 88.096 43.1341 88.096C41.6941 88.096 40.3021 87.328 40.3021 85.6V57.568C40.3021 54.544 41.3101 53.584 44.3821 53.584C46.7341 53.584 47.6461 54.112 50.0941 58.432L59.1661 74.656C60.1261 76.384 60.8941 78.016 61.4701 80.176V55.888C61.4701 54.16 62.8621 53.392 64.3021 53.392ZM85.1678 66.736C81.1358 66.736 79.1198 69.088 79.1198 72.352V72.688H91.0238V72.208C91.0238 69.088 89.3918 66.736 85.1678 66.736ZM85.2638 61.744C92.1278 61.744 96.8318 65.872 96.8318 73.12V73.216C96.8318 76.24 95.8238 77.2 92.7518 77.2H79.1198V77.296C79.1198 80.704 81.2798 83.152 85.5518 83.152C88.2398 83.152 90.0638 82.768 92.1758 81.808C93.4718 81.232 94.8158 81.664 95.3918 83.008C95.9678 84.352 95.6318 85.744 94.3838 86.368C91.9838 87.568 89.1998 88.192 85.3118 88.192C77.6798 88.192 73.2158 83.968 73.2158 75.616V74.368C73.2158 66.064 77.7758 61.744 85.2638 61.744ZM107.249 55.264C108.833 55.264 110.273 56.08 110.273 57.856V62.32H115.313C116.753 62.32 117.425 63.472 117.425 64.816C117.425 66.16 116.753 67.312 115.313 67.312H110.273V79.984C110.273 82.096 110.993 83.056 112.625 83.056C113.393 83.056 114.017 82.96 114.833 82.672C115.841 82.336 117.041 82.72 117.521 84.256C117.953 85.6 117.521 86.848 116.321 87.376C115.169 87.904 113.633 88.192 112.097 88.192C106.385 88.192 104.225 85.312 104.225 79.696V67.312H101.825C100.385 67.312 99.7133 66.16 99.7133 64.816C99.7133 63.472 100.385 62.32 101.825 62.32H104.225V57.856C104.225 56.08 105.665 55.264 107.249 55.264ZM137.829 62.032C139.221 62.032 140.757 62.8 141.285 64.96L145.221 81.856H145.413L149.205 64.288C149.637 62.224 151.221 61.792 152.757 62.128C154.437 62.512 155.301 63.76 154.821 65.68L149.925 84.832C149.301 87.184 147.909 88.096 145.653 88.096C143.397 88.096 141.957 87.136 141.381 84.88L137.781 70.144H137.589L133.941 84.88C133.365 87.136 131.925 88.096 129.669 88.096C127.413 88.096 125.973 87.136 125.397 84.88L120.501 65.824C120.021 63.904 120.933 62.512 122.709 62.128C124.341 61.792 126.069 62.224 126.501 64.432L129.957 81.856H130.149L134.277 65.056C134.805 62.8 136.389 62.032 137.829 62.032ZM171.053 61.744C178.829 61.744 183.437 66.112 183.437 74.368V75.568C183.437 83.824 178.829 88.192 171.053 88.192C163.277 88.192 158.669 83.824 158.669 75.568V74.368C158.669 66.112 163.277 61.744 171.053 61.744ZM171.053 67.024C166.733 67.024 164.765 69.28 164.765 74.464V75.472C164.765 80.656 166.733 82.912 171.053 82.912C175.373 82.912 177.341 80.656 177.341 75.472V74.464C177.341 69.28 175.373 67.024 171.053 67.024ZM202.08 61.744C203.184 61.744 204.096 61.936 204.672 62.272C205.824 62.896 206.16 63.952 205.92 65.296C205.584 67.072 204.336 68.176 202.896 67.888C202.08 67.744 201.312 67.504 200.496 67.504C197.568 67.504 195.312 69.904 195.312 73.12V85.552C195.312 87.28 193.872 88.096 192.288 88.096C190.752 88.096 189.264 87.28 189.264 85.552V64.48C189.264 62.8 190.656 62.032 192.144 62.032C193.68 62.032 195.072 62.8 195.072 64.48V66.16H195.168C196.512 63.52 199.104 61.744 202.08 61.744ZM213.522 52.192C215.106 52.192 216.546 53.008 216.546 54.736V73.072L226.866 62.896C228.066 61.696 229.986 61.84 231.042 62.992C232.146 64.24 232.194 65.872 230.946 66.976L223.842 73.408L232.194 83.248C233.346 84.592 232.962 86.272 231.762 87.28C230.466 88.384 228.594 88.432 227.538 87.088L219.522 77.152L216.546 79.84V85.552C216.546 87.28 215.106 88.096 213.522 88.096C211.986 88.096 210.498 87.28 210.498 85.552V54.736C210.498 53.008 211.986 52.192 213.522 52.192ZM241.604 62.032C243.188 62.032 244.628 62.848 244.628 64.576V85.552C244.628 87.28 243.188 88.096 241.604 88.096C240.068 88.096 238.58 87.28 238.58 85.552V64.576C238.58 62.848 240.068 62.032 241.604 62.032ZM241.604 52.096C243.716 52.096 245.396 53.728 245.396 55.744C245.396 57.76 243.716 59.392 241.604 59.392C239.492 59.392 237.812 57.76 237.812 55.744C237.812 53.728 239.492 52.096 241.604 52.096ZM265.615 61.744C271.183 61.744 274.831 65.104 274.831 71.536V85.552C274.831 87.28 273.391 88.096 271.807 88.096C270.271 88.096 268.783 87.28 268.783 85.552V72.832C268.783 68.224 266.623 67.024 263.743 67.024C261.295 67.024 258.031 68.464 258.031 73.216V85.552C258.031 87.28 256.591 88.096 255.007 88.096C253.471 88.096 251.983 87.28 251.983 85.552V64.48C251.983 62.8 253.375 62.032 254.863 62.032C256.351 62.032 257.743 62.8 257.743 64.48V65.344H257.839C259.327 62.848 262.687 61.744 265.615 61.744ZM290.963 61.744C295.091 61.744 297.299 63.472 298.115 64.624H298.163V64.48C298.163 62.8 299.555 62.032 301.091 62.032C302.579 62.032 303.971 62.8 303.971 64.48V87.088C303.971 94.432 300.035 98.032 291.395 98.032C288.611 98.032 285.683 97.168 283.907 96.16C282.611 95.44 282.515 93.76 283.187 92.56C283.955 91.216 285.059 90.688 286.499 91.408C287.795 92.08 289.763 92.8 291.491 92.8C295.763 92.8 298.019 91.12 298.019 87.04V84.064H297.923C296.531 86.608 293.699 87.52 290.531 87.52C283.859 87.52 280.355 83.152 280.355 75.136V74.176C280.355 66.016 284.579 61.744 290.963 61.744ZM291.971 66.928C288.179 66.928 286.355 69.52 286.355 74.32V74.992C286.355 79.936 287.987 82.384 291.731 82.384C295.715 82.384 298.019 79.504 298.019 75.904V72.16C298.019 69.712 296.147 66.928 291.971 66.928Z" fill="white"/>
<path d="M57.3421 83.056L56.4692 83.5441L56.4697 83.5449L57.3421 83.056ZM48.2701 66.832L47.3959 67.3176L47.3972 67.3201L48.2701 66.832ZM45.9661 61.312L46.9323 61.0543L44.9661 61.312H45.9661ZM50.0941 58.432L50.9669 57.9439L50.9641 57.939L50.0941 58.432ZM59.1661 74.656L60.0402 74.1704L60.0389 74.1679L59.1661 74.656ZM61.4701 80.176L60.5038 80.4337L62.4701 80.176H61.4701ZM64.3021 53.392V54.392C64.8604 54.392 65.3357 54.543 65.6466 54.7833C65.9245 54.998 66.1341 55.3273 66.1341 55.888H67.1341H68.1341C68.1341 54.7207 67.6476 53.802 66.8695 53.2007C66.1245 52.625 65.1838 52.392 64.3021 52.392V53.392ZM67.1341 55.888H66.1341V83.92H67.1341H68.1341V55.888H67.1341ZM67.1341 83.92H66.1341C66.1341 85.3785 65.8775 86.0098 65.5492 86.3288C65.2125 86.656 64.5472 86.904 63.0541 86.904V87.904V88.904C64.6329 88.904 66.0076 88.672 66.9429 87.7632C67.8866 86.8462 68.1341 85.4855 68.1341 83.92H67.1341ZM63.0541 87.904V86.904C61.9548 86.904 61.4212 86.7895 60.8608 86.3388C60.2034 85.81 59.4458 84.7644 58.2144 82.5671L57.3421 83.056L56.4697 83.5449C57.6863 85.7156 58.6088 87.094 59.6073 87.8972C60.7029 88.7785 61.8014 88.904 63.0541 88.904V87.904ZM57.3421 83.056L58.2149 82.5679L49.1429 66.3439L48.2701 66.832L47.3972 67.3201L56.4692 83.5441L57.3421 83.056ZM48.2701 66.832L49.1442 66.3464C48.2087 64.6623 47.4802 63.109 46.9323 61.0543L45.9661 61.312L44.9998 61.5697C45.6039 63.835 46.4115 65.5456 47.3959 67.3176L48.2701 66.832ZM45.9661 61.312H44.9661V85.6H45.9661H46.9661V61.312H45.9661ZM45.9661 85.6H44.9661C44.9661 86.1607 44.7565 86.49 44.4786 86.7047C44.1677 86.945 43.6924 87.096 43.1341 87.096V88.096V89.096C44.0158 89.096 44.9565 88.863 45.7015 88.2873C46.4796 87.686 46.9661 86.7673 46.9661 85.6H45.9661ZM43.1341 88.096V87.096C42.5758 87.096 42.1005 86.945 41.7895 86.7047C41.5116 86.49 41.3021 86.1607 41.3021 85.6H40.3021H39.3021C39.3021 86.7673 39.7885 87.686 40.5666 88.2873C41.3117 88.863 42.2524 89.096 43.1341 89.096V88.096ZM40.3021 85.6H41.3021V57.568H40.3021H39.3021V85.6H40.3021ZM40.3021 57.568H41.3021C41.3021 56.1095 41.5586 55.4782 41.8869 55.1592C42.2236 54.832 42.8889 54.584 44.3821 54.584V53.584V52.584C42.8032 52.584 41.4285 52.816 40.4932 53.7248C39.5495 54.6418 39.3021 56.0025 39.3021 57.568H40.3021ZM44.3821 53.584V54.584C45.47 54.584 46.0074 54.7063 46.5719 55.1645C47.2337 55.7016 47.9922 56.7511 49.224 58.925L50.0941 58.432L50.9641 57.939C49.748 55.7929 48.8264 54.4184 47.8322 53.6115C46.7407 52.7257 45.6461 52.584 44.3821 52.584V53.584ZM50.0941 58.432L49.2212 58.92L58.2933 75.1441L59.1661 74.656L60.0389 74.1679L50.9669 57.9439L50.0941 58.432ZM59.1661 74.656L58.2919 75.1416C59.2275 76.8256 59.9559 78.379 60.5038 80.4337L61.4701 80.176L62.4363 79.9183C61.8322 77.653 61.0247 75.9423 60.0402 74.1704L59.1661 74.656ZM61.4701 80.176H62.4701V55.888H61.4701H60.4701V80.176H61.4701ZM61.4701 55.888H62.4701C62.4701 55.3273 62.6796 54.998 62.9575 54.7833C63.2685 54.543 63.7438 54.392 64.3021 54.392V53.392V52.392C63.4204 52.392 62.4797 52.625 61.7346 53.2007C60.9565 53.802 60.4701 54.7207 60.4701 55.888H61.4701ZM79.1198 72.688H78.1198V73.688H79.1198V72.688ZM91.0238 72.688V73.688H92.0238V72.688H91.0238ZM79.1198 77.2V76.2H78.1198V77.2H79.1198ZM92.1758 81.808L91.7697 80.8942L91.762 80.8976L92.1758 81.808ZM95.3918 83.008L94.4727 83.4019V83.4019L95.3918 83.008ZM94.3838 86.368L94.831 87.2624H94.831L94.3838 86.368ZM85.1678 66.736V65.736C82.9569 65.736 81.1677 66.3847 79.929 67.6087C78.6912 68.8317 78.1198 70.5141 78.1198 72.352H79.1198H80.1198C80.1198 70.9259 80.5565 69.8003 81.3347 69.0313C82.112 68.2633 83.3467 67.736 85.1678 67.736V66.736ZM79.1198 72.352H78.1198V72.688H79.1198H80.1198V72.352H79.1198ZM79.1198 72.688V73.688H91.0238V72.688V71.688H79.1198V72.688ZM91.0238 72.688H92.0238V72.208H91.0238H90.0238V72.688H91.0238ZM91.0238 72.208H92.0238C92.0238 70.4846 91.5723 68.8332 90.4023 67.6106C89.2237 66.3791 87.4633 65.736 85.1678 65.736V66.736V67.736C87.0963 67.736 88.2639 68.2689 88.9574 68.9934C89.6593 69.7268 90.0238 70.8114 90.0238 72.208H91.0238ZM85.2638 61.744V62.744C88.4974 62.744 91.1224 63.7138 92.932 65.438C94.7346 67.1555 95.8318 69.7198 95.8318 73.12H96.8318H97.8318C97.8318 69.2722 96.5771 66.1485 94.3116 63.99C92.0533 61.8382 88.8942 60.744 85.2638 60.744V61.744ZM96.8318 73.12H95.8318V73.216H96.8318H97.8318V73.12H96.8318ZM96.8318 73.216H95.8318C95.8318 74.6745 95.5753 75.3058 95.2469 75.6248C94.9103 75.952 94.245 76.2 92.7518 76.2V77.2V78.2C94.3306 78.2 95.7054 77.968 96.6407 77.0592C97.5844 76.1422 97.8318 74.7815 97.8318 73.216H96.8318ZM92.7518 77.2V76.2H79.1198V77.2V78.2H92.7518V77.2ZM79.1198 77.2H78.1198V77.296H79.1198H80.1198V77.2H79.1198ZM79.1198 77.296H78.1198C78.1198 79.2134 78.732 80.958 80.0389 82.2211C81.3439 83.4824 83.2259 84.152 85.5518 84.152V83.152V82.152C83.6057 82.152 82.2717 81.5976 81.4288 80.7829C80.5877 79.97 80.1198 78.7866 80.1198 77.296H79.1198ZM85.5518 83.152V84.152C88.3664 84.152 90.3337 83.7438 92.5896 82.7184L92.1758 81.808L91.762 80.8976C89.7939 81.7922 88.1132 82.152 85.5518 82.152V83.152ZM92.1758 81.808L92.582 82.7218C93.0276 82.5237 93.4205 82.5235 93.7169 82.6295C94.0042 82.7324 94.2851 82.9643 94.4727 83.4019L95.3918 83.008L96.311 82.6141C95.9225 81.7077 95.2434 81.0516 94.3908 80.7465C93.5471 80.4445 92.62 80.5163 91.7697 80.8942L92.1758 81.808ZM95.3918 83.008L94.4727 83.4019C94.8967 84.3914 94.5923 85.1457 93.9366 85.4736L94.3838 86.368L94.831 87.2624C96.6713 86.3423 97.0389 84.3126 96.311 82.6141L95.3918 83.008ZM94.3838 86.368L93.9366 85.4736C91.7079 86.5879 89.0855 87.192 85.3118 87.192V88.192V89.192C89.3141 89.192 92.2597 88.5481 94.831 87.2624L94.3838 86.368ZM85.3118 88.192V87.192C81.6756 87.192 78.9422 86.1887 77.114 84.334C75.284 82.4774 74.2158 79.6207 74.2158 75.616H73.2158H72.2158C72.2158 79.9633 73.3797 83.3946 75.6896 85.738C78.0014 88.0833 81.3161 89.192 85.3118 89.192V88.192ZM73.2158 75.616H74.2158V74.368H73.2158H72.2158V75.616H73.2158ZM73.2158 74.368H74.2158C74.2158 70.3942 75.3043 67.5209 77.146 65.642C78.9853 63.7654 81.7102 62.744 85.2638 62.744V61.744V60.744C81.3295 60.744 78.0303 61.8826 75.7177 64.242C73.4073 66.5991 72.2158 70.0378 72.2158 74.368H73.2158ZM110.273 62.32H109.273V63.32H110.273V62.32ZM110.273 67.312V66.312H109.273V67.312H110.273ZM114.833 82.672L114.517 81.7233L114.509 81.7261L114.5 81.729L114.833 82.672ZM117.521 84.256L116.567 84.5543L116.569 84.562L117.521 84.256ZM116.321 87.376L115.919 86.4607L115.912 86.4638L115.905 86.4669L116.321 87.376ZM104.225 67.312H105.225V66.312H104.225V67.312ZM104.225 62.32V63.32H105.225V62.32H104.225ZM107.249 55.264V56.264C107.886 56.264 108.409 56.4299 108.748 56.6888C109.054 56.922 109.273 57.2737 109.273 57.856H110.273H111.273C111.273 56.6623 110.773 55.718 109.962 55.0992C109.185 54.5061 108.197 54.264 107.249 54.264V55.264ZM110.273 57.856H109.273V62.32H110.273H111.273V57.856H110.273ZM110.273 62.32V63.32H115.313V62.32V61.32H110.273V62.32ZM115.313 62.32V63.32C115.732 63.32 115.962 63.471 116.114 63.6707C116.293 63.9048 116.425 64.2947 116.425 64.816H117.425H118.425C118.425 63.9933 118.222 63.1352 117.704 62.4573C117.161 61.745 116.334 61.32 115.313 61.32V62.32ZM117.425 64.816H116.425C116.425 65.3373 116.293 65.7272 116.114 65.9613C115.962 66.161 115.732 66.312 115.313 66.312V67.312V68.312C116.334 68.312 117.161 67.887 117.704 67.1747C118.222 66.4968 118.425 65.6387 118.425 64.816H117.425ZM115.313 67.312V66.312H110.273V67.312V68.312H115.313V67.312ZM110.273 67.312H109.273V79.984H110.273H111.273V67.312H110.273ZM110.273 79.984H109.273C109.273 81.1161 109.459 82.1529 110.042 82.918C110.671 83.7444 111.604 84.056 112.625 84.056V83.056V82.056C112.015 82.056 111.771 81.8876 111.633 81.706C111.448 81.4631 111.273 80.9639 111.273 79.984H110.273ZM112.625 83.056V84.056C113.504 84.056 114.241 83.9415 115.166 83.615L114.833 82.672L114.5 81.729C113.794 81.9785 113.282 82.056 112.625 82.056V83.056ZM114.833 82.672L115.15 83.6207C115.435 83.5255 115.707 83.5444 115.924 83.6542C116.129 83.7582 116.393 83.9983 116.567 84.5543L117.521 84.256L118.476 83.9577C118.17 82.9777 117.594 82.2578 116.827 81.8698C116.072 81.4876 115.239 81.4825 114.517 81.7233L114.833 82.672ZM117.521 84.256L116.569 84.562C116.729 85.0591 116.709 85.4723 116.597 85.772C116.49 86.0585 116.278 86.3024 115.919 86.4607L116.321 87.376L116.724 88.2913C117.564 87.9216 118.169 87.2775 118.47 86.472C118.766 85.6797 118.746 84.7969 118.473 83.95L117.521 84.256ZM116.321 87.376L115.905 86.4669C114.913 86.9214 113.526 87.192 112.097 87.192V88.192V89.192C113.74 89.192 115.425 88.8866 116.738 88.2851L116.321 87.376ZM112.097 88.192V87.192C109.397 87.192 107.761 86.5134 106.769 85.3886C105.753 84.2361 105.225 82.4086 105.225 79.696H104.225H103.225C103.225 82.5994 103.778 85.0199 105.269 86.7114C106.785 88.4306 109.086 89.192 112.097 89.192V88.192ZM104.225 79.696H105.225V67.312H104.225H103.225V79.696H104.225ZM104.225 67.312V66.312H101.825V67.312V68.312H104.225V67.312ZM101.825 67.312V66.312C101.406 66.312 101.177 66.161 101.024 65.9613C100.846 65.7272 100.713 65.3373 100.713 64.816H99.7133H98.7133C98.7133 65.6387 98.917 66.4968 99.4344 67.1747C99.978 67.887 100.804 68.312 101.825 68.312V67.312ZM99.7133 64.816H100.713C100.713 64.2947 100.846 63.9048 101.024 63.6707C101.177 63.471 101.406 63.32 101.825 63.32V62.32V61.32C100.804 61.32 99.978 61.745 99.4344 62.4573C98.917 63.1352 98.7133 63.9933 98.7133 64.816H99.7133ZM101.825 62.32V63.32H104.225V62.32V61.32H101.825V62.32ZM104.225 62.32H105.225V57.856H104.225H103.225V62.32H104.225ZM104.225 57.856H105.225C105.225 57.2737 105.445 56.922 105.75 56.6888C106.089 56.4299 106.613 56.264 107.249 56.264V55.264V54.264C106.302 54.264 105.313 54.5061 104.536 55.0992C103.726 55.718 103.225 56.6623 103.225 57.856H104.225ZM141.285 64.96L142.259 64.7331L142.257 64.7225L141.285 64.96ZM145.221 81.856L144.248 82.0829L144.428 82.856H145.221V81.856ZM145.413 81.856V82.856H146.221L146.391 82.067L145.413 81.856ZM149.205 64.288L150.183 64.499L150.184 64.4929L149.205 64.288ZM152.757 62.128L152.98 61.1531L152.971 61.1511L152.757 62.128ZM154.821 65.68L155.79 65.9277L155.792 65.9225L154.821 65.68ZM149.925 84.832L150.892 85.0884L150.894 85.0797L149.925 84.832ZM141.381 84.88L140.41 85.1173L140.413 85.1274L141.381 84.88ZM137.781 70.144L138.753 69.9067L138.567 69.144H137.781V70.144ZM137.589 70.144V69.144H136.807L136.619 69.9037L137.589 70.144ZM133.941 84.88L134.91 85.1274L134.912 85.1203L133.941 84.88ZM125.397 84.88L126.366 84.6326L126.366 84.6312L125.397 84.88ZM120.501 65.824L119.531 66.0665L119.533 66.0728L120.501 65.824ZM122.709 62.128L122.508 61.1485L122.498 61.1506L122.709 62.128ZM126.501 64.432L125.52 64.624L125.521 64.6266L126.501 64.432ZM129.957 81.856L128.977 82.0506L129.136 82.856H129.957V81.856ZM130.149 81.856V82.856H130.933L131.121 82.0946L130.149 81.856ZM134.277 65.056L135.249 65.2946L135.251 65.2839L134.277 65.056ZM137.829 62.032V63.032C138.346 63.032 138.86 63.1742 139.286 63.4897C139.702 63.7977 140.099 64.3187 140.314 65.1975L141.285 64.96L142.257 64.7225C141.944 63.4413 141.308 62.4983 140.476 61.8823C139.655 61.2738 138.705 61.032 137.829 61.032V62.032ZM141.285 64.96L140.312 65.1869L144.248 82.0829L145.221 81.856L146.195 81.6291L142.259 64.7331L141.285 64.96ZM145.221 81.856V82.856H145.413V81.856V80.856H145.221V81.856ZM145.413 81.856L146.391 82.067L150.183 64.499L149.205 64.288L148.228 64.077L144.436 81.645L145.413 81.856ZM149.205 64.288L150.184 64.4929C150.348 63.709 150.69 63.3664 151.018 63.2008C151.388 63.0139 151.914 62.9673 152.544 63.1049L152.757 62.128L152.971 61.1511C152.064 60.9527 151.031 60.9541 150.117 61.4152C149.161 61.8976 148.495 62.803 148.227 64.0831L149.205 64.288ZM152.757 62.128L152.535 63.1029C153.184 63.2512 153.554 63.5352 153.746 63.8488C153.937 64.1616 154.045 64.662 153.851 65.4375L154.821 65.68L155.792 65.9225C156.078 64.778 155.994 63.6944 155.453 62.8072C154.912 61.9208 154.011 61.3888 152.98 61.1531L152.757 62.128ZM154.821 65.68L153.853 65.4323L148.957 84.5843L149.925 84.832L150.894 85.0797L155.79 65.9277L154.821 65.68ZM149.925 84.832L148.959 84.5756C148.686 85.6054 148.28 86.1934 147.808 86.5411C147.33 86.8934 146.654 87.096 145.653 87.096V88.096V89.096C146.909 89.096 148.057 88.8426 148.995 88.1509C149.939 87.4546 150.541 86.4106 150.892 85.0884L149.925 84.832ZM145.653 88.096V87.096C144.661 87.096 143.968 86.8849 143.478 86.5267C142.996 86.1748 142.596 85.5966 142.35 84.6326L141.381 84.88L140.413 85.1274C140.742 86.4194 141.351 87.4492 142.297 88.1413C143.235 88.8271 144.39 89.096 145.653 89.096V88.096ZM141.381 84.88L142.353 84.6427L138.753 69.9067L137.781 70.144L136.81 70.3813L140.41 85.1173L141.381 84.88ZM137.781 70.144V69.144H137.589V70.144V71.144H137.781V70.144ZM137.589 70.144L136.619 69.9037L132.971 84.6397L133.941 84.88L134.912 85.1203L138.56 70.3843L137.589 70.144ZM133.941 84.88L132.973 84.6326C132.726 85.5966 132.327 86.1748 131.845 86.5267C131.355 86.8849 130.662 87.096 129.669 87.096V88.096V89.096C130.933 89.096 132.088 88.8271 133.026 88.1413C133.972 87.4492 134.58 86.4194 134.91 85.1274L133.941 84.88ZM129.669 88.096V87.096C128.677 87.096 127.984 86.8849 127.494 86.5267C127.012 86.1748 126.612 85.5966 126.366 84.6326L125.397 84.88L124.429 85.1274C124.758 86.4194 125.367 87.4492 126.313 88.1413C127.251 88.8271 128.406 89.096 129.669 89.096V88.096ZM125.397 84.88L126.366 84.6312L121.47 65.5752L120.501 65.824L119.533 66.0728L124.429 85.1288L125.397 84.88ZM120.501 65.824L121.472 65.5815C121.282 64.8225 121.391 64.2823 121.612 63.9227C121.832 63.5636 122.244 63.2517 122.921 63.1054L122.709 62.128L122.498 61.1506C121.398 61.3883 120.467 61.9644 119.907 62.8772C119.347 63.7897 119.241 64.9055 119.531 66.0665L120.501 65.824ZM122.709 62.128L122.911 63.1075C123.597 62.9662 124.189 63.0128 124.611 63.222C124.985 63.407 125.355 63.7816 125.52 64.624L126.501 64.432L127.483 64.24C127.216 62.8744 126.506 61.929 125.5 61.43C124.542 60.9552 123.454 60.9538 122.508 61.1485L122.709 62.128ZM126.501 64.432L125.521 64.6266L128.977 82.0506L129.957 81.856L130.938 81.6614L127.482 64.2374L126.501 64.432ZM129.957 81.856V82.856H130.149V81.856V80.856H129.957V81.856ZM130.149 81.856L131.121 82.0946L135.249 65.2946L134.277 65.056L133.306 64.8174L129.178 81.6174L130.149 81.856ZM134.277 65.056L135.251 65.2839C135.468 64.3585 135.877 63.8189 136.305 63.5025C136.745 63.1777 137.282 63.032 137.829 63.032V62.032V61.032C136.936 61.032 135.962 61.2703 135.117 61.8935C134.262 62.5251 133.615 63.4975 133.304 64.8281L134.277 65.056ZM171.053 61.744V62.744C174.758 62.744 177.568 63.7816 179.454 65.6671C181.339 67.5522 182.437 70.4225 182.437 74.368H183.437H184.437C184.437 70.0575 183.231 66.6158 180.868 64.2529C178.506 61.8904 175.124 60.744 171.053 60.744V61.744ZM183.437 74.368H182.437V75.568H183.437H184.437V74.368H183.437ZM183.437 75.568H182.437C182.437 79.5135 181.339 82.3838 179.454 84.2689C177.568 86.1544 174.758 87.192 171.053 87.192V88.192V89.192C175.124 89.192 178.506 88.0456 180.868 85.6831C183.231 83.3202 184.437 79.8785 184.437 75.568H183.437ZM171.053 88.192V87.192C167.348 87.192 164.538 86.1544 162.652 84.2689C160.767 82.3838 159.669 79.5135 159.669 75.568H158.669H157.669C157.669 79.8785 158.875 83.3202 161.238 85.6831C163.6 88.0456 166.982 89.192 171.053 89.192V88.192ZM158.669 75.568H159.669V74.368H158.669H157.669V75.568H158.669ZM158.669 74.368H159.669C159.669 70.4225 160.767 67.5522 162.652 65.6671C164.538 63.7816 167.348 62.744 171.053 62.744V61.744V60.744C166.982 60.744 163.6 61.8904 161.238 64.2529C158.875 66.6158 157.669 70.0575 157.669 74.368H158.669ZM171.053 67.024V66.024C168.726 66.024 166.818 66.6359 165.528 68.1517C164.268 69.6306 163.765 71.7793 163.765 74.464H164.765H165.765C165.765 71.9647 166.246 70.3934 167.05 69.4483C167.824 68.5401 169.06 68.024 171.053 68.024V67.024ZM164.765 74.464H163.765V75.472H164.765H165.765V74.464H164.765ZM164.765 75.472H163.765C163.765 78.1567 164.268 80.3054 165.528 81.7843C166.818 83.3001 168.726 83.912 171.053 83.912V82.912V81.912C169.06 81.912 167.824 81.3959 167.05 80.4877C166.246 79.5426 165.765 77.9713 165.765 75.472H164.765ZM171.053 82.912V83.912C173.38 83.912 175.288 83.3001 176.578 81.7843C177.838 80.3054 178.341 78.1567 178.341 75.472H177.341H176.341C176.341 77.9713 175.86 79.5426 175.056 80.4877C174.282 81.3959 173.046 81.912 171.053 81.912V82.912ZM177.341 75.472H178.341V74.464H177.341H176.341V75.472H177.341ZM177.341 74.464H178.341C178.341 71.7793 177.838 69.6306 176.578 68.1517C175.288 66.6359 173.38 66.024 171.053 66.024V67.024V68.024C173.046 68.024 174.282 68.5401 175.056 69.4483C175.86 70.3934 176.341 71.9647 176.341 74.464H177.341ZM204.672 62.272L204.168 63.1358L204.182 63.1438L204.196 63.1513L204.672 62.272ZM205.92 65.296L206.903 65.4819L206.904 65.4718L205.92 65.296ZM202.896 67.888L203.092 66.9074L203.081 66.9052L203.07 66.9032L202.896 67.888ZM195.072 66.16H194.072V67.16H195.072V66.16ZM195.168 66.16V67.16H195.781L196.059 66.6137L195.168 66.16ZM202.08 61.744V62.744C203.101 62.744 203.81 62.9268 204.168 63.1358L204.672 62.272L205.176 61.4082C204.382 60.9452 203.267 60.744 202.08 60.744V61.744ZM204.672 62.272L204.196 63.1513C204.586 63.3627 204.783 63.61 204.886 63.8759C204.997 64.1626 205.035 64.5642 204.936 65.1202L205.92 65.296L206.904 65.4718C207.045 64.6838 207.035 63.8854 206.75 63.1521C206.458 62.398 205.91 61.8053 205.148 61.3927L204.672 62.272ZM205.92 65.296L204.938 65.1101C204.66 66.5757 203.777 67.0444 203.092 66.9074L202.896 67.888L202.7 68.8686C204.895 69.3076 206.508 67.5683 206.903 65.4819L205.92 65.296ZM202.896 67.888L203.07 66.9032C202.657 66.8303 202.36 66.7536 201.889 66.6609C201.469 66.578 200.999 66.504 200.496 66.504V67.504V68.504C200.809 68.504 201.131 68.55 201.503 68.6231C201.824 68.6864 202.32 68.8017 202.722 68.8728L202.896 67.888ZM200.496 67.504V66.504C196.947 66.504 194.312 69.4232 194.312 73.12H195.312H196.312C196.312 70.3848 198.189 68.504 200.496 68.504V67.504ZM195.312 73.12H194.312V85.552H195.312H196.312V73.12H195.312ZM195.312 85.552H194.312C194.312 86.1006 194.101 86.4412 193.793 86.673C193.451 86.93 192.924 87.096 192.288 87.096V88.096V89.096C193.236 89.096 194.221 88.854 194.995 88.271C195.803 87.6628 196.312 86.7314 196.312 85.552H195.312ZM192.288 88.096V87.096C191.681 87.096 191.15 86.9323 190.797 86.67C190.478 86.4318 190.264 86.0887 190.264 85.552H189.264H188.264C188.264 86.7433 188.795 87.6722 189.603 88.274C190.378 88.8517 191.359 89.096 192.288 89.096V88.096ZM189.264 85.552H190.264V64.48H189.264H188.264V85.552H189.264ZM189.264 64.48H190.264C190.264 63.954 190.465 63.6379 190.747 63.4249C191.065 63.1861 191.556 63.032 192.144 63.032V62.032V61.032C191.244 61.032 190.295 61.2619 189.545 61.8271C188.76 62.4181 188.264 63.326 188.264 64.48H189.264ZM192.144 62.032V63.032C192.762 63.032 193.265 63.1888 193.587 63.4281C193.872 63.6407 194.072 63.9548 194.072 64.48H195.072H196.072C196.072 63.3252 195.576 62.4153 194.781 61.8239C194.023 61.2592 193.062 61.032 192.144 61.032V62.032ZM195.072 64.48H194.072V66.16H195.072H196.072V64.48H195.072ZM195.072 66.16V67.16H195.168V66.16V65.16H195.072V66.16ZM195.168 66.16L196.059 66.6137C197.253 64.2697 199.522 62.744 202.08 62.744V61.744V60.744C198.686 60.744 195.772 62.7703 194.277 65.7063L195.168 66.16ZM216.546 73.072H215.546V75.4624L217.249 73.7841L216.546 73.072ZM226.866 62.896L227.569 63.6081L227.574 63.6031L226.866 62.896ZM231.042 62.992L231.791 62.3294L231.786 62.3228L231.78 62.3163L231.042 62.992ZM230.946 66.976L230.284 66.227L230.275 66.2347L230.946 66.976ZM223.842 73.408L223.171 72.6667L222.453 73.3167L223.08 74.0551L223.842 73.408ZM232.194 83.248L231.432 83.8951L231.435 83.8988L232.194 83.248ZM231.762 87.28L231.119 86.5143L231.114 86.5188L231.762 87.28ZM227.538 87.088L228.325 86.4701L228.317 86.4601L227.538 87.088ZM219.522 77.152L220.301 76.5241L219.637 75.7012L218.852 76.4099L219.522 77.152ZM216.546 79.84L215.876 79.0979L215.546 79.3957V79.84H216.546ZM213.522 52.192V53.192C214.159 53.192 214.686 53.358 215.027 53.615C215.335 53.8468 215.546 54.1874 215.546 54.736H216.546H217.546C217.546 53.5566 217.038 52.6252 216.23 52.017C215.455 51.434 214.47 51.192 213.522 51.192V52.192ZM216.546 54.736H215.546V73.072H216.546H217.546V54.736H216.546ZM216.546 73.072L217.249 73.7841L227.569 63.6081L226.866 62.896L226.164 62.1839L215.844 72.3599L216.546 73.072ZM226.866 62.896L227.574 63.6031C228.347 62.8295 229.611 62.9102 230.305 63.6677L231.042 62.992L231.78 62.3163C230.362 60.7698 227.786 60.5625 226.159 62.1889L226.866 62.896ZM231.042 62.992L230.293 63.6546C230.709 64.124 230.88 64.6123 230.876 65.0295C230.873 65.432 230.708 65.852 230.284 66.227L230.946 66.976L231.609 67.725C232.433 66.996 232.868 66.048 232.876 65.0465C232.885 64.0596 232.48 63.108 231.791 62.3294L231.042 62.992ZM230.946 66.976L230.275 66.2347L223.171 72.6667L223.842 73.408L224.514 74.1493L231.618 67.7173L230.946 66.976ZM223.842 73.408L223.08 74.0551L231.432 83.8951L232.194 83.248L232.957 82.6009L224.605 72.7609L223.842 73.408ZM232.194 83.248L231.435 83.8988C231.828 84.3572 231.931 84.826 231.87 85.2486C231.807 85.6902 231.554 86.1489 231.119 86.5143L231.762 87.28L232.406 88.0457C233.171 87.4031 233.709 86.5178 233.85 85.5314C233.994 84.526 233.713 83.4828 232.954 82.5972L232.194 83.248ZM231.762 87.28L231.114 86.5188C230.135 87.3528 228.943 87.257 228.325 86.4702L227.538 87.088L226.752 87.7058C228.246 89.607 230.798 89.4152 232.411 88.0412L231.762 87.28ZM227.538 87.088L228.317 86.4601L220.301 76.5241L219.522 77.152L218.744 77.7799L226.76 87.7159L227.538 87.088ZM219.522 77.152L218.852 76.4099L215.876 79.0979L216.546 79.84L217.217 80.5821L220.193 77.8941L219.522 77.152ZM216.546 79.84H215.546V85.552H216.546H217.546V79.84H216.546ZM216.546 85.552H215.546C215.546 86.1006 215.335 86.4412 215.027 86.673C214.686 86.93 214.159 87.096 213.522 87.096V88.096V89.096C214.47 89.096 215.455 88.854 216.23 88.271C217.038 87.6628 217.546 86.7314 217.546 85.552H216.546ZM213.522 88.096V87.096C212.915 87.096 212.384 86.9323 212.032 86.67C211.712 86.4318 211.498 86.0887 211.498 85.552H210.498H209.498C209.498 86.7433 210.029 87.6722 210.837 88.274C211.613 88.8517 212.594 89.096 213.522 89.096V88.096ZM210.498 85.552H211.498V54.736H210.498H209.498V85.552H210.498ZM210.498 54.736H211.498C211.498 54.1993 211.712 53.8562 212.032 53.618C212.384 53.3557 212.915 53.192 213.522 53.192V52.192V51.192C212.594 51.192 211.613 51.4363 210.837 52.014C210.029 52.6158 209.498 53.5447 209.498 54.736H210.498ZM241.604 62.032V63.032C242.24 63.032 242.767 63.198 243.109 63.455C243.417 63.6868 243.628 64.0274 243.628 64.576H244.628H245.628C245.628 63.3966 245.119 62.4652 244.311 61.857C243.537 61.274 242.552 61.032 241.604 61.032V62.032ZM244.628 64.576H243.628V85.552H244.628H245.628V64.576H244.628ZM244.628 85.552H243.628C243.628 86.1006 243.417 86.4412 243.109 86.673C242.767 86.93 242.24 87.096 241.604 87.096V88.096V89.096C242.552 89.096 243.537 88.854 244.311 88.271C245.119 87.6628 245.628 86.7314 245.628 85.552H244.628ZM241.604 88.096V87.096C240.997 87.096 240.466 86.9323 240.113 86.67C239.793 86.4318 239.58 86.0887 239.58 85.552H238.58H237.58C237.58 86.7433 238.11 87.6722 238.919 88.274C239.694 88.8517 240.675 89.096 241.604 89.096V88.096ZM238.58 85.552H239.58V64.576H238.58H237.58V85.552H238.58ZM238.58 64.576H239.58C239.58 64.0393 239.793 63.6962 240.113 63.458C240.466 63.1957 240.997 63.032 241.604 63.032V62.032V61.032C240.675 61.032 239.694 61.2763 238.919 61.854C238.11 62.4558 237.58 63.3847 237.58 64.576H238.58ZM241.604 52.096V53.096C243.198 53.096 244.396 54.3136 244.396 55.744H245.396H246.396C246.396 53.1423 244.234 51.096 241.604 51.096V52.096ZM245.396 55.744H244.396C244.396 57.1743 243.198 58.392 241.604 58.392V59.392V60.392C244.234 60.392 246.396 58.3456 246.396 55.744H245.396ZM241.604 59.392V58.392C240.01 58.392 238.812 57.1743 238.812 55.744H237.812H236.812C236.812 58.3456 238.974 60.392 241.604 60.392V59.392ZM237.812 55.744H238.812C238.812 54.3136 240.01 53.096 241.604 53.096V52.096V51.096C238.974 51.096 236.812 53.1423 236.812 55.744H237.812ZM257.743 65.344H256.743V66.344H257.743V65.344ZM257.839 65.344V66.344H258.407L258.698 65.8561L257.839 65.344ZM265.615 61.744V62.744C268.197 62.744 270.219 63.5191 271.596 64.9272C272.975 66.3371 273.831 68.5068 273.831 71.536H274.831H275.831C275.831 68.1332 274.863 65.4069 273.026 63.5288C271.187 61.6489 268.6 60.744 265.615 60.744V61.744ZM274.831 71.536H273.831V85.552H274.831H275.831V71.536H274.831ZM274.831 85.552H273.831C273.831 86.1006 273.619 86.4412 273.311 86.673C272.97 86.93 272.443 87.096 271.807 87.096V88.096V89.096C272.755 89.096 273.74 88.854 274.514 88.271C275.322 87.6628 275.831 86.7314 275.831 85.552H274.831ZM271.807 88.096V87.096C271.2 87.096 270.668 86.9323 270.316 86.67C269.996 86.4318 269.783 86.0887 269.783 85.552H268.783H267.783C267.783 86.7433 268.313 87.6722 269.122 88.274C269.897 88.8517 270.878 89.096 271.807 89.096V88.096ZM268.783 85.552H269.783V72.832H268.783H267.783V85.552H268.783ZM268.783 72.832H269.783C269.783 70.393 269.213 68.6246 268.04 67.4834C266.87 66.3446 265.298 66.024 263.743 66.024V67.024V68.024C265.068 68.024 266.015 68.3034 266.645 68.9166C267.273 69.5274 267.783 70.663 267.783 72.832H268.783ZM263.743 67.024V66.024C262.343 66.024 260.666 66.4328 259.321 67.5762C257.945 68.7462 257.031 70.5893 257.031 73.216H258.031H259.031C259.031 71.0907 259.749 69.8378 260.617 69.0998C261.516 68.3352 262.695 68.024 263.743 68.024V67.024ZM258.031 73.216H257.031V85.552H258.031H259.031V73.216H258.031ZM258.031 85.552H257.031C257.031 86.1006 256.819 86.4412 256.511 86.673C256.17 86.93 255.643 87.096 255.007 87.096V88.096V89.096C255.955 89.096 256.94 88.854 257.714 88.271C258.522 87.6628 259.031 86.7314 259.031 85.552H258.031ZM255.007 88.096V87.096C254.4 87.096 253.868 86.9323 253.516 86.67C253.196 86.4318 252.983 86.0887 252.983 85.552H251.983H250.983C250.983 86.7433 251.513 87.6722 252.322 88.274C253.097 88.8517 254.078 89.096 255.007 89.096V88.096ZM251.983 85.552H252.983V64.48H251.983H250.983V85.552H251.983ZM251.983 64.48H252.983C252.983 63.954 253.183 63.6379 253.466 63.4249C253.784 63.1861 254.274 63.032 254.863 63.032V62.032V61.032C253.963 61.032 253.014 61.2619 252.263 61.8271C251.478 62.4181 250.983 63.326 250.983 64.48H251.983ZM254.863 62.032V63.032C255.451 63.032 255.942 63.1861 256.259 63.4249C256.542 63.6379 256.743 63.954 256.743 64.48H257.743H258.743C258.743 63.326 258.247 62.4181 257.462 61.8271C256.712 61.2619 255.762 61.032 254.863 61.032V62.032ZM257.743 64.48H256.743V65.344H257.743H258.743V64.48H257.743ZM257.743 65.344V66.344H257.839V65.344V64.344H257.743V65.344ZM257.839 65.344L258.698 65.8561C259.923 63.8005 262.842 62.744 265.615 62.744V61.744V60.744C262.532 60.744 258.73 61.8955 256.98 64.8319L257.839 65.344ZM298.115 64.624L297.299 65.202L297.598 65.624H298.115V64.624ZM298.163 64.624V65.624H299.163V64.624H298.163ZM283.907 96.16L284.401 95.2903L284.393 95.2858L283.907 96.16ZM283.187 92.56L282.319 92.0638L282.315 92.0714L283.187 92.56ZM286.499 91.408L286.96 90.5202L286.953 90.5169L286.947 90.5136L286.499 91.408ZM298.019 84.064H299.019V83.064H298.019V84.064ZM297.923 84.064V83.064H297.331L297.046 83.584L297.923 84.064ZM290.963 61.744V62.744C294.797 62.744 296.688 64.3384 297.299 65.202L298.115 64.624L298.931 64.046C297.911 62.6055 295.385 60.744 290.963 60.744V61.744ZM298.115 64.624V65.624H298.163V64.624V63.624H298.115V64.624ZM298.163 64.624H299.163V64.48H298.163H297.163V64.624H298.163ZM298.163 64.48H299.163C299.163 63.9548 299.363 63.6407 299.648 63.4281C299.97 63.1888 300.473 63.032 301.091 63.032V62.032V61.032C300.174 61.032 299.213 61.2592 298.454 61.8239C297.66 62.4153 297.163 63.3252 297.163 64.48H298.163ZM301.091 62.032V63.032C301.68 63.032 302.171 63.1861 302.488 63.4249C302.771 63.6379 302.971 63.954 302.971 64.48H303.971H304.971C304.971 63.326 304.476 62.4181 303.691 61.8271C302.94 61.2619 301.991 61.032 301.091 61.032V62.032ZM303.971 64.48H302.971V87.088H303.971H304.971V64.48H303.971ZM303.971 87.088H302.971C302.971 90.5862 302.038 92.9994 300.262 94.5636C298.46 96.1513 295.603 97.032 291.395 97.032V98.032V99.032C295.828 99.032 299.259 98.1127 301.584 96.0644C303.936 93.9926 304.971 90.9338 304.971 87.088H303.971ZM291.395 98.032V97.032C288.783 97.032 286.025 96.2121 284.401 95.2903L283.907 96.16L283.414 97.0297C285.342 98.1239 288.44 99.032 291.395 99.032V98.032ZM283.907 96.16L284.393 95.2858C284.054 95.0976 283.86 94.7893 283.798 94.3873C283.732 93.9649 283.824 93.4693 284.06 93.0486L283.187 92.56L282.315 92.0714C281.878 92.8507 281.682 93.7951 281.821 94.6927C281.963 95.6107 282.465 96.5024 283.422 97.0342L283.907 96.16ZM283.187 92.56L284.056 93.0561C284.373 92.5008 284.688 92.2433 284.947 92.1446C285.178 92.0568 285.519 92.0358 286.052 92.3024L286.499 91.408L286.947 90.5136C286.04 90.0602 285.109 89.9432 284.236 90.2754C283.391 90.5967 282.77 91.2752 282.319 92.0639L283.187 92.56ZM286.499 91.408L286.039 92.2958C287.402 93.0025 289.536 93.8 291.491 93.8V92.8V91.8C289.991 91.8 288.189 91.1575 286.96 90.5202L286.499 91.408ZM291.491 92.8V93.8C293.729 93.8 295.643 93.3652 297.004 92.2131C298.399 91.0313 299.019 89.2627 299.019 87.04H298.019H297.019C297.019 88.8973 296.512 90.0087 295.711 90.6869C294.875 91.3948 293.526 91.8 291.491 91.8V92.8ZM298.019 87.04H299.019V84.064H298.019H297.019V87.04H298.019ZM298.019 84.064V83.064H297.923V84.064V85.064H298.019V84.064ZM297.923 84.064L297.046 83.584C295.916 85.6491 293.559 86.52 290.531 86.52V87.52V88.52C293.839 88.52 297.147 87.5669 298.801 84.544L297.923 84.064ZM290.531 87.52V86.52C287.428 86.52 285.197 85.5154 283.716 83.7015C282.207 81.8533 281.355 79.0187 281.355 75.136H280.355H279.355C279.355 79.2693 280.256 82.6267 282.167 84.9665C284.105 87.3406 286.962 88.52 290.531 88.52V87.52ZM280.355 75.136H281.355V74.176H280.355H279.355V75.136H280.355ZM280.355 74.176H281.355C281.355 70.2597 282.368 67.4163 284.013 65.564C285.645 63.7263 288.004 62.744 290.963 62.744V61.744V60.744C287.538 60.744 284.594 61.8977 282.518 64.236C280.454 66.5597 279.355 69.9323 279.355 74.176H280.355ZM291.971 66.928V65.928C289.823 65.928 288.093 66.6781 286.939 68.2265C285.825 69.7215 285.355 71.8209 285.355 74.32H286.355H287.355C287.355 72.0191 287.797 70.4225 288.543 69.4215C289.249 68.4739 290.327 67.928 291.971 67.928V66.928ZM286.355 74.32H285.355V74.992H286.355H287.355V74.32H286.355ZM286.355 74.992H285.355C285.355 77.538 285.769 79.6391 286.825 81.1221C287.931 82.6758 289.618 83.384 291.731 83.384V82.384V81.384C290.101 81.384 289.099 80.8682 288.454 79.9619C287.758 78.9849 287.355 77.39 287.355 74.992H286.355ZM291.731 82.384V83.384C293.979 83.384 295.827 82.5636 297.106 81.1702C298.375 79.7881 299.019 77.9143 299.019 75.904H298.019H297.019C297.019 77.4937 296.512 78.8599 295.633 79.8178C294.764 80.7644 293.467 81.384 291.731 81.384V82.384ZM298.019 75.904H299.019V72.16H298.019H297.019V75.904H298.019ZM298.019 72.16H299.019C299.019 70.6891 298.459 69.1236 297.273 67.9232C296.073 66.7092 294.294 65.928 291.971 65.928V66.928V67.928C293.824 67.928 295.069 68.5388 295.85 69.3288C296.644 70.1324 297.019 71.1829 297.019 72.16H298.019Z" fill="white" mask="url(#path-8-outside-2_605_1212)"/>
<defs>
<filter id="filter0_g_605_1212" x="9.20636" y="10.6668" width="96.151" height="98.2308" filterUnits="userSpaceOnUse" color-interpolation-filters="sRGB">
<feFlood flood-opacity="0" result="BackgroundImageFix"/>
<feBlend mode="normal" in="SourceGraphic" in2="BackgroundImageFix" result="shape"/>
<feTurbulence type="fractalNoise" baseFrequency="0.83333331346511841 0.83333331346511841" numOctaves="3" seed="5017" />
<feDisplacementMap in="shape" scale="4" xChannelSelector="R" yChannelSelector="G" result="displacedImage" width="100%" height="100%" />
<feMerge result="effect1_texture_605_1212">
<feMergeNode in="displacedImage"/>
</feMerge>
</filter>
<filter id="filter1_g_605_1212" x="249.172" y="8.89722" width="36.8044" height="36.2473" filterUnits="userSpaceOnUse" color-interpolation-filters="sRGB">
<feFlood flood-opacity="0" result="BackgroundImageFix"/>
<feBlend mode="normal" in="SourceGraphic" in2="BackgroundImageFix" result="shape"/>
<feTurbulence type="fractalNoise" baseFrequency="0.83333331346511841 0.83333331346511841" numOctaves="3" seed="5017" />
<feDisplacementMap in="shape" scale="4" xChannelSelector="R" yChannelSelector="G" result="displacedImage" width="100%" height="100%" />
<feMerge result="effect1_texture_605_1212">
<feMergeNode in="displacedImage"/>
</feMerge>
</filter>
</defs>
</svg>
