<svg width="329" height="154" viewBox="0 0 329 154" fill="none" xmlns="http://www.w3.org/2000/svg">
<path opacity="0.7" d="M140.61 106.58C141.29 106.58 141.81 106.84 142.17 107.76L146.67 119.36C146.97 120.12 146.61 120.74 145.95 120.94C145.29 121.14 144.55 121.08 144.25 120.22L143.09 117.02H138.05L136.87 120.3C136.59 121.08 135.91 121.16 135.27 120.94C134.63 120.72 134.29 120.2 134.57 119.46L139.07 107.76C139.41 106.84 139.95 106.58 140.61 106.58ZM140.57 109.78C140.35 110.58 140.19 111.08 139.87 112L138.81 114.9H142.33L141.29 112C140.95 111.06 140.77 110.48 140.57 109.78ZM153.201 112.22C151.621 112.22 150.861 113.3 150.861 115.38V115.78C150.861 117.92 151.541 118.94 153.101 118.94C154.761 118.94 155.721 117.74 155.721 116.24V114.4C155.721 113.38 154.941 112.22 153.201 112.22ZM156.941 106.08C157.601 106.08 158.201 106.42 158.201 107.14V120.02C158.201 120.72 157.621 121.04 157.001 121.04C156.401 121.04 155.821 120.72 155.821 120.02V119.62H155.761C155.181 120.68 153.921 121.08 152.601 121.08C149.821 121.08 148.361 119.26 148.361 115.84V115.32C148.361 111.84 150.121 110.06 152.781 110.06C154.521 110.06 155.361 110.76 155.681 111.24V107.14C155.681 106.42 156.301 106.08 156.941 106.08ZM166.647 110.06C168.007 110.06 169.187 110.74 169.587 111.74C170.367 110.64 171.347 110.06 173.007 110.06C175.047 110.06 176.807 111.46 176.807 114.22V119.98C176.807 120.7 176.207 121.04 175.547 121.04C174.907 121.04 174.287 120.7 174.287 119.98V114.74C174.287 112.76 173.347 112.3 172.287 112.3C171.307 112.3 170.267 112.82 170.267 114.66V119.98C170.267 120.7 169.667 121.04 169.007 121.04C168.367 121.04 167.747 120.7 167.747 119.98V114.7C167.747 112.84 166.867 112.3 165.747 112.3C164.567 112.3 163.727 113.04 163.727 114.56V119.98C163.727 120.7 163.127 121.04 162.467 121.04C161.827 121.04 161.207 120.7 161.207 119.98V111.2C161.207 110.5 161.787 110.18 162.387 110.18C163.007 110.18 163.587 110.5 163.587 111.2V111.76C164.167 110.68 165.247 110.06 166.647 110.06ZM181.023 110.18C181.683 110.18 182.283 110.52 182.283 111.24V119.98C182.283 120.7 181.683 121.04 181.023 121.04C180.383 121.04 179.763 120.7 179.763 119.98V111.24C179.763 110.52 180.383 110.18 181.023 110.18ZM181.023 106.04C181.903 106.04 182.603 106.72 182.603 107.56C182.603 108.4 181.903 109.08 181.023 109.08C180.143 109.08 179.443 108.4 179.443 107.56C179.443 106.72 180.143 106.04 181.023 106.04ZM191.028 110.06C193.348 110.06 194.868 111.46 194.868 114.14V119.98C194.868 120.7 194.268 121.04 193.608 121.04C192.968 121.04 192.348 120.7 192.348 119.98V114.68C192.348 112.76 191.448 112.26 190.248 112.26C189.228 112.26 187.868 112.86 187.868 114.84V119.98C187.868 120.7 187.268 121.04 186.608 121.04C185.968 121.04 185.348 120.7 185.348 119.98V111.2C185.348 110.5 185.928 110.18 186.548 110.18C187.168 110.18 187.748 110.5 187.748 111.2V111.56H187.788C188.408 110.52 189.808 110.06 191.028 110.06Z" fill="#60626E"/>
<g opacity="0.8" filter="url(#filter0_g_521_2967)" style="mix-blend-mode:soft-light">
<path d="M90.8577 97.773C90.8577 97.773 74.3546 82.7524 66.3642 86.7239C56.6743 91.5568 55.5531 106.898 55.5531 106.898C55.5531 106.898 51.7948 88.4093 45.3056 85.524C38.8191 82.6499 18.8467 88.0421 18.8467 88.0421C18.8467 88.0421 35.523 73.7094 34.6301 63.748C33.6464 52.7838 14.2061 40.2219 14.2061 40.2219C14.2061 40.2219 35.6262 44.0199 41.0008 36.4205C46.3782 28.8321 45.2244 12.6668 45.2244 12.6668C45.2244 12.6668 53.6042 31.5969 65.6753 31.0263C77.7464 30.4557 86.7929 19.2999 86.7929 19.2999C86.7929 19.2999 73.8689 36.2652 79.9031 48.3679C84.4369 57.4547 106.357 58.5627 106.357 58.5627C106.357 58.5627 82.3895 62.8423 79.8179 70.7725C77.739 77.1926 90.8354 97.7784 90.8354 97.7784L90.8577 97.773Z" fill="#FFF5ED"/>
</g>
<g opacity="0.8" filter="url(#filter1_g_521_2967)" style="mix-blend-mode:soft-light">
<path d="M254.172 20.4648C254.172 20.4648 261.69 22.0835 263.384 19.5167C265.434 16.399 263.112 11.6336 263.112 11.6336C263.112 11.6336 267.433 16.4921 269.866 16.2284C272.297 15.9618 277.315 10.8972 277.315 10.8972C277.315 10.8972 274.827 18.0552 276.817 20.8689C279.009 23.9657 286.977 24.3432 286.977 24.3432C286.977 24.3432 279.936 26.92 279.65 30.115C279.362 33.3071 282.504 37.9243 282.504 37.9243C282.504 37.9243 276.73 33.7343 273.232 35.9942C269.734 38.2541 268.969 43.1445 268.969 43.1445C268.969 43.1445 269.883 35.8517 265.99 33.29C263.066 31.3672 256.342 34.8321 256.342 34.8321C256.342 34.8321 262.743 29.4074 262.136 26.5991C261.644 24.3261 254.178 20.4594 254.178 20.4594L254.172 20.4648Z" fill="#FFF5ED"/>
</g>
<path d="M314 54.1851C315.167 51.6851 318.2 46.5851 321 46.1851" stroke="white" stroke-width="3" stroke-linecap="round"/>
<path d="M319.25 59.0013C321.75 57.8344 325 57.1849 327.001 57.1849" stroke="white" stroke-width="3" stroke-linecap="round"/>
<mask id="path-6-outside-1_521_2967" maskUnits="userSpaceOnUse" x="109" y="3" width="134" height="53" fill="black">
<rect fill="white" x="109" y="3" width="134" height="53"/>
<path d="M116.124 7.68H125.484C132.78 7.68 136.38 10.416 136.38 16.224V16.8C136.38 19.968 134.988 22.848 130.908 23.856C135.084 24.48 137.964 26.88 137.964 31.824V32.592C137.964 38.4 134.412 41.808 126.972 41.808H116.124C113.052 41.808 112.044 40.848 112.044 37.824V11.664C112.044 8.64 113.052 7.68 116.124 7.68ZM118.14 26.544V36.72H123.708C129.132 36.72 131.676 36.144 131.676 31.92V31.296C131.676 28.032 129.852 26.544 123.276 26.544H118.14ZM118.14 12.768V21.552H123.132C128.796 21.552 130.14 20.544 130.14 16.992V16.56C130.14 13.488 128.028 12.768 122.844 12.768H118.14ZM146.659 16.032C148.243 16.032 149.683 16.848 149.683 18.576V39.552C149.683 41.28 148.243 42.096 146.659 42.096C145.123 42.096 143.635 41.28 143.635 39.552V18.576C143.635 16.848 145.123 16.032 146.659 16.032ZM146.659 6.096C148.771 6.096 150.451 7.728 150.451 9.744C150.451 11.76 148.771 13.392 146.659 13.392C144.547 13.392 142.867 11.76 142.867 9.744C142.867 7.728 144.547 6.096 146.659 6.096ZM170.67 15.744C176.238 15.744 179.885 19.104 179.885 25.536V39.552C179.885 41.28 178.446 42.096 176.862 42.096C175.326 42.096 173.838 41.28 173.838 39.552V26.832C173.838 22.224 171.678 21.024 168.798 21.024C166.35 21.024 163.086 22.464 163.086 27.216V39.552C163.086 41.28 161.646 42.096 160.062 42.096C158.526 42.096 157.038 41.28 157.038 39.552V18.48C157.038 16.8 158.43 16.032 159.918 16.032C161.406 16.032 162.798 16.8 162.798 18.48V19.344H162.894C164.382 16.848 167.742 15.744 170.67 15.744ZM196.018 15.744C200.146 15.744 202.354 17.472 203.17 18.624H203.218V18.48C203.218 16.8 204.61 16.032 206.146 16.032C207.634 16.032 209.026 16.8 209.026 18.48V41.088C209.026 48.432 205.09 52.032 196.45 52.032C193.666 52.032 190.738 51.168 188.962 50.16C187.666 49.44 187.57 47.76 188.242 46.56C189.01 45.216 190.114 44.688 191.554 45.408C192.85 46.08 194.818 46.8 196.546 46.8C200.818 46.8 203.074 45.12 203.074 41.04V38.064H202.978C201.586 40.608 198.754 41.52 195.586 41.52C188.914 41.52 185.41 37.152 185.41 29.136V28.176C185.41 20.016 189.634 15.744 196.018 15.744ZM197.026 20.928C193.234 20.928 191.41 23.52 191.41 28.32V28.992C191.41 33.936 193.042 36.384 196.786 36.384C200.77 36.384 203.074 33.504 203.074 29.904V26.16C203.074 23.712 201.202 20.928 197.026 20.928ZM227.233 15.744C235.009 15.744 239.617 20.112 239.617 28.368V29.568C239.617 37.824 235.009 42.192 227.233 42.192C219.457 42.192 214.849 37.824 214.849 29.568V28.368C214.849 20.112 219.457 15.744 227.233 15.744ZM227.233 21.024C222.913 21.024 220.945 23.28 220.945 28.464V29.472C220.945 34.656 222.913 36.912 227.233 36.912C231.553 36.912 233.521 34.656 233.521 29.472V28.464C233.521 23.28 231.553 21.024 227.233 21.024Z"/>
</mask>
<path d="M116.124 7.68H125.484C132.78 7.68 136.38 10.416 136.38 16.224V16.8C136.38 19.968 134.988 22.848 130.908 23.856C135.084 24.48 137.964 26.88 137.964 31.824V32.592C137.964 38.4 134.412 41.808 126.972 41.808H116.124C113.052 41.808 112.044 40.848 112.044 37.824V11.664C112.044 8.64 113.052 7.68 116.124 7.68ZM118.14 26.544V36.72H123.708C129.132 36.72 131.676 36.144 131.676 31.92V31.296C131.676 28.032 129.852 26.544 123.276 26.544H118.14ZM118.14 12.768V21.552H123.132C128.796 21.552 130.14 20.544 130.14 16.992V16.56C130.14 13.488 128.028 12.768 122.844 12.768H118.14ZM146.659 16.032C148.243 16.032 149.683 16.848 149.683 18.576V39.552C149.683 41.28 148.243 42.096 146.659 42.096C145.123 42.096 143.635 41.28 143.635 39.552V18.576C143.635 16.848 145.123 16.032 146.659 16.032ZM146.659 6.096C148.771 6.096 150.451 7.728 150.451 9.744C150.451 11.76 148.771 13.392 146.659 13.392C144.547 13.392 142.867 11.76 142.867 9.744C142.867 7.728 144.547 6.096 146.659 6.096ZM170.67 15.744C176.238 15.744 179.885 19.104 179.885 25.536V39.552C179.885 41.28 178.446 42.096 176.862 42.096C175.326 42.096 173.838 41.28 173.838 39.552V26.832C173.838 22.224 171.678 21.024 168.798 21.024C166.35 21.024 163.086 22.464 163.086 27.216V39.552C163.086 41.28 161.646 42.096 160.062 42.096C158.526 42.096 157.038 41.28 157.038 39.552V18.48C157.038 16.8 158.43 16.032 159.918 16.032C161.406 16.032 162.798 16.8 162.798 18.48V19.344H162.894C164.382 16.848 167.742 15.744 170.67 15.744ZM196.018 15.744C200.146 15.744 202.354 17.472 203.17 18.624H203.218V18.48C203.218 16.8 204.61 16.032 206.146 16.032C207.634 16.032 209.026 16.8 209.026 18.48V41.088C209.026 48.432 205.09 52.032 196.45 52.032C193.666 52.032 190.738 51.168 188.962 50.16C187.666 49.44 187.57 47.76 188.242 46.56C189.01 45.216 190.114 44.688 191.554 45.408C192.85 46.08 194.818 46.8 196.546 46.8C200.818 46.8 203.074 45.12 203.074 41.04V38.064H202.978C201.586 40.608 198.754 41.52 195.586 41.52C188.914 41.52 185.41 37.152 185.41 29.136V28.176C185.41 20.016 189.634 15.744 196.018 15.744ZM197.026 20.928C193.234 20.928 191.41 23.52 191.41 28.32V28.992C191.41 33.936 193.042 36.384 196.786 36.384C200.77 36.384 203.074 33.504 203.074 29.904V26.16C203.074 23.712 201.202 20.928 197.026 20.928ZM227.233 15.744C235.009 15.744 239.617 20.112 239.617 28.368V29.568C239.617 37.824 235.009 42.192 227.233 42.192C219.457 42.192 214.849 37.824 214.849 29.568V28.368C214.849 20.112 219.457 15.744 227.233 15.744ZM227.233 21.024C222.913 21.024 220.945 23.28 220.945 28.464V29.472C220.945 34.656 222.913 36.912 227.233 36.912C231.553 36.912 233.521 34.656 233.521 29.472V28.464C233.521 23.28 231.553 21.024 227.233 21.024Z" fill="#4FC399"/>
<path d="M130.908 23.856L130.189 20.9436L130.465 26.8231L130.908 23.856ZM118.14 26.544V23.544H115.14V26.544H118.14ZM118.14 36.72H115.14V39.72H118.14V36.72ZM118.14 12.768V9.768H115.14V12.768H118.14ZM118.14 21.552H115.14V24.552H118.14V21.552ZM116.124 7.68V10.68H125.484V7.68V4.68H116.124V7.68ZM125.484 7.68V10.68C128.849 10.68 130.779 11.3273 131.826 12.1416C132.72 12.8376 133.38 13.9793 133.38 16.224H136.38H139.38C139.38 12.6607 138.24 9.53036 135.511 7.40636C132.933 5.40067 129.416 4.68 125.484 4.68V7.68ZM136.38 16.224H133.38V16.8H136.38H139.38V16.224H136.38ZM136.38 16.8H133.38C133.38 17.9656 133.123 18.8289 132.706 19.4328C132.321 19.9895 131.623 20.5893 130.189 20.9436L130.908 23.856L131.628 26.7684C134.274 26.1147 136.311 24.7705 137.643 22.8431C138.941 20.9631 139.38 18.8024 139.38 16.8H136.38ZM130.908 23.856L130.465 26.8231C132.123 27.0708 133.191 27.6221 133.836 28.2957C134.44 28.926 134.964 29.9631 134.964 31.824H137.964H140.964C140.964 28.7409 140.048 26.106 138.168 24.1443C136.33 22.2259 133.87 21.2652 131.352 20.8889L130.908 23.856ZM137.964 31.824H134.964V32.592H137.964H140.964V31.824H137.964ZM137.964 32.592H134.964C134.964 34.8656 134.292 36.2441 133.292 37.1124C132.219 38.0432 130.288 38.808 126.972 38.808V41.808V44.808C131.097 44.808 134.661 43.8688 137.225 41.6436C139.86 39.3559 140.964 36.1264 140.964 32.592H137.964ZM126.972 41.808V38.808H116.124V41.808V44.808H126.972V41.808ZM116.124 41.808V38.808C115.487 38.808 115.13 38.7554 114.948 38.7078C114.792 38.6673 114.882 38.662 115.023 38.7985C115.167 38.9389 115.175 39.0439 115.141 38.9226C115.099 38.7685 115.044 38.4392 115.044 37.824H112.044H109.044C109.044 39.4966 109.283 41.5867 110.842 43.1015C112.376 44.5921 114.46 44.808 116.124 44.808V41.808ZM112.044 37.824H115.044V11.664H112.044H109.044V37.824H112.044ZM112.044 11.664H115.044C115.044 11.0488 115.099 10.7195 115.141 10.5654C115.175 10.4441 115.167 10.5491 115.023 10.6895C114.882 10.826 114.792 10.8207 114.948 10.7802C115.13 10.7326 115.487 10.68 116.124 10.68V7.68V4.68C114.46 4.68 112.376 4.89589 110.842 6.38645C109.283 7.90134 109.044 9.99137 109.044 11.664H112.044ZM118.14 26.544H115.14V36.72H118.14H121.14V26.544H118.14ZM118.14 36.72V39.72H123.708V36.72V33.72H118.14V36.72ZM123.708 36.72V39.72C126.298 39.72 129.032 39.6288 131.092 38.575C132.266 37.9749 133.243 37.0645 133.879 35.7912C134.481 34.5842 134.676 33.2491 134.676 31.92H131.676H128.676C128.676 32.7029 128.554 33.0238 128.509 33.1128C128.498 33.1355 128.501 33.1611 128.36 33.233C128.149 33.3409 127.717 33.4855 126.885 33.5853C126.065 33.6835 125.033 33.72 123.708 33.72V36.72ZM131.676 31.92H134.676V31.296H131.676H128.676V31.92H131.676ZM131.676 31.296H134.676C134.676 30.2218 134.53 29.05 134.017 27.9287C133.48 26.7555 132.625 25.8189 131.505 25.1353C129.461 23.8878 126.617 23.544 123.276 23.544V26.544V29.544C126.512 29.544 127.867 29.9442 128.379 30.2567C128.537 30.3531 128.549 30.4005 128.56 30.4243C128.595 30.5 128.676 30.7383 128.676 31.296H131.676ZM123.276 26.544V23.544H118.14V26.544V29.544H123.276V26.544ZM118.14 12.768H115.14V21.552H118.14H121.14V12.768H118.14ZM118.14 21.552V24.552H123.132V21.552V18.552H118.14V21.552ZM123.132 21.552V24.552C124.614 24.552 125.944 24.4878 127.098 24.3001C128.242 24.1141 129.408 23.7775 130.424 23.1001C132.774 21.5337 133.14 19.0274 133.14 16.992H130.14H127.14C127.14 17.7331 127.064 18.0634 127.02 18.1841C127.005 18.2259 127.005 18.2099 127.036 18.17C127.068 18.128 127.097 18.107 127.096 18.1078C127.068 18.1265 126.836 18.2639 126.135 18.3779C125.444 18.4902 124.483 18.552 123.132 18.552V21.552ZM130.14 16.992H133.14V16.56H130.14H127.14V16.992H130.14ZM130.14 16.56H133.14C133.14 15.4655 132.954 14.2933 132.348 13.2086C131.719 12.082 130.783 11.3104 129.734 10.807C127.865 9.91105 125.388 9.768 122.844 9.768V12.768V15.768C124.087 15.768 125.051 15.8121 125.8 15.9055C126.565 16.0008 126.959 16.1308 127.139 16.217C127.265 16.2776 127.181 16.262 127.11 16.1344C127.062 16.0487 127.14 16.1185 127.14 16.56H130.14ZM122.844 12.768V9.768H118.14V12.768V15.768H122.844V12.768ZM146.659 16.032V19.032C146.802 19.032 146.906 19.051 146.966 19.0683C147.026 19.0858 147.014 19.093 146.961 19.0529C146.9 19.0072 146.814 18.92 146.75 18.7911C146.684 18.6606 146.683 18.5708 146.683 18.576H149.683H152.683C152.683 16.7657 151.877 15.2436 150.569 14.2591C149.361 13.3501 147.918 13.032 146.659 13.032V16.032ZM149.683 18.576H146.683V39.552H149.683H152.683V18.576H149.683ZM149.683 39.552H146.683C146.683 39.5572 146.684 39.4674 146.75 39.3369C146.814 39.208 146.9 39.1208 146.961 39.0751C147.014 39.035 147.026 39.0422 146.966 39.0597C146.906 39.077 146.802 39.096 146.659 39.096V42.096V45.096C147.918 45.096 149.361 44.7779 150.569 43.8689C151.877 42.8844 152.683 41.3623 152.683 39.552H149.683ZM146.659 42.096V39.096C146.535 39.096 146.438 39.079 146.377 39.0611C146.314 39.0429 146.318 39.0329 146.362 39.0659C146.413 39.1038 146.496 39.1842 146.562 39.3118C146.593 39.3724 146.612 39.4296 146.623 39.4773C146.629 39.5004 146.632 39.519 146.633 39.5322C146.635 39.5454 146.635 39.5522 146.635 39.552H143.635H140.635C140.635 41.3978 141.482 42.9126 142.779 43.8781C143.978 44.771 145.408 45.096 146.659 45.096V42.096ZM143.635 39.552H146.635V18.576H143.635H140.635V39.552H143.635ZM143.635 18.576H146.635C146.635 18.5757 146.635 18.5826 146.633 18.5958C146.632 18.609 146.629 18.6276 146.623 18.6507C146.612 18.6984 146.593 18.7556 146.562 18.8162C146.496 18.9438 146.413 19.0242 146.362 19.0621C146.318 19.0951 146.314 19.0851 146.377 19.0669C146.438 19.049 146.535 19.032 146.659 19.032V16.032V13.032C145.408 13.032 143.978 13.357 142.779 14.2499C141.482 15.2154 140.635 16.7302 140.635 18.576H143.635ZM146.659 6.096V9.096C147.216 9.096 147.451 9.48495 147.451 9.744H150.451H153.451C153.451 5.97104 150.326 3.096 146.659 3.096V6.096ZM150.451 9.744H147.451C147.451 10.003 147.216 10.392 146.659 10.392V13.392V16.392C150.326 16.392 153.451 13.5169 153.451 9.744H150.451ZM146.659 13.392V10.392C146.102 10.392 145.867 10.003 145.867 9.744H142.867H139.867C139.867 13.5169 142.992 16.392 146.659 16.392V13.392ZM142.867 9.744H145.867C145.867 9.48495 146.102 9.096 146.659 9.096V6.096V3.096C142.992 3.096 139.867 5.97105 139.867 9.744H142.867ZM162.798 19.344H159.798V22.344H162.798V19.344ZM162.894 19.344V22.344H164.598L165.47 20.8802L162.894 19.344ZM170.67 15.744V18.744C172.849 18.744 174.305 19.3893 175.221 20.3257C176.142 21.2672 176.885 22.8803 176.885 25.536H179.885H182.885C182.885 21.7597 181.805 18.4768 179.51 16.1303C177.21 13.7787 174.058 12.744 170.67 12.744V15.744ZM179.885 25.536H176.885V39.552H179.885H182.885V25.536H179.885ZM179.885 39.552H176.885C176.885 39.5572 176.887 39.4674 176.952 39.3369C177.017 39.208 177.103 39.1208 177.163 39.0751C177.217 39.035 177.229 39.0422 177.169 39.0597C177.109 39.077 177.005 39.096 176.862 39.096V42.096V45.096C178.121 45.096 179.564 44.7779 180.772 43.8689C182.08 42.8844 182.885 41.3623 182.885 39.552H179.885ZM176.862 42.096V39.096C176.738 39.096 176.641 39.079 176.58 39.0611C176.517 39.0429 176.521 39.0329 176.565 39.0659C176.616 39.1038 176.699 39.1842 176.765 39.3118C176.796 39.3724 176.815 39.4296 176.826 39.4773C176.832 39.5004 176.835 39.519 176.836 39.5322C176.838 39.5454 176.838 39.5522 176.838 39.552H173.838H170.838C170.838 41.3978 171.685 42.9126 172.982 43.8781C174.181 44.771 175.611 45.096 176.862 45.096V42.096ZM173.838 39.552H176.838V26.832H173.838H170.838V39.552H173.838ZM173.838 26.832H176.838C176.838 24.1231 176.207 21.7217 174.49 20.0502C172.78 18.3858 170.582 18.024 168.798 18.024V21.024V24.024C169.893 24.024 170.215 24.2622 170.305 24.3498C170.388 24.4303 170.838 24.9329 170.838 26.832H173.838ZM168.798 21.024V18.024C167.046 18.024 164.87 18.5304 163.08 20.0525C161.196 21.6545 160.085 24.088 160.085 27.216H163.086H166.086C166.086 25.592 166.607 24.9295 166.967 24.6235C167.421 24.2376 168.101 24.024 168.798 24.024V21.024ZM163.086 27.216H160.085V39.552H163.086H166.086V27.216H163.086ZM163.086 39.552H160.085C160.085 39.5572 160.087 39.4674 160.152 39.3369C160.217 39.208 160.303 39.1208 160.363 39.0751C160.417 39.035 160.429 39.0422 160.369 39.0597C160.309 39.077 160.205 39.096 160.062 39.096V42.096V45.096C161.321 45.096 162.764 44.7779 163.972 43.8689C165.28 42.8844 166.086 41.3623 166.086 39.552H163.086ZM160.062 42.096V39.096C159.938 39.096 159.841 39.079 159.78 39.0611C159.717 39.0429 159.721 39.0329 159.765 39.0659C159.816 39.1038 159.899 39.1842 159.965 39.3118C159.996 39.3724 160.015 39.4296 160.026 39.4773C160.032 39.5004 160.035 39.519 160.036 39.5322C160.038 39.5454 160.037 39.5522 160.037 39.552H157.037H154.037C154.037 41.3978 154.885 42.9126 156.182 43.8781C157.381 44.771 158.811 45.096 160.062 45.096V42.096ZM157.037 39.552H160.037V18.48H157.037H154.037V39.552H157.037ZM157.037 18.48H160.037C160.037 18.478 160.038 18.5042 160.027 18.552C160.016 18.6006 159.996 18.6614 159.963 18.7278C159.892 18.8688 159.797 18.9674 159.724 19.0228C159.658 19.0723 159.63 19.0725 159.673 19.0602C159.715 19.0479 159.798 19.032 159.917 19.032V16.032V13.032C158.707 13.032 157.299 13.3378 156.115 14.2292C154.828 15.1982 154.037 16.698 154.037 18.48H157.037ZM159.917 16.032V19.032C160.037 19.032 160.119 19.0479 160.162 19.0602C160.205 19.0725 160.177 19.0723 160.111 19.0228C160.038 18.9674 159.943 18.8688 159.872 18.7278C159.839 18.6614 159.819 18.6006 159.808 18.552C159.797 18.5042 159.798 18.478 159.798 18.48H162.798H165.798C165.798 16.698 165.007 15.1982 163.72 14.2292C162.536 13.3378 161.128 13.032 159.917 13.032V16.032ZM162.798 18.48H159.798V19.344H162.798H165.798V18.48H162.798ZM162.798 19.344V22.344H162.894V19.344V16.344H162.798V19.344ZM162.894 19.344L165.47 20.8802C166.171 19.7054 168.206 18.744 170.67 18.744V15.744V12.744C167.277 12.744 162.592 13.9906 160.317 17.8078L162.894 19.344ZM203.17 18.624L200.722 20.358L201.619 21.624H203.17V18.624ZM203.218 18.624V21.624H206.218V18.624H203.218ZM188.962 50.16L190.443 47.5509L190.431 47.5442L190.419 47.5375L188.962 50.16ZM188.242 46.56L185.637 45.0716L185.631 45.0829L185.624 45.0942L188.242 46.56ZM191.554 45.408L192.935 42.7447L192.915 42.7346L192.896 42.7247L191.554 45.408ZM203.074 38.064H206.074V35.064H203.074V38.064ZM202.978 38.064V35.064H201.2L200.346 36.624L202.978 38.064ZM196.018 15.744V18.744C199.264 18.744 200.519 20.0713 200.722 20.358L203.17 18.624L205.618 16.8899C204.189 14.8727 201.028 12.744 196.018 12.744V15.744ZM203.17 18.624V21.624H203.218V18.624V15.624H203.17V18.624ZM203.218 18.624H206.218V18.48H203.218H200.218V18.624H203.218ZM203.218 18.48H206.218C206.218 18.4779 206.218 18.5047 206.207 18.5535C206.196 18.603 206.175 18.6651 206.141 18.733C206.069 18.8774 205.971 18.9773 205.897 19.0324C205.832 19.0814 205.807 19.0791 205.859 19.0645C205.91 19.0499 206.007 19.032 206.146 19.032V16.032V13.032C204.929 13.032 203.51 13.3296 202.315 14.2196C201.011 15.1899 200.218 16.6956 200.218 18.48H203.218ZM206.146 16.032V19.032C206.265 19.032 206.348 19.0479 206.39 19.0602C206.433 19.0725 206.406 19.0723 206.34 19.0228C206.266 18.9674 206.171 18.8688 206.101 18.7278C206.068 18.6614 206.048 18.6006 206.037 18.552C206.026 18.5042 206.026 18.478 206.026 18.48H209.026H212.026C212.026 16.698 211.235 15.1982 209.948 14.2292C208.764 13.3378 207.357 13.032 206.146 13.032V16.032ZM209.026 18.48H206.026V41.088H209.026H212.026V18.48H209.026ZM209.026 41.088H206.026C206.026 44.2387 205.195 46.0061 203.995 47.0628C202.716 48.1898 200.433 49.032 196.45 49.032V52.032V55.032C201.107 55.032 205.112 54.0742 207.961 51.5652C210.889 48.9859 212.026 45.2813 212.026 41.088H209.026ZM196.45 52.032V49.032C194.18 49.032 191.763 48.3002 190.443 47.5509L188.962 50.16L187.481 52.7691C189.713 54.0358 193.152 55.032 196.45 55.032V52.032ZM188.962 50.16L190.419 47.5375C190.528 47.5979 190.639 47.6983 190.722 47.8251C190.799 47.9434 190.822 48.04 190.829 48.0818C190.835 48.121 190.829 48.1246 190.834 48.097C190.839 48.0699 190.85 48.043 190.86 48.0258L188.242 46.56L185.624 45.0942C184.987 46.2322 184.687 47.6252 184.899 48.9982C185.121 50.4321 185.93 51.9073 187.505 52.7825L188.962 50.16ZM188.242 46.56L190.847 48.0484C190.931 47.9016 190.98 47.8553 190.971 47.8639C190.957 47.8774 190.873 47.9528 190.713 48.0139C190.543 48.0785 190.375 48.0936 190.248 48.0813C190.135 48.0703 190.118 48.044 190.212 48.0913L191.554 45.408L192.896 42.7247C191.616 42.0847 190.095 41.8295 188.579 42.4061C187.149 42.9501 186.221 44.0496 185.637 45.0716L188.242 46.56ZM191.554 45.408L190.173 48.0713C191.67 48.8476 194.135 49.8 196.546 49.8V46.8V43.8C195.501 43.8 194.03 43.3124 192.935 42.7447L191.554 45.408ZM196.546 46.8V49.8C198.986 49.8 201.466 49.3357 203.351 47.7392C205.341 46.0539 206.074 43.6281 206.074 41.04H203.074H200.074C200.074 42.5319 199.679 42.9861 199.473 43.1608C199.162 43.4243 198.378 43.8 196.546 43.8V46.8ZM203.074 41.04H206.074V38.064H203.074H200.074V41.04H203.074ZM203.074 38.064V35.064H202.978V38.064V41.064H203.074V38.064ZM202.978 38.064L200.346 36.624C199.74 37.7313 198.334 38.52 195.586 38.52V41.52V44.52C199.174 44.52 203.432 43.4847 205.61 39.504L202.978 38.064ZM195.586 41.52V38.52C192.949 38.52 191.344 37.6903 190.32 36.4365C189.212 35.08 188.41 32.768 188.41 29.136H185.41H182.41C182.41 33.52 183.36 37.4 185.672 40.2315C188.068 43.1657 191.551 44.52 195.586 44.52V41.52ZM185.41 29.136H188.41V28.176H185.41H182.41V29.136H185.41ZM185.41 28.176H188.41C188.41 24.5871 189.337 22.2729 190.563 20.8919C191.75 19.5549 193.525 18.744 196.018 18.744V15.744V12.744C192.127 12.744 188.598 14.0691 186.077 16.9081C183.595 19.7031 182.41 23.6049 182.41 28.176H185.41ZM197.026 20.928V17.928C194.374 17.928 191.992 18.8824 190.39 21.0314C188.908 23.0205 188.41 25.6228 188.41 28.32H191.41H194.41C194.41 26.2172 194.824 25.1235 195.202 24.6166C195.46 24.2696 195.886 23.928 197.026 23.928V20.928ZM191.41 28.32H188.41V28.992H191.41H194.41V28.32H191.41ZM191.41 28.992H188.41C188.41 31.6861 188.834 34.2934 190.25 36.2823C191.818 38.4833 194.189 39.384 196.786 39.384V36.384V33.384C195.639 33.384 195.322 33.0607 195.138 32.8017C194.802 32.3306 194.41 31.2419 194.41 28.992H191.41ZM196.786 36.384V39.384C199.546 39.384 201.945 38.3629 203.634 36.5227C205.292 34.7164 206.074 32.3348 206.074 29.904H203.074H200.074C200.074 31.0732 199.704 31.9316 199.214 32.4653C198.755 32.9651 198.01 33.384 196.786 33.384V36.384ZM203.074 29.904H206.074V26.16H203.074H200.074V29.904H203.074ZM203.074 26.16H206.074C206.074 24.1953 205.328 22.1147 203.75 20.5175C202.132 18.8795 199.819 17.928 197.026 17.928V20.928V23.928C198.409 23.928 199.12 24.3685 199.482 24.7345C199.884 25.1413 200.074 25.6767 200.074 26.16H203.074ZM227.233 15.744V18.744C230.571 18.744 232.811 19.6727 234.219 21.0813C235.627 22.4886 236.617 24.7874 236.617 28.368H239.617H242.617C242.617 23.6926 241.303 19.6794 238.462 16.8387C235.623 13.9993 231.671 12.744 227.233 12.744V15.744ZM239.617 28.368H236.617V29.568H239.617H242.617V28.368H239.617ZM239.617 29.568H236.617C236.617 33.1486 235.627 35.4474 234.219 36.8547C232.811 38.2633 230.571 39.192 227.233 39.192V42.192V45.192C231.671 45.192 235.623 43.9367 238.462 41.0973C241.303 38.2566 242.617 34.2434 242.617 29.568H239.617ZM227.233 42.192V39.192C223.895 39.192 221.655 38.2633 220.246 36.8547C218.839 35.4474 217.849 33.1486 217.849 29.568H214.849H211.849C211.849 34.2434 213.163 38.2566 216.003 41.0973C218.843 43.9367 222.795 45.192 227.233 45.192V42.192ZM214.849 29.568H217.849V28.368H214.849H211.849V29.568H214.849ZM214.849 28.368H217.849C217.849 24.7874 218.839 22.4886 220.246 21.0813C221.655 19.6727 223.895 18.744 227.233 18.744V15.744V12.744C222.795 12.744 218.843 13.9993 216.003 16.8387C213.163 19.6794 211.849 23.6926 211.849 28.368H214.849ZM227.233 21.024V18.024C224.571 18.024 221.992 18.7317 220.184 20.8551C218.471 22.8679 217.945 25.5939 217.945 28.464H220.945H223.945C223.945 26.1501 224.403 25.1561 224.753 24.7449C225.009 24.4443 225.575 24.024 227.233 24.024V21.024ZM220.945 28.464H217.945V29.472H220.945H223.945V28.464H220.945ZM220.945 29.472H217.945C217.945 32.3421 218.471 35.0681 220.184 37.0809C221.992 39.2043 224.571 39.912 227.233 39.912V36.912V33.912C225.575 33.912 225.009 33.4917 224.753 33.1911C224.403 32.7799 223.945 31.7859 223.945 29.472H220.945ZM227.233 36.912V39.912C229.895 39.912 232.473 39.2043 234.281 37.0809C235.995 35.0681 236.521 32.3421 236.521 29.472H233.521H230.521C230.521 31.7859 230.063 32.7799 229.712 33.1911C229.456 33.4917 228.891 33.912 227.233 33.912V36.912ZM233.521 29.472H236.521V28.464H233.521H230.521V29.472H233.521ZM233.521 28.464H236.521C236.521 25.5939 235.995 22.8679 234.281 20.8551C232.473 18.7317 229.895 18.024 227.233 18.024V21.024V24.024C228.891 24.024 229.456 24.4443 229.712 24.7449C230.063 25.1561 230.521 26.1501 230.521 28.464H233.521Z" fill="white" mask="url(#path-6-outside-1_521_2967)"/>
<mask id="path-8-outside-2_521_2967" maskUnits="userSpaceOnUse" x="42" y="51" width="266" height="49" fill="black">
<rect fill="white" x="42" y="51" width="266" height="49"/>
<path d="M67.3021 53.392C68.7421 53.392 70.1341 54.16 70.1341 55.888V83.92C70.1341 86.944 69.1261 87.904 66.0541 87.904C63.7021 87.904 62.7901 87.424 60.3421 83.056L51.2701 66.832C50.3101 65.104 49.5421 63.472 48.9661 61.312V85.6C48.9661 87.328 47.5741 88.096 46.1341 88.096C44.6941 88.096 43.3021 87.328 43.3021 85.6V57.568C43.3021 54.544 44.3101 53.584 47.3821 53.584C49.7341 53.584 50.6461 54.112 53.0941 58.432L62.1661 74.656C63.1261 76.384 63.8941 78.016 64.4701 80.176V55.888C64.4701 54.16 65.8621 53.392 67.3021 53.392ZM88.1678 66.736C84.1358 66.736 82.1198 69.088 82.1198 72.352V72.688H94.0238V72.208C94.0238 69.088 92.3918 66.736 88.1678 66.736ZM88.2638 61.744C95.1278 61.744 99.8318 65.872 99.8318 73.12V73.216C99.8318 76.24 98.8238 77.2 95.7518 77.2H82.1198V77.296C82.1198 80.704 84.2798 83.152 88.5518 83.152C91.2398 83.152 93.0638 82.768 95.1758 81.808C96.4718 81.232 97.8158 81.664 98.3918 83.008C98.9678 84.352 98.6318 85.744 97.3838 86.368C94.9838 87.568 92.1998 88.192 88.3118 88.192C80.6798 88.192 76.2158 83.968 76.2158 75.616V74.368C76.2158 66.064 80.7758 61.744 88.2638 61.744ZM110.249 55.264C111.833 55.264 113.273 56.08 113.273 57.856V62.32H118.313C119.753 62.32 120.425 63.472 120.425 64.816C120.425 66.16 119.753 67.312 118.313 67.312H113.273V79.984C113.273 82.096 113.993 83.056 115.625 83.056C116.393 83.056 117.017 82.96 117.833 82.672C118.841 82.336 120.041 82.72 120.521 84.256C120.953 85.6 120.521 86.848 119.321 87.376C118.169 87.904 116.633 88.192 115.097 88.192C109.385 88.192 107.225 85.312 107.225 79.696V67.312H104.825C103.385 67.312 102.713 66.16 102.713 64.816C102.713 63.472 103.385 62.32 104.825 62.32H107.225V57.856C107.225 56.08 108.665 55.264 110.249 55.264ZM140.829 62.032C142.221 62.032 143.757 62.8 144.285 64.96L148.221 81.856H148.413L152.205 64.288C152.637 62.224 154.221 61.792 155.757 62.128C157.437 62.512 158.301 63.76 157.821 65.68L152.925 84.832C152.301 87.184 150.909 88.096 148.653 88.096C146.397 88.096 144.957 87.136 144.381 84.88L140.781 70.144H140.589L136.941 84.88C136.365 87.136 134.925 88.096 132.669 88.096C130.413 88.096 128.973 87.136 128.397 84.88L123.501 65.824C123.021 63.904 123.933 62.512 125.709 62.128C127.341 61.792 129.069 62.224 129.501 64.432L132.957 81.856H133.149L137.277 65.056C137.805 62.8 139.389 62.032 140.829 62.032ZM174.053 61.744C181.829 61.744 186.437 66.112 186.437 74.368V75.568C186.437 83.824 181.829 88.192 174.053 88.192C166.277 88.192 161.669 83.824 161.669 75.568V74.368C161.669 66.112 166.277 61.744 174.053 61.744ZM174.053 67.024C169.733 67.024 167.765 69.28 167.765 74.464V75.472C167.765 80.656 169.733 82.912 174.053 82.912C178.373 82.912 180.341 80.656 180.341 75.472V74.464C180.341 69.28 178.373 67.024 174.053 67.024ZM205.08 61.744C206.184 61.744 207.096 61.936 207.672 62.272C208.824 62.896 209.16 63.952 208.92 65.296C208.584 67.072 207.336 68.176 205.896 67.888C205.08 67.744 204.312 67.504 203.496 67.504C200.568 67.504 198.312 69.904 198.312 73.12V85.552C198.312 87.28 196.872 88.096 195.288 88.096C193.752 88.096 192.264 87.28 192.264 85.552V64.48C192.264 62.8 193.656 62.032 195.144 62.032C196.68 62.032 198.072 62.8 198.072 64.48V66.16H198.168C199.512 63.52 202.104 61.744 205.08 61.744ZM216.522 52.192C218.106 52.192 219.546 53.008 219.546 54.736V73.072L229.866 62.896C231.066 61.696 232.986 61.84 234.042 62.992C235.146 64.24 235.194 65.872 233.946 66.976L226.842 73.408L235.194 83.248C236.346 84.592 235.962 86.272 234.762 87.28C233.466 88.384 231.594 88.432 230.538 87.088L222.522 77.152L219.546 79.84V85.552C219.546 87.28 218.106 88.096 216.522 88.096C214.986 88.096 213.498 87.28 213.498 85.552V54.736C213.498 53.008 214.986 52.192 216.522 52.192ZM244.604 62.032C246.188 62.032 247.628 62.848 247.628 64.576V85.552C247.628 87.28 246.188 88.096 244.604 88.096C243.068 88.096 241.58 87.28 241.58 85.552V64.576C241.58 62.848 243.068 62.032 244.604 62.032ZM244.604 52.096C246.716 52.096 248.396 53.728 248.396 55.744C248.396 57.76 246.716 59.392 244.604 59.392C242.492 59.392 240.812 57.76 240.812 55.744C240.812 53.728 242.492 52.096 244.604 52.096ZM268.615 61.744C274.183 61.744 277.831 65.104 277.831 71.536V85.552C277.831 87.28 276.391 88.096 274.807 88.096C273.271 88.096 271.783 87.28 271.783 85.552V72.832C271.783 68.224 269.623 67.024 266.743 67.024C264.295 67.024 261.031 68.464 261.031 73.216V85.552C261.031 87.28 259.591 88.096 258.007 88.096C256.471 88.096 254.983 87.28 254.983 85.552V64.48C254.983 62.8 256.375 62.032 257.863 62.032C259.351 62.032 260.743 62.8 260.743 64.48V65.344H260.839C262.327 62.848 265.687 61.744 268.615 61.744ZM293.963 61.744C298.091 61.744 300.299 63.472 301.115 64.624H301.163V64.48C301.163 62.8 302.555 62.032 304.091 62.032C305.579 62.032 306.971 62.8 306.971 64.48V87.088C306.971 94.432 303.035 98.032 294.395 98.032C291.611 98.032 288.683 97.168 286.907 96.16C285.611 95.44 285.515 93.76 286.187 92.56C286.955 91.216 288.059 90.688 289.499 91.408C290.795 92.08 292.763 92.8 294.491 92.8C298.763 92.8 301.019 91.12 301.019 87.04V84.064H300.923C299.531 86.608 296.699 87.52 293.531 87.52C286.859 87.52 283.355 83.152 283.355 75.136V74.176C283.355 66.016 287.579 61.744 293.963 61.744ZM294.971 66.928C291.179 66.928 289.355 69.52 289.355 74.32V74.992C289.355 79.936 290.987 82.384 294.731 82.384C298.715 82.384 301.019 79.504 301.019 75.904V72.16C301.019 69.712 299.147 66.928 294.971 66.928Z"/>
</mask>
<path d="M67.3021 53.392C68.7421 53.392 70.1341 54.16 70.1341 55.888V83.92C70.1341 86.944 69.1261 87.904 66.0541 87.904C63.7021 87.904 62.7901 87.424 60.3421 83.056L51.2701 66.832C50.3101 65.104 49.5421 63.472 48.9661 61.312V85.6C48.9661 87.328 47.5741 88.096 46.1341 88.096C44.6941 88.096 43.3021 87.328 43.3021 85.6V57.568C43.3021 54.544 44.3101 53.584 47.3821 53.584C49.7341 53.584 50.6461 54.112 53.0941 58.432L62.1661 74.656C63.1261 76.384 63.8941 78.016 64.4701 80.176V55.888C64.4701 54.16 65.8621 53.392 67.3021 53.392ZM88.1678 66.736C84.1358 66.736 82.1198 69.088 82.1198 72.352V72.688H94.0238V72.208C94.0238 69.088 92.3918 66.736 88.1678 66.736ZM88.2638 61.744C95.1278 61.744 99.8318 65.872 99.8318 73.12V73.216C99.8318 76.24 98.8238 77.2 95.7518 77.2H82.1198V77.296C82.1198 80.704 84.2798 83.152 88.5518 83.152C91.2398 83.152 93.0638 82.768 95.1758 81.808C96.4718 81.232 97.8158 81.664 98.3918 83.008C98.9678 84.352 98.6318 85.744 97.3838 86.368C94.9838 87.568 92.1998 88.192 88.3118 88.192C80.6798 88.192 76.2158 83.968 76.2158 75.616V74.368C76.2158 66.064 80.7758 61.744 88.2638 61.744ZM110.249 55.264C111.833 55.264 113.273 56.08 113.273 57.856V62.32H118.313C119.753 62.32 120.425 63.472 120.425 64.816C120.425 66.16 119.753 67.312 118.313 67.312H113.273V79.984C113.273 82.096 113.993 83.056 115.625 83.056C116.393 83.056 117.017 82.96 117.833 82.672C118.841 82.336 120.041 82.72 120.521 84.256C120.953 85.6 120.521 86.848 119.321 87.376C118.169 87.904 116.633 88.192 115.097 88.192C109.385 88.192 107.225 85.312 107.225 79.696V67.312H104.825C103.385 67.312 102.713 66.16 102.713 64.816C102.713 63.472 103.385 62.32 104.825 62.32H107.225V57.856C107.225 56.08 108.665 55.264 110.249 55.264ZM140.829 62.032C142.221 62.032 143.757 62.8 144.285 64.96L148.221 81.856H148.413L152.205 64.288C152.637 62.224 154.221 61.792 155.757 62.128C157.437 62.512 158.301 63.76 157.821 65.68L152.925 84.832C152.301 87.184 150.909 88.096 148.653 88.096C146.397 88.096 144.957 87.136 144.381 84.88L140.781 70.144H140.589L136.941 84.88C136.365 87.136 134.925 88.096 132.669 88.096C130.413 88.096 128.973 87.136 128.397 84.88L123.501 65.824C123.021 63.904 123.933 62.512 125.709 62.128C127.341 61.792 129.069 62.224 129.501 64.432L132.957 81.856H133.149L137.277 65.056C137.805 62.8 139.389 62.032 140.829 62.032ZM174.053 61.744C181.829 61.744 186.437 66.112 186.437 74.368V75.568C186.437 83.824 181.829 88.192 174.053 88.192C166.277 88.192 161.669 83.824 161.669 75.568V74.368C161.669 66.112 166.277 61.744 174.053 61.744ZM174.053 67.024C169.733 67.024 167.765 69.28 167.765 74.464V75.472C167.765 80.656 169.733 82.912 174.053 82.912C178.373 82.912 180.341 80.656 180.341 75.472V74.464C180.341 69.28 178.373 67.024 174.053 67.024ZM205.08 61.744C206.184 61.744 207.096 61.936 207.672 62.272C208.824 62.896 209.16 63.952 208.92 65.296C208.584 67.072 207.336 68.176 205.896 67.888C205.08 67.744 204.312 67.504 203.496 67.504C200.568 67.504 198.312 69.904 198.312 73.12V85.552C198.312 87.28 196.872 88.096 195.288 88.096C193.752 88.096 192.264 87.28 192.264 85.552V64.48C192.264 62.8 193.656 62.032 195.144 62.032C196.68 62.032 198.072 62.8 198.072 64.48V66.16H198.168C199.512 63.52 202.104 61.744 205.08 61.744ZM216.522 52.192C218.106 52.192 219.546 53.008 219.546 54.736V73.072L229.866 62.896C231.066 61.696 232.986 61.84 234.042 62.992C235.146 64.24 235.194 65.872 233.946 66.976L226.842 73.408L235.194 83.248C236.346 84.592 235.962 86.272 234.762 87.28C233.466 88.384 231.594 88.432 230.538 87.088L222.522 77.152L219.546 79.84V85.552C219.546 87.28 218.106 88.096 216.522 88.096C214.986 88.096 213.498 87.28 213.498 85.552V54.736C213.498 53.008 214.986 52.192 216.522 52.192ZM244.604 62.032C246.188 62.032 247.628 62.848 247.628 64.576V85.552C247.628 87.28 246.188 88.096 244.604 88.096C243.068 88.096 241.58 87.28 241.58 85.552V64.576C241.58 62.848 243.068 62.032 244.604 62.032ZM244.604 52.096C246.716 52.096 248.396 53.728 248.396 55.744C248.396 57.76 246.716 59.392 244.604 59.392C242.492 59.392 240.812 57.76 240.812 55.744C240.812 53.728 242.492 52.096 244.604 52.096ZM268.615 61.744C274.183 61.744 277.831 65.104 277.831 71.536V85.552C277.831 87.28 276.391 88.096 274.807 88.096C273.271 88.096 271.783 87.28 271.783 85.552V72.832C271.783 68.224 269.623 67.024 266.743 67.024C264.295 67.024 261.031 68.464 261.031 73.216V85.552C261.031 87.28 259.591 88.096 258.007 88.096C256.471 88.096 254.983 87.28 254.983 85.552V64.48C254.983 62.8 256.375 62.032 257.863 62.032C259.351 62.032 260.743 62.8 260.743 64.48V65.344H260.839C262.327 62.848 265.687 61.744 268.615 61.744ZM293.963 61.744C298.091 61.744 300.299 63.472 301.115 64.624H301.163V64.48C301.163 62.8 302.555 62.032 304.091 62.032C305.579 62.032 306.971 62.8 306.971 64.48V87.088C306.971 94.432 303.035 98.032 294.395 98.032C291.611 98.032 288.683 97.168 286.907 96.16C285.611 95.44 285.515 93.76 286.187 92.56C286.955 91.216 288.059 90.688 289.499 91.408C290.795 92.08 292.763 92.8 294.491 92.8C298.763 92.8 301.019 91.12 301.019 87.04V84.064H300.923C299.531 86.608 296.699 87.52 293.531 87.52C286.859 87.52 283.355 83.152 283.355 75.136V74.176C283.355 66.016 287.579 61.744 293.963 61.744ZM294.971 66.928C291.179 66.928 289.355 69.52 289.355 74.32V74.992C289.355 79.936 290.987 82.384 294.731 82.384C298.715 82.384 301.019 79.504 301.019 75.904V72.16C301.019 69.712 299.147 66.928 294.971 66.928Z" fill="white"/>
<path d="M60.3421 83.056L59.4692 83.5441L59.4697 83.5449L60.3421 83.056ZM51.2701 66.832L50.3959 67.3176L50.3972 67.3201L51.2701 66.832ZM48.9661 61.312L49.9323 61.0543L47.9661 61.312H48.9661ZM53.0941 58.432L53.9669 57.9439L53.9641 57.939L53.0941 58.432ZM62.1661 74.656L63.0402 74.1704L63.0389 74.1679L62.1661 74.656ZM64.4701 80.176L63.5038 80.4337L65.4701 80.176H64.4701ZM67.3021 53.392V54.392C67.8604 54.392 68.3357 54.543 68.6466 54.7833C68.9245 54.998 69.1341 55.3273 69.1341 55.888H70.1341H71.1341C71.1341 54.7207 70.6476 53.802 69.8695 53.2007C69.1245 52.625 68.1838 52.392 67.3021 52.392V53.392ZM70.1341 55.888H69.1341V83.92H70.1341H71.1341V55.888H70.1341ZM70.1341 83.92H69.1341C69.1341 85.3785 68.8775 86.0098 68.5492 86.3288C68.2125 86.656 67.5472 86.904 66.0541 86.904V87.904V88.904C67.6329 88.904 69.0076 88.672 69.9429 87.7632C70.8866 86.8462 71.1341 85.4855 71.1341 83.92H70.1341ZM66.0541 87.904V86.904C64.9548 86.904 64.4212 86.7895 63.8608 86.3388C63.2034 85.81 62.4458 84.7644 61.2144 82.5671L60.3421 83.056L59.4697 83.5449C60.6863 85.7156 61.6088 87.094 62.6073 87.8972C63.7029 88.7785 64.8014 88.904 66.0541 88.904V87.904ZM60.3421 83.056L61.2149 82.5679L52.1429 66.3439L51.2701 66.832L50.3972 67.3201L59.4692 83.5441L60.3421 83.056ZM51.2701 66.832L52.1442 66.3464C51.2087 64.6623 50.4802 63.109 49.9323 61.0543L48.9661 61.312L47.9998 61.5697C48.6039 63.835 49.4115 65.5456 50.3959 67.3176L51.2701 66.832ZM48.9661 61.312H47.9661V85.6H48.9661H49.9661V61.312H48.9661ZM48.9661 85.6H47.9661C47.9661 86.1607 47.7565 86.49 47.4786 86.7047C47.1677 86.945 46.6924 87.096 46.1341 87.096V88.096V89.096C47.0158 89.096 47.9565 88.863 48.7015 88.2873C49.4796 87.686 49.9661 86.7673 49.9661 85.6H48.9661ZM46.1341 88.096V87.096C45.5758 87.096 45.1005 86.945 44.7895 86.7047C44.5116 86.49 44.3021 86.1607 44.3021 85.6H43.3021H42.3021C42.3021 86.7673 42.7885 87.686 43.5666 88.2873C44.3117 88.863 45.2524 89.096 46.1341 89.096V88.096ZM43.3021 85.6H44.3021V57.568H43.3021H42.3021V85.6H43.3021ZM43.3021 57.568H44.3021C44.3021 56.1095 44.5586 55.4782 44.8869 55.1592C45.2236 54.832 45.8889 54.584 47.3821 54.584V53.584V52.584C45.8032 52.584 44.4285 52.816 43.4932 53.7248C42.5495 54.6418 42.3021 56.0025 42.3021 57.568H43.3021ZM47.3821 53.584V54.584C48.47 54.584 49.0074 54.7063 49.5719 55.1645C50.2337 55.7016 50.9922 56.7511 52.224 58.925L53.0941 58.432L53.9641 57.939C52.748 55.7929 51.8264 54.4184 50.8322 53.6115C49.7407 52.7257 48.6461 52.584 47.3821 52.584V53.584ZM53.0941 58.432L52.2212 58.92L61.2933 75.1441L62.1661 74.656L63.0389 74.1679L53.9669 57.9439L53.0941 58.432ZM62.1661 74.656L61.2919 75.1416C62.2275 76.8256 62.9559 78.379 63.5038 80.4337L64.4701 80.176L65.4363 79.9183C64.8322 77.653 64.0247 75.9423 63.0402 74.1704L62.1661 74.656ZM64.4701 80.176H65.4701V55.888H64.4701H63.4701V80.176H64.4701ZM64.4701 55.888H65.4701C65.4701 55.3273 65.6796 54.998 65.9575 54.7833C66.2685 54.543 66.7438 54.392 67.3021 54.392V53.392V52.392C66.4204 52.392 65.4797 52.625 64.7346 53.2007C63.9565 53.802 63.4701 54.7207 63.4701 55.888H64.4701ZM82.1198 72.688H81.1198V73.688H82.1198V72.688ZM94.0238 72.688V73.688H95.0238V72.688H94.0238ZM82.1198 77.2V76.2H81.1198V77.2H82.1198ZM95.1758 81.808L94.7697 80.8942L94.762 80.8976L95.1758 81.808ZM98.3918 83.008L97.4727 83.4019V83.4019L98.3918 83.008ZM97.3838 86.368L97.831 87.2624H97.831L97.3838 86.368ZM88.1678 66.736V65.736C85.9569 65.736 84.1677 66.3847 82.929 67.6087C81.6912 68.8317 81.1198 70.5141 81.1198 72.352H82.1198H83.1198C83.1198 70.9259 83.5565 69.8003 84.3347 69.0313C85.112 68.2633 86.3467 67.736 88.1678 67.736V66.736ZM82.1198 72.352H81.1198V72.688H82.1198H83.1198V72.352H82.1198ZM82.1198 72.688V73.688H94.0238V72.688V71.688H82.1198V72.688ZM94.0238 72.688H95.0238V72.208H94.0238H93.0238V72.688H94.0238ZM94.0238 72.208H95.0238C95.0238 70.4846 94.5723 68.8332 93.4023 67.6106C92.2237 66.3791 90.4633 65.736 88.1678 65.736V66.736V67.736C90.0963 67.736 91.2639 68.2689 91.9574 68.9934C92.6593 69.7268 93.0238 70.8114 93.0238 72.208H94.0238ZM88.2638 61.744V62.744C91.4974 62.744 94.1224 63.7138 95.932 65.438C97.7346 67.1555 98.8318 69.7198 98.8318 73.12H99.8318H100.832C100.832 69.2722 99.5771 66.1485 97.3116 63.99C95.0533 61.8382 91.8942 60.744 88.2638 60.744V61.744ZM99.8318 73.12H98.8318V73.216H99.8318H100.832V73.12H99.8318ZM99.8318 73.216H98.8318C98.8318 74.6745 98.5753 75.3058 98.2469 75.6248C97.9103 75.952 97.245 76.2 95.7518 76.2V77.2V78.2C97.3306 78.2 98.7054 77.968 99.6407 77.0592C100.584 76.1422 100.832 74.7815 100.832 73.216H99.8318ZM95.7518 77.2V76.2H82.1198V77.2V78.2H95.7518V77.2ZM82.1198 77.2H81.1198V77.296H82.1198H83.1198V77.2H82.1198ZM82.1198 77.296H81.1198C81.1198 79.2134 81.732 80.958 83.0389 82.2211C84.3439 83.4824 86.2259 84.152 88.5518 84.152V83.152V82.152C86.6057 82.152 85.2717 81.5976 84.4288 80.7829C83.5877 79.97 83.1198 78.7866 83.1198 77.296H82.1198ZM88.5518 83.152V84.152C91.3664 84.152 93.3337 83.7438 95.5896 82.7184L95.1758 81.808L94.762 80.8976C92.7939 81.7922 91.1132 82.152 88.5518 82.152V83.152ZM95.1758 81.808L95.582 82.7218C96.0276 82.5237 96.4205 82.5235 96.7169 82.6295C97.0042 82.7324 97.2851 82.9643 97.4727 83.4019L98.3918 83.008L99.311 82.6141C98.9225 81.7077 98.2434 81.0516 97.3908 80.7465C96.5471 80.4445 95.62 80.5163 94.7697 80.8942L95.1758 81.808ZM98.3918 83.008L97.4727 83.4019C97.8967 84.3914 97.5923 85.1457 96.9366 85.4736L97.3838 86.368L97.831 87.2624C99.6713 86.3423 100.039 84.3126 99.311 82.6141L98.3918 83.008ZM97.3838 86.368L96.9366 85.4736C94.7079 86.5879 92.0855 87.192 88.3118 87.192V88.192V89.192C92.3141 89.192 95.2597 88.5481 97.831 87.2624L97.3838 86.368ZM88.3118 88.192V87.192C84.6756 87.192 81.9422 86.1887 80.114 84.334C78.284 82.4774 77.2158 79.6207 77.2158 75.616H76.2158H75.2158C75.2158 79.9633 76.3797 83.3946 78.6896 85.738C81.0014 88.0833 84.3161 89.192 88.3118 89.192V88.192ZM76.2158 75.616H77.2158V74.368H76.2158H75.2158V75.616H76.2158ZM76.2158 74.368H77.2158C77.2158 70.3942 78.3043 67.5209 80.146 65.642C81.9853 63.7654 84.7102 62.744 88.2638 62.744V61.744V60.744C84.3295 60.744 81.0303 61.8826 78.7177 64.242C76.4073 66.5991 75.2158 70.0378 75.2158 74.368H76.2158ZM113.273 62.32H112.273V63.32H113.273V62.32ZM113.273 67.312V66.312H112.273V67.312H113.273ZM117.833 82.672L117.517 81.7233L117.509 81.7261L117.5 81.729L117.833 82.672ZM120.521 84.256L119.567 84.5543L119.569 84.562L120.521 84.256ZM119.321 87.376L118.919 86.4607L118.912 86.4638L118.905 86.4669L119.321 87.376ZM107.225 67.312H108.225V66.312H107.225V67.312ZM107.225 62.32V63.32H108.225V62.32H107.225ZM110.249 55.264V56.264C110.886 56.264 111.409 56.4299 111.748 56.6888C112.054 56.922 112.273 57.2737 112.273 57.856H113.273H114.273C114.273 56.6623 113.773 55.718 112.962 55.0992C112.185 54.5061 111.197 54.264 110.249 54.264V55.264ZM113.273 57.856H112.273V62.32H113.273H114.273V57.856H113.273ZM113.273 62.32V63.32H118.313V62.32V61.32H113.273V62.32ZM118.313 62.32V63.32C118.732 63.32 118.962 63.471 119.114 63.6707C119.293 63.9048 119.425 64.2947 119.425 64.816H120.425H121.425C121.425 63.9933 121.222 63.1352 120.704 62.4573C120.161 61.745 119.334 61.32 118.313 61.32V62.32ZM120.425 64.816H119.425C119.425 65.3373 119.293 65.7272 119.114 65.9613C118.962 66.161 118.732 66.312 118.313 66.312V67.312V68.312C119.334 68.312 120.161 67.887 120.704 67.1747C121.222 66.4968 121.425 65.6387 121.425 64.816H120.425ZM118.313 67.312V66.312H113.273V67.312V68.312H118.313V67.312ZM113.273 67.312H112.273V79.984H113.273H114.273V67.312H113.273ZM113.273 79.984H112.273C112.273 81.1161 112.459 82.1529 113.042 82.918C113.671 83.7444 114.604 84.056 115.625 84.056V83.056V82.056C115.015 82.056 114.771 81.8876 114.633 81.706C114.448 81.4631 114.273 80.9639 114.273 79.984H113.273ZM115.625 83.056V84.056C116.504 84.056 117.241 83.9415 118.166 83.615L117.833 82.672L117.5 81.729C116.794 81.9785 116.282 82.056 115.625 82.056V83.056ZM117.833 82.672L118.15 83.6207C118.435 83.5255 118.707 83.5444 118.924 83.6542C119.129 83.7582 119.393 83.9983 119.567 84.5543L120.521 84.256L121.476 83.9577C121.17 82.9777 120.594 82.2578 119.827 81.8698C119.072 81.4876 118.239 81.4825 117.517 81.7233L117.833 82.672ZM120.521 84.256L119.569 84.562C119.729 85.0591 119.709 85.4723 119.597 85.772C119.49 86.0585 119.278 86.3024 118.919 86.4607L119.321 87.376L119.724 88.2913C120.564 87.9216 121.169 87.2775 121.47 86.472C121.766 85.6797 121.746 84.7969 121.473 83.95L120.521 84.256ZM119.321 87.376L118.905 86.4669C117.913 86.9214 116.526 87.192 115.097 87.192V88.192V89.192C116.74 89.192 118.425 88.8866 119.738 88.2851L119.321 87.376ZM115.097 88.192V87.192C112.397 87.192 110.761 86.5134 109.769 85.3886C108.753 84.2361 108.225 82.4086 108.225 79.696H107.225H106.225C106.225 82.5994 106.778 85.0199 108.269 86.7114C109.785 88.4306 112.086 89.192 115.097 89.192V88.192ZM107.225 79.696H108.225V67.312H107.225H106.225V79.696H107.225ZM107.225 67.312V66.312H104.825V67.312V68.312H107.225V67.312ZM104.825 67.312V66.312C104.406 66.312 104.177 66.161 104.024 65.9613C103.846 65.7272 103.713 65.3373 103.713 64.816H102.713H101.713C101.713 65.6387 101.917 66.4968 102.434 67.1747C102.978 67.887 103.804 68.312 104.825 68.312V67.312ZM102.713 64.816H103.713C103.713 64.2947 103.846 63.9048 104.024 63.6707C104.177 63.471 104.406 63.32 104.825 63.32V62.32V61.32C103.804 61.32 102.978 61.745 102.434 62.4573C101.917 63.1352 101.713 63.9933 101.713 64.816H102.713ZM104.825 62.32V63.32H107.225V62.32V61.32H104.825V62.32ZM107.225 62.32H108.225V57.856H107.225H106.225V62.32H107.225ZM107.225 57.856H108.225C108.225 57.2737 108.445 56.922 108.75 56.6888C109.089 56.4299 109.613 56.264 110.249 56.264V55.264V54.264C109.302 54.264 108.313 54.5061 107.536 55.0992C106.726 55.718 106.225 56.6623 106.225 57.856H107.225ZM144.285 64.96L145.259 64.7331L145.257 64.7225L144.285 64.96ZM148.221 81.856L147.248 82.0829L147.428 82.856H148.221V81.856ZM148.413 81.856V82.856H149.221L149.391 82.067L148.413 81.856ZM152.205 64.288L153.183 64.499L153.184 64.4929L152.205 64.288ZM155.757 62.128L155.98 61.1531L155.971 61.1511L155.757 62.128ZM157.821 65.68L158.79 65.9277L158.792 65.9225L157.821 65.68ZM152.925 84.832L153.892 85.0884L153.894 85.0797L152.925 84.832ZM144.381 84.88L143.41 85.1173L143.413 85.1274L144.381 84.88ZM140.781 70.144L141.753 69.9067L141.567 69.144H140.781V70.144ZM140.589 70.144V69.144H139.807L139.619 69.9037L140.589 70.144ZM136.941 84.88L137.91 85.1274L137.912 85.1203L136.941 84.88ZM128.397 84.88L129.366 84.6326L129.366 84.6312L128.397 84.88ZM123.501 65.824L122.531 66.0665L122.533 66.0728L123.501 65.824ZM125.709 62.128L125.508 61.1485L125.498 61.1506L125.709 62.128ZM129.501 64.432L128.52 64.624L128.521 64.6266L129.501 64.432ZM132.957 81.856L131.977 82.0506L132.136 82.856H132.957V81.856ZM133.149 81.856V82.856H133.933L134.121 82.0946L133.149 81.856ZM137.277 65.056L138.249 65.2946L138.251 65.2839L137.277 65.056ZM140.829 62.032V63.032C141.346 63.032 141.86 63.1742 142.286 63.4897C142.702 63.7977 143.099 64.3187 143.314 65.1975L144.285 64.96L145.257 64.7225C144.944 63.4413 144.308 62.4983 143.476 61.8823C142.655 61.2738 141.705 61.032 140.829 61.032V62.032ZM144.285 64.96L143.312 65.1869L147.248 82.0829L148.221 81.856L149.195 81.6291L145.259 64.7331L144.285 64.96ZM148.221 81.856V82.856H148.413V81.856V80.856H148.221V81.856ZM148.413 81.856L149.391 82.067L153.183 64.499L152.205 64.288L151.228 64.077L147.436 81.645L148.413 81.856ZM152.205 64.288L153.184 64.4929C153.348 63.709 153.69 63.3664 154.018 63.2008C154.388 63.0139 154.914 62.9673 155.544 63.1049L155.757 62.128L155.971 61.1511C155.064 60.9527 154.031 60.9541 153.117 61.4152C152.161 61.8976 151.495 62.803 151.227 64.0831L152.205 64.288ZM155.757 62.128L155.535 63.1029C156.184 63.2512 156.554 63.5352 156.746 63.8488C156.937 64.1616 157.045 64.662 156.851 65.4375L157.821 65.68L158.792 65.9225C159.078 64.778 158.994 63.6944 158.453 62.8072C157.912 61.9208 157.011 61.3888 155.98 61.1531L155.757 62.128ZM157.821 65.68L156.853 65.4323L151.957 84.5843L152.925 84.832L153.894 85.0797L158.79 65.9277L157.821 65.68ZM152.925 84.832L151.959 84.5756C151.686 85.6054 151.28 86.1934 150.808 86.5411C150.33 86.8934 149.654 87.096 148.653 87.096V88.096V89.096C149.909 89.096 151.057 88.8426 151.995 88.1509C152.939 87.4546 153.541 86.4106 153.892 85.0884L152.925 84.832ZM148.653 88.096V87.096C147.661 87.096 146.968 86.8849 146.478 86.5267C145.996 86.1748 145.596 85.5966 145.35 84.6326L144.381 84.88L143.413 85.1274C143.742 86.4194 144.351 87.4492 145.297 88.1413C146.235 88.8271 147.39 89.096 148.653 89.096V88.096ZM144.381 84.88L145.353 84.6427L141.753 69.9067L140.781 70.144L139.81 70.3813L143.41 85.1173L144.381 84.88ZM140.781 70.144V69.144H140.589V70.144V71.144H140.781V70.144ZM140.589 70.144L139.619 69.9037L135.971 84.6397L136.941 84.88L137.912 85.1203L141.56 70.3843L140.589 70.144ZM136.941 84.88L135.973 84.6326C135.726 85.5966 135.327 86.1748 134.845 86.5267C134.355 86.8849 133.662 87.096 132.669 87.096V88.096V89.096C133.933 89.096 135.088 88.8271 136.026 88.1413C136.972 87.4492 137.58 86.4194 137.91 85.1274L136.941 84.88ZM132.669 88.096V87.096C131.677 87.096 130.984 86.8849 130.494 86.5267C130.012 86.1748 129.612 85.5966 129.366 84.6326L128.397 84.88L127.429 85.1274C127.758 86.4194 128.367 87.4492 129.313 88.1413C130.251 88.8271 131.406 89.096 132.669 89.096V88.096ZM128.397 84.88L129.366 84.6312L124.47 65.5752L123.501 65.824L122.533 66.0728L127.429 85.1288L128.397 84.88ZM123.501 65.824L124.472 65.5815C124.282 64.8225 124.391 64.2823 124.612 63.9227C124.832 63.5636 125.244 63.2517 125.921 63.1054L125.709 62.128L125.498 61.1506C124.398 61.3883 123.467 61.9644 122.907 62.8772C122.347 63.7897 122.241 64.9055 122.531 66.0665L123.501 65.824ZM125.709 62.128L125.911 63.1075C126.597 62.9662 127.189 63.0128 127.611 63.222C127.985 63.407 128.355 63.7816 128.52 64.624L129.501 64.432L130.483 64.24C130.216 62.8744 129.506 61.929 128.5 61.43C127.542 60.9552 126.454 60.9538 125.508 61.1485L125.709 62.128ZM129.501 64.432L128.521 64.6266L131.977 82.0506L132.957 81.856L133.938 81.6614L130.482 64.2374L129.501 64.432ZM132.957 81.856V82.856H133.149V81.856V80.856H132.957V81.856ZM133.149 81.856L134.121 82.0946L138.249 65.2946L137.277 65.056L136.306 64.8174L132.178 81.6174L133.149 81.856ZM137.277 65.056L138.251 65.2839C138.468 64.3585 138.877 63.8189 139.305 63.5025C139.745 63.1777 140.282 63.032 140.829 63.032V62.032V61.032C139.936 61.032 138.962 61.2703 138.117 61.8935C137.262 62.5251 136.615 63.4975 136.304 64.8281L137.277 65.056ZM174.053 61.744V62.744C177.758 62.744 180.568 63.7816 182.454 65.6671C184.339 67.5522 185.437 70.4225 185.437 74.368H186.437H187.437C187.437 70.0575 186.231 66.6158 183.868 64.2529C181.506 61.8904 178.124 60.744 174.053 60.744V61.744ZM186.437 74.368H185.437V75.568H186.437H187.437V74.368H186.437ZM186.437 75.568H185.437C185.437 79.5135 184.339 82.3838 182.454 84.2689C180.568 86.1544 177.758 87.192 174.053 87.192V88.192V89.192C178.124 89.192 181.506 88.0456 183.868 85.6831C186.231 83.3202 187.437 79.8785 187.437 75.568H186.437ZM174.053 88.192V87.192C170.348 87.192 167.538 86.1544 165.652 84.2689C163.767 82.3838 162.669 79.5135 162.669 75.568H161.669H160.669C160.669 79.8785 161.875 83.3202 164.238 85.6831C166.6 88.0456 169.982 89.192 174.053 89.192V88.192ZM161.669 75.568H162.669V74.368H161.669H160.669V75.568H161.669ZM161.669 74.368H162.669C162.669 70.4225 163.767 67.5522 165.652 65.6671C167.538 63.7816 170.348 62.744 174.053 62.744V61.744V60.744C169.982 60.744 166.6 61.8904 164.238 64.2529C161.875 66.6158 160.669 70.0575 160.669 74.368H161.669ZM174.053 67.024V66.024C171.726 66.024 169.818 66.6359 168.528 68.1517C167.268 69.6306 166.765 71.7793 166.765 74.464H167.765H168.765C168.765 71.9647 169.246 70.3934 170.05 69.4483C170.824 68.5401 172.06 68.024 174.053 68.024V67.024ZM167.765 74.464H166.765V75.472H167.765H168.765V74.464H167.765ZM167.765 75.472H166.765C166.765 78.1567 167.268 80.3054 168.528 81.7843C169.818 83.3001 171.726 83.912 174.053 83.912V82.912V81.912C172.06 81.912 170.824 81.3959 170.05 80.4877C169.246 79.5426 168.765 77.9713 168.765 75.472H167.765ZM174.053 82.912V83.912C176.38 83.912 178.288 83.3001 179.578 81.7843C180.838 80.3054 181.341 78.1567 181.341 75.472H180.341H179.341C179.341 77.9713 178.86 79.5426 178.056 80.4877C177.282 81.3959 176.046 81.912 174.053 81.912V82.912ZM180.341 75.472H181.341V74.464H180.341H179.341V75.472H180.341ZM180.341 74.464H181.341C181.341 71.7793 180.838 69.6306 179.578 68.1517C178.288 66.6359 176.38 66.024 174.053 66.024V67.024V68.024C176.046 68.024 177.282 68.5401 178.056 69.4483C178.86 70.3934 179.341 71.9647 179.341 74.464H180.341ZM207.672 62.272L207.168 63.1358L207.182 63.1438L207.196 63.1513L207.672 62.272ZM208.92 65.296L209.903 65.4819L209.904 65.4718L208.92 65.296ZM205.896 67.888L206.092 66.9074L206.081 66.9052L206.07 66.9032L205.896 67.888ZM198.072 66.16H197.072V67.16H198.072V66.16ZM198.168 66.16V67.16H198.781L199.059 66.6137L198.168 66.16ZM205.08 61.744V62.744C206.101 62.744 206.81 62.9268 207.168 63.1358L207.672 62.272L208.176 61.4082C207.382 60.9452 206.267 60.744 205.08 60.744V61.744ZM207.672 62.272L207.196 63.1513C207.586 63.3627 207.783 63.61 207.886 63.8759C207.997 64.1626 208.035 64.5642 207.936 65.1202L208.92 65.296L209.904 65.4718C210.045 64.6838 210.035 63.8854 209.75 63.1521C209.458 62.398 208.91 61.8053 208.148 61.3927L207.672 62.272ZM208.92 65.296L207.938 65.1101C207.66 66.5757 206.777 67.0444 206.092 66.9074L205.896 67.888L205.7 68.8686C207.895 69.3076 209.508 67.5683 209.903 65.4819L208.92 65.296ZM205.896 67.888L206.07 66.9032C205.657 66.8303 205.36 66.7536 204.889 66.6609C204.469 66.578 203.999 66.504 203.496 66.504V67.504V68.504C203.809 68.504 204.131 68.55 204.503 68.6231C204.824 68.6864 205.32 68.8017 205.722 68.8728L205.896 67.888ZM203.496 67.504V66.504C199.947 66.504 197.312 69.4232 197.312 73.12H198.312H199.312C199.312 70.3848 201.189 68.504 203.496 68.504V67.504ZM198.312 73.12H197.312V85.552H198.312H199.312V73.12H198.312ZM198.312 85.552H197.312C197.312 86.1006 197.101 86.4412 196.793 86.673C196.451 86.93 195.924 87.096 195.288 87.096V88.096V89.096C196.236 89.096 197.221 88.854 197.995 88.271C198.803 87.6628 199.312 86.7314 199.312 85.552H198.312ZM195.288 88.096V87.096C194.681 87.096 194.15 86.9323 193.797 86.67C193.478 86.4318 193.264 86.0887 193.264 85.552H192.264H191.264C191.264 86.7433 191.795 87.6722 192.603 88.274C193.378 88.8517 194.359 89.096 195.288 89.096V88.096ZM192.264 85.552H193.264V64.48H192.264H191.264V85.552H192.264ZM192.264 64.48H193.264C193.264 63.954 193.465 63.6379 193.747 63.4249C194.065 63.1861 194.556 63.032 195.144 63.032V62.032V61.032C194.244 61.032 193.295 61.2619 192.545 61.8271C191.76 62.4181 191.264 63.326 191.264 64.48H192.264ZM195.144 62.032V63.032C195.762 63.032 196.265 63.1888 196.587 63.4281C196.872 63.6407 197.072 63.9548 197.072 64.48H198.072H199.072C199.072 63.3252 198.576 62.4153 197.781 61.8239C197.023 61.2592 196.062 61.032 195.144 61.032V62.032ZM198.072 64.48H197.072V66.16H198.072H199.072V64.48H198.072ZM198.072 66.16V67.16H198.168V66.16V65.16H198.072V66.16ZM198.168 66.16L199.059 66.6137C200.253 64.2697 202.522 62.744 205.08 62.744V61.744V60.744C201.686 60.744 198.772 62.7703 197.277 65.7063L198.168 66.16ZM219.546 73.072H218.546V75.4624L220.249 73.7841L219.546 73.072ZM229.866 62.896L230.569 63.6081L230.574 63.6031L229.866 62.896ZM234.042 62.992L234.791 62.3294L234.786 62.3228L234.78 62.3163L234.042 62.992ZM233.946 66.976L233.284 66.227L233.275 66.2347L233.946 66.976ZM226.842 73.408L226.171 72.6667L225.453 73.3167L226.08 74.0551L226.842 73.408ZM235.194 83.248L234.432 83.8951L234.435 83.8988L235.194 83.248ZM234.762 87.28L234.119 86.5143L234.114 86.5188L234.762 87.28ZM230.538 87.088L231.325 86.4701L231.317 86.4601L230.538 87.088ZM222.522 77.152L223.301 76.5241L222.637 75.7012L221.852 76.4099L222.522 77.152ZM219.546 79.84L218.876 79.0979L218.546 79.3957V79.84H219.546ZM216.522 52.192V53.192C217.159 53.192 217.686 53.358 218.027 53.615C218.335 53.8468 218.546 54.1874 218.546 54.736H219.546H220.546C220.546 53.5566 220.038 52.6252 219.23 52.017C218.455 51.434 217.47 51.192 216.522 51.192V52.192ZM219.546 54.736H218.546V73.072H219.546H220.546V54.736H219.546ZM219.546 73.072L220.249 73.7841L230.569 63.6081L229.866 62.896L229.164 62.1839L218.844 72.3599L219.546 73.072ZM229.866 62.896L230.574 63.6031C231.347 62.8295 232.611 62.9102 233.305 63.6677L234.042 62.992L234.78 62.3163C233.362 60.7698 230.786 60.5625 229.159 62.1889L229.866 62.896ZM234.042 62.992L233.293 63.6546C233.709 64.124 233.88 64.6123 233.876 65.0295C233.873 65.432 233.708 65.852 233.284 66.227L233.946 66.976L234.609 67.725C235.433 66.996 235.868 66.048 235.876 65.0465C235.885 64.0596 235.48 63.108 234.791 62.3294L234.042 62.992ZM233.946 66.976L233.275 66.2347L226.171 72.6667L226.842 73.408L227.514 74.1493L234.618 67.7173L233.946 66.976ZM226.842 73.408L226.08 74.0551L234.432 83.8951L235.194 83.248L235.957 82.6009L227.605 72.7609L226.842 73.408ZM235.194 83.248L234.435 83.8988C234.828 84.3572 234.931 84.826 234.87 85.2486C234.807 85.6902 234.554 86.1489 234.119 86.5143L234.762 87.28L235.406 88.0457C236.171 87.4031 236.709 86.5178 236.85 85.5314C236.994 84.526 236.713 83.4828 235.954 82.5972L235.194 83.248ZM234.762 87.28L234.114 86.5188C233.135 87.3528 231.943 87.257 231.325 86.4702L230.538 87.088L229.752 87.7058C231.246 89.607 233.798 89.4152 235.411 88.0412L234.762 87.28ZM230.538 87.088L231.317 86.4601L223.301 76.5241L222.522 77.152L221.744 77.7799L229.76 87.7159L230.538 87.088ZM222.522 77.152L221.852 76.4099L218.876 79.0979L219.546 79.84L220.217 80.5821L223.193 77.8941L222.522 77.152ZM219.546 79.84H218.546V85.552H219.546H220.546V79.84H219.546ZM219.546 85.552H218.546C218.546 86.1006 218.335 86.4412 218.027 86.673C217.686 86.93 217.159 87.096 216.522 87.096V88.096V89.096C217.47 89.096 218.455 88.854 219.23 88.271C220.038 87.6628 220.546 86.7314 220.546 85.552H219.546ZM216.522 88.096V87.096C215.915 87.096 215.384 86.9323 215.032 86.67C214.712 86.4318 214.498 86.0887 214.498 85.552H213.498H212.498C212.498 86.7433 213.029 87.6722 213.837 88.274C214.613 88.8517 215.594 89.096 216.522 89.096V88.096ZM213.498 85.552H214.498V54.736H213.498H212.498V85.552H213.498ZM213.498 54.736H214.498C214.498 54.1993 214.712 53.8562 215.032 53.618C215.384 53.3557 215.915 53.192 216.522 53.192V52.192V51.192C215.594 51.192 214.613 51.4363 213.837 52.014C213.029 52.6158 212.498 53.5447 212.498 54.736H213.498ZM244.604 62.032V63.032C245.24 63.032 245.767 63.198 246.109 63.455C246.417 63.6868 246.628 64.0274 246.628 64.576H247.628H248.628C248.628 63.3966 248.119 62.4652 247.311 61.857C246.537 61.274 245.552 61.032 244.604 61.032V62.032ZM247.628 64.576H246.628V85.552H247.628H248.628V64.576H247.628ZM247.628 85.552H246.628C246.628 86.1006 246.417 86.4412 246.109 86.673C245.767 86.93 245.24 87.096 244.604 87.096V88.096V89.096C245.552 89.096 246.537 88.854 247.311 88.271C248.119 87.6628 248.628 86.7314 248.628 85.552H247.628ZM244.604 88.096V87.096C243.997 87.096 243.466 86.9323 243.113 86.67C242.793 86.4318 242.58 86.0887 242.58 85.552H241.58H240.58C240.58 86.7433 241.11 87.6722 241.919 88.274C242.694 88.8517 243.675 89.096 244.604 89.096V88.096ZM241.58 85.552H242.58V64.576H241.58H240.58V85.552H241.58ZM241.58 64.576H242.58C242.58 64.0393 242.793 63.6962 243.113 63.458C243.466 63.1957 243.997 63.032 244.604 63.032V62.032V61.032C243.675 61.032 242.694 61.2763 241.919 61.854C241.11 62.4558 240.58 63.3847 240.58 64.576H241.58ZM244.604 52.096V53.096C246.198 53.096 247.396 54.3136 247.396 55.744H248.396H249.396C249.396 53.1423 247.234 51.096 244.604 51.096V52.096ZM248.396 55.744H247.396C247.396 57.1743 246.198 58.392 244.604 58.392V59.392V60.392C247.234 60.392 249.396 58.3456 249.396 55.744H248.396ZM244.604 59.392V58.392C243.01 58.392 241.812 57.1743 241.812 55.744H240.812H239.812C239.812 58.3456 241.974 60.392 244.604 60.392V59.392ZM240.812 55.744H241.812C241.812 54.3136 243.01 53.096 244.604 53.096V52.096V51.096C241.974 51.096 239.812 53.1423 239.812 55.744H240.812ZM260.743 65.344H259.743V66.344H260.743V65.344ZM260.839 65.344V66.344H261.407L261.698 65.8561L260.839 65.344ZM268.615 61.744V62.744C271.197 62.744 273.219 63.5191 274.596 64.9272C275.975 66.3371 276.831 68.5068 276.831 71.536H277.831H278.831C278.831 68.1332 277.863 65.4069 276.026 63.5288C274.187 61.6489 271.6 60.744 268.615 60.744V61.744ZM277.831 71.536H276.831V85.552H277.831H278.831V71.536H277.831ZM277.831 85.552H276.831C276.831 86.1006 276.619 86.4412 276.311 86.673C275.97 86.93 275.443 87.096 274.807 87.096V88.096V89.096C275.755 89.096 276.74 88.854 277.514 88.271C278.322 87.6628 278.831 86.7314 278.831 85.552H277.831ZM274.807 88.096V87.096C274.2 87.096 273.668 86.9323 273.316 86.67C272.996 86.4318 272.783 86.0887 272.783 85.552H271.783H270.783C270.783 86.7433 271.313 87.6722 272.122 88.274C272.897 88.8517 273.878 89.096 274.807 89.096V88.096ZM271.783 85.552H272.783V72.832H271.783H270.783V85.552H271.783ZM271.783 72.832H272.783C272.783 70.393 272.213 68.6246 271.04 67.4834C269.87 66.3446 268.298 66.024 266.743 66.024V67.024V68.024C268.068 68.024 269.015 68.3034 269.645 68.9166C270.273 69.5274 270.783 70.663 270.783 72.832H271.783ZM266.743 67.024V66.024C265.343 66.024 263.666 66.4328 262.321 67.5762C260.945 68.7462 260.031 70.5893 260.031 73.216H261.031H262.031C262.031 71.0907 262.749 69.8378 263.617 69.0998C264.516 68.3352 265.695 68.024 266.743 68.024V67.024ZM261.031 73.216H260.031V85.552H261.031H262.031V73.216H261.031ZM261.031 85.552H260.031C260.031 86.1006 259.819 86.4412 259.511 86.673C259.17 86.93 258.643 87.096 258.007 87.096V88.096V89.096C258.955 89.096 259.94 88.854 260.714 88.271C261.522 87.6628 262.031 86.7314 262.031 85.552H261.031ZM258.007 88.096V87.096C257.4 87.096 256.868 86.9323 256.516 86.67C256.196 86.4318 255.983 86.0887 255.983 85.552H254.983H253.983C253.983 86.7433 254.513 87.6722 255.322 88.274C256.097 88.8517 257.078 89.096 258.007 89.096V88.096ZM254.983 85.552H255.983V64.48H254.983H253.983V85.552H254.983ZM254.983 64.48H255.983C255.983 63.954 256.183 63.6379 256.466 63.4249C256.784 63.1861 257.274 63.032 257.863 63.032V62.032V61.032C256.963 61.032 256.014 61.2619 255.263 61.8271C254.478 62.4181 253.983 63.326 253.983 64.48H254.983ZM257.863 62.032V63.032C258.451 63.032 258.942 63.1861 259.259 63.4249C259.542 63.6379 259.743 63.954 259.743 64.48H260.743H261.743C261.743 63.326 261.247 62.4181 260.462 61.8271C259.712 61.2619 258.762 61.032 257.863 61.032V62.032ZM260.743 64.48H259.743V65.344H260.743H261.743V64.48H260.743ZM260.743 65.344V66.344H260.839V65.344V64.344H260.743V65.344ZM260.839 65.344L261.698 65.8561C262.923 63.8005 265.842 62.744 268.615 62.744V61.744V60.744C265.532 60.744 261.73 61.8955 259.98 64.8319L260.839 65.344ZM301.115 64.624L300.299 65.202L300.598 65.624H301.115V64.624ZM301.163 64.624V65.624H302.163V64.624H301.163ZM286.907 96.16L287.401 95.2903L287.393 95.2858L286.907 96.16ZM286.187 92.56L285.319 92.0638L285.315 92.0714L286.187 92.56ZM289.499 91.408L289.96 90.5202L289.953 90.5169L289.947 90.5136L289.499 91.408ZM301.019 84.064H302.019V83.064H301.019V84.064ZM300.923 84.064V83.064H300.331L300.046 83.584L300.923 84.064ZM293.963 61.744V62.744C297.797 62.744 299.688 64.3384 300.299 65.202L301.115 64.624L301.931 64.046C300.911 62.6055 298.385 60.744 293.963 60.744V61.744ZM301.115 64.624V65.624H301.163V64.624V63.624H301.115V64.624ZM301.163 64.624H302.163V64.48H301.163H300.163V64.624H301.163ZM301.163 64.48H302.163C302.163 63.9548 302.363 63.6407 302.648 63.4281C302.97 63.1888 303.473 63.032 304.091 63.032V62.032V61.032C303.174 61.032 302.213 61.2592 301.454 61.8239C300.66 62.4153 300.163 63.3252 300.163 64.48H301.163ZM304.091 62.032V63.032C304.68 63.032 305.171 63.1861 305.488 63.4249C305.771 63.6379 305.971 63.954 305.971 64.48H306.971H307.971C307.971 63.326 307.476 62.4181 306.691 61.8271C305.94 61.2619 304.991 61.032 304.091 61.032V62.032ZM306.971 64.48H305.971V87.088H306.971H307.971V64.48H306.971ZM306.971 87.088H305.971C305.971 90.5862 305.038 92.9994 303.262 94.5636C301.46 96.1513 298.603 97.032 294.395 97.032V98.032V99.032C298.828 99.032 302.259 98.1127 304.584 96.0644C306.936 93.9926 307.971 90.9338 307.971 87.088H306.971ZM294.395 98.032V97.032C291.783 97.032 289.025 96.2121 287.401 95.2903L286.907 96.16L286.414 97.0297C288.342 98.1239 291.44 99.032 294.395 99.032V98.032ZM286.907 96.16L287.393 95.2858C287.054 95.0976 286.86 94.7893 286.798 94.3873C286.732 93.9649 286.824 93.4693 287.06 93.0486L286.187 92.56L285.315 92.0714C284.878 92.8507 284.682 93.7951 284.821 94.6927C284.963 95.6107 285.465 96.5024 286.422 97.0342L286.907 96.16ZM286.187 92.56L287.056 93.0561C287.373 92.5008 287.688 92.2433 287.947 92.1446C288.178 92.0568 288.519 92.0358 289.052 92.3024L289.499 91.408L289.947 90.5136C289.04 90.0602 288.109 89.9432 287.236 90.2754C286.391 90.5967 285.77 91.2752 285.319 92.0639L286.187 92.56ZM289.499 91.408L289.039 92.2958C290.402 93.0025 292.536 93.8 294.491 93.8V92.8V91.8C292.991 91.8 291.189 91.1575 289.96 90.5202L289.499 91.408ZM294.491 92.8V93.8C296.729 93.8 298.643 93.3652 300.004 92.2131C301.399 91.0313 302.019 89.2627 302.019 87.04H301.019H300.019C300.019 88.8973 299.512 90.0087 298.711 90.6869C297.875 91.3948 296.526 91.8 294.491 91.8V92.8ZM301.019 87.04H302.019V84.064H301.019H300.019V87.04H301.019ZM301.019 84.064V83.064H300.923V84.064V85.064H301.019V84.064ZM300.923 84.064L300.046 83.584C298.916 85.6491 296.559 86.52 293.531 86.52V87.52V88.52C296.839 88.52 300.147 87.5669 301.801 84.544L300.923 84.064ZM293.531 87.52V86.52C290.428 86.52 288.197 85.5154 286.716 83.7015C285.207 81.8533 284.355 79.0187 284.355 75.136H283.355H282.355C282.355 79.2693 283.256 82.6267 285.167 84.9665C287.105 87.3406 289.962 88.52 293.531 88.52V87.52ZM283.355 75.136H284.355V74.176H283.355H282.355V75.136H283.355ZM283.355 74.176H284.355C284.355 70.2597 285.368 67.4163 287.013 65.564C288.645 63.7263 291.004 62.744 293.963 62.744V61.744V60.744C290.538 60.744 287.594 61.8977 285.518 64.236C283.454 66.5597 282.355 69.9323 282.355 74.176H283.355ZM294.971 66.928V65.928C292.823 65.928 291.093 66.6781 289.939 68.2265C288.825 69.7215 288.355 71.8209 288.355 74.32H289.355H290.355C290.355 72.0191 290.797 70.4225 291.543 69.4215C292.249 68.4739 293.327 67.928 294.971 67.928V66.928ZM289.355 74.32H288.355V74.992H289.355H290.355V74.32H289.355ZM289.355 74.992H288.355C288.355 77.538 288.769 79.6391 289.825 81.1221C290.931 82.6758 292.618 83.384 294.731 83.384V82.384V81.384C293.101 81.384 292.099 80.8682 291.454 79.9619C290.758 78.9849 290.355 77.39 290.355 74.992H289.355ZM294.731 82.384V83.384C296.979 83.384 298.827 82.5636 300.106 81.1702C301.375 79.7881 302.019 77.9143 302.019 75.904H301.019H300.019C300.019 77.4937 299.512 78.8599 298.633 79.8178C297.764 80.7644 296.467 81.384 294.731 81.384V82.384ZM301.019 75.904H302.019V72.16H301.019H300.019V75.904H301.019ZM301.019 72.16H302.019C302.019 70.6891 301.459 69.1236 300.273 67.9232C299.073 66.7092 297.294 65.928 294.971 65.928V66.928V67.928C296.824 67.928 298.069 68.5388 298.85 69.3288C299.644 70.1324 300.019 71.1829 300.019 72.16H301.019Z" fill="white" mask="url(#path-8-outside-2_521_2967)"/>
<path opacity="0.4" d="M0 153H315" stroke="white"/>
<defs>
<filter id="filter0_g_521_2967" x="12.2061" y="10.6667" width="96.1509" height="98.2309" filterUnits="userSpaceOnUse" color-interpolation-filters="sRGB">
<feFlood flood-opacity="0" result="BackgroundImageFix"/>
<feBlend mode="normal" in="SourceGraphic" in2="BackgroundImageFix" result="shape"/>
<feTurbulence type="fractalNoise" baseFrequency="0.83333331346511841 0.83333331346511841" numOctaves="3" seed="5017" />
<feDisplacementMap in="shape" scale="4" xChannelSelector="R" yChannelSelector="G" result="displacedImage" width="100%" height="100%" />
<feMerge result="effect1_texture_521_2967">
<feMergeNode in="displacedImage"/>
</feMerge>
</filter>
<filter id="filter1_g_521_2967" x="252.172" y="8.89722" width="36.8047" height="36.2473" filterUnits="userSpaceOnUse" color-interpolation-filters="sRGB">
<feFlood flood-opacity="0" result="BackgroundImageFix"/>
<feBlend mode="normal" in="SourceGraphic" in2="BackgroundImageFix" result="shape"/>
<feTurbulence type="fractalNoise" baseFrequency="0.83333331346511841 0.83333331346511841" numOctaves="3" seed="5017" />
<feDisplacementMap in="shape" scale="4" xChannelSelector="R" yChannelSelector="G" result="displacedImage" width="100%" height="100%" />
<feMerge result="effect1_texture_521_2967">
<feMergeNode in="displacedImage"/>
</feMerge>
</filter>
</defs>
</svg>
