<?xml version="1.0" encoding="UTF-8" standalone="no"?>
<!-- Created with Inkscape (http://www.inkscape.org/) -->

<svg
   version="1.1"
   id="svg1"
   width="164.36"
   height="166.30667"
   viewBox="0 0 164.36 166.30667"
   sodipodi:docname="pseudo-lab-logo-no-text.eps"
   xmlns:inkscape="http://www.inkscape.org/namespaces/inkscape"
   xmlns:sodipodi="http://sodipodi.sourceforge.net/DTD/sodipodi-0.dtd"
   xmlns="http://www.w3.org/2000/svg"
   xmlns:svg="http://www.w3.org/2000/svg">
  <defs
     id="defs1" />
  <sodipodi:namedview
     id="namedview1"
     pagecolor="#ffffff"
     bordercolor="#000000"
     borderopacity="0.25"
     inkscape:showpageshadow="2"
     inkscape:pageopacity="0.0"
     inkscape:pagecheckerboard="0"
     inkscape:deskcolor="#d1d1d1">
    <inkscape:page
       x="0"
       y="0"
       inkscape:label="1"
       id="page1"
       width="164.36"
       height="166.30667"
       margin="0"
       bleed="0" />
  </sodipodi:namedview>
  <g
     id="g1"
     inkscape:groupmode="layer"
     inkscape:label="1">
    <g
       id="group-R5">
      <path
         id="path2"
         d="m 917.301,623.699 c -33.602,-10.597 -65.5,-24.898 -95.301,-42.597 -6.801,-4 -13.602,-8.204 -20.098,-12.602 -6.601,-4.301 -13.101,-8.898 -19.402,-13.5 -37,-27.398 -69.801,-60.199 -97.199,-97.199 -4.703,-6.301 -9.199,-12.801 -13.602,-19.5 -4.398,-6.5 -8.601,-13.199 -12.5,-20 -17.699,-29.801 -32.097,-61.903 -42.801,-95.602 -10.597,33.699 -25,65.699 -42.796,95.5 -3.903,6.801 -8.102,13.5 -12.5,20 -4.403,6.699 -8.903,13.199 -13.602,19.602 -27.398,37 -60.199,69.699 -97.199,97.097 -6.301,4.704 -12.699,9.204 -19.301,13.5 -6.598,4.5 -13.398,8.704 -20.301,12.704 -29.699,17.699 -61.597,32 -95.199,42.597 33.602,10.602 65.5,24.903 95.199,42.602 6.903,4 13.602,8.199 20.199,12.699 6.602,4.301 13.102,8.801 19.403,13.5 37,27.301 69.801,60 97.199,97 4.699,6.398 9.301,12.898 13.602,19.602 4.398,6.5 8.597,13.199 12.5,20 17.796,29.796 32.199,61.796 42.796,95.398 10.704,-33.699 25.102,-65.699 42.801,-95.5 3.899,-6.801 8.102,-13.398 12.5,-19.898 4.301,-6.704 8.899,-13.204 13.602,-19.602 27.398,-37 60.199,-69.699 97.199,-97.102 6.301,-4.597 12.801,-9.199 19.402,-13.5 6.496,-4.398 13.297,-8.597 20.098,-12.597 29.801,-17.699 61.699,-32 95.301,-42.602 z m -185.5,-175.398 c 17.898,22 38.097,42.199 60.101,60.097 8.598,-33.398 20.996,-66 37.098,-97.199 -30.801,16.102 -63.402,28.5 -97.199,37.102 z M 403.699,411.102 c 16.199,31.199 28.602,63.898 37.102,97.296 22,-17.898 42.199,-38.097 60.097,-60.097 -33.796,-8.602 -66.296,-21.102 -97.199,-37.199 z M 500.898,799 c -17.898,-22 -38,-42.102 -60,-60 -8.597,33.398 -21,66 -37.097,97.102 C 434.602,820 467.102,807.602 500.898,799 Z M 829,836.102 C 812.898,805 800.5,772.398 791.902,738.898 769.898,756.801 749.699,777 731.801,799 c 33.797,8.602 66.398,21 97.199,37.102 z M 942.102,919.301 1232.7,1209.9 1202.6,1240 912,949.301 c -39.398,-39.5 -85.398,-70.102 -135.5,-90.801 -23.199,-9.602 -47.199,-17.102 -71.898,-22.301 -42.403,65.403 -67,143.301 -67,226.801 v 184.3 h -42.5 V 1063 c 0,-41.8 -6.102,-82.102 -17.602,-120.199 -11.5,-38.102 -28.199,-73.903 -49.402,-106.602 -77.996,16.699 -149.7,55.5 -207.399,113.199 l -30,-30.097 c 59,-59 96.602,-131.403 112.903,-207.5 C 338.199,669.5 260.398,644.898 177,644.898 v -42.5 c 83.398,0 161.199,-24.597 226.5,-66.898 C 387.301,459.398 349.699,387 290.598,328 L 0,37.3008 30.1016,7.30078 320.699,297.898 c 39.5,39.5 85.5,70.102 135.602,90.903 23.101,9.597 47.199,17 71.797,22.301 42.402,-65.403 67.004,-143.204 67.004,-226.801 V 0 h 42.5 v 184.301 c 0,83.597 24.597,161.398 67,226.801 C 782.699,394.5 854.301,355.699 912,298 l 30.102,30 c -59.004,59 -96.704,131.398 -112.903,207.5 65.301,42.301 143.102,66.898 226.501,66.898 v 42.5 c -83.399,0 -161.2,24.602 -226.501,66.903 16.199,76.097 53.899,148.5 112.903,207.5"
         style="fill:#211d1d;fill-opacity:1;fill-rule:nonzero;stroke:none"
         transform="matrix(0.13333333,0,0,-0.13333333,0,166.30667)" />
    </g>
  </g>
</svg>
